<?xml version="1.0" encoding="utf-8"?>
<!-- Generator: Adobe Illustrator 16.0.0, SVG Export Plug-In . SVG Version: 6.00 Build 0)  -->
<!DOCTYPE svg PUBLIC "-//W3C//DTD SVG 1.1//EN" "http://www.w3.org/Graphics/SVG/1.1/DTD/svg11.dtd">
<svg version="1.1" id="Layer_1" xmlns="http://www.w3.org/2000/svg" xmlns:xlink="http://www.w3.org/1999/xlink" x="0px" y="0px"
	 width="53.982px" height="38.045px" viewBox="0 0 53.982 38.045" enable-background="new 0 0 53.982 38.045" xml:space="preserve">
<g>
	<g>
		
			<path fill-rule="evenodd" clip-rule="evenodd" fill="none" stroke="#231F20" stroke-width="2" stroke-linecap="round" stroke-linejoin="round" stroke-miterlimit="10" d="
			M36.096,31.864c0,0,0.281,2.67,0.281,3.084c0,1.158-4.219,2.098-9.422,2.098s-9.422-0.939-9.422-2.098s0.039-2.986,0.039-2.986"/>
		
			<path fill-rule="evenodd" clip-rule="evenodd" fill="none" stroke="#231F20" stroke-width="2" stroke-linecap="round" stroke-linejoin="round" stroke-miterlimit="10" d="
			M36.096,27.881c0,0,0.281,2.672,0.281,3.086c0,1.158-4.219,2.096-9.422,2.096s-9.422-0.938-9.422-2.096s0.039-2.986,0.039-2.986"
			/>
		
			<path fill-rule="evenodd" clip-rule="evenodd" fill="none" stroke="#231F20" stroke-width="2" stroke-linecap="round" stroke-linejoin="round" stroke-miterlimit="10" d="
			M36.096,23.901c0,0,0.281,2.67,0.281,3.084c0,1.158-4.219,2.098-9.422,2.098s-9.422-0.939-9.422-2.098s0.039-2.986,0.039-2.986"/>
		
			<path fill-rule="evenodd" clip-rule="evenodd" fill="none" stroke="#231F20" stroke-width="2" stroke-linecap="round" stroke-linejoin="round" stroke-miterlimit="10" d="
			M36.096,19.919c0,0,0.281,2.671,0.281,3.085c0,1.159-4.219,2.096-9.422,2.096s-9.422-0.938-9.422-2.096
			c0-1.158,0.039-2.986,0.039-2.986"/>
		
			<path fill-rule="evenodd" clip-rule="evenodd" fill="none" stroke="#231F20" stroke-width="2" stroke-linecap="round" stroke-linejoin="round" stroke-miterlimit="10" d="
			M36.096,15.938c0,0,0.281,2.671,0.281,3.085c0,1.158-4.219,2.098-9.422,2.098s-9.422-0.939-9.422-2.098s0.039-2.986,0.039-2.986"
			/>
		
			<path fill-rule="evenodd" clip-rule="evenodd" fill="none" stroke="#231F20" stroke-width="2" stroke-linecap="round" stroke-linejoin="round" stroke-miterlimit="10" d="
			M36.096,11.956c0,0,0.281,2.671,0.281,3.085c0,1.158-4.219,2.098-9.422,2.098s-9.422-0.939-9.422-2.098s0.039-2.986,0.039-2.986"
			/>
		
			<path fill-rule="evenodd" clip-rule="evenodd" fill="none" stroke="#231F20" stroke-width="2" stroke-linecap="round" stroke-linejoin="round" stroke-miterlimit="10" d="
			M36.096,7.975c0,0,0.281,2.671,0.281,3.085c0,1.158-4.219,2.098-9.422,2.098s-9.422-0.939-9.422-2.098s0.039-2.985,0.039-2.985"/>
		
			<path fill-rule="evenodd" clip-rule="evenodd" fill="none" stroke="#231F20" stroke-width="2" stroke-linecap="round" stroke-linejoin="round" stroke-miterlimit="10" d="
			M36.096,3.993c0,0,0.281,2.671,0.281,3.085c0,1.158-4.219,2.098-9.422,2.098s-9.422-0.939-9.422-2.098s0.039-2.985,0.039-2.985"/>
		
			<path fill-rule="evenodd" clip-rule="evenodd" fill="none" stroke="#231F20" stroke-width="2" stroke-linecap="round" stroke-linejoin="round" stroke-miterlimit="10" d="
			M26.955,1c5.203,0,9.422,0.938,9.422,2.097s-4.219,2.098-9.422,2.098s-9.422-0.939-9.422-2.098S21.752,1,26.955,1z"/>
	</g>
	<g>
		
			<path fill-rule="evenodd" clip-rule="evenodd" fill="none" stroke="#231F20" stroke-width="2" stroke-linecap="round" stroke-linejoin="round" stroke-miterlimit="10" d="
			M52.701,27.989c0,0,0.281,2.671,0.281,3.085c0,1.158-4.219,2.097-9.422,2.097c-3.008,0-5.688-0.313-7.413-0.803"/>
		
			<path fill-rule="evenodd" clip-rule="evenodd" fill="none" stroke="#231F20" stroke-width="2" stroke-linecap="round" stroke-linejoin="round" stroke-miterlimit="10" d="
			M52.701,24.007c0,0,0.281,2.671,0.281,3.085c0,1.158-4.219,2.098-9.422,2.098c-3.014,0-5.697-0.314-7.422-0.806"/>
		
			<path fill-rule="evenodd" clip-rule="evenodd" fill="none" stroke="#231F20" stroke-width="2" stroke-linecap="round" stroke-linejoin="round" stroke-miterlimit="10" d="
			M52.701,20.026c0,0,0.281,2.671,0.281,3.085c0,1.158-4.219,2.098-9.422,2.098c-3.008,0-5.688-0.313-7.413-0.803"/>
		
			<path fill-rule="evenodd" clip-rule="evenodd" fill="none" stroke="#231F20" stroke-width="2" stroke-linecap="round" stroke-linejoin="round" stroke-miterlimit="10" d="
			M52.701,16.044c0,0,0.281,2.671,0.281,3.085c0,1.158-4.219,2.098-9.422,2.098c-3.008,0-5.688-0.314-7.413-0.803"/>
		
			<path fill-rule="evenodd" clip-rule="evenodd" fill="none" stroke="#231F20" stroke-width="2" stroke-linecap="round" stroke-linejoin="round" stroke-miterlimit="10" d="
			M52.701,12.063c0,0,0.281,2.671,0.281,3.085c0,1.158-4.219,2.098-9.422,2.098c-3.008,0-5.688-0.314-7.413-0.803"/>
		
			<path fill-rule="evenodd" clip-rule="evenodd" fill="none" stroke="#231F20" stroke-width="2" stroke-linecap="round" stroke-linejoin="round" stroke-miterlimit="10" d="
			M36.281,9.835c1.729-0.468,4.348-0.766,7.279-0.766c5.203,0,9.422,0.938,9.422,2.097s-4.219,2.098-9.422,2.098
			c-3.008,0-5.688-0.314-7.413-0.804"/>
	</g>
	<g>
		
			<path fill-rule="evenodd" clip-rule="evenodd" fill="none" stroke="#231F20" stroke-width="2" stroke-linecap="round" stroke-linejoin="round" stroke-miterlimit="10" d="
			M17.463,30.583c-1.726,0.432-4.241,0.704-7.041,0.705C5.219,31.288,1,30.348,1,29.19s0.039-2.986,0.039-2.986"/>
		
			<path fill-rule="evenodd" clip-rule="evenodd" fill="none" stroke="#231F20" stroke-width="2" stroke-linecap="round" stroke-linejoin="round" stroke-miterlimit="10" d="
			M17.462,26.602c-1.726,0.432-4.24,0.703-7.04,0.703C5.219,27.305,1,26.366,1,25.208s0.039-2.985,0.039-2.985"/>
		
			<path fill-rule="evenodd" clip-rule="evenodd" fill="none" stroke="#231F20" stroke-width="2" stroke-linecap="round" stroke-linejoin="round" stroke-miterlimit="10" d="
			M17.552,22.598c-1.728,0.445-4.281,0.727-7.13,0.727C5.219,23.325,1,22.385,1,21.227s4.219-2.097,9.422-2.097
			c2.84,0,5.387,0.279,7.115,0.722"/>
	</g>
</g>
</svg>
