<svg xmlns="http://www.w3.org/2000/svg" version="1.0" id="Layer_1" x="0px" y="0px" width="30px" height="30px" viewBox="0 0 30 30" xml:space="preserve" enable-background="new 0 0 30 30"><style type="text/css">
	.st0{fill-rule:evenodd;clip-rule:evenodd;fill:#EAEAEA;}
	.st1{fill-rule:evenodd;clip-rule:evenodd;fill:#ED1B17;}
</style><path class="st0" d="M29.126 20.004C27.063 25.824 21.527 30 15 30c-6.525 0-12.063-4.176-14.126-9.996C0.318 18.436 0 16.756 0 14.997c0-1.754 0.316-3.43 0.87-4.995C2.917 4.211 8.404 0.05 14.884 0h0.233c6.479 0.05 11.966 4.211 14.014 10.002 0.553 1.564 0.87 3.24 0.87 4.994v0.002C30 16.756 29.682 18.436 29.126 20.004z"/><path class="st1" d="M18 29.682c-0.97 0.198-1.971 0.312-3 0.312s-2.03-0.115-3-0.312V18H0.324C0.121 17.028 0 16.027 0 14.994 0 13.966 0.12 12.968 0.322 12H12V0.312c0.934-0.19 1.896-0.304 2.884-0.312h0.232c0.988 0.008 1.95 0.122 2.884 0.312V12h11.678C29.88 12.968 30 13.965 30 14.993v0.002c0 1.032-0.121 2.033-0.324 3.005H18V29.682z"/></svg>