<?xml version="1.0" encoding="utf-8"?>
<!-- Generator: Adobe Illustrator 16.0.0, SVG Export Plug-In . SVG Version: 6.00 Build 0)  -->
<!DOCTYPE svg PUBLIC "-//W3C//DTD SVG 1.0//EN" "http://www.w3.org/TR/2001/REC-SVG-20010904/DTD/svg10.dtd">
<svg version="1.0" id="Layer_1" xmlns="http://www.w3.org/2000/svg" xmlns:xlink="http://www.w3.org/1999/xlink" x="0px" y="0px"
	 width="254px" height="58.205px" viewBox="0 0 254 58.205" enable-background="new 0 0 254 58.205" xml:space="preserve">
<g>
	<path fill-rule="evenodd" clip-rule="evenodd" fill="#FFFFFF" d="M214,44.634h15v3h-15V44.634z"/>
	<path fill-rule="evenodd" clip-rule="evenodd" fill="#FFFFFF" d="M214,38.634h18v3h-18V38.634z"/>
	<path fill="#FFFFFF" d="M42.62,52.875v-3.106H28.594c7.979-6.17,13.898-11.375,13.898-17.083c0-5.583-4.847-8.228-9.608-8.228
		c-4.033,0-7.765,1.596-9.952,4.407l2.188,2.225c1.673-2.099,4.333-3.525,7.765-3.525c2.959,0,5.963,1.553,5.963,5.121
		c0,4.827-5.577,9.485-15.872,17.419v2.771H42.62z"/>
	<path fill="#FFFFFF" d="M60.954,53.378c5.748,0,10.166-3.525,10.166-9.233c0-5.751-4.332-8.941-9.094-8.941
		c-2.873,0-5.318,1.176-6.691,2.519v-9.737h13.941v-3.106H51.774v15.11l2.617,0.882c1.93-1.847,4.074-2.645,6.605-2.645
		c3.861,0,6.563,2.351,6.563,6.044c0,3.4-2.702,6.003-6.606,6.003c-3.518,0-6.006-1.344-7.893-3.694l-2.188,2.309
		C53.019,51.657,56.106,53.378,60.954,53.378z"/>
	<path fill="#FFFFFF" d="M88.64,53.378c7.807,0,10.938-7.681,10.938-14.48c0-6.842-3.131-14.439-10.938-14.439
		c-7.851,0-10.939,7.598-10.939,14.439C77.7,45.697,80.789,53.378,88.64,53.378z M88.64,50.272c-5.448,0-7.293-5.793-7.293-11.375
		c0-5.583,1.845-11.333,7.293-11.333c5.447,0,7.292,5.75,7.292,11.333C95.932,44.479,94.087,50.272,88.64,50.272z"/>
	<path fill="#FFFFFF" d="M111.478,51.867c0-2.015-1.287-3.19-2.703-3.19c-1.287,0-2.273,1.05-2.273,2.267
		c0,1.26,0.858,2.142,2.06,2.142c0.214,0,0.515-0.042,0.601-0.084c-0.172,1.385-1.416,3.021-2.789,3.903l1.588,1.301
		C109.933,56.82,111.478,54.428,111.478,51.867z"/>
	<path fill="#FFFFFF" d="M129.072,53.378c7.807,0,10.938-7.681,10.938-14.48c0-6.842-3.132-14.439-10.938-14.439
		c-7.851,0-10.938,7.598-10.938,14.439C118.134,45.697,121.222,53.378,129.072,53.378z M129.072,50.272
		c-5.448,0-7.292-5.793-7.292-11.375c0-5.583,1.844-11.333,7.292-11.333c5.447,0,7.292,5.75,7.292,11.333
		C136.364,44.479,134.52,50.272,129.072,50.272z"/>
	<path fill="#FFFFFF" d="M157.486,53.378c7.808,0,10.938-7.681,10.938-14.48c0-6.842-3.131-14.439-10.938-14.439
		c-7.85,0-10.938,7.598-10.938,14.439C146.548,45.697,149.637,53.378,157.486,53.378z M157.486,50.272
		c-5.447,0-7.292-5.793-7.292-11.375c0-5.583,1.845-11.333,7.292-11.333c5.448,0,7.293,5.75,7.293,11.333
		C164.779,44.479,162.935,50.272,157.486,50.272z"/>
	<path fill="#FFFFFF" d="M185.901,53.378c7.808,0,10.938-7.681,10.938-14.48c0-6.842-3.131-14.439-10.938-14.439
		c-7.85,0-10.938,7.598-10.938,14.439C174.963,45.697,178.052,53.378,185.901,53.378z M185.901,50.272
		c-5.447,0-7.292-5.793-7.292-11.375c0-5.583,1.845-11.333,7.292-11.333c5.448,0,7.292,5.75,7.292,11.333
		C193.193,44.479,191.35,50.272,185.901,50.272z"/>
	<path fill="#FFFFFF" d="M221.316,52.875V41.752h7.936c5.662,0,8.965-3.862,8.965-8.438s-3.217-8.437-8.965-8.437h-11.496v27.997
		H221.316z M228.823,38.646h-7.507V27.984h7.507c3.389,0,5.705,2.183,5.705,5.33C234.528,36.463,232.212,38.646,228.823,38.646z"/>
	<path fill="#FFFFFF" d="M43.651,9.5V5.786H46.3c1.891,0,2.993-1.288,2.993-2.815S48.22,0.154,46.3,0.154h-3.837V9.5H43.651z
		 M46.157,4.75h-2.506V1.19h2.506c1.131,0,1.904,0.729,1.904,1.78S47.288,4.75,46.157,4.75z"/>
	<path fill="#FFFFFF" d="M63.329,9.5l-3.852-9.346h-1.475L54.165,9.5h1.361l0.844-2.074h4.754L61.97,9.5H63.329z M60.767,6.389
		h-4.053l2.033-5.029L60.767,6.389z"/>
	<path fill="#FFFFFF" d="M71.753,9.668c2.147,0,3.579-1.135,3.579-2.69c0-1.499-1.331-2.228-2.205-2.298
		c0.888-0.154,2.062-0.826,2.062-2.172c0-1.583-1.546-2.494-3.422-2.494c-1.518,0-2.734,0.63-3.451,1.443l0.659,0.729
		c0.716-0.742,1.618-1.135,2.706-1.135c1.26,0,2.291,0.561,2.291,1.598c0,1.078-1.045,1.541-2.319,1.541h-1.948v1.037h1.948
		c1.46,0,2.478,0.49,2.478,1.653c0,1.078-0.902,1.751-2.406,1.751c-1.174,0-2.291-0.519-2.863-1.247l-0.702,0.743
		C68.76,8.967,70.077,9.668,71.753,9.668z"/>
	<path fill="#FFFFFF" d="M81.508,0.154V9.5h3.837c1.92,0,2.993-1.289,2.993-2.816s-1.103-2.816-2.993-2.816h-2.648V0.154H81.508z
		 M85.202,4.904c1.131,0,1.904,0.729,1.904,1.779s-0.773,1.779-1.904,1.779h-2.506V4.904H85.202z M90.558,9.5V0.154h-1.188V9.5
		H90.558z"/>
	<path fill="#FFFFFF" d="M98.263,9.5V1.19h5.068V0.154h-6.257V9.5H98.263z"/>
	<path fill="#FFFFFF" d="M110.424,9.5V5.786h2.649c1.891,0,2.992-1.288,2.992-2.815s-1.074-2.816-2.992-2.816h-3.838V9.5H110.424z
		 M112.93,4.75h-2.506V1.19h2.506c1.132,0,1.905,0.729,1.905,1.78S114.062,4.75,112.93,4.75z"/>
	<path fill="#FFFFFF" d="M121.927,0.154V9.5h3.837c1.919,0,2.993-1.289,2.993-2.816s-1.103-2.816-2.993-2.816h-2.649V0.154H121.927z
		 M125.62,4.904c1.132,0,1.905,0.729,1.905,1.779s-0.773,1.779-1.905,1.779h-2.506V4.904H125.62z M130.976,9.5V0.154h-1.188V9.5
		H130.976z"/>
	<path fill="#FFFFFF" d="M141.846,9.5c1.747,0,2.764-1.023,2.764-2.522c0-1.121-0.845-2.144-1.861-2.298
		c0.873-0.182,1.675-0.967,1.675-2.144c0-1.401-1.017-2.382-2.678-2.382h-4.253V9.5H141.846z M141.545,4.203h-2.863V1.19h2.863
		c1.074,0,1.646,0.673,1.646,1.514C143.191,3.559,142.619,4.203,141.545,4.203z M141.603,8.463h-2.921V5.24h2.921
		c1.174,0,1.775,0.757,1.775,1.611C143.378,7.847,142.719,8.463,141.603,8.463z"/>
	<path fill="#FFFFFF" d="M158.961,9.5l-3.853-9.346h-1.475L149.797,9.5h1.359l0.846-2.074h4.754l0.845,2.074H158.961z
		 M156.397,6.389h-4.053l2.033-5.029L156.397,6.389z"/>
	<path fill="#FFFFFF" d="M170.748,9.5V8.463h-5.068V5.24h4.969V4.203h-4.969V1.19h5.068V0.154h-6.257V9.5H170.748z"/>
	<path fill="#FFFFFF" d="M180.475,9.5V1.19h3.036V0.154h-7.245V1.19h3.021V9.5H180.475z"/>
	<path fill="#FFFFFF" d="M193.896,9.668c1.689,0,2.835-0.785,3.637-1.85l-1.017-0.547c-0.544,0.799-1.532,1.359-2.62,1.359
		c-2.091,0-3.681-1.583-3.681-3.797c0-2.228,1.59-3.797,3.681-3.797c1.088,0,2.076,0.575,2.62,1.359l1.002-0.546
		C196.76,0.799,195.586,0,193.896,0c-2.75,0-4.912,1.962-4.912,4.834S191.146,9.668,193.896,9.668z"/>
	<path fill="#FFFFFF" d="M204.28,9.5l2.435-3.714h1.919V9.5h1.188V0.154h-3.838c-1.761,0-3.007,1.093-3.007,2.816
		c0,1.681,1.188,2.605,2.491,2.718L202.892,9.5H204.28z M206.113,4.764c-1.117,0-1.904-0.742-1.904-1.793s0.787-1.78,1.904-1.78
		h2.521v3.573H206.113z"/>
	<path fill-rule="evenodd" clip-rule="evenodd" fill="#F8971F" d="M234,3.634h20v2h-20V3.634z"/>
	<path fill-rule="evenodd" clip-rule="evenodd" fill="#F8971F" d="M0,3.634h20v2H0V3.634z"/>
</g>
</svg>
