<?xml version="1.0" encoding="utf-8"?>
<!-- Generator: Adobe Illustrator 16.0.0, SVG Export Plug-In . SVG Version: 6.00 Build 0)  -->
<!DOCTYPE svg PUBLIC "-//W3C//DTD SVG 1.1//EN" "http://www.w3.org/Graphics/SVG/1.1/DTD/svg11.dtd">
<svg version="1.1" id="Layer_1" xmlns="http://www.w3.org/2000/svg" xmlns:xlink="http://www.w3.org/1999/xlink" x="0px" y="0px"
	 width="453.994px" height="195.014px" viewBox="0 0 453.994 195.014" enable-background="new 0 0 453.994 195.014"
	 xml:space="preserve">
<g>
	<path fill-rule="evenodd" clip-rule="evenodd" fill="none" stroke="#231F20" stroke-width="2" stroke-miterlimit="10" d="
		M213.879,35.935c26.518,0,48.014,21.476,48.014,47.969c0,26.492-21.496,47.969-48.014,47.969s-48.014-21.477-48.014-47.969
		C165.865,57.41,187.361,35.935,213.879,35.935z"/>
	<path fill-rule="evenodd" clip-rule="evenodd" fill="none" stroke="#231F20" stroke-width="2" stroke-miterlimit="10" d="
		M213.394,44.904c21.287,0,38.543,17.456,38.543,38.988c0,21.533-17.256,38.989-38.543,38.989
		c-21.286,0-38.542-17.456-38.542-38.989C174.852,62.36,192.107,44.904,213.394,44.904z"/>
	<path fill-rule="evenodd" clip-rule="evenodd" fill="none" stroke="#231F20" stroke-width="2" stroke-miterlimit="10" d="
		M262.892,83.892h84.054"/>
	<path fill-rule="evenodd" clip-rule="evenodd" fill="none" stroke="#231F20" stroke-width="2" stroke-miterlimit="10" d="
		M259.897,73.912h38.028"/>
	<path fill-rule="evenodd" clip-rule="evenodd" fill="none" stroke="#231F20" stroke-width="2" stroke-miterlimit="10" d="
		M256.902,63.919h12.997"/>
	<path fill-rule="evenodd" clip-rule="evenodd" fill="none" stroke="#231F20" stroke-width="2" stroke-miterlimit="10" d="
		M256.902,103.897h13"/>
	<path fill-rule="evenodd" clip-rule="evenodd" fill="none" stroke="#231F20" stroke-width="2" stroke-miterlimit="10" d="
		M259.891,93.886h38.028"/>
	<path fill-rule="evenodd" clip-rule="evenodd" fill="none" stroke="#231F20" stroke-width="2" stroke-miterlimit="10" d="
		M164.875,83.892H80.822"/>
	<path fill-rule="evenodd" clip-rule="evenodd" fill="none" stroke="#231F20" stroke-width="2" stroke-miterlimit="10" d="
		M167.87,73.912h-38.028"/>
	<path fill-rule="evenodd" clip-rule="evenodd" fill="none" stroke="#231F20" stroke-width="2" stroke-miterlimit="10" d="
		M170.865,63.919h-12.997"/>
	<path fill-rule="evenodd" clip-rule="evenodd" fill="none" stroke="#231F20" stroke-width="2" stroke-miterlimit="10" d="
		M170.865,103.897h-13"/>
	<path fill-rule="evenodd" clip-rule="evenodd" fill="none" stroke="#231F20" stroke-width="2" stroke-miterlimit="10" d="
		M167.877,93.886h-38.028"/>
	<path fill-rule="evenodd" clip-rule="evenodd" fill="none" stroke="#231F20" stroke-width="2" stroke-miterlimit="10" d="
		M449.602,58.928c1.934,0.06,3.451,1.673,3.391,3.604s-1.676,3.446-3.609,3.387c-1.933-0.06-3.451-1.674-3.391-3.604
		C446.053,60.384,447.669,58.867,449.602,58.928z"/>
	<path fill-rule="evenodd" clip-rule="evenodd" fill="none" stroke="#231F20" stroke-width="2" stroke-miterlimit="10" d="
		M248.655,1.003c3.038,0.094,5.423,2.63,5.328,5.663s-2.634,5.416-5.672,5.322c-3.037-0.095-5.423-2.63-5.328-5.664
		C243.079,3.291,245.618,0.908,248.655,1.003z"/>
	<path fill-rule="evenodd" clip-rule="evenodd" fill="none" stroke="#231F20" stroke-width="2" stroke-miterlimit="10" d="
		M108.442,38.444l5.99,5.981"/>
	<path fill-rule="evenodd" clip-rule="evenodd" fill="none" stroke="#231F20" stroke-width="2" stroke-miterlimit="10" d="
		M108.466,44.402l5.943-5.936"/>
	<path fill-rule="evenodd" clip-rule="evenodd" fill="none" stroke="#231F20" stroke-width="2" stroke-miterlimit="10" d="
		M166.367,188.325l5.99,5.981"/>
	<path fill-rule="evenodd" clip-rule="evenodd" fill="none" stroke="#231F20" stroke-width="2" stroke-miterlimit="10" d="
		M166.391,194.283l5.943-5.936"/>
	<path fill-rule="evenodd" clip-rule="evenodd" fill="none" stroke="#231F20" stroke-width="2" stroke-miterlimit="10" d="
		M5.778,63.062v11.632"/>
	<path fill-rule="evenodd" clip-rule="evenodd" fill="none" stroke="#231F20" stroke-width="2" stroke-miterlimit="10" d="M0,68.877
		h11.557"/>
	<path fill-rule="evenodd" clip-rule="evenodd" fill="none" stroke="#231F20" stroke-width="2" stroke-miterlimit="10" d="
		M416.964,111.005v11.632"/>
	<path fill-rule="evenodd" clip-rule="evenodd" fill="none" stroke="#231F20" stroke-width="2" stroke-miterlimit="10" d="
		M411.186,116.82h11.557"/>
	<path fill-rule="evenodd" clip-rule="evenodd" fill="none" stroke="#231F20" stroke-width="2" stroke-miterlimit="10" d="
		M281.962,43.976c2.209,0.068,3.943,1.912,3.875,4.118c-0.069,2.206-1.916,3.939-4.125,3.871c-2.209-0.069-3.944-1.913-3.875-4.119
		S279.753,43.906,281.962,43.976z"/>
	<path fill-rule="evenodd" clip-rule="evenodd" fill="none" stroke="#231F20" stroke-width="2" stroke-miterlimit="10" d="
		M310.084,114.88c2.762,0.086,4.931,2.391,4.844,5.148c-0.086,2.758-2.395,4.924-5.156,4.838s-4.93-2.391-4.844-5.148
		C305.015,116.96,307.323,114.794,310.084,114.88z"/>
	<path fill-rule="evenodd" clip-rule="evenodd" fill="none" stroke="#231F20" stroke-width="2" stroke-miterlimit="10" d="
		M102.441,101.891c1.934,0.06,3.451,1.673,3.391,3.604s-1.676,3.446-3.609,3.387c-1.933-0.06-3.451-1.674-3.391-3.604
		C98.893,103.347,100.509,101.83,102.441,101.891z"/>
	<path fill-rule="evenodd" clip-rule="evenodd" fill="none" stroke="#231F20" stroke-width="2" stroke-miterlimit="10" d="
		M226.225,65.52l-22.131,37.733"/>
	<path fill-rule="evenodd" clip-rule="evenodd" fill="none" stroke="#231F20" stroke-width="2" stroke-miterlimit="10" d="
		M219.442,79.111c0,0,2.169,4.104,5.71,6.116c3.773,2.145,6.828,5.795,6.828,5.795l6.736-11.485c0,0-2.896-3.561-6.596-5.663
		c-3.621-2.059-5.942-6.249-5.942-6.249"/>
	<path fill-rule="evenodd" clip-rule="evenodd" fill="none" stroke="#231F20" stroke-width="2" stroke-miterlimit="10" d="
		M235.028,85.826c0,0-2.896-3.561-6.596-5.663c-3.621-2.059-5.942-6.249-5.942-6.249"/>
	<path fill-rule="evenodd" clip-rule="evenodd" fill="none" stroke="#231F20" stroke-width="2" stroke-miterlimit="10" d="
		M231.735,74.893l-6.323,10.781"/>
	<path fill-rule="evenodd" clip-rule="evenodd" fill="none" stroke="#231F20" stroke-width="2" stroke-miterlimit="10" d="
		M201.764,65.746l22.131,37.734"/>
	<path fill-rule="evenodd" clip-rule="evenodd" fill="none" stroke="#231F20" stroke-width="2" stroke-miterlimit="10" d="
		M208.546,79.338c0,0-2.169,4.104-5.71,6.117c-3.773,2.145-6.828,5.795-6.828,5.795l-6.736-11.486c0,0,2.896-3.561,6.596-5.663
		c3.621-2.058,5.942-6.248,5.942-6.248"/>
	<path fill-rule="evenodd" clip-rule="evenodd" fill="none" stroke="#231F20" stroke-width="2" stroke-miterlimit="10" d="
		M193.515,75.676l6.323,10.781"/>
	<path fill-rule="evenodd" clip-rule="evenodd" fill="none" stroke="#231F20" stroke-width="2" stroke-miterlimit="10" d="
		M198.464,72.665l6.323,10.781"/>
</g>
</svg>
