<svg version="1.0" id="Layer_1" xmlns="http://www.w3.org/2000/svg" xmlns:xlink="http://www.w3.org/1999/xlink" x="0px" y="0px" viewBox="0 0 284 431" enable-background="new 0 0 284 431" xml:space="preserve">
	<g id="XMLID_15_">
		<path id="XMLID_40_" fill-rule="evenodd" clip-rule="evenodd" fill="#138930" stroke="#42A159" stroke-width="2" stroke-miterlimit="10" d="
  M1,1h282v429H1V1z M1,1h282"/>
		<path id="XMLID_38_" fill-rule="evenodd" clip-rule="evenodd" fill="none" stroke="#42A159" stroke-width="2" stroke-miterlimit="10" d="
  M81,1h122v49H81V1z"/>
		<path id="XMLID_36_" fill-rule="evenodd" clip-rule="evenodd" fill="none" stroke="#42A159" stroke-width="2" stroke-miterlimit="10" d="
  M81,381h122v49H81V381z"/>
		<path id="XMLID_34_" fill-rule="evenodd" clip-rule="evenodd" fill="none" stroke="#42A159" stroke-width="2" stroke-miterlimit="10" d="
  M111,411h62v19h-62V411z"/>
		<path id="XMLID_32_" fill-rule="evenodd" clip-rule="evenodd" fill="none" stroke="#42A159" stroke-width="2" stroke-miterlimit="10" d="
  M111,1h62v19h-62V1z"/>
		<path id="XMLID_30_" fill-rule="evenodd" clip-rule="evenodd" fill="none" stroke="#42A159" stroke-width="2" stroke-miterlimit="10" d="
  M142,169c25.4,0,46,20.6,46,46s-20.6,46-46,46s-46-20.6-46-46S116.6,169,142,169z"/>
		<path id="XMLID_28_" fill-rule="evenodd" clip-rule="evenodd" fill="none" stroke="#42A159" stroke-width="2" stroke-miterlimit="10" d="
  M283,14.7c-7.6,0-13.7-6.1-13.7-13.7"/>
		<path id="XMLID_26_" fill-rule="evenodd" clip-rule="evenodd" fill="none" stroke="#42A159" stroke-width="2" stroke-miterlimit="10" d="
  M283,417c-7.7,0-14,6.3-14,14"/>
		<path id="XMLID_24_" fill-rule="evenodd" clip-rule="evenodd" fill="none" stroke="#42A159" stroke-width="2" stroke-miterlimit="10" d="
  M1,14.7c7.6,0,13.7-6.1,13.7-13.7"/>
		<path id="XMLID_22_" fill-rule="evenodd" clip-rule="evenodd" fill="none" stroke="#42A159" stroke-width="2" stroke-miterlimit="10" d="
  M1,417c7.7,0,14,6.3,14,14"/>
		<path id="XMLID_20_" fill-rule="evenodd" clip-rule="evenodd" fill="none" stroke="#42A159" stroke-width="2" stroke-miterlimit="10" d="
  M118.6,381.4c5-7.7,13.6-12.7,23.4-12.7c9.8,0,18.4,5.1,23.5,12.9"/>
		<path id="XMLID_18_" fill-rule="evenodd" clip-rule="evenodd" fill="none" stroke="#42A159" stroke-width="2" stroke-miterlimit="10" d="
  M118.9,49.7c5.1,7.4,13.8,12.3,23.6,12.3c9.9,0,18.6-5,23.7-12.5"/>
		<path id="XMLID_16_" fill-rule="evenodd" clip-rule="evenodd" fill="none" stroke="#42A159" stroke-width="2" stroke-miterlimit="10" d="
  M1,216h282"/>
	</g>
</svg>
