<?xml version="1.0" encoding="utf-8"?>
<!-- Generator: Adobe Illustrator 16.0.0, SVG Export Plug-In . SVG Version: 6.00 Build 0)  -->
<!DOCTYPE svg PUBLIC "-//W3C//DTD SVG 1.0//EN" "http://www.w3.org/TR/2001/REC-SVG-20010904/DTD/svg10.dtd">
<svg version="1.0" id="Layer_1" xmlns="http://www.w3.org/2000/svg" xmlns:xlink="http://www.w3.org/1999/xlink" x="0px" y="0px"
	 width="50px" height="42px" viewBox="0 0 50 42" enable-background="new 0 0 50 42" xml:space="preserve">
<g opacity="0.5">
	<g>
		<path fill="none" stroke="#FFFFFF" stroke-miterlimit="10" d="M13.822,40.801c-0.658-0.085-1.16-0.159-1.48-0.21v-1.5"/>

			<line fill="none" stroke="#FFFFFF" stroke-miterlimit="10" stroke-dasharray="3.0859,3.0859" x1="12.342" y1="36.005" x2="12.342" y2="19.032"/>
		<polyline fill="none" stroke="#FFFFFF" stroke-miterlimit="10" points="12.342,17.489 12.342,15.989 11.284,17.053 		"/>
		<polyline fill="none" stroke="#FFFFFF" stroke-miterlimit="10" points="8.953,19.396 7.895,20.46 6.837,19.396 		"/>

			<line fill="none" stroke="#FFFFFF" stroke-miterlimit="10" stroke-dasharray="2.3984,2.3984" x1="5.146" y1="17.696" x2="2.609" y2="15.145"/>
		<polyline fill="none" stroke="#FFFFFF" stroke-miterlimit="10" points="1.764,14.294 0.706,13.231 1.764,12.167 		"/>
		<polyline fill="none" stroke="#FFFFFF" stroke-miterlimit="10" stroke-dasharray="2.9743,2.9743" points="3.861,10.059
			12.727,1.143 16.497,0.798 		"/>
		<path fill="none" stroke="#FFFFFF" stroke-miterlimit="10" d="M17.978,0.663l1.494-0.137c0.18,0.271,0.502,0.686,1,1.106"/>
		<path fill="none" stroke="#FFFFFF" stroke-miterlimit="10" stroke-dasharray="3.2448,3.2448" d="M23.381,2.994
			C23.869,3.09,24.407,3.146,25,3.146c1.305,0,2.344-0.27,3.158-0.646"/>
		<path fill="none" stroke="#FFFFFF" stroke-miterlimit="10" d="M29.528,1.632c0.498-0.42,0.82-0.835,1.001-1.106l1.494,0.137"/>
		<polyline fill="none" stroke="#FFFFFF" stroke-miterlimit="10" stroke-dasharray="2.9742,2.9742" points="34.985,0.934
			37.273,1.143 47.188,11.113 		"/>
		<polyline fill="none" stroke="#FFFFFF" stroke-miterlimit="10" points="48.236,12.167 49.294,13.231 48.236,14.294 		"/>

			<line fill="none" stroke="#FFFFFF" stroke-miterlimit="10" stroke-dasharray="2.3982,2.3982" x1="46.545" y1="15.995" x2="44.009" y2="18.546"/>
		<polyline fill="none" stroke="#FFFFFF" stroke-miterlimit="10" points="43.163,19.396 42.105,20.46 41.048,19.396 		"/>
		<polyline fill="none" stroke="#FFFFFF" stroke-miterlimit="10" points="38.716,17.051 37.658,15.988 37.658,17.488 		"/>

			<line fill="none" stroke="#FFFFFF" stroke-miterlimit="10" stroke-dasharray="3.0861,3.0861" x1="37.658" y1="20.574" x2="37.658" y2="37.548"/>
		<path fill="none" stroke="#FFFFFF" stroke-miterlimit="10" d="M37.658,39.091v1.5c-0.321,0.051-0.822,0.125-1.48,0.21"/>
		<path fill="none" stroke="#FFFFFF" stroke-miterlimit="10" stroke-dasharray="3.2003,3.2003" d="M32.997,41.146
			C30.831,41.338,28.088,41.5,25,41.5c-3.905,0-7.255-0.259-9.585-0.511"/>
	</g>
</g>
</svg>
