<?xml version="1.0" encoding="utf-8"?>
<!-- Generator: Adobe Illustrator 19.0.0, SVG Export Plug-In . SVG Version: 6.00 Build 0)  -->
<svg version="1.1" id="Layer_1" xmlns="http://www.w3.org/2000/svg" xmlns:xlink="http://www.w3.org/1999/xlink" x="0px" y="0px"
	 viewBox="-573 92 352.8 317" style="enable-background:new -573 92 352.8 317;" xml:space="preserve">
<style type="text/css">
	.st0{fill:none;stroke:#231F20;stroke-width:2;stroke-miterlimit:10;stroke-dasharray:12;}
	.st1{fill:none;stroke:#231F20;stroke-width:2;stroke-miterlimit:10;}
	
		.st2{fill:none;stroke:#231F20;stroke-width:2;stroke-linecap:round;stroke-linejoin:round;stroke-miterlimit:10;stroke-dasharray:0,7;}
	.st3{fill:#231F20;}
</style>
<path class="st0" d="M-396.7,135c62.1,0,112.5,50.4,112.5,112.5S-334.6,360-396.7,360s-112.5-50.4-112.5-112.5S-458.9,135-396.7,135
	z"/>
<path class="st1" d="M-396.2,186c34.2,0,62,27.8,62,62s-27.8,62-62,62c-34.2,0-62-27.8-62-62S-430.5,186-396.2,186z"/>
<path class="st2" d="M-396.2,194c29.8,0,54,24.2,54,54s-24.2,54-54,54s-54-24.2-54-54S-426.1,194-396.2,194z"/>
<path class="st1" d="M-284.7,247h30.4"/>
<path class="st1" d="M-285.9,225h13.7"/>
<path class="st1" d="M-292.2,204h4.6"/>
<path class="st1" d="M-292.2,289h4.9"/>
<path class="st1" d="M-285.9,267h13.7"/>
<path class="st1" d="M-508.8,248h-30.5"/>
<path class="st1" d="M-507.5,270h-13.7"/>
<path class="st1" d="M-501.2,291h-4.6"/>
<path class="st1" d="M-501.2,206h-4.9"/>
<path class="st1" d="M-507.5,228h-13.7"/>
<path class="st1" d="M-392.6,108c1.9,0.1,3.4,1.7,3.4,3.6c-0.1,1.9-1.7,3.4-3.6,3.4c-1.9-0.1-3.4-1.7-3.4-3.6
	C-396.2,109.5-394.5,107.9-392.6,108z"/>
<path class="st1" d="M-396.1,212.5l-2.8,1.2l0.5-2.9l-2.2-2.2l3.1-0.5l1.4-2.7l1.5,2.7l2.9,0.5l-2.1,2.2l0.4,2.9L-396.1,212.5z"/>
<path class="st1" d="M-359.5,93c4.7,0.1,8.4,4.1,8.2,8.8c-0.1,4.7-4.1,8.4-8.8,8.2c-4.7-0.1-8.4-4.1-8.2-8.8
	C-368.1,96.5-364.1,92.9-359.5,93z"/>
<path class="st1" d="M-309.5,232c4.7,0.1,8.4,4.1,8.2,8.8c-0.1,4.7-4.1,8.4-8.8,8.2c-4.7-0.1-8.4-4.1-8.2-8.8
	C-318.1,235.5-314.1,231.9-309.5,232z"/>
<path class="st1" d="M-481,249c-4.7-0.1-8.4-4.1-8.2-8.8s4.1-8.4,8.8-8.2c4.7,0.1,8.4,4.1,8.2,8.8S-476.3,249.1-481,249z"/>
<path class="st1" d="M-367.6,397c3,0.1,5.4,2.6,5.3,5.7c-0.1,3-2.6,5.4-5.7,5.3c-3-0.1-5.4-2.6-5.3-5.7
	C-373.1,399.3-370.6,396.9-367.6,397z"/>
<path class="st1" d="M-483.6,353c1.9,0.1,3.4,1.7,3.4,3.6c-0.1,1.9-1.7,3.5-3.6,3.4s-3.4-1.7-3.4-3.6
	C-487.2,354.5-485.5,352.9-483.6,353z"/>
<path class="st1" d="M-510.4,171.2l-5.7,5.7"/>
<path class="st1" d="M-516,171.2l5.7,5.7"/>
<path class="st1" d="M-453.4,366.1l-5.7,5.7"/>
<path class="st1" d="M-459,366.1l5.7,5.7"/>
<path class="st1" d="M-373.7,212.5l-4,4"/>
<path class="st1" d="M-377.7,212.5l4,4"/>
<path class="st1" d="M-412.7,212.5l-4,4"/>
<path class="st1" d="M-416.7,212.5l4,4"/>
<path class="st1" d="M-302.2,374.2v11.6"/>
<path class="st1" d="M-308,380h11.6"/>
<path class="st1" d="M-567.2,93.2v11.6"/>
<path class="st1" d="M-573,99h11.6"/>
<path class="st1" d="M-414.2,273h12v9h-12V273z"/>
<path class="st1" d="M-402.2,267h12v15h-12V267z"/>
<path class="st1" d="M-390.2,277h12v5h-12V277z"/>
<path class="st1" d="M-387.2,231v10.7c0,5.1-4,9.3-9,9.3s-9-4.1-9-9.3V231H-387.2z"/>
<path class="st1" d="M-381.2,233v5c0,3.3-2.7,6-6,6c0-7.9,0-11,0-11L-381.2,233L-381.2,233z"/>
<path class="st1" d="M-411.2,233v5c0,3.3,2.7,6,6,6c0-7.9,0-11,0-11L-411.2,233L-411.2,233z"/>
<path class="st1" d="M-396.2,250v4"/>
<path class="st1" d="M-398.6,254h3.8c2,0,3.6,1.8,3.6,4c0.1,0-10.5,0-11,0C-402.2,255.8-400.6,254-398.6,254z"/>
<path class="st1" d="M-286.2,141.2v11.6"/>
<path class="st1" d="M-292,147h11.6"/>
<path class="st1" d="M-423.4,248c0,0-3.8,1.7-6.1,0s-2.8-5.7-2.8-5.7s3.8-1.5,6.1,0C-423.9,243.8-423.4,248-423.4,248z"/>
<path class="st1" d="M-422.9,242.5c0,0-4.1,0.5-5.7-1.8c-1.7-2.3-1.2-6.3-1.2-6.3s4-0.3,5.7,1.8
	C-422.3,238.2-422.9,242.5-422.9,242.5z"/>
<path class="st1" d="M-420.5,253.6c0,0-3.3,2.6-5.9,1.5c-2.6-1.1-4.1-4.8-4.1-4.8s3.3-2.4,5.9-1.5
	C-422.1,249.7-420.5,253.6-420.5,253.6z"/>
<path class="st1" d="M-422,237.5c0,0-3.7-1.9-3.8-4.7c-0.1-2.8,2.6-5.9,2.6-5.9s3.5,2,3.8,4.7C-419.2,234.3-422,237.5-422,237.5z"/>
<path class="st1" d="M-417.2,258.2c0,0-1.8,3.7-4.6,3.8c-2.8,0.1-5.9-2.6-5.9-2.6s1.9-3.5,4.6-3.8
	C-420.5,255.4-417.2,258.2-417.2,258.2z"/>
<path class="st1" d="M-370.1,248c0,0,3.8,1.7,6.1,0c2.3-1.7,2.8-5.7,2.8-5.7s-3.8-1.5-6.1,0C-369.5,243.8-370.1,248-370.1,248z"/>
<path class="st1" d="M-370.6,242.5c0,0,4.1,0.5,5.7-1.8s1.2-6.3,1.2-6.3s-4-0.3-5.7,1.8C-371.1,238.2-370.6,242.5-370.6,242.5z"/>
<path class="st1" d="M-373,253.6c0,0,3.3,2.6,5.9,1.5c2.6-1.1,4.1-4.8,4.1-4.8s-3.3-2.4-5.9-1.5C-371.4,249.7-373,253.6-373,253.6z"
	/>
<path class="st1" d="M-371.4,237.5c0,0,3.7-1.9,3.8-4.7c0.1-2.8-2.6-5.9-2.6-5.9s-3.5,2-3.8,4.7
	C-374.3,234.3-371.4,237.5-371.4,237.5z"/>
<path class="st1" d="M-376.2,258.2c0,0,1.8,3.7,4.6,3.8c2.8,0.1,5.9-2.6,5.9-2.6s-1.9-3.5-4.6-3.8
	C-373,255.4-376.2,258.2-376.2,258.2z"/>
<g>
	<g>
		<path class="st3" d="M-443.8,175.8l1.2,1.9l2.7-1.7l0.8,1.2c-0.1,0.4-0.3,0.7-0.6,1.1s-0.7,0.7-1.1,1c-0.9,0.6-1.9,0.7-2.9,0.5
			c-1-0.3-1.8-0.9-2.4-1.8c-0.6-1-0.8-2-0.6-3c0.2-1,0.8-1.8,1.7-2.4c0.5-0.3,1.1-0.5,1.6-0.5c0.6,0,1.1,0.1,1.6,0.3l1.2-2.1
			c-1.9-0.9-3.8-0.8-5.6,0.3c-1.5,1-2.5,2.2-3,3.9c-0.4,1.6-0.2,3.2,0.8,4.8c1,1.6,2.3,2.5,3.9,2.9c1.7,0.3,3.2,0,4.8-0.9
			c1.7-1.1,2.8-2.6,3.1-4.6l-2.4-3.9L-443.8,175.8z M-435.2,165.1l0.4,12.9l2.7-1.1l-0.1-2.2l4.7-2l1.5,1.6l2.7-1.1l-8.9-9.3
			L-435.2,165.1z M-432.4,172.4l-0.3-5.5l3.7,4L-432.4,172.4z M-415.8,158.9l-1.2,7.7l-4.5-6.4l-3.5,0.8l2.7,11.7l2.5-0.6l-1.9-8.2
			l5.2,7.4l1.1-0.3l1.4-9l1.9,8.2l2.5-0.6l-2.7-11.7L-415.8,158.9z M-404.8,167.3l-0.2-2.7l5.8-0.4l-0.2-2.2l-5.8,0.4l-0.2-2.5
			l5.9-0.4l-0.2-2.2l-8.5,0.6l0.8,12l8.5-0.6l-0.2-2.2L-404.8,167.3z M-384.7,157.9c-1.8-0.2-3.4,0.1-4.7,1.1
			c-1.3,1-2.1,2.4-2.4,4.2c-0.2,1.8,0.1,3.3,1.1,4.7c1,1.3,2.4,2.1,4.2,2.4c1.8,0.3,3.4-0.1,4.7-1.1c1.3-1,2.1-2.4,2.4-4.2
			c0.2-1.8-0.1-3.4-1.1-4.7C-381.5,158.9-382.9,158.2-384.7,157.9z M-382,164.6c-0.2,1.1-0.6,2-1.4,2.7c-0.8,0.6-1.7,0.9-2.8,0.7
			c-1.1-0.2-1.9-0.6-2.5-1.5c-0.6-0.8-0.8-1.8-0.6-2.9c0.2-1.1,0.6-2,1.4-2.7c0.8-0.6,1.7-0.9,2.8-0.7c1.1,0.2,1.9,0.6,2.5,1.5
			C-382,162.5-381.8,163.4-382,164.6z M-367,162.3l-5.9,7.9l-0.5-9.8l-2.8-0.9l0.9,12.9l3.1,0.9l8-10.1L-367,162.3z M-362.3,171.8
			l5.3,2.5l1-2l-5.3-2.5l1.1-2.3l5.4,2.5l1-2l-7.7-3.6l-5.1,10.9l7.7,3.6l1-2l-5.4-2.5L-362.3,171.8z M-344.1,175.4
			c-0.2-1-0.8-1.8-1.9-2.5l-4.7-3.1l-6.6,10.1l2.1,1.4l2.3-3.6l1.6,1l-0.4,4.9l2.5,1.6l0.2-5.3c0.7,0.3,1.4,0.3,2.2,0
			c0.8-0.2,1.4-0.8,1.9-1.6C-344.1,177.4-343.9,176.4-344.1,175.4z M-346.9,176.9c-0.3,0.4-0.6,0.7-1.1,0.7
			c-0.4,0.1-0.9-0.1-1.3-0.3l-2.2-1.5l1.8-2.7l2.2,1.5c0.4,0.3,0.7,0.6,0.8,1.1C-346.6,176.1-346.7,176.5-346.9,176.9z"/>
	</g>
</g>
<g>
	<g>
		<path class="st3" d="M-469.2,291.1c0.9-0.6,1.9-0.8,2.8-0.6c1,0.2,1.7,0.7,2.3,1.6c0.3,0.4,0.4,0.9,0.5,1.4c0,0.5,0,1-0.2,1.4
			l1,0.5c0.6-1.4,0.4-2.7-0.4-4c-0.7-1.1-1.7-1.8-3-2.1c-1.3-0.3-2.5,0-3.7,0.7c-1.2,0.8-1.9,1.8-2.2,3c-0.3,1.3,0,2.5,0.7,3.6
			c0.8,1.2,2,1.9,3.5,2l-0.1-1.1c-0.5,0-1-0.1-1.4-0.4c-0.5-0.2-0.8-0.6-1.1-1c-0.6-0.9-0.7-1.8-0.5-2.7
			C-470.7,292.5-470.1,291.7-469.2,291.1z M-459.5,302.3c0.1-0.9-0.1-1.7-0.8-2.5c-0.6-0.8-1.4-1.2-2.3-1.2c-0.9,0-1.8,0.3-2.5,0.9
			c-0.8,0.6-1.2,1.4-1.4,2.3c-0.1,0.9,0.1,1.7,0.8,2.5c0.6,0.8,1.4,1.2,2.3,1.2c0.9,0,1.8-0.3,2.5-0.9
			C-460.1,303.9-459.6,303.2-459.5,302.3z M-461.6,303.7c-0.6,0.5-1.2,0.7-1.8,0.7c-0.6,0-1.2-0.2-1.6-0.8c-0.4-0.5-0.6-1.1-0.5-1.8
			c0.1-0.6,0.5-1.2,1-1.6c0.6-0.5,1.2-0.7,1.8-0.7c0.7,0,1.2,0.2,1.6,0.8c0.4,0.5,0.6,1.1,0.5,1.7
			C-460.7,302.7-461,303.2-461.6,303.7z M-454,306.5c-0.3-0.3-0.7-0.6-1.2-0.7c-0.5-0.1-0.9-0.2-1.3-0.2l0.7-0.7l-0.7-0.7l-4.7,4.8
			l0.7,0.7l3.5-3.5c0.3-0.1,0.7,0,1.1,0.1c0.4,0.1,0.7,0.3,1,0.6c0.3,0.3,0.5,0.7,0.5,1c0,0.4-0.2,0.7-0.6,1.1l-3.1,3.1l0.7,0.7
			l3.3-3.4C-453,308.5-453,307.5-454,306.5z M-446.7,313l-0.6,0.8c0-1-0.3-1.8-1-2.3c-0.7-0.6-1.5-0.8-2.3-0.6
			c-0.8,0.1-1.6,0.6-2.3,1.5c-0.7,0.8-1,1.7-0.9,2.5c0,0.8,0.4,1.5,1.1,2.1c0.4,0.3,0.8,0.5,1.2,0.5c0.5,0.1,0.9,0.1,1.3-0.1
			l-0.6,0.8c-0.4,0.5-0.9,0.8-1.4,0.8c-0.5,0-1-0.2-1.5-0.6c-0.7-0.6-1.1-1.3-1.1-2.1l-0.9,0.3c0.1,0.5,0.2,1,0.4,1.4
			c0.2,0.4,0.6,0.7,1.1,1.1c0.7,0.6,1.5,0.9,2.2,0.9c0.8,0,1.5-0.4,2.1-1.2l4.1-5.1L-446.7,313z M-449.7,316.8
			c-0.3,0.1-0.7,0.2-1.2,0.1c-0.4-0.1-0.8-0.2-1.1-0.5c-0.5-0.4-0.8-0.9-0.8-1.5c0-0.6,0.2-1.2,0.7-1.8c0.5-0.6,1-1,1.6-1.1
			c0.6-0.1,1.2,0,1.7,0.4c0.3,0.3,0.6,0.6,0.7,1c0.2,0.4,0.2,0.8,0.2,1.1L-449.7,316.8z M-441.3,318l0.6-0.9
			c-0.7-0.5-1.6-0.6-2.6-0.2l0.6-0.9l-0.9-0.6l-3.8,5.6l0.9,0.6l2.7-4c0.3-0.1,0.6-0.2,1.1-0.2c0.4,0,0.8,0.1,1,0.3
			C-441.5,317.8-441.3,317.9-441.3,318z M-436.5,319.5c-0.9-0.5-1.9-0.6-2.9-0.3l0.1,0.9c0.8-0.3,1.6-0.2,2.3,0.2
			c0.4,0.2,0.7,0.6,0.9,0.9c0.2,0.4,0.1,0.8-0.1,1.1l-0.6,1.1c-0.2-0.8-0.7-1.4-1.5-1.9c-0.6-0.3-1.1-0.4-1.7-0.3
			c-0.6,0.1-1.1,0.5-1.4,1.1c-0.3,0.6-0.4,1.2-0.2,1.8c0.2,0.6,0.6,1,1.2,1.3c0.8,0.4,1.6,0.5,2.4,0.3l-0.4,0.7l0.9,0.5l2.3-4.1
			c0.4-0.7,0.4-1.3,0.2-1.9C-435.4,320.3-435.8,319.8-436.5,319.5z M-437.8,325c-0.6,0.3-1.3,0.2-2-0.2c-0.4-0.2-0.7-0.5-0.8-0.9
			c-0.1-0.4-0.1-0.8,0.1-1.1c0.2-0.4,0.5-0.6,0.9-0.7c0.4-0.1,0.8,0,1.2,0.2c0.7,0.4,1.1,1,1.2,1.6L-437.8,325z M-429.7,321l-1-0.4
			l-0.8,1.7l-1-0.5l-0.4,0.8l1,0.5l-1.8,4c-0.2,0.5-0.3,0.9-0.1,1.2c0.1,0.3,0.4,0.6,0.9,0.8c0.5,0.2,0.9,0.3,1.3,0.1l0-0.8
			c-0.2,0.1-0.5,0.1-0.8,0c-0.2-0.1-0.3-0.2-0.4-0.4c0-0.2,0-0.4,0.1-0.6l1.7-3.8l1.2,0.6l0.4-0.8l-1.2-0.6L-429.7,321z
			 M-424.5,330.4c-0.3,0.2-0.6,0.3-1.1,0.4c-0.4,0.1-0.8,0-1.2-0.1c-0.5-0.2-0.8-0.4-0.9-0.7c-0.2-0.3-0.1-0.7,0-1.2l1.5-4.2l-1-0.4
			l-1.6,4.5c-0.5,1.3-0.1,2.3,1.3,2.8c0.4,0.2,0.9,0.2,1.4,0.2c0.5-0.1,0.9-0.2,1.3-0.4l-0.3,0.9l1,0.4l2.3-6.3l-1-0.4L-424.5,330.4
			z M-420.7,333.4l1,0.3l2.5-9l-1-0.3L-420.7,333.4z M-412.4,328.3c-1.1-0.2-2,0-2.9,0.6l0.3,0.8c0.7-0.5,1.4-0.7,2.2-0.5
			c0.5,0.1,0.9,0.3,1.1,0.6c0.3,0.3,0.4,0.7,0.3,1.1l-0.2,1.2c-0.4-0.7-1.1-1.2-2-1.3c-0.6-0.1-1.2,0-1.7,0.2
			c-0.5,0.3-0.9,0.8-1,1.5c-0.1,0.7,0,1.3,0.4,1.7c0.4,0.5,0.9,0.8,1.5,0.9c0.9,0.2,1.7,0,2.4-0.5l-0.1,0.8l1,0.2l0.9-4.6
			c0.1-0.8,0-1.4-0.4-1.8C-411,328.7-411.6,328.4-412.4,328.3z M-411.9,334c-0.5,0.5-1.2,0.6-2,0.5c-0.5-0.1-0.8-0.3-1.1-0.6
			c-0.3-0.3-0.3-0.7-0.3-1.1c0.1-0.4,0.3-0.7,0.7-1c0.4-0.2,0.8-0.3,1.3-0.2c0.8,0.2,1.4,0.6,1.7,1.2L-411.9,334z M-405.4,327.6
			l-1-0.1l-0.2,1.8l-1.1-0.1l-0.1,0.9l1.1,0.1l-0.5,4.4c-0.1,0.5,0,0.9,0.2,1.2c0.2,0.3,0.6,0.5,1.1,0.5c0.5,0.1,1,0,1.3-0.3
			l-0.2-0.8c-0.2,0.2-0.4,0.2-0.7,0.2c-0.2,0-0.4-0.1-0.5-0.3c-0.1-0.2-0.1-0.4-0.1-0.6l0.5-4.2l1.4,0.2l0.1-0.9l-1.4-0.2
			L-405.4,327.6z M-399,329.8c-1,0-1.8,0.3-2.4,0.9c-0.7,0.7-1,1.5-1,2.5c0,1.1,0.3,1.9,0.9,2.6c0.6,0.7,1.4,1,2.4,1.1
			c1.1,0,2-0.3,2.7-0.9l-0.5-0.7c-0.6,0.6-1.3,0.8-2.1,0.8c-0.7,0-1.3-0.3-1.7-0.7c-0.4-0.5-0.6-1-0.7-1.7l5.5,0.2l0-0.3
			c0-1-0.2-1.9-0.8-2.6C-397.3,330.2-398,329.8-399,329.8z M-401.4,332.8c0-0.6,0.3-1.1,0.7-1.5c0.4-0.4,0.9-0.7,1.6-0.6
			c0.7,0,1.2,0.3,1.6,0.7c0.4,0.5,0.5,1,0.5,1.6L-401.4,332.8z M-386.1,335.4c-0.2,0-0.4,0-0.5-0.2c-0.1-0.1-0.2-0.3-0.2-0.6
			l-0.4-4.2l1.4-0.1l-0.1-0.9l-1.4,0.1l-0.2-1.8l-1,0.1l0.2,1.8l-1.1,0.1l0.1,0.9l1.1-0.1l0.5,4.4c0.1,0.5,0.2,0.9,0.5,1.1
			c0.3,0.2,0.7,0.3,1.2,0.3c0.5-0.1,0.9-0.2,1.2-0.6l-0.4-0.7C-385.5,335.2-385.8,335.4-386.1,335.4z M-380.3,328.3
			c-0.5,0.1-0.9,0.3-1.3,0.6c-0.4,0.3-0.7,0.6-0.9,1l-0.7-3.5l-1,0.2l1.7,9.2l1-0.2l-0.9-4.8c0.2-0.3,0.4-0.6,0.7-0.9
			c0.3-0.3,0.7-0.4,1.1-0.5c0.5-0.1,0.9,0,1.2,0.1c0.3,0.2,0.5,0.5,0.6,1.1l0.8,4.4l1-0.2l-0.9-4.7
			C-378,328.6-378.9,328-380.3,328.3z M-370.7,332.3c-0.7,0.2-1.3,0.1-1.8-0.2c-0.5-0.3-0.9-0.8-1.2-1.4l5.2-1.6l-0.1-0.3
			c-0.3-1-0.8-1.7-1.6-2.2c-0.8-0.5-1.6-0.6-2.6-0.3c-0.9,0.3-1.6,0.8-2,1.7c-0.4,0.8-0.5,1.7-0.2,2.7c0.3,1,0.9,1.7,1.7,2.2
			c0.8,0.4,1.7,0.5,2.7,0.2c1.1-0.3,1.8-0.9,2.3-1.8l-0.7-0.5C-369.3,331.6-369.9,332.1-370.7,332.3z M-373.9,330
			c-0.1-0.6-0.1-1.1,0.2-1.7c0.2-0.5,0.7-0.9,1.3-1.1c0.7-0.2,1.3-0.1,1.8,0.2c0.5,0.3,0.8,0.8,1,1.3L-373.9,330z M-355.9,319.6
			l0.9,5.5l-4-4l-0.8,0.4l0.8,5.6l-3.9-4.1l-1,0.5l4.9,5.1l0.9-0.5l-0.8-5.6l4,4.1l0.9-0.5l-1.1-7L-355.9,319.6z M-353.2,318
			l3.5,5.7l0.9-0.5l-3.5-5.7L-353.2,318z M-353,316.5c0-0.2,0-0.4-0.1-0.5c-0.1-0.2-0.3-0.3-0.4-0.3c-0.2,0-0.4,0-0.5,0.1
			c-0.2,0.1-0.3,0.2-0.3,0.4c0,0.2,0,0.4,0.1,0.5c0.1,0.2,0.2,0.3,0.4,0.3c0.2,0,0.4,0,0.5-0.1C-353.1,316.8-353,316.6-353,316.5z
			 M-347.1,313.7c-0.4,0.3-0.7,0.6-0.9,1.1c-0.2,0.4-0.3,0.9-0.4,1.3l-0.6-0.8l-0.8,0.6l4,5.5l0.8-0.6l-2.9-4c0-0.4,0.1-0.7,0.3-1.1
			c0.2-0.4,0.4-0.7,0.7-0.9c0.4-0.3,0.8-0.4,1.1-0.4c0.4,0,0.7,0.3,1,0.7l2.6,3.6l0.8-0.6l-2.8-3.8
			C-344.9,313-345.9,312.8-347.1,313.7z M-340.6,308.4c-0.3,0.3-0.6,0.7-0.8,1.2c-0.2,0.5-0.3,0.9-0.2,1.3l-0.7-0.7l-0.8,0.7l4.5,5
			l0.8-0.7l-3.3-3.7c0-0.4,0-0.7,0.1-1.1c0.1-0.4,0.4-0.7,0.6-1c0.4-0.3,0.7-0.5,1.1-0.5c0.4,0,0.7,0.2,1.1,0.6l2.9,3.3l0.8-0.7
			l-3.2-3.5C-338.5,307.5-339.5,307.4-340.6,308.4z M-330.3,306.8c-0.5,0.5-1,0.8-1.6,0.8c-0.6,0-1.2-0.2-1.7-0.6l3.7-4l-0.2-0.2
			c-0.8-0.7-1.6-1.1-2.5-1.1c-0.9,0-1.7,0.3-2.4,1.1c-0.6,0.7-0.9,1.5-0.8,2.4c0.1,0.9,0.5,1.7,1.2,2.4c0.8,0.7,1.6,1,2.5,1
			s1.7-0.4,2.4-1.2c0.7-0.8,1.1-1.7,1-2.7l-0.8-0.1C-329.5,305.5-329.7,306.2-330.3,306.8z M-335,305c-0.1-0.6,0.1-1.1,0.6-1.6
			c0.5-0.5,1-0.8,1.6-0.7c0.6,0,1.1,0.2,1.5,0.6l-3,3.3C-334.6,306.1-334.9,305.6-335,305z M-329.1,297.8c0-0.4,0.2-0.8,0.4-1
			c0.1-0.1,0.2-0.2,0.3-0.3l-0.9-0.7c-0.5,0.7-0.7,1.5-0.4,2.5l-0.9-0.7l-0.6,0.8l5.4,4.1l0.6-0.8l-3.8-2.9
			C-329.1,298.6-329.1,298.3-329.1,297.8z M-320.3,294.2c-0.1-0.6-0.3-1.1-0.9-1.4c-0.4-0.3-0.8-0.4-1.2-0.3
			c-0.4,0.1-0.8,0.3-1.1,0.5c-0.3,0.3-0.6,0.6-0.9,0.9c-0.3,0.3-0.6,0.5-0.9,0.7c-0.3,0.2-0.5,0.2-0.8,0c-0.3-0.2-0.4-0.4-0.4-0.8
			c0-0.3,0.1-0.7,0.3-1.1c0.5-0.7,1.1-1.1,1.8-1.2l-0.3-0.8c-0.9,0.2-1.6,0.7-2.2,1.6c-0.4,0.6-0.6,1.3-0.5,1.8
			c0.1,0.6,0.3,1,0.8,1.3c0.4,0.3,0.8,0.3,1.2,0.2c0.4-0.1,0.8-0.3,1.1-0.6c0.3-0.3,0.6-0.6,0.9-0.9c0.3-0.3,0.6-0.5,0.9-0.7
			c0.3-0.1,0.6-0.1,0.8,0c0.3,0.2,0.4,0.5,0.5,0.8c0,0.4-0.1,0.7-0.4,1.2c-0.2,0.4-0.5,0.7-0.9,0.9c-0.4,0.2-0.7,0.4-1.1,0.4
			l0.3,0.9c1-0.2,1.8-0.7,2.4-1.7C-320.4,295.4-320.2,294.8-320.3,294.2z"/>
	</g>
</g>
</svg>
