<?xml version="1.0" encoding="utf-8"?>
<!-- Generator: Adobe Illustrator 16.0.0, SVG Export Plug-In . SVG Version: 6.00 Build 0)  -->
<!DOCTYPE svg PUBLIC "-//W3C//DTD SVG 1.1//EN" "http://www.w3.org/Graphics/SVG/1.1/DTD/svg11.dtd">
<svg version="1.1" id="Layer_1" xmlns="http://www.w3.org/2000/svg" xmlns:xlink="http://www.w3.org/1999/xlink" x="0px" y="0px"
	 width="352.788px" height="317px" viewBox="0 0 352.788 317" enable-background="new 0 0 352.788 317" xml:space="preserve">
<g>
	
		<path fill-rule="evenodd" clip-rule="evenodd" fill="none" stroke="#231F20" stroke-width="2" stroke-miterlimit="10" stroke-dasharray="12" d="
		M176.264,42.995c62.133,0,112.5,50.37,112.5,112.506s-50.367,112.506-112.5,112.506S63.762,217.636,63.762,155.5
		S114.131,42.995,176.264,42.995z"/>
	<path fill-rule="evenodd" clip-rule="evenodd" fill="none" stroke="#231F20" stroke-width="2" stroke-miterlimit="10" d="
		M176.781,93.99c34.24,0,61.998,27.763,61.998,62.011s-27.758,62.011-61.998,62.011c-34.242,0-62-27.763-62-62.011
		S142.539,93.99,176.781,93.99z"/>
	
		<path fill-rule="evenodd" clip-rule="evenodd" fill="none" stroke="#231F20" stroke-width="2" stroke-linecap="round" stroke-linejoin="round" stroke-miterlimit="10" stroke-dasharray="0,7" d="
		M176.771,101.995c29.832,0,54.016,24.178,54.016,54.003S206.604,210,176.771,210s-54.016-24.178-54.016-54.003
		S146.939,101.995,176.771,101.995z"/>
	<path fill-rule="evenodd" clip-rule="evenodd" fill="none" stroke="#231F20" stroke-width="2" stroke-miterlimit="10" d="
		M288.329,155h30.447"/>
	<path fill-rule="evenodd" clip-rule="evenodd" fill="none" stroke="#231F20" stroke-width="2" stroke-miterlimit="10" d="
		M287.069,133.004h13.674"/>
	<path fill-rule="evenodd" clip-rule="evenodd" fill="none" stroke="#231F20" stroke-width="2" stroke-miterlimit="10" d="
		M280.776,111.998h4.645"/>
	<path fill-rule="evenodd" clip-rule="evenodd" fill="none" stroke="#231F20" stroke-width="2" stroke-miterlimit="10" d="
		M280.776,196.998h4.906"/>
	<path fill-rule="evenodd" clip-rule="evenodd" fill="none" stroke="#231F20" stroke-width="2" stroke-miterlimit="10" d="
		M287.067,175.001h13.674"/>
	<path fill-rule="evenodd" clip-rule="evenodd" fill="none" stroke="#231F20" stroke-width="2" stroke-miterlimit="10" d="
		M64.224,156H33.774"/>
	<path fill-rule="evenodd" clip-rule="evenodd" fill="none" stroke="#231F20" stroke-width="2" stroke-miterlimit="10" d="
		M65.481,177.997H51.808"/>
	<path fill-rule="evenodd" clip-rule="evenodd" fill="none" stroke="#231F20" stroke-width="2" stroke-miterlimit="10" d="
		M71.775,199.003h-4.645"/>
	<path fill-rule="evenodd" clip-rule="evenodd" fill="none" stroke="#231F20" stroke-width="2" stroke-miterlimit="10" d="
		M71.775,114.003h-4.907"/>
	<path fill-rule="evenodd" clip-rule="evenodd" fill="none" stroke="#231F20" stroke-width="2" stroke-miterlimit="10" d="
		M65.485,136H51.811"/>
	<path fill-rule="evenodd" clip-rule="evenodd" fill="none" stroke="#231F20" stroke-width="2" stroke-miterlimit="10" d="
		M180.385,16.002c1.932,0.06,3.449,1.675,3.389,3.606c-0.061,1.933-1.676,3.45-3.607,3.39c-1.932-0.06-3.449-1.675-3.389-3.606
		C176.838,17.459,178.453,15.942,180.385,16.002z"/>
	<path fill="none" stroke="#231F20" stroke-width="2" stroke-miterlimit="10" d="M176.865,120.529l-2.814,1.221l0.471-2.86
		l-2.172-2.186l3.066-0.467l1.389-2.652l1.508,2.652l2.947,0.467l-2.053,2.186l0.352,2.86L176.865,120.529z"/>
	<path fill-rule="evenodd" clip-rule="evenodd" fill="none" stroke="#231F20" stroke-width="2" stroke-miterlimit="10" d="
		M213.541,1.004c4.693,0.146,8.377,4.068,8.23,8.76c-0.146,4.692-4.068,8.378-8.762,8.232c-4.691-0.146-8.377-4.068-8.23-8.76
		C204.928,4.544,208.85,0.859,213.541,1.004z"/>
	<path fill-rule="evenodd" clip-rule="evenodd" fill="none" stroke="#231F20" stroke-width="2" stroke-miterlimit="10" d="
		M263.541,140.004c4.693,0.146,8.377,4.068,8.23,8.76c-0.146,4.692-4.068,8.378-8.762,8.232c-4.691-0.146-8.377-4.068-8.23-8.76
		C254.928,143.544,258.85,139.859,263.541,140.004z"/>
	<path fill-rule="evenodd" clip-rule="evenodd" fill="none" stroke="#231F20" stroke-width="2" stroke-miterlimit="10" d="
		M92.01,156.997c-4.691-0.146-8.377-4.068-8.23-8.76c0.147-4.692,4.07-8.378,8.762-8.232c4.693,0.146,8.377,4.068,8.23,8.76
		C100.625,153.457,96.702,157.142,92.01,156.997z"/>
	<path fill-rule="evenodd" clip-rule="evenodd" fill="none" stroke="#231F20" stroke-width="2" stroke-miterlimit="10" d="
		M205.447,305.003c3.037,0.094,5.42,2.632,5.326,5.668c-0.096,3.036-2.633,5.421-5.67,5.326c-3.035-0.094-5.42-2.632-5.324-5.668
		C199.873,307.293,202.412,304.909,205.447,305.003z"/>
	<path fill-rule="evenodd" clip-rule="evenodd" fill="none" stroke="#231F20" stroke-width="2" stroke-miterlimit="10" d="
		M89.385,261.002c1.933,0.06,3.449,1.675,3.39,3.606c-0.061,1.933-1.676,3.45-3.608,3.39c-1.932-0.06-3.449-1.675-3.389-3.606
		C85.838,262.459,87.453,260.942,89.385,261.002z"/>
	<path fill-rule="evenodd" clip-rule="evenodd" fill="none" stroke="#231F20" stroke-width="2" stroke-miterlimit="10" d="
		M62.608,79.168l-5.665,5.664"/>
	<path fill-rule="evenodd" clip-rule="evenodd" fill="none" stroke="#231F20" stroke-width="2" stroke-miterlimit="10" d="
		M56.95,79.174l5.651,5.652"/>
	<path fill-rule="evenodd" clip-rule="evenodd" fill="none" stroke="#231F20" stroke-width="2" stroke-miterlimit="10" d="
		M119.608,274.124l-5.665,5.664"/>
	<path fill-rule="evenodd" clip-rule="evenodd" fill="none" stroke="#231F20" stroke-width="2" stroke-miterlimit="10" d="
		M113.95,274.13l5.651,5.652"/>
	<path fill-rule="evenodd" clip-rule="evenodd" fill="none" stroke="#231F20" stroke-width="2" stroke-miterlimit="10" d="
		M199.281,120.496l-4.01,4.01"/>
	<path fill-rule="evenodd" clip-rule="evenodd" fill="none" stroke="#231F20" stroke-width="2" stroke-miterlimit="10" d="
		M195.275,120.5l4.002,4.001"/>
	<path fill-rule="evenodd" clip-rule="evenodd" fill="none" stroke="#231F20" stroke-width="2" stroke-miterlimit="10" d="
		M160.281,120.496l-4.011,4.01"/>
	<path fill-rule="evenodd" clip-rule="evenodd" fill="none" stroke="#231F20" stroke-width="2" stroke-miterlimit="10" d="
		M156.275,120.5l4.001,4.001"/>
	<path fill-rule="evenodd" clip-rule="evenodd" fill="none" stroke="#231F20" stroke-width="2" stroke-miterlimit="10" d="
		M270.775,282.179v11.642"/>
	<path fill-rule="evenodd" clip-rule="evenodd" fill="none" stroke="#231F20" stroke-width="2" stroke-miterlimit="10" d="M265,288
		h11.551"/>
	<path fill-rule="evenodd" clip-rule="evenodd" fill="none" stroke="#231F20" stroke-width="2" stroke-miterlimit="10" d="
		M5.775,1.179v11.643"/>
	<path fill-rule="evenodd" clip-rule="evenodd" fill="none" stroke="#231F20" stroke-width="2" stroke-miterlimit="10" d="M0,7
		h11.552"/>
	<path fill-rule="evenodd" clip-rule="evenodd" fill="none" stroke="#231F20" stroke-width="2" stroke-miterlimit="10" d="
		M158.775,181h12v9h-12V181z"/>
	<path fill-rule="evenodd" clip-rule="evenodd" fill="none" stroke="#231F20" stroke-width="2" stroke-miterlimit="10" d="
		M170.775,175h12v15h-12V175z"/>
	<path fill-rule="evenodd" clip-rule="evenodd" fill="none" stroke="#231F20" stroke-width="2" stroke-miterlimit="10" d="
		M182.775,185h12v5h-12V185z"/>
	<path fill-rule="evenodd" clip-rule="evenodd" fill="none" stroke="#231F20" stroke-width="2" stroke-miterlimit="10" d="
		M185.773,139v10.744c0,5.119-4.029,9.27-8.998,9.27s-8.996-4.15-8.996-9.27V139H185.773z"/>
	<path fill-rule="evenodd" clip-rule="evenodd" fill="none" stroke="#231F20" stroke-width="2" stroke-miterlimit="10" d="
		M191.769,140.989v4.979c0,3.325-2.68,6.021-5.986,6.021c0-7.88,0-11.001,0-11.001H191.769z"/>
	<path fill-rule="evenodd" clip-rule="evenodd" fill="none" stroke="#231F20" stroke-width="2" stroke-miterlimit="10" d="
		M161.781,140.989v4.979c0,3.325,2.682,6.021,5.988,6.021c0-7.88,0-11.001,0-11.001H161.781z"/>
	<path fill-rule="evenodd" clip-rule="evenodd" fill="none" stroke="#231F20" stroke-width="2" stroke-miterlimit="10" d="
		M176.775,157.987v4.01"/>
	<path fill-rule="evenodd" clip-rule="evenodd" fill="none" stroke="#231F20" stroke-width="2" stroke-miterlimit="10" d="
		M174.352,162.02h3.848c1.965,0,3.559,1.773,3.559,3.961c0.088,0-10.48,0-10.965,0C170.793,163.793,172.387,162.02,174.352,162.02z"
		/>
	<path fill-rule="evenodd" clip-rule="evenodd" fill="none" stroke="#231F20" stroke-width="2" stroke-miterlimit="10" d="
		M286.775,49.179v11.643"/>
	<path fill-rule="evenodd" clip-rule="evenodd" fill="none" stroke="#231F20" stroke-width="2" stroke-miterlimit="10" d="M281,55
		h11.551"/>
	<path fill-rule="evenodd" clip-rule="evenodd" fill="none" stroke="#231F20" stroke-width="2" stroke-miterlimit="10" d="
		M149.646,156.042c0,0-3.808,1.669-6.061,0.002s-2.812-5.67-2.812-5.67s3.835-1.47,6.061-0.003
		C149.059,151.838,149.646,156.042,149.646,156.042z"/>
	<path fill-rule="evenodd" clip-rule="evenodd" fill="none" stroke="#231F20" stroke-width="2" stroke-miterlimit="10" d="
		M150.137,150.468c0,0-4.056,0.502-5.748-1.781c-1.693-2.283-1.158-6.338-1.158-6.338s4.027-0.3,5.747,1.781
		C150.697,146.21,150.137,150.468,150.137,150.468z"/>
	<path fill-rule="evenodd" clip-rule="evenodd" fill="none" stroke="#231F20" stroke-width="2" stroke-miterlimit="10" d="
		M152.521,161.637c0,0-3.268,2.556-5.856,1.487c-2.59-1.069-4.118-4.823-4.118-4.823s3.344-2.367,5.857-1.486
		C150.917,157.696,152.521,161.637,152.521,161.637z"/>
	<path fill-rule="evenodd" clip-rule="evenodd" fill="none" stroke="#231F20" stroke-width="2" stroke-miterlimit="10" d="
		M150.975,145.534c0,0-3.664-1.852-3.791-4.674s2.603-5.856,2.603-5.856s3.528,2.004,3.792,4.674
		C153.841,142.348,150.975,145.534,150.975,145.534z"/>
	<path fill-rule="evenodd" clip-rule="evenodd" fill="none" stroke="#231F20" stroke-width="2" stroke-miterlimit="10" d="
		M155.787,166.219c0,0-1.775,3.652-4.605,3.781c-2.832,0.13-5.941-2.585-5.941-2.585s1.931-3.517,4.605-3.782
		C152.521,163.369,155.787,166.219,155.787,166.219z"/>
	<path fill-rule="evenodd" clip-rule="evenodd" fill="none" stroke="#231F20" stroke-width="2" stroke-miterlimit="10" d="
		M202.906,156.041c0,0,3.807,1.67,6.061,0.003c2.252-1.667,2.812-5.67,2.812-5.67s-3.836-1.47-6.061-0.003
		C203.494,151.838,202.906,156.041,202.906,156.041z"/>
	<path fill-rule="evenodd" clip-rule="evenodd" fill="none" stroke="#231F20" stroke-width="2" stroke-miterlimit="10" d="
		M202.416,150.468c0,0,4.055,0.502,5.748-1.781s1.158-6.338,1.158-6.338s-4.029-0.3-5.748,1.781
		C201.854,146.21,202.416,150.468,202.416,150.468z"/>
	<path fill-rule="evenodd" clip-rule="evenodd" fill="none" stroke="#231F20" stroke-width="2" stroke-miterlimit="10" d="
		M200.029,161.637c0,0,3.268,2.556,5.857,1.487c2.59-1.069,4.119-4.823,4.119-4.823s-3.346-2.367-5.857-1.486
		C201.635,157.696,200.029,161.637,200.029,161.637z"/>
	<path fill-rule="evenodd" clip-rule="evenodd" fill="none" stroke="#231F20" stroke-width="2" stroke-miterlimit="10" d="
		M201.576,145.534c0,0,3.666-1.852,3.793-4.674c0.125-2.822-2.604-5.856-2.604-5.856s-3.529,2.004-3.791,4.674
		C198.711,142.348,201.576,145.534,201.576,145.534z"/>
	<path fill-rule="evenodd" clip-rule="evenodd" fill="none" stroke="#231F20" stroke-width="2" stroke-miterlimit="10" d="
		M196.766,166.219c0,0,1.773,3.652,4.605,3.781c2.83,0.13,5.939-2.585,5.939-2.585s-1.93-3.517-4.605-3.782
		C200.029,163.369,196.766,166.219,196.766,166.219z"/>
	<path fill="#231F20" d="M109.519,111.458l-2.862-9.475l6.365,4.938l1.564-2.026l-9.498-7.367l-1.607,2.083l2.732,9.169
		l-6.137-4.761l-1.564,2.026l9.498,7.367L109.519,111.458z"/>
	<path fill="#231F20" d="M118.094,101.402l-6.779-7.028l4.268-4.136l-1.562-1.62l-6.105,5.914l8.343,8.649L118.094,101.402z"/>
	<path fill="#231F20" d="M125.793,94.588l-2.535-3.438l2.459-1.821c2.084-1.543,2.183-3.836,0.941-5.519
		c-1.251-1.697-3.442-2.272-5.541-0.719l-4.514,3.344l7.135,9.674L125.793,94.588z M124.105,87.72l-2.186,1.618l-1.925-2.611
		l2.185-1.618c0.811-0.6,1.781-0.557,2.381,0.256C125.148,86.163,124.916,87.12,124.105,87.72z"/>
	<path fill="#231F20" d="M142.738,84.227l-9.746-8.425l-2.824,1.514l1.57,12.807l2.571-1.378l-0.294-2.155l4.54-2.433l1.61,1.449
		L142.738,84.227z M136.875,82.5l-3.301,1.77l-0.787-5.451L136.875,82.5z"/>
	<path fill="#231F20" d="M152.125,81.247c2.743-0.82,4.311-2.813,3.719-4.802c-0.516-1.729-2.307-2.192-3.498-1.968
		c1.192-0.602,2.151-1.924,1.719-3.376c-0.571-1.92-2.795-2.573-5.486-1.77c-2.02,0.604-3.426,1.871-4.044,3.204l1.683,1.173
		c0.58-1.021,1.646-1.791,2.768-2.126c1.312-0.392,2.48-0.251,2.754,0.665c0.252,0.848-0.618,1.521-1.98,1.929l-2.33,0.696
		l0.645,2.161l2.328-0.695c1.726-0.516,2.66-0.343,2.934,0.573c0.257,0.865-0.443,1.733-1.961,2.187
		c-1.121,0.335-2.715,0.284-3.756-0.31l-0.787,2.024C147.984,81.598,150.003,81.88,152.125,81.247z"/>
	<path fill="#231F20" d="M169.775,77.572l-6.316-11.241l-3.172,0.464l-2.859,12.582l2.887-0.422l0.453-2.127l5.096-0.745
		l1.025,1.911L169.775,77.572z M164.844,73.952l-3.707,0.542l1.105-5.396L164.844,73.952z"/>
	<path fill="#231F20" d="M177.43,77.633c2.285,0.01,3.496-1.428,3.504-3.23c0.006-1.516-1.016-2.764-2.293-2.968
		c1.135-0.229,2.074-1.235,2.082-2.751c0.006-1.604-1.158-3.07-3.443-3.08l-6.316-0.027l-0.049,12.028L177.43,77.633z
		 M176.701,70.417l-3.203-0.014l0.012-2.615l3.203,0.014c0.863,0.004,1.4,0.565,1.398,1.323
		C178.107,69.881,177.566,70.42,176.701,70.417z M176.771,75.413l-3.293-0.015l0.012-2.795l3.293,0.014
		c1.008,0.005,1.545,0.656,1.541,1.414C178.322,74.896,177.744,75.417,176.771,75.413z"/>
	<path fill="#231F20" d="M191.258,79.066l0.316-2.233l-5.883-0.838l0.383-2.696l5.758,0.819l0.314-2.232l-5.758-0.82l0.357-2.519
		l5.881,0.838l0.316-2.233l-8.412-1.198l-1.686,11.915L191.258,79.066z"/>
	<path fill="#231F20" d="M195.686,80.177l1.158-4.115l2.947,0.834c2.494,0.707,4.365-0.619,4.934-2.634
		c0.572-2.031-0.318-4.121-2.83-4.833l-5.406-1.531l-3.264,11.582L195.686,80.177z M200.072,74.632l-2.615-0.741l0.879-3.126
		l2.617,0.741c0.971,0.275,1.531,1.071,1.258,2.044C201.941,74.505,201.043,74.907,200.072,74.632z"/>
	<path fill="#231F20" d="M220.84,77.31l-4.293,8.779l-3.412-1.676l4.293-8.78l-2.311-1.136l-4.293,8.78l-3.428-1.684l4.293-8.78
		l-2.297-1.128l-5.281,10.805l13.758,6.76l5.281-10.805L220.84,77.31z"/>
	<path fill="#231F20" d="M226.619,95.761l1.324-1.823l-4.803-3.504l1.6-2.203l4.701,3.431l1.324-1.822l-4.701-3.431l1.492-2.057
		l4.805,3.505l1.322-1.823l-6.869-5.013l-7.064,9.728L226.619,95.761z"/>
	<path fill="#231F20" d="M235.918,104.589l8.398-8.594l-1.84-1.806l-3.297,3.376l-4.053-3.976l3.299-3.376l-1.826-1.793
		l-8.398,8.595l1.826,1.792l3.525-3.607l4.053,3.976l-3.525,3.608L235.918,104.589z"/>
	<path fill="#231F20" d="M244.141,115.408l6.871-10.903l-1.914-2.578l-12.408,3.447l1.742,2.346l2.084-0.609l3.074,4.142
		l-1.191,1.811L244.141,115.408z M244.977,109.34l-2.236-3.012l5.264-1.584L244.977,109.34z"/>
	<path fill="#231F20" d="M97.055,198.61l8.344-4.181l-3.49-6.938l-8.344,4.181l0.521,1.036l7.418-3.717l2.448,4.867l-7.419,3.717
		L97.055,198.61z"/>
	<path fill="#231F20" d="M100.369,204.216c1.131,1.715,3.172,1.912,4.809,0.837s2.251-3.017,1.119-4.731
		c-1.131-1.715-3.16-1.92-4.797-0.844C99.863,200.553,99.238,202.502,100.369,204.216z M101.152,203.702
		c-0.793-1.201-0.21-2.554,0.947-3.314c1.146-0.753,2.621-0.752,3.414,0.449s0.203,2.542-0.943,3.295
		C103.412,204.892,101.945,204.903,101.152,203.702z"/>
	<path fill="#231F20" d="M105.596,211.356c1.227,1.507,2.604,1.868,3.484,1.154c0.869-0.705,0.498-1.915,0.047-2.558
		c0.579,0.557,1.647,1.004,2.43,0.37c0.893-0.723,0.602-2.143-0.557-3.544c-0.775-0.955-1.688-1.387-2.584-1.47l-0.156,0.828
		c0.818,0.075,1.504,0.474,2.104,1.211c0.707,0.868,0.908,1.803,0.408,2.208c-0.599,0.484-1.438,0.03-2.143-0.837l-0.953-1.172
		l-0.664,0.537l0.953,1.172c0.75,0.922,1.124,1.824,0.472,2.354c-0.554,0.449-1.407,0.133-2.167-0.801
		c-0.635-0.78-0.961-1.669-0.891-2.535l-0.848,0.021C104.433,209.239,104.74,210.303,105.596,211.356z"/>
	<path fill="#231F20" d="M107.963,216.587l0.74,0.744l1.223-1.211l3.598,3.622l-1.223,1.21l0.738,0.744l1.881-1.859l-0.553-0.556
		l4.148-4.103l-3.312-3.334l-2.672,2.034c-1.61,1.219-2.205,1.255-2.728,0.888L107.963,216.587z M115.197,213.15l1.922,1.935
		l-3.49,3.453l-2.83-2.848c0.624,0.072,1.357-0.202,2.382-0.978L115.197,213.15z"/>
	<path fill="#231F20" d="M118.867,224.617c1.375,1.124,3.198,0.844,4.582-0.842c1.394-1.697,1.293-3.513-0.082-4.637
		c-0.736-0.603-1.697-0.755-2.511-0.535l0.64-0.778l-0.812-0.663l-5.919,7.208l0.812,0.663l2.281-2.777
		C117.801,223.184,118.153,224.033,118.867,224.617z M119.256,223.725c-0.639-0.522-0.957-1.434-0.866-2.118l1.935-2.355
		c0.654-0.224,1.604-0.08,2.242,0.442c1.051,0.858,0.978,2.226,0.027,3.382C121.645,224.232,120.307,224.583,119.256,223.725z"/>
	<path fill="#231F20" d="M128.191,231.082l2.569-3.868c0.905-1.363,0.269-2.555-0.922-3.342c-0.923-0.609-1.847-0.785-2.872-0.557
		l0.006,0.876c0.858-0.204,1.569-0.087,2.246,0.361c0.817,0.54,1.139,1.372,0.635,2.129l-0.672,1.014
		c-0.107-0.825-0.588-1.494-1.357-2.003c-0.957-0.633-2.367-0.71-3.203,0.548c-0.812,1.224-0.223,2.536,0.734,3.168
		c0.76,0.502,1.579,0.658,2.387,0.454l-0.426,0.641L128.191,231.082z M126.089,228.987c-0.817-0.539-1.049-1.431-0.577-2.141
		c0.48-0.723,1.393-0.857,2.209-0.317c0.619,0.409,1.061,1.036,1.089,1.726l-0.704,1.06
		C127.457,229.557,126.707,229.396,126.089,228.987z"/>
	<path fill="#231F20" d="M134.551,234.637c1.102,0.58,2.092,0.264,2.602-0.699c0.359-0.68,0.21-1.564-0.318-2.032
		c0.593,0.106,1.306-0.134,1.686-0.851c0.477-0.901,0.178-1.864-0.874-2.418l-3.293-1.733l-3.157,5.967L134.551,234.637z
		 M134.797,233.724l-2.242-1.18l0.975-1.841l2.24,1.18c0.632,0.332,0.73,0.953,0.477,1.435
		C135.945,233.886,135.391,234.037,134.797,233.724z M136.164,231.048l-2.203-1.16l0.889-1.681l2.203,1.16
		c0.57,0.3,0.715,0.803,0.441,1.321C137.245,231.159,136.746,231.354,136.164,231.048z"/>
	<path fill="#231F20" d="M138.58,236.834c1.208,0.485,2.238-0.125,3.467-2.344l1.232-2.23l2.531,1.017l-2.18,5.404l0.974,0.392
		l2.526-6.261l-4.364-1.752l-1.647,2.924c-0.994,1.754-1.631,2.282-2.215,2.047L138.58,236.834z"/>
	<path fill="#231F20" d="M148.861,240.486l2.313-2.052l1.774,0.512l-0.727,2.509l1.008,0.291l1.879-6.479l-3.429-0.988
		c-1.317-0.38-2.313,0.292-2.632,1.393c-0.315,1.086,0.17,2.025,1.103,2.426l-2.474,2.049L148.861,240.486z M150.895,237.394
		c-0.74-0.213-0.998-0.781-0.811-1.426c0.186-0.644,0.734-0.979,1.447-0.774l2.312,0.667l-0.638,2.2L150.895,237.394z"/>
	<path fill="#231F20" d="M159.619,243.253c1.088,0.195,2.049-0.001,2.828-0.542l-0.373-0.763c-0.621,0.442-1.447,0.605-2.205,0.47
		c-1.432-0.257-2.125-1.46-1.981-2.726l5.386,0.967l0.047-0.261c0.36-1.993-0.541-3.772-2.553-4.134
		c-1.9-0.342-3.559,0.965-3.906,2.889C156.486,241.229,157.649,242.9,159.619,243.253z M162.391,239.721l-4.366-0.784
		c0.239-1.007,1.157-2.077,2.576-1.822C162.115,237.387,162.556,238.729,162.391,239.721z"/>
	<path fill="#231F20" d="M172.697,244.504l0.463-6.729l-1.396-0.096l-2.383,4.85l-1.723-5.13l-1.381-0.094l-0.465,6.729l1.047,0.071
		l0.365-5.28l1.842,5.431l0.391,0.027l2.557-5.131l-0.363,5.28L172.697,244.504z"/>
	<path fill="#231F20" d="M186.809,243.823l-0.629-6.716l-5.604,0.525l0.631,6.716l1.045-0.099l-0.543-5.798l3.512-0.329l0.543,5.798
		L186.809,243.823z"/>
	<path fill="#231F20" d="M193.221,242.913c2.02-0.401,2.971-2.214,2.588-4.132c-0.383-1.919-1.953-3.216-3.973-2.814
		s-2.973,2.201-2.592,4.119C189.627,242.003,191.201,243.314,193.221,242.913z M193.037,241.995
		c-1.414,0.281-2.451-0.766-2.721-2.122c-0.268-1.343,0.287-2.707,1.703-2.988c1.414-0.281,2.438,0.769,2.705,2.111
		C194.994,240.352,194.451,241.713,193.037,241.995z"/>
	<path fill="#231F20" d="M202.064,239.704c-1.377,0.429-2.52-0.503-2.936-1.837c-0.404-1.293,0.004-2.708,1.381-3.137
		c1.377-0.428,2.506,0.508,2.91,1.802C203.836,237.865,203.439,239.276,202.064,239.704z M202.342,240.597
		c1.992-0.619,2.699-2.537,2.119-4.391c-0.57-1.826-2.238-2.989-4.07-2.42c-1.148,0.358-1.764,1.252-2.002,2.131
		c-0.115-1.164,0.201-2.17,2.029-3.031c1.051-0.488,2.406-1.217,2.078-2.271l-0.977,0.304c0.084,0.267-0.264,0.564-1.613,1.219
		c-2.154,0.993-2.887,2.64-1.908,5.773C198.666,240.045,200.365,241.213,202.342,240.597z"/>
	<path fill="#231F20" d="M211.346,237.265c1.016-0.437,1.707-1.13,2.057-2.011l-0.732-0.429c-0.273,0.71-0.871,1.302-1.578,1.606
		c-1.336,0.575-2.58-0.046-3.16-1.179l5.023-2.163l-0.105-0.243c-0.803-1.859-2.539-2.845-4.416-2.037
		c-1.773,0.763-2.432,2.765-1.656,4.56C207.613,237.305,209.508,238.056,211.346,237.265z M211.699,232.794l-4.072,1.754
		c-0.359-0.971-0.186-2.368,1.139-2.938C210.178,231.001,211.289,231.877,211.699,232.794z"/>
	<path fill="#231F20" d="M217.072,236.369l0.916-0.513l-0.842-1.498l4.459-2.493l0.842,1.499l0.916-0.513l-1.293-2.303l-0.684,0.383
		l-2.852-5.082l-4.105,2.295l1.25,3.111c0.746,1.873,0.623,2.454,0.127,2.858L217.072,236.369z M215.688,228.498l2.383-1.332
		l2.4,4.277l-3.506,1.96c0.236-0.58,0.168-1.358-0.309-2.55L215.688,228.498z"/>
	<path fill="#231F20" d="M225.73,229.227l-0.109-6.344l3.027,4.293l0.859-0.603l-3.891-5.516l-0.848,0.595l0.076,6.248l-2.973-4.213
		l-0.857,0.603l3.891,5.516L225.73,229.227z"/>
	<path fill="#231F20" d="M233.982,222.928l-3.773-4.439l1.504-1.274l-0.598-0.702l-3.799,3.216l0.598,0.703l1.494-1.265l3.773,4.439
		L233.982,222.928z"/>
	<path fill="#231F20" d="M239.809,217.719c0.775-0.787,1.154-1.688,1.146-2.637l-0.842-0.121c0.016,0.76-0.314,1.533-0.855,2.081
		c-1.021,1.035-2.408,0.928-3.375,0.097l3.84-3.894l-0.189-0.186c-1.445-1.421-3.428-1.681-4.861-0.228
		c-1.355,1.374-1.211,3.477,0.186,4.848C236.365,219.16,238.404,219.143,239.809,217.719z M238.447,213.444l-3.113,3.156
		c-0.697-0.765-1.064-2.125-0.053-3.15C236.361,212.355,237.721,212.749,238.447,213.444z"/>
	<path fill="#231F20" d="M243.559,213.764c0.812-1.015,0.525-2.176-1.25-3.986l-1.787-1.818l1.705-2.128l4.559,3.638l0.656-0.818
		l-5.279-4.213l-2.939,3.666l2.33,2.414c1.398,1.455,1.721,2.214,1.328,2.705L243.559,213.764z"/>
	<path fill="#231F20" d="M251.275,203.364c0.6-0.928,0.785-1.887,0.586-2.813l-0.85,0.052c0.17,0.741,0.004,1.565-0.412,2.211
		c-0.789,1.221-2.168,1.397-3.285,0.779l2.965-4.59l-0.223-0.144c-1.705-1.097-3.699-0.949-4.807,0.765
		c-1.047,1.62-0.475,3.649,1.172,4.708C248.197,205.473,250.191,205.042,251.275,203.364z M249.072,199.456l-2.404,3.722
		c-0.84-0.607-1.477-1.863-0.695-3.073C246.807,198.813,248.217,198.922,249.072,199.456z"/>
	<path fill="#231F20" d="M254.818,197.042l-3.076-5.554l4.693,2.377l0.477-0.934l-6.029-3.055l-0.469,0.922l3.002,5.485
		l-4.607-2.333l-0.475,0.934l6.029,3.054L254.818,197.042z M248.934,189.297l-0.635,0.259c0.365,0.671,0.391,1.452,0.023,2.175
		c-0.373,0.734-1.027,1.155-1.779,1.275l0.164,0.664c0.934-0.17,1.764-0.752,2.215-1.637
		C249.379,191.137,249.354,190.137,248.934,189.297z"/>
</g>
</svg>
