<?xml version="1.0" encoding="utf-8"?>
<!-- Generator: Adobe Illustrator 19.0.0, SVG Export Plug-In . SVG Version: 6.00 Build 0)  -->
<svg version="1.1" id="Layer_1" xmlns="http://www.w3.org/2000/svg" xmlns:xlink="http://www.w3.org/1999/xlink" x="0px" y="0px"
	 viewBox="-572 75.5 353.6 350.5" style="enable-background:new -572 75.5 353.6 350.5;" xml:space="preserve">
<style type="text/css">
	.st0{fill:none;stroke:#231F20;stroke-width:2;stroke-miterlimit:10;}
	.st1{fill:none;stroke:#231F20;stroke-width:2;stroke-miterlimit:10;stroke-dasharray:12;}
	
		.st2{fill:none;stroke:#231F20;stroke-width:2;stroke-linecap:round;stroke-linejoin:round;stroke-miterlimit:10;stroke-dasharray:0,7;}
	
		.st3{fill:none;stroke:#231F20;stroke-width:2;stroke-linecap:round;stroke-linejoin:round;stroke-miterlimit:10;stroke-dasharray:0,4;}
	.st4{fill:#231F20;}
</style>
<path class="st0" d="M-395.2,169.4c34.2,0,62,27.8,62,62s-27.8,62-62,62c-34.2,0-62-27.8-62-62S-429.5,169.4-395.2,169.4z"/>
<path class="st1" d="M-395.7,118.5c62.1,0,112.5,50.4,112.5,112.5s-50.4,112.5-112.5,112.5S-508.2,293.1-508.2,231
	S-457.9,118.5-395.7,118.5z"/>
<path class="st2" d="M-394.7,177.5c29.6,0,53.5,24,53.5,53.5s-24,53.5-53.5,53.5s-53.5-24-53.5-53.5S-424.3,177.5-394.7,177.5z"/>
<path class="st0" d="M-283.7,230.5h30.4"/>
<path class="st0" d="M-285.9,208.5h13.7"/>
<path class="st0" d="M-292.2,187.5h4.6"/>
<path class="st0" d="M-291.2,272.5h4.9"/>
<path class="st0" d="M-284.9,250.5h13.7"/>
<path class="st0" d="M-507.8,231.5h-30.4"/>
<path class="st0" d="M-505.5,253.5h-13.7"/>
<path class="st0" d="M-499.2,274.5h-4.6"/>
<path class="st0" d="M-499.2,189.5h-4.9"/>
<path class="st0" d="M-505.5,211.5h-13.7"/>
<path class="st0" d="M-318,189.4c4,1.1,6.4,5.3,5.3,9.4c-1.1,4.1-5.2,6.5-9.2,5.4c-4-1.1-6.4-5.3-5.3-9.4
	C-326.2,190.7-322,188.3-318,189.4z"/>
<path class="st0" d="M-316.8,194.3l-3.4,2l1.6,2.8"/>
<path class="st0" d="M-314.2,193.1l2.6-1.5"/>
<path class="st0" d="M-313.1,188.9l3,5.3"/>
<path class="st0" d="M-480.3,195.1l-2.6-1.5"/>
<path class="st0" d="M-484.3,196.2l3-5.3"/>
<path class="st0" d="M-391.6,91.5c1.9,0.1,3.4,1.7,3.4,3.6c-0.1,1.9-1.7,3.4-3.6,3.4c-1.9-0.1-3.4-1.7-3.4-3.6
	C-395.2,92.9-393.5,91.4-391.6,91.5z"/>
<path class="st0" d="M-394.1,196l-2.8,1.2l0.5-2.9l-2.2-2.2l3.1-0.5l1.4-2.7l1.5,2.7l2.9,0.5l-2.1,2.2l0.4,2.9L-394.1,196z"/>
<path class="st0" d="M-358.5,76.5c4.7,0.1,8.4,4.1,8.2,8.8s-4.1,8.4-8.8,8.2c-4.7-0.1-8.4-4.1-8.2-8.8
	C-367.1,80-363.1,76.3-358.5,76.5z"/>
<path class="st0" d="M-366.6,380.5c3,0.1,5.4,2.6,5.3,5.7c-0.1,3-2.6,5.4-5.7,5.3c-3-0.1-5.4-2.6-5.3-5.7S-369.6,380.4-366.6,380.5z
	"/>
<path class="st0" d="M-482.6,336.5c1.9,0.1,3.4,1.7,3.4,3.6c-0.1,1.9-1.7,3.5-3.6,3.4c-1.9-0.1-3.4-1.7-3.4-3.6
	C-486.2,337.9-484.5,336.4-482.6,336.5z"/>
<path class="st0" d="M-509.4,154.6l-5.7,5.7"/>
<path class="st0" d="M-515,154.6l5.7,5.7"/>
<path class="st0" d="M-452.4,419.6l-5.7,5.7"/>
<path class="st0" d="M-458,419.6l5.7,5.7"/>
<path class="st0" d="M-372.7,196l-4,4"/>
<path class="st0" d="M-376.7,196l4,4"/>
<path class="st0" d="M-411.7,196l-4,4"/>
<path class="st0" d="M-415.7,196l4,4"/>
<path class="st0" d="M-394.3,267.2l2.8-1.2l-0.5,2.9l2.2,2.2l-3,0.5l-1.4,2.7l-1.5-2.7l-2.9-0.5l2-2.2l-0.3-2.9L-394.3,267.2z"/>
<path class="st0" d="M-415.5,267.3l4-4.1"/>
<path class="st0" d="M-411.6,267.3l-4-4.1"/>
<path class="st0" d="M-376.9,267.3l4-4.1"/>
<path class="st0" d="M-372.9,267.3l-4-4.1"/>
<path class="st0" d="M-301.2,357.6v11.6"/>
<path class="st0" d="M-307,363.5h11.6"/>
<path class="st0" d="M-566.2,76.6v11.6"/>
<path class="st0" d="M-572,82.5h11.6"/>
<path class="st0" d="M-476.1,191.3c4-1.1,8.1,1.3,9.2,5.4c1.1,4.1-1.3,8.3-5.3,9.4s-8.1-1.3-9.2-5.4
	C-482.5,196.6-480.1,192.4-476.1,191.3z"/>
<path class="st0" d="M-477.3,196.2l3.4,2l-1.6,2.8"/>
<path class="st0" d="M-407.2,208.5h25c1.7,0,3,1.3,3,3s-1.3,3-3,3h-25c-1.7,0-3-1.3-3-3S-408.9,208.5-407.2,208.5z"/>
<path class="st0" d="M-407.2,249.5h25c1.7,0,3,1.3,3,3s-1.3,3-3,3h-25c-1.7,0-3-1.3-3-3S-408.9,249.5-407.2,249.5z"/>
<path class="st3" d="M-394.2,231.5l0,13.4"/>
<path class="st0" d="M-405.2,245.5l22-3"/>
<path class="st0" d="M-405.2,223.5h21"/>
<path class="st0" d="M-383.3,222v-7.5h-21.9v7.5c0,4.3,2.7,7.9,6.5,9.6c-3.8,1.9-6.5,6.1-6.5,10.4v7.5h21.9V242
	c0-4.3-2.7-8.5-6.5-10.4C-385.9,229.9-383.3,226.2-383.3,222z"/>
<path class="st0" d="M-285.2,124.6v11.6"/>
<path class="st0" d="M-291,130.5h11.6"/>
<path class="st0" d="M-426.9,234.1c0,0-3.9,1.7-6.2,0c-2.3-1.7-2.9-5.7-2.9-5.7s3.9-1.5,6.2,0S-426.9,234.1-426.9,234.1z"/>
<path class="st0" d="M-426.4,228.5c0,0-4.2,0.5-5.9-1.8c-1.7-2.3-1.2-6.4-1.2-6.4s4.1-0.3,5.9,1.8
	C-425.8,224.2-426.4,228.5-426.4,228.5z"/>
<path class="st0" d="M-424,239.7c0,0-3.4,2.6-6,1.5c-2.7-1.1-4.2-4.9-4.2-4.9s3.4-2.4,6-1.5C-425.6,235.8-424,239.7-424,239.7z"/>
<path class="st0" d="M-425.6,223.5c0,0-3.8-1.9-3.9-4.7c-0.1-2.9,2.7-5.9,2.7-5.9s3.6,2,3.9,4.7S-425.6,223.5-425.6,223.5z"/>
<path class="st0" d="M-420.6,244.4c0,0-1.8,3.7-4.7,3.8c-2.9,0.1-6.1-2.6-6.1-2.6s2-3.6,4.7-3.8S-420.6,244.4-420.6,244.4z"/>
<path class="st0" d="M-363.1,233.5c0,0,3.8,1.7,6.1,0s2.8-5.7,2.8-5.7s-3.8-1.5-6.1,0C-362.5,229.3-363.1,233.5-363.1,233.5z"/>
<path class="st0" d="M-363.6,227.9c0,0,4.1,0.5,5.7-1.8c1.7-2.3,1.2-6.3,1.2-6.3s-4-0.3-5.7,1.8
	C-364.1,223.7-363.6,227.9-363.6,227.9z"/>
<path class="st0" d="M-366,239.1c0,0,3.3,2.6,5.9,1.5c2.6-1.1,4.1-4.8,4.1-4.8s-3.3-2.4-5.9-1.5C-364.4,235.2-366,239.1-366,239.1z"
	/>
<path class="st0" d="M-364.4,223c0,0,3.7-1.9,3.8-4.7c0.1-2.8-2.6-5.9-2.6-5.9s-3.5,2-3.8,4.7C-367.3,219.8-364.4,223-364.4,223z"/>
<path class="st0" d="M-369.2,243.7c0,0,1.8,3.7,4.6,3.8c2.8,0.1,5.9-2.6,5.9-2.6s-1.9-3.5-4.6-3.8
	C-366,240.8-369.2,243.7-369.2,243.7z"/>
<g>
	<g>
		<path class="st4" d="M-431.2,155.3c-0.7-0.3-1.3-0.3-1.9-0.1c0.5-0.4,0.8-0.9,0.9-1.5c0.1-0.6,0-1.3-0.3-1.9
			c-0.4-0.8-1-1.3-1.8-1.5c-0.8-0.2-1.7-0.1-2.7,0.4l-5.6,2.9l5.5,10.7l5.8-3c1-0.5,1.6-1.2,1.9-2c0.3-0.8,0.2-1.7-0.3-2.5
			C-430.1,156.1-430.6,155.6-431.2,155.3z M-439.4,154.3l2.8-1.5c0.4-0.2,0.7-0.2,1.1-0.1c0.3,0.1,0.6,0.3,0.8,0.7
			c0.2,0.3,0.2,0.7,0.1,1c-0.1,0.3-0.4,0.6-0.7,0.8l-2.8,1.5L-439.4,154.3z M-432.1,158.7c-0.1,0.3-0.4,0.6-0.8,0.9l-2.9,1.5
			l-1.3-2.5l2.9-1.5c0.4-0.2,0.8-0.3,1.2-0.2c0.4,0.1,0.6,0.3,0.8,0.7C-432,158-432,158.4-432.1,158.7z M-424.8,155.9l-0.9-2.6
			l5.5-1.9l-0.8-2.1l-5.5,1.9l-0.8-2.4l5.6-2l-0.8-2.1l-8,2.8l4,11.3l8-2.8l-0.8-2.1L-424.8,155.9z M-404,147.5
			c0.4-0.7,0.6-1.5,0.4-2.5c-0.2-1.1-0.7-2-1.5-2.6c-0.8-0.6-1.8-0.8-3.1-0.6l-5.6,0.8l1.7,11.9l2.5-0.4l-0.6-4.2l1.9-0.3l3,3.9
			l2.9-0.4l-3.3-4.1C-405,148.6-404.5,148.2-404,147.5z M-406.5,146.6c-0.3,0.3-0.7,0.5-1.2,0.6l-2.7,0.4l-0.5-3.2l2.7-0.4
			c0.5-0.1,1,0,1.3,0.2c0.4,0.2,0.6,0.6,0.7,1.1C-406.1,145.9-406.3,146.3-406.5,146.6z M-398,150.7l0-2.7l5.8-0.1l0-2.3l-5.8,0.1
			l0-2.5l5.9-0.1l0-2.3l-8.5,0.1l0.1,12l8.5-0.1l0-2.3L-398,150.7z M-385.1,141.5l-6.1,11.3l2.9,0.4l1-1.9l5.1,0.7l0.5,2.1l2.9,0.4
			l-3-12.5L-385.1,141.5z M-386.4,149.1l2.5-4.9l1.2,5.4L-386.4,149.1z M-369.9,144.5l-4.5-1.3l-3.4,11.5l4.5,1.3
			c1.8,0.5,3.4,0.4,4.9-0.3c1.4-0.7,2.4-2,2.9-3.7c0.5-1.7,0.3-3.3-0.5-4.7C-366.8,146-368.1,145.1-369.9,144.5z M-368,151.4
			c-0.3,1-0.9,1.8-1.7,2.3c-0.9,0.5-1.8,0.6-2.9,0.3l-2.1-0.6l2.1-7.2l2.1,0.6c1.1,0.3,1.9,0.9,2.4,1.8
			C-367.7,149.4-367.7,150.3-368,151.4z M-353.5,150.9l-4.7,3.1l-0.7-5.6l-2.6-1.2l1.2,8.4l-2.1,4.5l2.3,1.1l2.1-4.5l7.2-4.5
			L-353.5,150.9z M-352.7,162c-0.3-0.2-0.7-0.3-1.1-0.2c-0.4,0.1-0.7,0.3-0.9,0.7c-0.2,0.3-0.2,0.7-0.2,1.1c0.1,0.4,0.3,0.7,0.7,0.9
			c0.3,0.2,0.7,0.3,1.1,0.2s0.7-0.3,0.9-0.6c0.2-0.3,0.3-0.7,0.2-1.1C-352.2,162.5-352.4,162.2-352.7,162z M-349.2,153.3l-3.8,7.2
			l1.7,1l4.5-6.8L-349.2,153.3z"/>
	</g>
</g>
<g>
	<g>
		<path class="st4" d="M-466.2,268.5l-0.6-1l-8.2,4.5l2.7,4.8l0.9-0.5l-2.1-3.8L-466.2,268.5z M-467.8,278.2l3.1,4.5l0.2-0.2
			c0.9-0.6,1.4-1.3,1.6-2.2c0.2-0.9,0.1-1.7-0.5-2.5c-0.5-0.8-1.3-1.2-2.2-1.4c-0.9-0.1-1.8,0.1-2.6,0.7c-0.9,0.6-1.4,1.4-1.6,2.3
			c-0.2,0.9,0,1.8,0.6,2.6c0.6,0.9,1.4,1.4,2.4,1.6l0.3-0.8c-0.8-0.1-1.4-0.5-1.9-1.2c-0.4-0.6-0.5-1.2-0.4-1.8
			C-468.6,279.2-468.3,278.7-467.8,278.2z M-465.5,277.4c0.6,0.1,1.1,0.4,1.5,0.9c0.4,0.6,0.5,1.2,0.4,1.7c-0.2,0.6-0.5,1-0.9,1.4
			l-2.5-3.6C-466.7,277.5-466.1,277.4-465.5,277.4z M-459.2,283.5l1.4-1.2l-0.7-0.8l-1.4,1.2l-0.7-0.9l-0.7,0.6l0.7,0.9l-3.4,2.8
			c-0.4,0.3-0.6,0.7-0.7,1c0,0.4,0.1,0.7,0.4,1.1c0.3,0.4,0.7,0.6,1.1,0.7l0.4-0.7c-0.3,0-0.5-0.1-0.7-0.4c-0.1-0.2-0.2-0.4-0.1-0.5
			c0-0.2,0.2-0.4,0.4-0.5l3.2-2.7l0.9,1.1l0.7-0.6L-459.2,283.5z M-454.5,285.8c0.1-0.1,0.2-0.3,0.2-0.4c0-0.2,0-0.3-0.2-0.5
			c-0.1-0.1-0.3-0.2-0.4-0.2c-0.2,0-0.3,0.1-0.5,0.2c-0.1,0.1-0.8,0.9-2,2.3l0.4,0.4L-454.5,285.8z M-454.2,289.7
			c-0.6,0-1.1,0.1-1.4,0.5c-0.3,0.3-0.5,0.7-0.5,1.1c0,0.4,0.1,0.8,0.3,1.2c0.2,0.4,0.4,0.7,0.7,1.1c0.2,0.3,0.4,0.7,0.5,1
			c0.1,0.3,0,0.6-0.2,0.8c-0.2,0.2-0.5,0.4-0.9,0.3c-0.4,0-0.7-0.2-1.1-0.6c-0.3-0.3-0.6-0.7-0.7-1.1c-0.2-0.4-0.2-0.8-0.2-1.2
			l-0.9,0.2c0,1,0.4,1.9,1.2,2.6c0.6,0.6,1.2,0.9,1.8,0.9c0.6,0,1.1-0.1,1.5-0.6c0.3-0.4,0.5-0.7,0.5-1.2c0-0.4-0.1-0.8-0.3-1.2
			c-0.2-0.4-0.4-0.7-0.7-1.1c-0.2-0.3-0.4-0.7-0.5-1c-0.1-0.3-0.1-0.6,0.1-0.8c0.2-0.2,0.5-0.3,0.8-0.3c0.3,0,0.7,0.2,1,0.5
			c0.6,0.6,0.9,1.3,0.9,2l0.9-0.2c0-0.9-0.4-1.7-1.1-2.4C-453,290-453.6,289.7-454.2,289.7z M-438.6,301.4l-4.4,3.5l1.6-5.4
			l-0.7-0.5l-4.5,3.5l1.7-5.4l-0.9-0.6l-2,6.8l0.9,0.6l4.5-3.5l-1.6,5.5l0.9,0.6l5.6-4.4L-438.6,301.4z M-433.6,304
			c-1-0.5-1.9-0.6-2.9-0.3l0.1,0.9c0.8-0.3,1.6-0.2,2.3,0.1c0.4,0.2,0.8,0.5,0.9,0.9c0.2,0.4,0.1,0.8-0.1,1.1l-0.6,1.1
			c-0.2-0.8-0.7-1.4-1.6-1.9c-0.6-0.3-1.1-0.4-1.7-0.3c-0.6,0.1-1.1,0.5-1.4,1.1c-0.3,0.6-0.4,1.2-0.1,1.8c0.2,0.6,0.6,1,1.2,1.3
			c0.8,0.4,1.6,0.5,2.4,0.2l-0.4,0.7l0.9,0.5l2.2-4.1c0.4-0.7,0.4-1.3,0.2-1.9C-432.5,304.8-433,304.3-433.6,304z M-434.8,309.6
			c-0.6,0.3-1.3,0.3-2-0.1c-0.4-0.2-0.7-0.5-0.9-0.9c-0.1-0.4-0.1-0.8,0.1-1.2c0.2-0.4,0.5-0.6,0.9-0.7c0.4-0.1,0.8,0,1.3,0.2
			c0.7,0.4,1.2,0.9,1.3,1.6L-434.8,309.6z M-427.2,304.6c-0.2-0.1-0.3-0.1-0.5,0c-0.2,0.1-0.3,0.2-0.4,0.4c-0.1,0.2-0.1,0.4,0,0.5
			c0.1,0.2,0.2,0.3,0.4,0.4c0.2,0.1,0.4,0.1,0.5,0c0.2-0.1,0.3-0.2,0.4-0.4c0.1-0.2,0.1-0.4,0-0.5
			C-426.9,304.8-427.1,304.6-427.2,304.6z M-431.3,312.7l1,0.4l2.7-6.2l-1-0.4L-431.3,312.7z M-423,306.8l-1-0.4l-0.6,1.7l-1.1-0.4
			l-0.3,0.9l1.1,0.4l-1.5,4.1c-0.2,0.5-0.2,0.9-0.1,1.2c0.1,0.3,0.4,0.6,0.9,0.8c0.5,0.2,0.9,0.2,1.3,0l0-0.8
			c-0.2,0.1-0.5,0.1-0.8,0c-0.2-0.1-0.3-0.2-0.4-0.4c-0.1-0.2,0-0.4,0.1-0.7l1.4-3.9l1.3,0.5l0.3-0.9l-1.3-0.5L-423,306.8z
			 M-412.7,308.9c-0.6-0.1-1.1-0.1-1.5,0.2c-0.4,0.3-0.7,0.8-0.9,1.4l-0.1,0.5l-1.1-0.3l-0.2,0.9l1.1,0.3l-1.4,5.7l1,0.2l1.4-5.7
			l1.3,0.3l0.2-0.9l-1.3-0.3l0.1-0.5c0.1-0.4,0.3-0.7,0.5-0.9c0.2-0.2,0.5-0.2,0.8-0.1c0.3,0.1,0.5,0.2,0.7,0.5l0.6-0.6
			C-411.7,309.3-412.1,309.1-412.7,308.9z M-407.9,312.4c-1-0.2-1.8,0.1-2.6,0.6c-0.7,0.6-1.1,1.4-1.3,2.4c-0.2,1,0,1.9,0.5,2.6
			c0.5,0.8,1.2,1.2,2.2,1.4c1,0.2,1.8-0.1,2.6-0.6c0.7-0.6,1.1-1.4,1.3-2.4c0.2-1,0-1.9-0.5-2.6C-406.2,313-406.9,312.5-407.9,312.4
			z M-406.2,316.2c-0.1,0.7-0.4,1.3-0.9,1.7c-0.5,0.4-1.1,0.6-1.7,0.5c-0.7-0.1-1.2-0.4-1.5-1c-0.3-0.6-0.4-1.2-0.3-1.9
			c0.1-0.7,0.4-1.3,0.9-1.7c0.5-0.4,1.1-0.6,1.7-0.5c0.7,0.1,1.2,0.4,1.5,1C-406.2,314.9-406.1,315.5-406.2,316.2z M-401,313.3
			l-1-0.1l-0.4,6.7l1,0.1l0.3-4.8c0.2-0.3,0.5-0.5,0.8-0.7c0.4-0.2,0.7-0.3,1.1-0.3c0.2,0,0.3,0,0.4,0.1l0.1-1.1
			c-0.9-0.1-1.7,0.3-2.3,1.1L-401,313.3z M-389.1,313.1c-1,0.1-1.8,0.5-2.3,1.2c-0.6,0.7-0.8,1.6-0.7,2.6c0.1,1,0.4,1.8,1.1,2.5
			c0.7,0.6,1.5,0.9,2.5,0.8c1-0.1,1.8-0.5,2.3-1.2c0.6-0.7,0.8-1.6,0.7-2.6c-0.1-1-0.4-1.8-1.1-2.4
			C-387.3,313.3-388.1,313-389.1,313.1z M-387.1,318.4c-0.4,0.5-0.9,0.8-1.6,0.9c-0.7,0.1-1.3-0.2-1.7-0.6c-0.4-0.5-0.7-1.1-0.7-1.8
			c-0.1-0.7,0.1-1.3,0.5-1.9c0.4-0.5,0.9-0.8,1.6-0.9c0.7-0.1,1.3,0.2,1.7,0.6c0.4,0.5,0.7,1.1,0.7,1.8
			C-386.5,317.2-386.7,317.8-387.1,318.4z M-380.3,318.2c-0.2,0-0.4,0-0.5-0.2c-0.1-0.1-0.2-0.3-0.3-0.6l-0.7-4.1l1.4-0.2l-0.1-0.9
			l-1.4,0.2l-0.3-1.8l-1,0.2l0.3,1.8l-1.1,0.2l0.1,0.9l1.1-0.2l0.7,4.4c0.1,0.5,0.3,0.9,0.6,1.1s0.7,0.3,1.2,0.2
			c0.5-0.1,0.9-0.3,1.2-0.6l-0.4-0.7C-379.8,318.1-380,318.2-380.3,318.2z M-375,310.8c-0.5,0.1-0.9,0.3-1.3,0.7
			c-0.4,0.3-0.6,0.7-0.8,1l-0.8-3.4l-1,0.2l2.2,9.1l1-0.2l-1.2-4.8c0.1-0.3,0.4-0.6,0.7-0.9c0.3-0.3,0.7-0.5,1-0.6
			c0.5-0.1,0.9-0.1,1.2,0.1c0.3,0.2,0.5,0.5,0.7,1.1l1,4.3l1-0.2l-1.1-4.6C-372.7,311-373.6,310.5-375,310.8z M-365.2,314.3
			c-0.7,0.2-1.3,0.2-1.8-0.1c-0.6-0.3-1-0.7-1.2-1.3l5.2-1.8l-0.1-0.3c-0.3-1-0.9-1.7-1.7-2.1c-0.8-0.5-1.6-0.5-2.6-0.2
			c-0.9,0.3-1.5,0.9-1.9,1.8c-0.4,0.9-0.4,1.8-0.1,2.7c0.4,1,0.9,1.7,1.8,2.1c0.8,0.4,1.7,0.4,2.7,0.1c1-0.4,1.8-1,2.2-1.9l-0.7-0.5
			C-363.8,313.6-364.4,314.1-365.2,314.3z M-368.4,310.6c0.2-0.6,0.6-1,1.3-1.2c0.7-0.2,1.3-0.2,1.8,0.1c0.5,0.3,0.9,0.7,1.1,1.3
			l-4.2,1.5C-368.7,311.7-368.6,311.1-368.4,310.6z M-359.8,307c0.2-0.4,0.5-0.6,0.8-0.7c0.1-0.1,0.3-0.1,0.4-0.1l-0.4-1
			c-0.8,0.4-1.3,1-1.5,2.1l-0.5-1l-1,0.4l2.8,6.1l1-0.4l-2-4.3C-360.2,307.7-360.1,307.3-359.8,307z M-348,299.8
			c-0.8-0.2-1.6-0.1-2.4,0.4c-0.4,0.3-0.7,0.6-0.9,1c-0.2,0.4-0.3,0.8-0.4,1.2l-0.5-0.8l-0.9,0.6l5,7.8l0.9-0.6l-1.9-3
			c0.9,0.4,1.8,0.3,2.6-0.2c0.8-0.5,1.2-1.1,1.3-2c0.1-0.8-0.1-1.7-0.7-2.6C-346.5,300.6-347.2,300-348,299.8z M-346.3,304
			c-0.1,0.6-0.4,1.1-0.9,1.5c-0.3,0.2-0.7,0.3-1.2,0.4c-0.4,0-0.8,0-1.1-0.2l-1.6-2.6c0-0.4,0.1-0.7,0.3-1.1
			c0.2-0.4,0.5-0.7,0.8-0.9c0.6-0.4,1.1-0.4,1.7-0.2c0.6,0.2,1.1,0.6,1.5,1.3C-346.4,302.7-346.2,303.4-346.3,304z M-347.2,295.1
			l5.6,7.4l0.8-0.6l-5.6-7.4L-347.2,295.1z M-338.8,291.9c-0.6,0-1.2,0.3-1.8,0.8c-0.8,0.7-1.2,1.6-1.3,2.6l0.8,0.2
			c0-0.9,0.3-1.5,0.9-2.1c0.4-0.3,0.8-0.5,1.2-0.5c0.4,0,0.8,0.1,1.1,0.5l0.8,0.9c-0.8-0.1-1.6,0.2-2.3,0.8
			c-0.5,0.4-0.8,0.9-0.9,1.5c-0.1,0.6,0.1,1.2,0.6,1.7c0.5,0.5,1,0.8,1.6,0.8c0.6,0,1.2-0.2,1.6-0.6c0.7-0.6,1-1.3,1.1-2.2l0.5,0.6
			l0.8-0.7l-3.1-3.5C-337.6,292.2-338.2,291.9-338.8,291.9z M-335.8,295.9c0.1,0.7-0.2,1.3-0.8,1.9c-0.4,0.3-0.8,0.5-1.2,0.5
			c-0.4,0-0.8-0.2-1.1-0.5c-0.3-0.3-0.4-0.7-0.4-1.1c0.1-0.4,0.3-0.8,0.6-1.1c0.6-0.6,1.3-0.8,2-0.6L-335.8,295.9z M-332.5,285
			l-0.8,0.8l2.5,5.4l-5.6-2.2l-0.8,0.8l6.9,2.6l0.4,1c0.1,0.3,0.2,0.5,0.1,0.7c0,0.2-0.1,0.4-0.3,0.5c-0.1,0.2-0.3,0.3-0.5,0.3
			l0.6,0.8c0.2-0.1,0.4-0.3,0.6-0.5c0.6-0.7,0.8-1.5,0.4-2.4L-332.5,285z M-324,282.6c0.1,0.8-0.1,1.5-0.6,2.2
			c-0.4,0.6-1,0.9-1.6,0.9c-0.6,0.1-1.2-0.1-1.8-0.4l3.3-4.3l-0.2-0.2c-0.8-0.6-1.7-0.9-2.6-0.9c-0.9,0-1.7,0.5-2.3,1.2
			c-0.6,0.8-0.8,1.6-0.6,2.5c0.2,0.9,0.6,1.7,1.4,2.3c0.8,0.6,1.7,0.9,2.6,0.8c0.9-0.1,1.7-0.6,2.3-1.4c0.7-0.9,0.9-1.8,0.8-2.8
			L-324,282.6z M-329.4,283.4c-0.1-0.6,0-1.1,0.4-1.7c0.4-0.6,1-0.9,1.6-0.9c0.6,0,1.1,0.1,1.6,0.5l-2.7,3.5
			C-329,284.4-329.3,284-329.4,283.4z M-324.1,275.7c0-0.4,0.1-0.8,0.3-1.1c0.1-0.1,0.2-0.2,0.3-0.3l-0.9-0.6
			c-0.5,0.7-0.5,1.6-0.2,2.6l-0.9-0.6l-0.6,0.9l5.7,3.7l0.6-0.9l-4-2.6C-324.1,276.5-324.1,276.1-324.1,275.7z M-315.7,271.4
			c-0.1-0.6-0.4-1-1-1.3c-0.4-0.2-0.8-0.3-1.2-0.2c-0.4,0.1-0.8,0.3-1.1,0.6c-0.3,0.3-0.6,0.6-0.9,0.9c-0.3,0.3-0.5,0.6-0.8,0.7
			c-0.3,0.2-0.5,0.2-0.8,0.1c-0.3-0.1-0.4-0.4-0.5-0.7c0-0.3,0-0.7,0.3-1.1c0.4-0.8,1-1.2,1.7-1.4l-0.4-0.8
			c-0.9,0.3-1.6,0.8-2.1,1.7c-0.4,0.7-0.5,1.3-0.4,1.9c0.1,0.6,0.4,1,0.9,1.3c0.4,0.2,0.8,0.3,1.2,0.2c0.4-0.1,0.7-0.3,1-0.6
			c0.3-0.3,0.6-0.6,0.9-0.9c0.3-0.3,0.6-0.6,0.8-0.7c0.3-0.2,0.6-0.2,0.8,0c0.3,0.2,0.5,0.4,0.5,0.8c0.1,0.3,0,0.7-0.3,1.2
			c-0.2,0.4-0.5,0.7-0.8,1c-0.4,0.3-0.7,0.4-1.1,0.5l0.4,0.8c0.9-0.3,1.7-0.9,2.2-1.9C-315.7,272.6-315.6,271.9-315.7,271.4z"/>
	</g>
</g>
</svg>
