<?xml version="1.0" encoding="utf-8"?>
<!-- Generator: Adobe Illustrator 16.0.0, SVG Export Plug-In . SVG Version: 6.00 Build 0)  -->
<!DOCTYPE svg PUBLIC "-//W3C//DTD SVG 1.1//EN" "http://www.w3.org/Graphics/SVG/1.1/DTD/svg11.dtd">
<svg version="1.1" id="Layer_1" xmlns="http://www.w3.org/2000/svg" xmlns:xlink="http://www.w3.org/1999/xlink" x="0px" y="0px"
	 width="353.646px" height="350.54px" viewBox="0 0 353.646 350.54" enable-background="new 0 0 353.646 350.54"
	 xml:space="preserve">
<g>
	<path fill-rule="evenodd" clip-rule="evenodd" fill="none" stroke="#231F20" stroke-width="2" stroke-miterlimit="10" d="
		M176.781,93.99c34.241,0,61.999,27.763,61.999,62.011s-27.758,62.011-61.999,62.011c-34.242,0-62-27.763-62-62.011
		S142.539,93.99,176.781,93.99z"/>
	
		<path fill-rule="evenodd" clip-rule="evenodd" fill="none" stroke="#231F20" stroke-width="2" stroke-miterlimit="10" stroke-dasharray="12" d="
		M176.264,42.995c62.133,0,112.501,50.37,112.501,112.506s-50.368,112.506-112.501,112.506S63.763,217.636,63.763,155.5
		S114.131,42.995,176.264,42.995z"/>
	
		<path fill-rule="evenodd" clip-rule="evenodd" fill="none" stroke="#231F20" stroke-width="2" stroke-linecap="round" stroke-linejoin="round" stroke-miterlimit="10" stroke-dasharray="0,7" d="
		M177.272,101.995c29.556,0,53.516,23.954,53.516,53.503S206.828,209,177.272,209s-53.516-23.954-53.516-53.503
		S147.717,101.995,177.272,101.995z"/>
	<path fill-rule="evenodd" clip-rule="evenodd" fill="none" stroke="#231F20" stroke-width="2" stroke-miterlimit="10" d="
		M287.328,155h30.448"/>
	<path fill-rule="evenodd" clip-rule="evenodd" fill="none" stroke="#231F20" stroke-width="2" stroke-miterlimit="10" d="
		M286.069,133.004h13.674"/>
	<path fill-rule="evenodd" clip-rule="evenodd" fill="none" stroke="#231F20" stroke-width="2" stroke-miterlimit="10" d="
		M279.776,111.998h4.644"/>
	<path fill-rule="evenodd" clip-rule="evenodd" fill="none" stroke="#231F20" stroke-width="2" stroke-miterlimit="10" d="
		M279.775,196.998h4.907"/>
	<path fill-rule="evenodd" clip-rule="evenodd" fill="none" stroke="#231F20" stroke-width="2" stroke-miterlimit="10" d="
		M286.066,175.001h13.675"/>
	<path fill-rule="evenodd" clip-rule="evenodd" fill="none" stroke="#231F20" stroke-width="2" stroke-miterlimit="10" d="
		M65.225,156H34.776"/>
	<path fill-rule="evenodd" clip-rule="evenodd" fill="none" stroke="#231F20" stroke-width="2" stroke-miterlimit="10" d="
		M66.483,177.997H52.809"/>
	<path fill-rule="evenodd" clip-rule="evenodd" fill="none" stroke="#231F20" stroke-width="2" stroke-miterlimit="10" d="
		M72.777,199.003h-4.645"/>
	<path fill-rule="evenodd" clip-rule="evenodd" fill="none" stroke="#231F20" stroke-width="2" stroke-miterlimit="10" d="
		M72.777,114.003h-4.908"/>
	<path fill-rule="evenodd" clip-rule="evenodd" fill="none" stroke="#231F20" stroke-width="2" stroke-miterlimit="10" d="
		M66.486,136H52.812"/>
	<path fill-rule="evenodd" clip-rule="evenodd" fill="none" stroke="#231F20" stroke-width="2" stroke-miterlimit="10" d="
		M253.951,113.948c3.995,1.096,6.366,5.295,5.296,9.381c-1.07,4.087-5.178,6.512-9.173,5.417c-3.996-1.096-6.366-5.295-5.296-9.382
		C245.849,115.278,249.955,112.853,253.951,113.948z"/>
	<path fill-rule="evenodd" clip-rule="evenodd" fill="none" stroke="#231F20" stroke-width="2" stroke-miterlimit="10" d="
		M255.184,118.818l-3.421,1.957l1.605,2.755"/>
	<path fill-rule="evenodd" clip-rule="evenodd" fill="none" stroke="#231F20" stroke-width="2" stroke-miterlimit="10" d="
		M257.826,117.601l2.595-1.531"/>
	<path fill-rule="evenodd" clip-rule="evenodd" fill="none" stroke="#231F20" stroke-width="2" stroke-miterlimit="10" d="
		M258.923,113.416l2.996,5.308"/>
	<path fill-rule="evenodd" clip-rule="evenodd" fill="none" stroke="#231F20" stroke-width="2" stroke-miterlimit="10" d="
		M91.709,119.651l-2.572-1.519"/>
	<path fill-rule="evenodd" clip-rule="evenodd" fill="none" stroke="#231F20" stroke-width="2" stroke-miterlimit="10" d="
		M87.652,120.762l2.97-5.26"/>
	<path fill-rule="evenodd" clip-rule="evenodd" fill="none" stroke="#231F20" stroke-width="2" stroke-miterlimit="10" d="
		M180.386,16.002c1.932,0.06,3.449,1.675,3.389,3.606c-0.061,1.933-1.676,3.45-3.607,3.39c-1.932-0.06-3.449-1.675-3.389-3.606
		C176.838,17.459,178.454,15.942,180.386,16.002z"/>
	<path fill="none" stroke="#231F20" stroke-width="2" stroke-miterlimit="10" d="M177.865,120.529l-2.814,1.221l0.473-2.86
		l-2.174-2.186l3.067-0.467l1.388-2.652l1.508,2.652l2.948,0.467l-2.054,2.186l0.352,2.86L177.865,120.529z"/>
	<path fill-rule="evenodd" clip-rule="evenodd" fill="none" stroke="#231F20" stroke-width="2" stroke-miterlimit="10" d="
		M213.542,1.004c4.692,0.146,8.377,4.068,8.23,8.76c-0.147,4.692-4.069,8.378-8.762,8.232c-4.692-0.146-8.377-4.068-8.23-8.76
		C204.928,4.544,208.85,0.859,213.542,1.004z"/>
	<path fill-rule="evenodd" clip-rule="evenodd" fill="none" stroke="#231F20" stroke-width="2" stroke-miterlimit="10" d="
		M205.448,305.003c3.036,0.094,5.42,2.632,5.325,5.668s-2.633,5.421-5.669,5.326c-3.036-0.094-5.42-2.632-5.325-5.668
		S202.412,304.909,205.448,305.003z"/>
	<path fill-rule="evenodd" clip-rule="evenodd" fill="none" stroke="#231F20" stroke-width="2" stroke-miterlimit="10" d="
		M89.386,261.002c1.933,0.06,3.449,1.675,3.39,3.606c-0.061,1.933-1.676,3.45-3.608,3.39c-1.933-0.06-3.449-1.675-3.389-3.606
		C85.838,262.459,87.453,260.942,89.386,261.002z"/>
	<path fill-rule="evenodd" clip-rule="evenodd" fill="none" stroke="#231F20" stroke-width="2" stroke-miterlimit="10" d="
		M62.609,79.168l-5.666,5.664"/>
	<path fill-rule="evenodd" clip-rule="evenodd" fill="none" stroke="#231F20" stroke-width="2" stroke-miterlimit="10" d="
		M56.951,79.174l5.65,5.652"/>
	<path fill-rule="evenodd" clip-rule="evenodd" fill="none" stroke="#231F20" stroke-width="2" stroke-miterlimit="10" d="
		M119.609,344.168l-5.666,5.664"/>
	<path fill-rule="evenodd" clip-rule="evenodd" fill="none" stroke="#231F20" stroke-width="2" stroke-miterlimit="10" d="
		M113.951,344.174l5.65,5.652"/>
	<path fill-rule="evenodd" clip-rule="evenodd" fill="none" stroke="#231F20" stroke-width="2" stroke-miterlimit="10" d="
		M199.282,120.496l-4.011,4.01"/>
	<path fill-rule="evenodd" clip-rule="evenodd" fill="none" stroke="#231F20" stroke-width="2" stroke-miterlimit="10" d="
		M195.275,120.5l4.002,4.001"/>
	<path fill-rule="evenodd" clip-rule="evenodd" fill="none" stroke="#231F20" stroke-width="2" stroke-miterlimit="10" d="
		M160.281,120.496l-4.01,4.01"/>
	<path fill-rule="evenodd" clip-rule="evenodd" fill="none" stroke="#231F20" stroke-width="2" stroke-miterlimit="10" d="
		M156.275,120.5l4.002,4.001"/>
	<path fill="none" stroke="#231F20" stroke-width="2" stroke-miterlimit="10" d="M177.688,191.788l2.786-1.246l-0.467,2.919
		l2.152,2.23l-3.038,0.477l-1.374,2.706l-1.492-2.706l-2.92-0.477l2.033-2.23l-0.348-2.919L177.688,191.788z"/>
	<path fill-rule="evenodd" clip-rule="evenodd" fill="none" stroke="#231F20" stroke-width="2" stroke-miterlimit="10" d="
		M156.482,191.822l3.972-4.094"/>
	<path fill-rule="evenodd" clip-rule="evenodd" fill="none" stroke="#231F20" stroke-width="2" stroke-miterlimit="10" d="
		M160.449,191.817l-3.962-4.084"/>
	<path fill-rule="evenodd" clip-rule="evenodd" fill="none" stroke="#231F20" stroke-width="2" stroke-miterlimit="10" d="
		M195.099,191.822l3.972-4.094"/>
	<path fill-rule="evenodd" clip-rule="evenodd" fill="none" stroke="#231F20" stroke-width="2" stroke-miterlimit="10" d="
		M199.065,191.817l-3.962-4.084"/>
	<path fill-rule="evenodd" clip-rule="evenodd" fill="none" stroke="#231F20" stroke-width="2" stroke-miterlimit="10" d="
		M270.776,282.179v11.643"/>
	<path fill-rule="evenodd" clip-rule="evenodd" fill="none" stroke="#231F20" stroke-width="2" stroke-miterlimit="10" d="
		M265.001,288h11.551"/>
	<path fill-rule="evenodd" clip-rule="evenodd" fill="none" stroke="#231F20" stroke-width="2" stroke-miterlimit="10" d="
		M5.776,1.179v11.642"/>
	<path fill-rule="evenodd" clip-rule="evenodd" fill="none" stroke="#231F20" stroke-width="2" stroke-miterlimit="10" d="M0,7
		h11.553"/>
	<path fill-rule="evenodd" clip-rule="evenodd" fill="none" stroke="#231F20" stroke-width="2" stroke-miterlimit="10" d="
		M95.911,115.878c3.995-1.095,8.103,1.33,9.173,5.416s-1.301,8.286-5.296,9.381s-8.103-1.33-9.173-5.416
		S91.916,116.973,95.911,115.878z"/>
	<path fill-rule="evenodd" clip-rule="evenodd" fill="none" stroke="#231F20" stroke-width="2" stroke-miterlimit="10" d="
		M94.678,120.749l3.422,1.957l-1.605,2.755"/>
	<path fill-rule="evenodd" clip-rule="evenodd" fill="none" stroke="#231F20" stroke-width="2" stroke-miterlimit="10" d="
		M164.776,133h25c1.657,0,3,1.343,3,3s-1.343,3-3,3h-25c-1.657,0-3-1.343-3-3S163.119,133,164.776,133z"/>
	<path fill-rule="evenodd" clip-rule="evenodd" fill="none" stroke="#231F20" stroke-width="2" stroke-miterlimit="10" d="
		M164.776,174h25c1.657,0,3,1.343,3,3s-1.343,3-3,3h-25c-1.657,0-3-1.343-3-3S163.119,174,164.776,174z"/>
	
		<path fill-rule="evenodd" clip-rule="evenodd" fill="none" stroke="#231F20" stroke-width="2" stroke-linecap="round" stroke-linejoin="round" stroke-miterlimit="10" stroke-dasharray="0,4" d="
		M177.771,156l0.002,13.401"/>
	<path fill-rule="evenodd" clip-rule="evenodd" fill="none" stroke="#231F20" stroke-width="2" stroke-miterlimit="10" d="
		M166.776,170l22-3"/>
	<path fill-rule="evenodd" clip-rule="evenodd" fill="none" stroke="#231F20" stroke-width="2" stroke-miterlimit="10" d="
		M166.776,148h21"/>
	<path fill-rule="evenodd" clip-rule="evenodd" fill="none" stroke="#231F20" stroke-width="2" stroke-miterlimit="10" d="
		M188.733,146.506v-7.498h-21.914v7.498c0,4.273,2.668,7.941,6.49,9.58c-3.822,1.925-6.49,6.135-6.49,10.408v7.498h21.914v-7.498
		c0-4.273-2.668-8.483-6.49-10.408C186.065,154.448,188.733,150.779,188.733,146.506z"/>
	<path fill-rule="evenodd" clip-rule="evenodd" fill="none" stroke="#231F20" stroke-width="2" stroke-miterlimit="10" d="
		M286.776,49.179v11.643"/>
	<path fill-rule="evenodd" clip-rule="evenodd" fill="none" stroke="#231F20" stroke-width="2" stroke-miterlimit="10" d="
		M281.001,55h11.551"/>
	<path fill-rule="evenodd" clip-rule="evenodd" fill="none" stroke="#231F20" stroke-width="2" stroke-miterlimit="10" d="
		M145.086,158.623c0,0-3.902,1.687-6.211,0.003c-2.311-1.684-2.883-5.727-2.883-5.727s3.932-1.483,6.212-0.002
		S145.086,158.623,145.086,158.623z"/>
	<path fill-rule="evenodd" clip-rule="evenodd" fill="none" stroke="#231F20" stroke-width="2" stroke-miterlimit="10" d="
		M145.59,152.996c0,0-4.156,0.507-5.893-1.799c-1.734-2.306-1.188-6.401-1.188-6.401s4.129-0.302,5.893,1.799
		C146.164,148.696,145.59,152.996,145.59,152.996z"/>
	<path fill-rule="evenodd" clip-rule="evenodd" fill="none" stroke="#231F20" stroke-width="2" stroke-miterlimit="10" d="
		M148.035,164.274c0,0-3.35,2.581-6.004,1.502c-2.654-1.08-4.221-4.87-4.221-4.87s3.428-2.392,6.004-1.502
		S148.035,164.274,148.035,164.274z"/>
	<path fill-rule="evenodd" clip-rule="evenodd" fill="none" stroke="#231F20" stroke-width="2" stroke-miterlimit="10" d="
		M146.449,148.012c0,0-3.756-1.87-3.887-4.72c-0.129-2.85,2.668-5.914,2.668-5.914s3.617,2.023,3.887,4.72
		C149.387,144.795,146.449,148.012,146.449,148.012z"/>
	<path fill-rule="evenodd" clip-rule="evenodd" fill="none" stroke="#231F20" stroke-width="2" stroke-miterlimit="10" d="
		M151.381,168.901c0,0-1.818,3.688-4.721,3.818c-2.901,0.131-6.088-2.61-6.088-2.61s1.979-3.552,4.721-3.819
		S151.381,168.901,151.381,168.901z"/>
	<path fill-rule="evenodd" clip-rule="evenodd" fill="none" stroke="#231F20" stroke-width="2" stroke-miterlimit="10" d="
		M208.907,158.041c0,0,3.807,1.67,6.06,0.003s2.812-5.67,2.812-5.67s-3.835-1.47-6.061-0.003
		C209.494,153.838,208.907,158.041,208.907,158.041z"/>
	<path fill-rule="evenodd" clip-rule="evenodd" fill="none" stroke="#231F20" stroke-width="2" stroke-miterlimit="10" d="
		M208.416,152.468c0,0,4.055,0.503,5.748-1.781c1.693-2.283,1.158-6.338,1.158-6.338s-4.028-0.3-5.748,1.781
		C207.854,148.21,208.416,152.468,208.416,152.468z"/>
	<path fill-rule="evenodd" clip-rule="evenodd" fill="none" stroke="#231F20" stroke-width="2" stroke-miterlimit="10" d="
		M206.03,163.637c0,0,3.268,2.556,5.857,1.487c2.589-1.069,4.118-4.823,4.118-4.823s-3.345-2.367-5.857-1.486
		C207.635,159.696,206.03,163.637,206.03,163.637z"/>
	<path fill-rule="evenodd" clip-rule="evenodd" fill="none" stroke="#231F20" stroke-width="2" stroke-miterlimit="10" d="
		M207.577,147.534c0,0,3.665-1.852,3.792-4.674c0.126-2.822-2.603-5.856-2.603-5.856s-3.529,2.004-3.792,4.674
		C204.711,144.348,207.577,147.534,207.577,147.534z"/>
	<path fill-rule="evenodd" clip-rule="evenodd" fill="none" stroke="#231F20" stroke-width="2" stroke-miterlimit="10" d="
		M202.766,168.219c0,0,1.774,3.652,4.605,3.781c2.831,0.13,5.94-2.585,5.94-2.585s-1.931-3.517-4.605-3.782
		C206.03,165.369,202.766,168.219,202.766,168.219z"/>
	<path fill="#231F20" d="M115.93,86.992l7.225,9.607l4.525-3.418c2.055-1.552,2.125-3.795,0.879-5.451
		c-1.245-1.656-3.431-2.196-5.471-0.656l-2.486,1.877l-1.277-1.699l4.957-3.743l-1.354-1.801L115.93,86.992z M124.168,89.081
		c0.791-0.597,1.723-0.556,2.308,0.223c0.574,0.763,0.368,1.687-0.423,2.283l-2.213,1.671l-1.885-2.506L124.168,89.081z"/>
	<path fill="#231F20" d="M133.747,89.348c1.874-1.038,2.273-2.476,2.214-4.112l-0.363-10.906l-2.535,1.404l0.469,7.036l-5.682-4.149
		l-2.535,1.404l8.089,5.494c0.017,1.001-0.155,1.508-0.927,1.936c-0.504,0.279-1.141,0.281-1.668,0.182l0.143,2.271
		C131.658,90.072,132.787,89.879,133.747,89.348z"/>
	<path fill="#231F20" d="M142.539,86.741l2.4-0.878l-0.759-2.084l7.032-2.57l0.759,2.084l2.4-0.878l-1.53-4.202l-1.015,0.371
		l-3.346-9.183l-8.013,2.929l1.445,6.019c0.732,3.112,0.256,3.805-0.838,4.377L142.539,86.741z M144.359,77.647l-0.955-3.99
		l3.432-1.255l2.574,7.065l-5.24,1.916C144.639,80.462,144.746,79.233,144.359,77.647z"/>
	<path fill="#231F20" d="M152.748,68.265l2.355,11.798l5.506-1.102c2.56-0.513,3.607-2.525,3.194-4.595
		c-0.409-2.052-2.171-3.521-4.712-3.012l-3,0.601l-0.838-4.192L152.748,68.265z M159.197,73.633
		c0.988-0.198,1.854,0.272,2.048,1.245c0.197,0.991-0.424,1.74-1.412,1.938l-2.665,0.533l-0.635-3.184L159.197,73.633z"/>
	<path fill="#231F20" d="M173.324,77.638l-0.074-9.777l5.94-0.044l-0.018-2.255l-8.497,0.062l0.093,12.033L173.324,77.638z"/>
	<path fill="#231F20" d="M186.65,78.628c3.602,0.505,6.58-1.7,7.079-5.291c0.5-3.591-1.762-6.53-5.363-7.035
		c-3.583-0.502-6.561,1.703-7.061,5.294C180.806,75.186,183.067,78.126,186.65,78.628z M186.964,76.377
		c-2.192-0.308-3.364-2.202-3.056-4.417c0.311-2.232,1.952-3.715,4.146-3.407c2.192,0.308,3.385,2.187,3.074,4.419
		C190.819,75.188,189.156,76.685,186.964,76.377z"/>
	<path fill="#231F20" d="M199.767,81.36l2.778-9.371l3.348,0.997l0.641-2.161l-9.18-2.736l-0.641,2.161l3.364,1.003l-2.778,9.372
		L199.767,81.36z"/>
	<path fill="#231F20" d="M209.754,85.512c3.291,1.552,6.789,0.331,8.329-2.951c1.54-3.281,0.248-6.762-3.043-8.313
		c-3.275-1.545-6.773-0.323-8.313,2.958C205.187,80.488,206.479,83.968,209.754,85.512z M210.719,83.456
		c-2.004-0.945-2.563-3.104-1.613-5.128c0.958-2.041,2.965-2.969,4.969-2.023s2.588,3.095,1.63,5.136
		C214.754,83.464,212.723,84.4,210.719,83.456z"/>
	<path fill="#231F20" d="M222.423,92.682c1.889,1.291,3.697,0.78,4.711-0.71c0.852-1.252,0.704-2.859-0.24-3.745
		c1.068,0.446,2.41,0.141,3.262-1.11c0.903-1.327,0.758-3.194-1.131-4.486l-5.221-3.569L217.039,89L222.423,92.682z M225.855,86.294
		l-2.647-1.811l1.471-2.161l2.646,1.811c0.715,0.488,0.846,1.255,0.42,1.881S226.569,86.782,225.855,86.294z M223.12,90.472
		l-2.722-1.86l1.572-2.31l2.722,1.86c0.833,0.569,0.914,1.411,0.487,2.037C224.693,90.915,223.923,91.022,223.12,90.472z"/>
	<path fill="#231F20" d="M230.87,94.38l5.498-5.971l-2.105-1.78l-4.935,6.448L230.87,94.38z M227.465,96.859
		c0.604,0.512,1.544,0.433,2.043-0.16c0.511-0.607,0.431-1.548-0.175-2.06s-1.53-0.421-2.041,0.186
		C226.793,95.417,226.859,96.346,227.465,96.859z"/>
	<path fill="#231F20" d="M86.607,167.397l9.295-0.872l-0.108-1.154l-3.999,0.375l-0.51-5.422l4-0.375l-0.108-1.154l-9.295,0.871
		l0.108,1.154l4.264-0.399l0.51,5.422l-4.265,0.4L86.607,167.397z"/>
	<path fill="#231F20" d="M88.273,176.022l4.549-0.946c1.604-0.334,1.99-1.627,1.699-3.021c-0.225-1.08-0.758-1.854-1.646-2.41
		l-0.612,0.627c0.753,0.457,1.175,1.039,1.341,1.832c0.199,0.957-0.16,1.773-1.05,1.958l-1.192,0.249
		c0.506-0.662,0.637-1.474,0.447-2.376c-0.233-1.121-1.18-2.164-2.66-1.856c-1.438,0.3-1.943,1.646-1.71,2.767
		c0.186,0.888,0.657,1.574,1.374,1.996l-0.753,0.156L88.273,176.022z M88.256,173.059c-0.2-0.957,0.264-1.752,1.099-1.926
		c0.85-0.177,1.593,0.367,1.792,1.324c0.151,0.725,0.022,1.479-0.442,1.989l-1.247,0.259
		C88.826,174.423,88.406,173.784,88.256,173.059z"/>
	<path fill="#231F20" d="M87.264,179.164l0.316,0.999l1.643-0.519l1.54,4.861l-1.642,0.519l0.316,0.999l2.523-0.797l-0.236-0.746
		l5.566-1.758l-1.418-4.475l-3.308,0.59c-1.989,0.35-2.534,0.112-2.831-0.454L87.264,179.164z M95.271,179.405l0.822,2.597
		l-4.686,1.479l-1.211-3.822c0.521,0.349,1.299,0.439,2.564,0.216L95.271,179.405z"/>
	<path fill="#231F20" d="M93.146,190.931c0.824,1.882,2.804,2.422,4.601,1.638c1.797-0.783,2.73-2.594,1.907-4.477
		c-0.824-1.882-2.79-2.428-4.587-1.644S92.321,189.049,93.146,190.931z M94.006,190.556c-0.578-1.319,0.227-2.555,1.497-3.108
		c1.258-0.549,2.713-0.299,3.29,1.02c0.578,1.319-0.232,2.542-1.49,3.091C96.032,192.112,94.583,191.875,94.006,190.556z"/>
	<path fill="#231F20" d="M101.561,205.763l5.683-3.652l-3.045-4.719l-5.683,3.652l0.568,0.881l4.906-3.153l1.908,2.957l-4.906,3.153
		L101.561,205.763z"/>
	<path fill="#231F20" d="M105.311,211.003c1.285,1.603,3.336,1.61,4.867,0.388c1.529-1.222,1.961-3.211,0.675-4.814
		c-1.286-1.603-3.325-1.619-4.856-0.396C104.467,207.402,104.025,209.401,105.311,211.003z M106.043,210.418
		c-0.9-1.123-0.446-2.523,0.636-3.388c1.071-0.856,2.54-0.992,3.441,0.131s0.438,2.513-0.634,3.368
		C108.404,211.394,106.943,211.542,106.043,210.418z"/>
	<path fill="#231F20" d="M107.849,216.461l0.738,0.745l1.226-1.208l3.593,3.626l-1.226,1.209l0.738,0.745l1.883-1.857l-0.551-0.557
		l4.154-4.097l-3.309-3.339l-2.676,2.031c-1.611,1.216-2.205,1.252-2.729,0.884L107.849,216.461z M115.088,213.034l1.92,1.938
		l-3.496,3.448l-2.825-2.852c0.624,0.073,1.358-0.199,2.382-0.975L115.088,213.034z"/>
	<path fill="#231F20" d="M118.422,224.251c1.59,1.305,3.6,0.891,4.846-0.62c1.246-1.512,1.257-3.548-0.332-4.853
		c-1.59-1.306-3.592-0.902-4.838,0.608C116.852,220.899,116.832,222.946,118.422,224.251z M119.018,223.528
		c-1.113-0.914-0.957-2.379-0.076-3.447c0.873-1.059,2.283-1.493,3.396-0.579c1.115,0.915,0.947,2.371,0.075,3.429
		C121.531,223.999,120.133,224.442,119.018,223.528z"/>
	<path fill="#231F20" d="M124.033,228.376l3.695-1.229l0.143,0.656l-1.391,2.148l0.883,0.568l1.39-2.148l0.658-0.142l0.399,3.866
		l1.129,0.727l-0.535-4.735l4.192-0.942l-1.118-0.72l-4.057,0.913l1.61-2.489l-0.882-0.567l-1.619,2.5l-0.828-4.076l-1.117-0.72
		l0.854,4.192l-4.535,1.471L124.033,228.376z"/>
	<path fill="#231F20" d="M131.827,235.22l0.942,0.463l0.761-1.541l4.584,2.252l-0.761,1.541l0.941,0.463l1.17-2.368l-0.703-0.346
		l2.58-5.227l-4.22-2.073l-1.862,2.792c-1.123,1.675-1.673,1.903-2.288,1.726L131.827,235.22z M137.543,229.619l2.448,1.203
		l-2.172,4.399l-3.604-1.771c0.613-0.135,1.217-0.633,1.932-1.699L137.543,229.619z"/>
	<path fill="#231F20" d="M146.626,239.784l1.626-4.344c0.573-1.531-0.316-2.548-1.653-3.046c-1.036-0.386-1.976-0.349-2.923,0.104
		l0.205,0.851c0.789-0.392,1.508-0.437,2.269-0.153c0.917,0.342,1.419,1.079,1.101,1.93l-0.427,1.139
		c-0.291-0.779-0.909-1.322-1.774-1.645c-1.076-0.4-2.466-0.158-2.995,1.255c-0.515,1.374,0.357,2.519,1.433,2.919
		c0.852,0.317,1.686,0.285,2.426-0.096l-0.27,0.72L146.626,239.784z M144.104,238.218c-0.918-0.342-1.345-1.156-1.046-1.954
		c0.304-0.812,1.162-1.148,2.08-0.807c0.694,0.259,1.266,0.77,1.449,1.435l-0.445,1.19
		C145.566,238.464,144.8,238.477,144.104,238.218z"/>
	<path fill="#231F20" d="M152.155,241.422l1.553-5.614l1.902,0.523l0.245-0.889l-4.803-1.32l-0.246,0.888l1.89,0.52l-1.553,5.614
		L152.155,241.422z"/>
	<path fill="#231F20" d="M157.972,235.925l-1.213,6.639l3.526,0.641c1.364,0.247,2.265-0.555,2.466-1.654
		c0.198-1.086-0.345-2.165-1.722-2.415l-2.494-0.452l0.47-2.57L157.972,235.925z M160.753,240.023
		c0.757,0.138,1.056,0.688,0.938,1.335c-0.12,0.659-0.605,1.054-1.35,0.919l-2.383-0.433l0.411-2.254L160.753,240.023z"/>
	<path fill="#231F20" d="M169.527,246.084l1.049,0.025l0.043-1.718l5.109,0.124l-0.043,1.718l1.049,0.025l0.066-2.64l-0.784-0.019
		l0.144-5.823l-4.702-0.114l-0.517,3.312c-0.314,1.991-0.718,2.429-1.351,2.524L169.527,246.084z M172.359,238.608l2.729,0.065
		l-0.121,4.902l-4.017-0.098c0.499-0.379,0.839-1.084,1.038-2.351L172.359,238.608z"/>
	<path fill="#231F20" d="M182.933,244.35c1.772-0.137,2.896-1.596,2.729-3.769c-0.169-2.187-1.5-3.429-3.272-3.292
		c-0.949,0.073-1.749,0.625-2.186,1.346l-0.077-1.003l-1.047,0.08l0.716,9.289l1.047-0.081l-0.275-3.578
		C181.169,244.052,182.012,244.421,182.933,244.35z M182.596,243.438c-0.823,0.063-1.686-0.375-2.094-0.932l-0.234-3.036
		c0.318-0.612,1.104-1.164,1.928-1.228c1.354-0.104,2.248,0.934,2.363,2.424C184.673,242.157,183.949,243.333,182.596,243.438z"/>
	<path fill="#231F20" d="M189.062,246.179c0.203,0.021,0.555,0.002,0.775-0.037c0.88-0.17,1.489-0.66,1.719-1.693l1.923-8.579
		l-1.131,0.199l-1.242,5.836l-3.183-5.055l-1.116,0.197l3.972,6.22l-0.264,1.082c-0.137,0.591-0.413,0.796-0.868,0.876
		c-0.166,0.029-0.421,0.032-0.585-0.01V246.179z"/>
	<path fill="#231F20" d="M199.891,234.166l-4.57,1.229l1.757,6.516l1.015-0.272l-1.518-5.625l3.557-0.956L199.891,234.166z"/>
	<path fill="#231F20" d="M205.238,239.488l1.512-6.164l1.834,4.922l0.984-0.366l-2.356-6.322l-0.972,0.361l-1.519,6.062l-1.801-4.83
		l-0.984,0.365l2.357,6.323L205.238,239.488z"/>
	<path fill="#231F20" d="M217.808,234.034l-3.861-1.975l0.762-4.021l-1.095,0.532l-0.559,3.13l-2.813-1.489l-1.095,0.532
		l3.643,1.879l-0.808,4.246l1.082-0.526l0.61-3.373l3.039,1.598L217.808,234.034z"/>
	<path fill="#231F20" d="M225.543,232.539c0.193-0.064,0.506-0.228,0.691-0.354c0.73-0.519,1.083-1.217,0.863-2.252l-1.809-8.606
		l-0.946,0.648l1.289,5.826l-4.996-3.288l-0.936,0.641l6.198,4.024l0.209,1.094c0.121,0.595-0.046,0.896-0.428,1.156
		c-0.138,0.096-0.37,0.203-0.536,0.232L225.543,232.539z"/>
	<path fill="#231F20" d="M226.632,220.283l1.429,1.702c0.988,1.177,1.997,1.226,3.35,0.096c0.59-0.493,1.065-1.145,1.29-1.66
		l1.77,2.108l0.805-0.673l-4.339-5.17l-0.806,0.673l2.021,2.408c-0.176,0.421-0.603,0.978-1.14,1.427
		c-0.858,0.717-1.544,0.835-2.353-0.128l-1.222-1.456L226.632,220.283z"/>
	<path fill="#231F20" d="M241.536,215.712l-3.32-3.242c-1.17-1.143-2.462-0.743-3.461,0.274c-0.773,0.789-1.121,1.661-1.09,2.708
		l0.862,0.158c-0.038-0.878,0.212-1.553,0.779-2.132c0.686-0.698,1.564-0.856,2.215-0.222l0.87,0.85
		c-0.832-0.05-1.58,0.294-2.227,0.953c-0.803,0.818-1.145,2.185-0.064,3.24c1.05,1.025,2.452,0.693,3.255-0.125
		c0.637-0.648,0.945-1.422,0.896-2.251l0.55,0.537L241.536,215.712z M239.08,217.378c-0.686,0.699-1.605,0.759-2.216,0.162
		c-0.62-0.605-0.58-1.524,0.105-2.223c0.519-0.529,1.218-0.843,1.902-0.741l0.91,0.889
		C239.897,216.145,239.599,216.849,239.08,217.378z"/>
	<path fill="#231F20" d="M245.877,210.877c0.774-0.956,0.841-1.837,0.644-2.659l-0.94,0.139c0.187,0.725,0.043,1.346-0.397,1.889
		c-0.906,1.118-2.341,1.111-3.505,0.172s-1.46-2.328-0.553-3.446c0.439-0.543,1.008-0.822,1.768-0.783l-0.06-0.946
		c-0.849-0.02-1.697,0.229-2.473,1.185c-1.268,1.563-0.925,3.582,0.631,4.838C242.558,212.529,244.608,212.441,245.877,210.877z"/>
	<path fill="#231F20" d="M250.244,204.633l-4.835-3.264l1.106-1.632l-0.766-0.517l-2.794,4.12l0.766,0.517l1.099-1.62l4.835,3.264
		L250.244,204.633z"/>
	<path fill="#231F20" d="M253.319,199.734l-2.646-1.459l1.707-3.081l2.646,1.459l0.508-0.917l-5.918-3.263l-0.508,0.918l2.463,1.357
		l-1.707,3.081l-2.463-1.357l-0.508,0.917l5.918,3.262L253.319,199.734z"/>
	<path fill="#231F20" d="M257.465,191.667l-3.443-5.33l4.841,2.054l0.411-0.963l-6.219-2.639l-0.405,0.95l3.364,5.267l-4.751-2.016
		l-0.411,0.963l6.219,2.639L257.465,191.667z"/>
	<path fill="#231F20" d="M262.253,178.463l-4.425,1.767l-2.031-3.765l-0.396,1.267l2.371,4.456l-3.433-1.07l-0.313,1l6.452,2.012
		l0.313-1l-1.844-0.574l-0.721-1.396l3.626-1.416L262.253,178.463z"/>
	<path fill="#231F20" d="M263.645,173.043c0.412-2.012-0.895-3.59-2.815-3.979c-1.92-0.391-3.728,0.554-4.14,2.565
		c-0.411,2.013,0.881,3.587,2.802,3.978C261.411,175.997,263.233,175.055,263.645,173.043z M262.726,172.857
		c-0.288,1.409-1.658,1.958-3.016,1.682c-1.345-0.273-2.39-1.312-2.102-2.722c0.289-1.41,1.655-1.945,3-1.672
		C261.967,170.421,263.014,171.447,262.726,172.857z"/>
	<path fill="#231F20" d="M264.95,162.913c0.121-1.238-0.547-2.033-1.634-2.138c-0.767-0.075-1.53,0.398-1.765,1.064
		c-0.125-0.588-0.619-1.155-1.427-1.233c-1.018-0.099-1.798,0.542-1.913,1.724l-0.361,3.699l6.731,0.652L264.95,162.913z
		 M264.01,163.032l-0.245,2.518l-2.077-0.201l0.246-2.518c0.069-0.709,0.607-1.036,1.151-0.983
		C263.726,161.91,264.075,162.364,264.01,163.032z M261.01,162.784l-0.242,2.475l-1.896-0.184l0.242-2.475
		c0.062-0.641,0.474-0.965,1.06-0.908C260.703,161.743,261.073,162.129,261.01,162.784z"/>
</g>
</svg>
