<?xml version="1.0" encoding="utf-8"?>
<!-- Generator: Adobe Illustrator 16.0.0, SVG Export Plug-In . SVG Version: 6.00 Build 0)  -->
<!DOCTYPE svg PUBLIC "-//W3C//DTD SVG 1.1//EN" "http://www.w3.org/Graphics/SVG/1.1/DTD/svg11.dtd">
<svg version="1.1" id="Layer_1" xmlns="http://www.w3.org/2000/svg" xmlns:xlink="http://www.w3.org/1999/xlink" x="0px" y="0px"
	 width="435.064px" height="277.54px" viewBox="0 0 435.064 277.54" enable-background="new 0 0 435.064 277.54"
	 xml:space="preserve">
<g>
	<path fill="#231F20" d="M189.522,80.444c2.043-0.643,2.721-1.972,2.986-3.588l1.811-10.762l-2.764,0.87l-0.938,6.989l-4.745-5.199
		l-2.764,0.87l6.838,6.999c-0.182,0.983-0.451,1.447-1.293,1.712c-0.55,0.173-1.174,0.048-1.672-0.154l-0.311,2.254
		C187.331,80.737,188.476,80.774,189.522,80.444z"/>
	<path fill="#231F20" d="M198.669,79.645l2.528-0.381l-0.33-2.195l7.407-1.116l0.33,2.195l2.529-0.382l-0.666-4.426l-1.068,0.161
		l-1.455-9.672l-8.439,1.271l0.221,6.19c0.098,3.197-0.506,3.781-1.693,4.124L198.669,79.645z M202.263,71.091l-0.144-4.103
		l3.614-0.545l1.119,7.441l-5.52,0.832C201.976,73.908,202.326,72.724,202.263,71.091z"/>
	<path fill="#231F20" d="M223.509,75.683l-4.526-12.076l-3.205-0.028l-4.746,11.995l2.917,0.025l0.773-2.032l5.149,0.045
		l0.722,2.046L223.509,75.683z M219.188,71.35l-3.746-0.032l1.916-5.163L219.188,71.35z"/>
	<path fill="#231F20" d="M228.708,64.347l-2.545-0.398l-0.519,3.333c-0.411,2.639,0.705,4.604,3.729,5.077
		c0.907,0.143,1.822,0.121,2.623,0.01l-0.711,4.563l2.526,0.396l1.851-11.892l-2.525-0.396l-0.794,5.1
		c-0.661,0.151-1.466,0.172-2.32,0.038c-1.37-0.215-2.076-0.946-1.835-2.497L228.708,64.347z"/>
	<path fill="#231F20" d="M238.503,78.573l7.896-5.939l-2.442,7.684l2.437,0.778l3.645-11.464l-2.504-0.801l-7.656,5.714l2.355-7.408
		l-2.436-0.778l-3.645,11.464L238.503,78.573z"/>
	<path fill="#231F20" d="M138.431,171.303l-9.01,2.451l0.986,3.611c0.493,1.806,2.012,2.479,3.484,2.077
		c1.472-0.4,2.432-1.776,1.945-3.555l-0.681-2.493l2.58-0.702l1.288,4.717l0.999-0.272L138.431,171.303z M134.801,176.025
		c0.29,1.064-0.213,1.982-1.226,2.259c-1.014,0.275-1.914-0.261-2.205-1.326l-0.645-2.357l3.432-0.934L134.801,176.025z"/>
	<path fill="#231F20" d="M133.043,185.734c0.749,1.911,2.704,2.527,4.528,1.814c1.824-0.712,2.828-2.483,2.078-4.395
		c-0.748-1.911-2.689-2.532-4.514-1.819C133.312,182.047,132.294,183.823,133.043,185.734z M133.917,185.394
		c-0.525-1.339,0.326-2.541,1.615-3.045c1.277-0.499,2.72-0.192,3.244,1.146c0.525,1.339-0.331,2.528-1.607,3.026
		C135.878,187.025,134.44,186.732,133.917,185.394z"/>
	<path fill="#231F20" d="M135.213,190.97c0.598,1.153,1.777,1.362,4.157,0.48l2.393-0.888l1.252,2.419l-5.186,2.675l0.482,0.931
		l6.006-3.099l-2.158-4.168l-3.158,1.143c-1.9,0.682-2.728,0.667-3.017,0.109L135.213,190.97z"/>
	<path fill="#231F20" d="M145.759,195.926l-5.668,3.685l1.956,2.997c0.757,1.159,1.96,1.261,2.898,0.65
		c0.927-0.603,1.339-1.738,0.575-2.909l-1.383-2.118l2.194-1.427L145.759,195.926z M144.685,200.759
		c0.421,0.644,0.225,1.239-0.328,1.598c-0.562,0.366-1.184,0.286-1.596-0.347l-1.322-2.025l1.924-1.251L144.685,200.759z"/>
	<path fill="#231F20" d="M155.113,208.496l-4.487,3.729l-1.826-2.189l4.486-3.729l-0.672-0.805l-4.486,3.729l-1.828-2.189
		l4.486-3.729l-0.672-0.805l-5.196,4.319l5.671,6.793l5.195-4.319L155.113,208.496z"/>
	<path fill="#231F20" d="M155.166,218.318c0.804,0.757,1.716,1.116,2.667,1.088l0.104-0.844c-0.762,0.033-1.543-0.28-2.104-0.808
		c-1.06-0.996-0.981-2.382-0.168-3.364l3.982,3.746l0.183-0.193c1.394-1.474,1.612-3.457,0.125-4.855
		c-1.405-1.322-3.51-1.132-4.854,0.291C153.649,214.914,153.709,216.948,155.166,218.318z M159.423,216.868l-3.229-3.037
		c0.751-0.714,2.106-1.109,3.156-0.123C160.47,214.763,160.104,216.127,159.423,216.868z"/>
	<path fill="#231F20" d="M166.274,227.203c1.016,0.697,1.9,0.695,2.709,0.436l-0.211-0.925c-0.711,0.241-1.343,0.146-1.92-0.25
		c-1.188-0.816-1.289-2.244-0.439-3.476c0.851-1.231,2.217-1.634,3.404-0.817c0.576,0.396,0.898,0.94,0.918,1.7l0.941-0.133
		c-0.045-0.846-0.358-1.673-1.373-2.37c-1.66-1.141-3.653-0.644-4.789,1.002C164.37,224.027,164.614,226.062,166.274,227.203z"/>
	<path fill="#231F20" d="M172.851,231.063l2.889-5.062l1.715,0.974l0.457-0.801l-4.33-2.459l-0.457,0.802l1.703,0.967l-2.889,5.062
		L172.851,231.063z"/>
	<path fill="#231F20" d="M181.833,235.498l1.936-4.215c0.682-1.485-0.132-2.563-1.43-3.156c-1.005-0.459-1.945-0.489-2.922-0.105
		l0.143,0.863c0.814-0.334,1.535-0.327,2.273,0.01c0.891,0.406,1.336,1.178,0.957,2.004l-0.506,1.104
		c-0.234-0.798-0.812-1.385-1.651-1.768c-1.044-0.477-2.448-0.335-3.077,1.037c-0.611,1.333,0.175,2.536,1.219,3.013
		c0.826,0.378,1.66,0.405,2.426,0.079l-0.32,0.698L181.833,235.498z M179.433,233.757c-0.891-0.407-1.258-1.25-0.902-2.024
		c0.361-0.787,1.24-1.062,2.131-0.655c0.675,0.309,1.207,0.858,1.343,1.535l-0.53,1.155
		C180.872,234.106,180.106,234.064,179.433,233.757z"/>
	<path fill="#231F20" d="M188.677,238.022c1.179,0.401,2.107-0.064,2.461-1.096c0.248-0.728-0.037-1.577-0.633-1.957
		c0.602,0.013,1.27-0.336,1.531-1.103c0.33-0.965-0.115-1.869-1.24-2.253l-3.525-1.199l-2.185,6.386L188.677,238.022z
		 M188.776,237.083l-2.398-0.816l0.674-1.97l2.398,0.815c0.676,0.23,0.871,0.828,0.694,1.344
		C189.937,237.064,189.412,237.299,188.776,237.083z M189.709,234.227l-2.358-0.803l0.615-1.798l2.359,0.803
		c0.609,0.207,0.831,0.682,0.641,1.236C190.794,234.168,190.332,234.438,189.709,234.227z"/>
	<path fill="#231F20" d="M196.646,240.4c2.006,0.457,3.617-0.811,4.053-2.717c0.437-1.906-0.467-3.73-2.473-4.188
		c-2.006-0.456-3.614,0.797-4.051,2.703C193.739,238.106,194.64,239.944,196.646,240.4z M196.854,239.488
		c-1.406-0.319-1.924-1.698-1.615-3.047c0.306-1.334,1.371-2.353,2.777-2.033c1.406,0.32,1.909,1.695,1.604,3.03
		C199.312,238.787,198.26,239.809,196.854,239.488z"/>
	<path fill="#231F20" d="M208.92,242.211l-2.532-4.03l3.354-2.669l-1.32-0.163l-3.975,3.127l0.444-3.563l-1.042-0.129l-0.835,6.697
		l1.042,0.129l0.238-1.914l1.248-0.958l2.043,3.309L208.92,242.211z"/>
	<path fill="#231F20" d="M212.982,242.076c0.034-0.669-0.364-1.081-0.826-1.104c-0.419-0.021-0.759,0.312-0.78,0.716
		c-0.021,0.419,0.244,0.726,0.635,0.745c0.07,0.004,0.169-0.005,0.197-0.018c-0.079,0.458-0.513,0.981-0.975,1.251l0.494,0.459
		C212.396,243.697,212.938,242.928,212.982,242.076z"/>
	<path fill="#231F20" d="M224.082,241.414c-1.438,0.118-2.347-1.041-2.462-2.433c-0.11-1.351,0.599-2.643,2.036-2.761
		c1.438-0.117,2.333,1.043,2.444,2.394C226.214,240.006,225.52,241.297,224.082,241.414z M224.159,242.348
		c2.078-0.171,3.188-1.888,3.029-3.823c-0.156-1.907-1.529-3.407-3.441-3.25c-1.2,0.099-1.996,0.837-2.422,1.643
		c0.144-1.161,0.673-2.074,2.646-2.516c1.132-0.247,2.614-0.663,2.524-1.764l-1.019,0.084c0.022,0.278-0.381,0.494-1.842,0.838
		c-2.319,0.498-3.396,1.946-3.126,5.219C220.69,241.006,222.093,242.517,224.159,242.348z"/>
	<path fill="#231F20" d="M233.561,241.082c2.021-0.381,2.991-2.184,2.628-4.104s-1.922-3.232-3.943-2.851
		c-2.021,0.381-2.994,2.17-2.631,4.091S231.539,241.464,233.561,241.082z M233.387,240.163c-1.417,0.268-2.442-0.789-2.699-2.147
		c-0.255-1.345,0.314-2.702,1.731-2.97c1.416-0.268,2.428,0.792,2.683,2.137C235.358,238.541,234.803,239.896,233.387,240.163z"/>
	<path fill="#231F20" d="M239.11,239.932c1.248-0.372,1.673-1.489,1.247-3.986l-0.429-2.51l2.615-0.78l1.669,5.58l1.006-0.3
		l-1.934-6.463l-4.507,1.344l0.537,3.309c0.318,1.989,0.15,2.797-0.453,2.978L239.11,239.932z"/>
	<path fill="#231F20" d="M245.957,230.517l2.571,6.242l3.317-1.361c1.283-0.526,1.607-1.688,1.182-2.721
		c-0.422-1.021-1.463-1.637-2.758-1.104l-2.344,0.962l-0.996-2.416L245.957,230.517z M250.517,232.468
		c0.713-0.293,1.262,0.011,1.512,0.618c0.256,0.62,0.061,1.214-0.639,1.501l-2.241,0.92l-0.874-2.119L250.517,232.468z"/>
	<path fill="#231F20" d="M260.087,223.669l2.84,5.088l-2.494,1.388l-2.842-5.088l-0.918,0.511l2.842,5.088l-2.494,1.388
		l-2.842-5.088l-0.918,0.51l3.291,5.894l7.742-4.307l-3.291-5.893L260.087,223.669z"/>
	<path fill="#231F20" d="M269.771,225.437c0.893-0.648,1.416-1.476,1.564-2.412l-0.811-0.258c-0.109,0.753-0.562,1.461-1.186,1.913
		c-1.178,0.854-2.527,0.521-3.344-0.457l4.426-3.211l-0.156-0.215c-1.193-1.637-3.104-2.218-4.756-1.019
		c-1.562,1.134-1.766,3.23-0.613,4.812C266.138,226.294,268.152,226.611,269.771,225.437z M269.132,220.998l-3.588,2.604
		c-0.564-0.868-0.703-2.269,0.463-3.115C267.251,219.583,268.529,220.193,269.132,220.998z"/>
	<path fill="#231F20" d="M278.929,207.936l4.203,4.038l-1.98,2.052l-4.203-4.037l-0.729,0.755l4.203,4.037l-1.98,2.053l-4.203-4.038
		l-0.727,0.755l4.867,4.677l6.145-6.369l-4.867-4.676L278.929,207.936z"/>
	<path fill="#231F20" d="M289.931,204.919l-3.703-2.803c-1.305-0.988-2.537-0.43-3.4,0.705c-0.67,0.88-0.904,1.789-0.742,2.824
		l0.877,0.05c-0.15-0.867,0.014-1.568,0.506-2.214c0.592-0.779,1.445-1.046,2.17-0.497l0.971,0.735
		c-0.832,0.054-1.533,0.489-2.092,1.224c-0.693,0.913-0.861,2.312,0.344,3.224c1.172,0.887,2.521,0.383,3.215-0.53
		c0.551-0.724,0.76-1.53,0.607-2.347l0.613,0.464L289.931,204.919z M287.703,206.88c-0.594,0.779-1.498,0.953-2.18,0.438
		c-0.691-0.523-0.768-1.44-0.174-2.22c0.449-0.59,1.104-0.989,1.795-0.974l1.016,0.768
		C288.359,205.554,288.152,206.29,287.703,206.88z"/>
	<path fill="#231F20" d="M292.464,201.142l-2.58-1.575l1.844-3.005l2.58,1.576l0.549-0.894l-5.77-3.524l-0.549,0.894l2.402,1.467
		l-1.846,3.004l-2.4-1.466l-0.549,0.894l5.77,3.524L292.464,201.142z"/>
	<path fill="#231F20" d="M297.97,191.576c0.537-1.106,0.402-1.979,0.023-2.737l-0.885,0.348c0.346,0.664,0.348,1.302,0.041,1.931
		c-0.631,1.295-2.029,1.611-3.377,0.958c-1.348-0.652-1.953-1.938-1.322-3.233c0.307-0.629,0.797-1.028,1.547-1.162l-0.273-0.909
		c-0.832,0.172-1.604,0.606-2.143,1.713c-0.881,1.81-0.088,3.7,1.713,4.572C295.109,193.935,297.087,193.386,297.97,191.576z"/>
	<path fill="#231F20" d="M301.199,183.928c0.709-1.927-0.344-3.682-2.184-4.355c-1.838-0.674-3.768-0.012-4.477,1.915
		c-0.711,1.928,0.33,3.678,2.168,4.352C298.546,186.513,300.488,185.854,301.199,183.928z M300.318,183.605
		c-0.498,1.351-1.934,1.687-3.234,1.211c-1.287-0.473-2.162-1.656-1.666-3.007c0.498-1.35,1.93-1.674,3.217-1.202
		C299.935,181.084,300.816,182.255,300.318,183.605z"/>
	<path fill="#231F20" d="M304.025,174.077c0.307-1.206-0.236-2.092-1.295-2.358c-0.746-0.188-1.572,0.166-1.904,0.789
		c-0.035-0.601-0.438-1.235-1.225-1.434c-0.992-0.25-1.859,0.267-2.15,1.419l-0.914,3.604l6.559,1.652L304.025,174.077z
		 M303.078,174.055l-0.621,2.452l-2.023-0.51l0.621-2.452c0.176-0.69,0.758-0.934,1.287-0.8
		C302.964,172.902,303.242,173.404,303.078,174.055z M300.148,173.36l-0.611,2.411l-1.846-0.465l0.611-2.412
		c0.158-0.623,0.613-0.883,1.184-0.739C300.001,172.285,300.31,172.724,300.148,173.36z"/>
	<path fill-rule="evenodd" clip-rule="evenodd" fill="none" stroke="#231F20" stroke-width="2" stroke-miterlimit="10" d="
		M217.005,91.989c34.243,0,62,27.763,62,62.011s-27.758,62.011-62,62.011c-34.242,0-62-27.763-62-62.011
		S182.763,91.989,217.005,91.989z"/>
	
		<path fill-rule="evenodd" clip-rule="evenodd" fill="none" stroke="#231F20" stroke-width="2" stroke-miterlimit="10" stroke-dasharray="12" d="
		M216.487,40.994c62.133,0,112.502,50.37,112.502,112.506s-50.369,112.506-112.502,112.506c-62.133,0-112.5-50.37-112.5-112.506
		S154.354,40.994,216.487,40.994z"/>
	
		<path fill-rule="evenodd" clip-rule="evenodd" fill="none" stroke="#231F20" stroke-width="2" stroke-linecap="round" stroke-linejoin="round" stroke-miterlimit="10" stroke-dasharray="0,7" d="
		M217.497,99.994c29.555,0,53.516,23.954,53.516,53.503S247.052,207,217.497,207c-29.557,0-53.516-23.954-53.516-53.503
		S187.94,99.994,217.497,99.994z"/>
	<path fill-rule="evenodd" clip-rule="evenodd" fill="none" stroke="#231F20" stroke-width="2" stroke-miterlimit="10" d="
		M198.995,146.01h8.018c1.66,0,3.006,1.377,3.006,3.075v15.834c0,1.698-1.346,3.074-3.006,3.074h-8.018
		c-1.66,0-3.006-1.376-3.006-3.074v-15.834C195.989,147.387,197.335,146.01,198.995,146.01z"/>
	<path fill-rule="evenodd" clip-rule="evenodd" fill="none" stroke="#231F20" stroke-width="2" stroke-miterlimit="10" d="
		M200.001,161h3v3h-3V161z"/>
	<path fill-rule="evenodd" clip-rule="evenodd" fill="none" stroke="#231F20" stroke-width="2" stroke-miterlimit="10" d="
		M211.002,148.342c0,0,3.003-1.348,4.984-5.007s2.3-5.393,2.3-5.393v-5.778c0,0,0-1.155,1.918-1.155
		c1.917,0,5.367,2.504,5.367,8.089c0,3.817-0.57,4.902-0.57,4.902h10c0,0,3.99,0.618,3.99,3.957c0,2.761-1.534,3.467-1.534,3.467
		s1.15,0.642,1.15,2.311c0,2.744-1.534,3.082-1.534,3.082s0.726,2.162-0.383,3.852c-0.703,1.072-1.917,1.155-1.917,1.155
		s0.702,3.66-1.534,4.623s-18.787,0.385-18.787,0.385s-3.387-0.642-3.45-2.312"/>
	<path fill="none" stroke="#231F20" stroke-width="2" stroke-miterlimit="10" d="M141.665,117.79l-6.052,1.483l2.008-5.694
		l-3.503-5.27l6.273,0.155l3.752-4.934l2.005,5.984l5.687,2.026l-4.9,3.736l-0.371,5.993L141.665,117.79z"/>
	<path fill="none" stroke="#231F20" stroke-width="2" stroke-miterlimit="10" d="M135.376,144.634l-2.705,1.445l0.237-2.889
		l-2.344-2.002l3.021-0.715l1.167-2.756l1.718,2.521l2.977,0.227l-1.869,2.345l0.582,2.822L135.376,144.634z"/>
	<path fill="none" stroke="#231F20" stroke-width="2" stroke-miterlimit="10" d="M159.447,92.038l-3.052-0.314l1.812-2.262
		l-0.823-2.971l2.903,1.097l2.509-1.632l0.015,3.05l2.342,1.852l-2.861,0.899l-1.096,2.666L159.447,92.038z"/>
	<path fill="none" stroke="#231F20" stroke-width="2" stroke-miterlimit="10" d="M292.689,117.83l6.076,1.49l-2.016-5.722
		l3.518-5.296l-6.301,0.157l-3.766-4.959l-2.014,6.015l-5.709,2.036l4.92,3.755l0.373,6.021L292.689,117.83z"/>
	<path fill="none" stroke="#231F20" stroke-width="2" stroke-miterlimit="10" d="M299.003,144.806l2.717,1.452l-0.238-2.903
		l2.352-2.012l-3.031-0.718l-1.172-2.769l-1.725,2.532l-2.988,0.228l1.877,2.356l-0.586,2.836L299.003,144.806z"/>
	<path fill="none" stroke="#231F20" stroke-width="2" stroke-miterlimit="10" d="M274.835,91.952l3.062-0.315l-1.818-2.274
		l0.826-2.984l-2.914,1.102l-2.52-1.64l-0.016,3.065l-2.35,1.86l2.873,0.903l1.1,2.679L274.835,91.952z"/>
	<path fill-rule="evenodd" clip-rule="evenodd" fill="none" stroke="#231F20" stroke-width="2" stroke-miterlimit="10" d="
		M105.449,154H75"/>
	<path fill-rule="evenodd" clip-rule="evenodd" fill="none" stroke="#231F20" stroke-width="2" stroke-miterlimit="10" d="
		M106.708,175.996H93.033"/>
	<path fill-rule="evenodd" clip-rule="evenodd" fill="none" stroke="#231F20" stroke-width="2" stroke-miterlimit="10" d="
		M113.001,197.003h-4.645"/>
	<path fill-rule="evenodd" clip-rule="evenodd" fill="none" stroke="#231F20" stroke-width="2" stroke-miterlimit="10" d="
		M113.001,112.003h-4.907"/>
	<path fill-rule="evenodd" clip-rule="evenodd" fill="none" stroke="#231F20" stroke-width="2" stroke-miterlimit="10" d="
		M106.71,134H93.036"/>
	<path fill-rule="evenodd" clip-rule="evenodd" fill="none" stroke="#231F20" stroke-width="2" stroke-miterlimit="10" d="
		M327.552,154h30.449"/>
	<path fill-rule="evenodd" clip-rule="evenodd" fill="none" stroke="#231F20" stroke-width="2" stroke-miterlimit="10" d="
		M326.294,175.996h13.674"/>
	<path fill-rule="evenodd" clip-rule="evenodd" fill="none" stroke="#231F20" stroke-width="2" stroke-miterlimit="10" d="
		M320,197.003h4.645"/>
	<path fill-rule="evenodd" clip-rule="evenodd" fill="none" stroke="#231F20" stroke-width="2" stroke-miterlimit="10" d="
		M320,112.003h4.908"/>
	<path fill-rule="evenodd" clip-rule="evenodd" fill="none" stroke="#231F20" stroke-width="2" stroke-miterlimit="10" d="
		M326.291,134h13.676"/>
	<path fill-rule="evenodd" clip-rule="evenodd" fill="none" stroke="#231F20" stroke-width="2" stroke-miterlimit="10" d="
		M197.285,126.716l-6.569,6.568"/>
	<path fill-rule="evenodd" clip-rule="evenodd" fill="none" stroke="#231F20" stroke-width="2" stroke-miterlimit="10" d="
		M237.716,126.716l6.569,6.568"/>
	<path fill-rule="evenodd" clip-rule="evenodd" fill="none" stroke="#231F20" stroke-width="2" stroke-miterlimit="10" d="
		M197.285,180.284l-6.569-6.568"/>
	<path fill-rule="evenodd" clip-rule="evenodd" fill="none" stroke="#231F20" stroke-width="2" stroke-miterlimit="10" d="
		M237.716,180.284l6.569-6.568"/>
	<path fill-rule="evenodd" clip-rule="evenodd" fill="none" stroke="#231F20" stroke-width="2" stroke-miterlimit="10" d="
		M252.001,149.013l6.986,5.487l-6.986,5.487V149.013z"/>
	<path fill-rule="evenodd" clip-rule="evenodd" fill="none" stroke="#231F20" stroke-width="2" stroke-miterlimit="10" d="
		M183.001,149.013l-6.988,5.487l6.988,5.487V149.013z"/>
	<path fill-rule="evenodd" clip-rule="evenodd" fill="none" stroke="#231F20" stroke-width="2" stroke-miterlimit="10" d="
		M222.987,189l-5.486,6.988L212.014,189H222.987z"/>
	<path fill-rule="evenodd" clip-rule="evenodd" fill="none" stroke="#231F20" stroke-width="2" stroke-miterlimit="10" d="
		M222.987,120l-5.486-6.988L212.014,120H222.987z"/>
	<path fill-rule="evenodd" clip-rule="evenodd" fill="none" stroke="#231F20" stroke-width="2" stroke-miterlimit="10" d="
		M6.672,65.003c3.036,0.094,5.42,2.632,5.325,5.668c-0.095,3.036-2.633,5.421-5.669,5.326c-3.036-0.094-5.42-2.632-5.326-5.668
		C1.098,67.293,3.636,64.908,6.672,65.003z"/>
	<path fill-rule="evenodd" clip-rule="evenodd" fill="none" stroke="#231F20" stroke-width="2" stroke-miterlimit="10" d="
		M86.61,225.002c1.932,0.06,3.449,1.675,3.389,3.606c-0.06,1.933-1.675,3.45-3.607,3.39c-1.932-0.06-3.449-1.675-3.389-3.606
		C83.062,226.459,84.678,224.941,86.61,225.002z"/>
	<path fill-rule="evenodd" clip-rule="evenodd" fill="none" stroke="#231F20" stroke-width="2" stroke-miterlimit="10" d="
		M298.611,1.002c1.932,0.06,3.449,1.675,3.389,3.607s-1.676,3.449-3.607,3.39c-1.934-0.061-3.449-1.675-3.391-3.607
		C295.062,2.459,296.677,0.942,298.611,1.002z"/>
	<path fill-rule="evenodd" clip-rule="evenodd" fill="none" stroke="#231F20" stroke-width="2" stroke-miterlimit="10" d="
		M404.767,238.004c4.691,0.146,8.377,4.068,8.229,8.76c-0.146,4.692-4.068,8.378-8.76,8.232c-4.693-0.146-8.377-4.068-8.23-8.76
		C396.152,241.544,400.074,237.858,404.767,238.004z"/>
	<path fill-rule="evenodd" clip-rule="evenodd" fill="none" stroke="#231F20" stroke-width="2" stroke-miterlimit="10" d="
		M304.833,271.168l-5.666,5.665"/>
	<path fill-rule="evenodd" clip-rule="evenodd" fill="none" stroke="#231F20" stroke-width="2" stroke-miterlimit="10" d="
		M299.175,271.174l5.65,5.652"/>
	<path fill-rule="evenodd" clip-rule="evenodd" fill="none" stroke="#231F20" stroke-width="2" stroke-miterlimit="10" d="
		M119.833,34.168l-5.665,5.664"/>
	<path fill-rule="evenodd" clip-rule="evenodd" fill="none" stroke="#231F20" stroke-width="2" stroke-miterlimit="10" d="
		M114.175,34.174l5.651,5.652"/>
	<path fill-rule="evenodd" clip-rule="evenodd" fill="none" stroke="#231F20" stroke-width="2" stroke-miterlimit="10" d="
		M374.001,65.179v11.643"/>
	<path fill-rule="evenodd" clip-rule="evenodd" fill="none" stroke="#231F20" stroke-width="2" stroke-miterlimit="10" d="
		M368.224,71h11.553"/>
	<path fill-rule="evenodd" clip-rule="evenodd" fill="none" stroke="#231F20" stroke-width="2" stroke-miterlimit="10" d="
		M67,195.179v11.643"/>
	<path fill-rule="evenodd" clip-rule="evenodd" fill="none" stroke="#231F20" stroke-width="2" stroke-miterlimit="10" d="
		M61.225,201h11.552"/>
</g>
</svg>
