<?xml version="1.0" encoding="utf-8"?>
<!-- Generator: Adobe Illustrator 19.0.0, SVG Export Plug-In . SVG Version: 6.00 Build 0)  -->
<svg version="1.1" id="Layer_1" xmlns="http://www.w3.org/2000/svg" xmlns:xlink="http://www.w3.org/1999/xlink" x="0px" y="0px"
	 viewBox="-531 112.5 435.1 277.5" style="enable-background:new -531 112.5 435.1 277.5;" xml:space="preserve">
<style type="text/css">
	.st0{fill:none;stroke:#231F20;stroke-width:2;stroke-miterlimit:10;}
	.st1{fill:none;stroke:#231F20;stroke-width:2;stroke-miterlimit:10;stroke-dasharray:12;}
	
		.st2{fill:none;stroke:#231F20;stroke-width:2;stroke-linecap:round;stroke-linejoin:round;stroke-miterlimit:10;stroke-dasharray:0,7;}
	.st3{fill:#231F20;}
</style>
<path class="st0" d="M-314,204.4c34.2,0,62,27.8,62,62s-27.8,62-62,62s-62-27.8-62-62S-348.2,204.4-314,204.4z"/>
<path class="st1" d="M-314.5,153.5c62.1,0,112.5,50.4,112.5,112.5s-50.4,112.5-112.5,112.5S-427,328.1-427,266
	S-376.6,153.5-314.5,153.5z"/>
<path class="st2" d="M-313.5,212.5c29.6,0,53.5,24,53.5,53.5s-24,53.5-53.5,53.5c-29.6,0-53.5-24-53.5-53.5
	S-343.1,212.5-313.5,212.5z"/>
<path class="st0" d="M-332,258.5h8c1.7,0,3,1.4,3,3.1v15.8c0,1.7-1.3,3.1-3,3.1h-8c-1.7,0-3-1.4-3-3.1v-15.8
	C-335,259.8-333.7,258.5-332,258.5z"/>
<path class="st0" d="M-331,273.5h3v3h-3V273.5z"/>
<path class="st0" d="M-320,260.8c0,0,3-1.3,5-5s2.3-5.4,2.3-5.4v-5.8c0,0,0-1.2,1.9-1.2c1.9,0,5.4,2.5,5.4,8.1
	c0,3.8-0.6,4.9-0.6,4.9h10c0,0,4,0.6,4,4c0,2.8-1.5,3.5-1.5,3.5s1.1,0.6,1.1,2.3c0,2.7-1.5,3.1-1.5,3.1s0.7,2.2-0.4,3.9
	c-0.7,1.1-1.9,1.2-1.9,1.2s0.7,3.7-1.5,4.6c-2.2,1-18.8,0.4-18.8,0.4s-3.4-0.6-3.4-2.3"/>
<path class="st0" d="M-389.3,230.2l-6.1,1.5l2-5.7l-3.5-5.3l6.3,0.2l3.8-4.9l2,6l5.7,2l-4.9,3.7l-0.4,6L-389.3,230.2z"/>
<path class="st0" d="M-395.6,257.1l-2.7,1.4l0.2-2.9l-2.3-2l3-0.7l1.2-2.8l1.7,2.5l3,0.2l-1.9,2.3l0.6,2.8L-395.6,257.1z"/>
<path class="st0" d="M-238.3,230.3l6.1,1.5l-2-5.7l3.5-5.3l-6.3,0.2l-3.8-5l-2,6l-5.7,2l4.9,3.8l0.4,6L-238.3,230.3z"/>
<path class="st0" d="M-232,257.3l2.7,1.5l-0.2-2.9l2.4-2l-3-0.7l-1.2-2.8l-1.7,2.5l-3,0.2l1.9,2.4l-0.6,2.8L-232,257.3z"/>
<path class="st0" d="M-425.6,266.5H-456"/>
<path class="st0" d="M-424.3,288.5H-438"/>
<path class="st0" d="M-418,309.5h-4.6"/>
<path class="st0" d="M-418,224.5h-4.9"/>
<path class="st0" d="M-424.3,246.5H-438"/>
<path class="st0" d="M-203.4,266.5h30.4"/>
<path class="st0" d="M-204.7,288.5h13.7"/>
<path class="st0" d="M-211,309.5h4.6"/>
<path class="st0" d="M-211,224.5h4.9"/>
<path class="st0" d="M-204.7,246.5h13.7"/>
<path class="st0" d="M-333.7,239.2l-6.6,6.6"/>
<path class="st0" d="M-293.3,239.2l6.6,6.6"/>
<path class="st0" d="M-333.7,292.7l-6.6-6.6"/>
<path class="st0" d="M-293.3,292.7l6.6-6.6"/>
<path class="st0" d="M-279,261.5l7,5.5l-7,5.5V261.5z"/>
<path class="st0" d="M-348,261.5l-7,5.5l7,5.5V261.5z"/>
<path class="st0" d="M-308,301.5l-5.5,7l-5.5-7H-308z"/>
<path class="st0" d="M-308,232.5l-5.5-7l-5.5,7H-308z"/>
<path class="st0" d="M-524.3,177.5c3,0.1,5.4,2.6,5.3,5.7c-0.1,3-2.6,5.4-5.7,5.3c-3-0.1-5.4-2.6-5.3-5.7
	C-529.9,179.8-527.4,177.4-524.3,177.5z"/>
<path class="st0" d="M-444.4,337.5c1.9,0.1,3.4,1.7,3.4,3.6c-0.1,1.9-1.7,3.5-3.6,3.4s-3.4-1.7-3.4-3.6
	C-447.9,338.9-446.3,337.4-444.4,337.5z"/>
<path class="st0" d="M-232.4,113.5c1.9,0.1,3.4,1.7,3.4,3.6s-1.7,3.4-3.6,3.4c-1.9-0.1-3.4-1.7-3.4-3.6
	C-235.9,114.9-234.3,113.4-232.4,113.5z"/>
<path class="st0" d="M-126.2,350.5c4.7,0.1,8.4,4.1,8.2,8.8c-0.1,4.7-4.1,8.4-8.8,8.2c-4.7-0.1-8.4-4.1-8.2-8.8
	C-134.8,354-130.9,350.3-126.2,350.5z"/>
<path class="st0" d="M-226.2,383.6l-5.7,5.7"/>
<path class="st0" d="M-231.8,383.6l5.6,5.7"/>
<path class="st0" d="M-411.2,146.6l-5.7,5.7"/>
<path class="st0" d="M-416.8,146.6l5.7,5.7"/>
<path class="st0" d="M-157,177.6v11.6"/>
<path class="st0" d="M-162.8,183.5h11.6"/>
<path class="st0" d="M-464,307.6v11.6"/>
<path class="st0" d="M-469.8,313.5h11.6"/>
<g>
	<g>
		<path class="st3" d="M-360.1,194.9l1.2,1.9l2.7-1.7l0.8,1.2c-0.1,0.4-0.3,0.7-0.6,1.1c-0.3,0.4-0.7,0.7-1.1,1
			c-0.9,0.6-1.9,0.7-2.9,0.5c-1-0.3-1.8-0.9-2.4-1.8c-0.6-1-0.8-2-0.6-3c0.2-1,0.8-1.8,1.7-2.4c0.5-0.3,1.1-0.5,1.6-0.5
			c0.6,0,1.1,0.1,1.6,0.3l1.2-2.1c-1.9-0.9-3.8-0.8-5.6,0.4c-1.5,1-2.5,2.2-2.9,3.9c-0.4,1.6-0.2,3.2,0.8,4.8c1,1.6,2.3,2.5,3.9,2.8
			c1.7,0.3,3.2,0,4.8-0.9c1.7-1.1,2.8-2.6,3.1-4.6l-2.4-3.9L-360.1,194.9z M-344.4,182.9c-1.5-0.6-3.1-0.6-4.8,0.1
			c-1.7,0.7-2.8,1.8-3.5,3.3c-0.6,1.5-0.6,3.1,0.1,4.8c0.7,1.7,1.8,2.8,3.3,3.4c1.5,0.6,3.1,0.6,4.8-0.1c1.7-0.7,2.8-1.8,3.5-3.3
			c0.6-1.5,0.6-3.1-0.1-4.8C-341.8,184.7-342.9,183.6-344.4,182.9z M-343.4,190.4c-0.3,0.9-1,1.6-2,2c-1,0.4-2,0.4-2.9,0
			c-0.9-0.4-1.6-1.2-2-2.2c-0.4-1.1-0.5-2.1-0.2-3c0.3-0.9,1-1.6,2-2c1-0.4,2-0.4,2.9,0c0.9,0.4,1.6,1.2,2,2.2
			C-343.1,188.4-343,189.5-343.4,190.4z M-329.4,179c-1.4-0.9-3-1.1-4.8-0.7c-1.8,0.4-3.1,1.3-4,2.7c-0.9,1.4-1.1,3-0.7,4.7
			c0.4,1.8,1.3,3.1,2.7,4c1.4,0.9,3,1.1,4.8,0.7c1.8-0.4,3.1-1.3,4-2.7c0.9-1.4,1.1-3,0.7-4.8C-327.1,181.2-328,179.8-329.4,179z
			 M-329.6,186.5c-0.5,0.9-1.3,1.4-2.3,1.7c-1.1,0.2-2,0.1-2.8-0.5c-0.8-0.6-1.3-1.4-1.6-2.5c-0.3-1.1-0.1-2.1,0.4-3
			c0.5-0.9,1.3-1.4,2.3-1.7c1.1-0.2,2-0.1,2.8,0.5c0.8,0.6,1.4,1.4,1.6,2.5C-329,184.6-329.1,185.6-329.6,186.5z M-314.8,177.7
			c-1.2-1-2.8-1.5-4.7-1.4l-4.7,0.3l0.7,12l4.7-0.3c1.9-0.1,3.4-0.7,4.5-1.9c1.1-1.2,1.6-2.6,1.5-4.4
			C-312.9,180.2-313.6,178.8-314.8,177.7z M-316.3,184.9c-0.6,0.8-1.5,1.2-2.7,1.2l-2.2,0.1l-0.4-7.5l2.2-0.1
			c1.2-0.1,2.1,0.2,2.8,0.9c0.7,0.7,1.1,1.5,1.1,2.7C-315.4,183.2-315.6,184.1-316.3,184.9z M-301.9,176.9l-2.5-0.3l-1.6,11.9l7.6,1
			l0.3-2.2l-5-0.7L-301.9,176.9z M-287.4,187.3c-0.2,0.8-0.7,1.4-1.3,1.8c-0.6,0.4-1.3,0.4-2.2,0.2c-0.9-0.2-1.5-0.7-1.8-1.3
			c-0.3-0.6-0.4-1.4-0.1-2.2l1.9-6.9l-2.5-0.7l-2,7c-0.4,1.5-0.3,2.8,0.3,3.9c0.6,1.1,1.8,1.9,3.5,2.4c1.7,0.5,3.1,0.4,4.3-0.2
			c1.1-0.6,1.9-1.7,2.3-3.2l2-6.9l-2.5-0.7L-287.4,187.3z M-276.2,194.4c-0.6,0.1-1.2,0-1.7-0.3c-1-0.5-1.7-1.2-2-2.2
			c-0.3-1-0.3-2,0.2-3c0.5-1,1.2-1.7,2.2-2.1c1-0.4,1.9-0.3,2.9,0.1c0.5,0.3,1,0.6,1.3,1.2c0.3,0.5,0.5,1.1,0.5,1.6l2.4-0.1
			c-0.2-2.2-1.3-3.8-3.3-4.8c-1.7-0.8-3.3-0.9-4.9-0.3c-1.6,0.5-2.8,1.6-3.5,3.3c-0.8,1.7-0.8,3.3-0.2,4.8c0.6,1.6,1.8,2.7,3.4,3.5
			c2,0.9,3.9,0.7,5.8-0.6l-1.5-1.9C-275.1,194.1-275.6,194.4-276.2,194.4z M-258,194.4l-2.6-1.7l-6.5,2.1l2.9-4.5l-2.1-1.4l-6.6,10
			l2.1,1.4l2-3.1l1.4-0.4l0.4,6l2.6,1.7l-0.8-8.1L-258,194.4z"/>
	</g>
</g>
<g>
	<g>
		<path class="st3" d="M-380.7,310.1l-7.5,1.2l4.4-6.2l-0.9-1.4l-7.9,4.9l0.6,1l6.5-4l-4.9,6.7l0.3,0.4l8.2-1.4l-6.5,4l0.6,1
			l7.9-4.9L-380.7,310.1z M-377.6,319.7c0.1-0.9-0.1-1.7-0.7-2.5c-0.6-0.8-1.4-1.2-2.3-1.2c-0.9,0-1.8,0.2-2.5,0.9
			c-0.8,0.6-1.2,1.4-1.4,2.3c-0.1,0.9,0.1,1.7,0.7,2.5c0.6,0.8,1.4,1.2,2.3,1.2c0.9,0,1.8-0.2,2.5-0.9
			C-378.2,321.4-377.8,320.6-377.6,319.7z M-379.7,321.2c-0.6,0.5-1.2,0.7-1.8,0.7c-0.6,0-1.2-0.3-1.6-0.8c-0.4-0.5-0.6-1.1-0.4-1.8
			c0.1-0.6,0.5-1.2,1.1-1.6c0.6-0.5,1.2-0.7,1.8-0.7c0.7,0,1.2,0.3,1.6,0.8c0.4,0.5,0.6,1.1,0.4,1.7
			C-378.8,320.2-379.1,320.7-379.7,321.2z M-373.3,324.4c0.1,0.1,0.2,0.2,0.3,0.3l0.8-0.7c-0.6-0.6-1.4-0.9-2.4-0.8l0.8-0.8
			l-0.7-0.8l-4.9,4.7l0.7,0.8l3.5-3.3c0.3-0.1,0.7-0.1,1.1,0.1C-373.8,324-373.5,324.2-373.3,324.4z M-371,326.6
			c-0.9,0.1-1.7,0.5-2.4,1.3c-0.7,0.8-1,1.6-1,2.6c0,0.9,0.5,1.7,1.2,2.4c0.8,0.7,1.7,1.1,2.7,1l0.1-0.8c-0.8,0.1-1.5-0.2-2.1-0.7
			c-0.5-0.5-0.8-1-0.8-1.6c0-0.6,0.2-1.2,0.6-1.7l4.1,3.6l0.2-0.2c0.7-0.8,1-1.6,1.1-2.5c0-0.9-0.4-1.7-1.1-2.3
			C-369.2,326.8-370.1,326.5-371,326.6z M-368.9,331.2l-3.3-2.9c0.4-0.4,0.9-0.7,1.5-0.8c0.6-0.1,1.1,0.1,1.6,0.5
			c0.5,0.5,0.8,1,0.8,1.6C-368.3,330.3-368.5,330.8-368.9,331.2z M-357.6,335.5c-0.8-0.5-1.6-0.6-2.6-0.2l1.9-3l-0.9-0.6l-5,7.9
			l0.9,0.6l0.5-0.9c0.1,1,0.5,1.7,1.3,2.2c0.8,0.5,1.5,0.6,2.4,0.3c0.8-0.2,1.5-0.8,2.1-1.7c0.6-0.9,0.8-1.8,0.7-2.6
			C-356.4,336.6-356.9,336-357.6,335.5z M-357.9,339.5c-0.4,0.6-0.9,1.1-1.5,1.3c-0.6,0.2-1.2,0.1-1.7-0.2c-0.3-0.2-0.6-0.5-0.8-0.9
			c-0.2-0.4-0.3-0.7-0.3-1.1l1.6-2.6c0.3-0.2,0.7-0.2,1.1-0.2s0.8,0.1,1.2,0.4c0.6,0.4,0.9,0.8,1,1.5
			C-357.3,338.2-357.5,338.9-357.9,339.5z M-350.4,339.5c-0.9-0.4-1.7-0.5-2.6-0.1c-0.9,0.3-1.5,0.9-2,1.8c-0.5,0.9-0.6,1.9-0.3,2.7
			c0.3,0.9,0.9,1.5,1.8,2c1,0.5,1.9,0.6,2.9,0.3l-0.1-0.8c-0.7,0.3-1.5,0.2-2.2-0.2c-0.6-0.3-1-0.8-1.2-1.4
			c-0.2-0.6-0.2-1.2,0.1-1.8l4.9,2.4l0.1-0.2c0.5-0.9,0.6-1.8,0.4-2.7C-348.9,340.6-349.5,340-350.4,339.5z M-349.7,343.3l-4-2
			c0.3-0.5,0.7-0.9,1.3-1.1c0.5-0.2,1.1-0.2,1.7,0.1c0.6,0.3,1,0.8,1.2,1.3C-349.4,342.2-349.5,342.8-349.7,343.3z M-344,342.5
			l0.7-1.7l-1-0.4l-0.7,1.7l-1-0.4l-0.3,0.9l1,0.4l-1.6,4.1c-0.2,0.5-0.2,0.9-0.1,1.2c0.1,0.3,0.4,0.6,0.9,0.8
			c0.5,0.2,0.9,0.2,1.3,0.1l0-0.8c-0.2,0.1-0.5,0.1-0.8,0c-0.2-0.1-0.3-0.2-0.4-0.4c-0.1-0.2,0-0.4,0.1-0.6l1.5-3.9l1.3,0.5l0.3-0.9
			L-344,342.5z M-338.4,344.3c-0.7-0.2-1.4-0.2-1.9,0c-0.5,0.2-0.9,0.6-1.1,1.1c-0.1,0.4-0.1,0.8,0.1,1.2c0.2,0.4,0.5,0.7,0.8,0.9
			c0.4,0.2,0.7,0.4,1.1,0.7c0.4,0.2,0.7,0.4,0.9,0.7c0.2,0.2,0.3,0.5,0.2,0.8c-0.1,0.3-0.3,0.6-0.6,0.7c-0.3,0.1-0.7,0.1-1.2,0
			c-0.4-0.1-0.8-0.3-1.1-0.6c-0.3-0.3-0.6-0.6-0.7-0.9l-0.7,0.6c0.4,0.9,1.2,1.5,2.3,1.8c0.8,0.2,1.5,0.3,2,0
			c0.6-0.2,0.9-0.6,1.1-1.2c0.1-0.5,0.1-0.9-0.1-1.3c-0.2-0.4-0.5-0.7-0.8-0.9c-0.4-0.2-0.7-0.5-1.1-0.7c-0.4-0.2-0.7-0.4-0.9-0.7
			c-0.2-0.2-0.3-0.5-0.2-0.7c0.1-0.3,0.3-0.5,0.6-0.6c0.3-0.1,0.7-0.1,1.1,0c0.8,0.3,1.4,0.7,1.7,1.4l0.7-0.6
			C-336.7,345.1-337.4,344.6-338.4,344.3z M-330.1,350.5l3.3,0.6l0.2-0.9l-3.3-0.6L-330.1,350.5z M-312,348c-0.5,0-0.9,0.1-1.3,0.4
			c-0.4,0.2-0.7,0.5-0.9,0.9c-0.1-0.4-0.3-0.7-0.6-0.9c-0.3-0.2-0.7-0.4-1.2-0.4c-0.4,0-0.9,0.1-1.3,0.4c-0.4,0.2-0.7,0.5-0.9,0.8
			l0-1l-1,0l-0.1,6.7l1.1,0l0-4.9c0.2-0.3,0.5-0.5,0.8-0.7c0.3-0.2,0.7-0.3,1-0.3c0.8,0,1.2,0.5,1.2,1.4l0,4.6l1,0l0-4.9
			c0.2-0.3,0.5-0.5,0.8-0.7c0.3-0.2,0.7-0.3,1-0.3c0.8,0,1.2,0.5,1.2,1.4l0,4.6l1,0l0-4.9C-310.1,348.7-310.8,348-312,348z
			 M-302,348.1c-0.7-0.6-1.5-0.8-2.5-0.7c-1,0.1-1.8,0.5-2.3,1.3c-0.5,0.7-0.7,1.6-0.6,2.6c0.1,1,0.5,1.8,1.2,2.4
			c0.7,0.6,1.5,0.9,2.5,0.7c1-0.1,1.8-0.5,2.3-1.3c0.5-0.7,0.7-1.6,0.6-2.6C-300.9,349.6-301.3,348.7-302,348.1z M-302.3,352.6
			c-0.3,0.5-0.9,0.9-1.5,0.9c-0.7,0.1-1.3-0.1-1.7-0.6c-0.5-0.5-0.7-1-0.8-1.8c-0.1-0.7,0.1-1.3,0.4-1.9c0.3-0.5,0.9-0.9,1.5-0.9
			c0.7-0.1,1.3,0.1,1.7,0.6c0.5,0.5,0.7,1,0.8,1.8C-301.8,351.4-302,352-302.3,352.6z M-297.5,347.6l-0.2-1.1l-1,0.2l1.3,6.6l1-0.2
			l-0.9-4.7c0.1-0.3,0.3-0.6,0.6-0.9c0.3-0.3,0.6-0.5,1-0.5c0.2,0,0.3,0,0.4,0l-0.2-1.1C-296.4,346.1-297,346.7-297.5,347.6z
			 M-288.7,350.5c-0.7,0.2-1.3,0.1-1.8-0.2c-0.5-0.3-0.9-0.8-1.2-1.4l5.3-1.5l-0.1-0.3c-0.3-1-0.8-1.7-1.6-2.2
			c-0.8-0.5-1.6-0.6-2.6-0.3c-0.9,0.3-1.6,0.8-2,1.6s-0.5,1.7-0.2,2.7c0.3,1,0.8,1.7,1.6,2.2c0.8,0.5,1.7,0.5,2.7,0.3
			c1.1-0.3,1.8-0.9,2.3-1.7l-0.7-0.5C-287.3,349.8-287.9,350.3-288.7,350.5z M-291.9,348.2c-0.1-0.6-0.1-1.1,0.2-1.7
			c0.2-0.5,0.7-0.9,1.3-1.1c0.7-0.2,1.3-0.1,1.8,0.2c0.5,0.3,0.8,0.8,1,1.3L-291.9,348.2z M-275.6,345.5c-0.6,0.3-1.3,0.3-1.9,0.1
			c-0.6-0.3-1.1-0.7-1.4-1.4c-0.3-0.7-0.4-1.3-0.2-2c0.2-0.6,0.6-1.1,1.2-1.4c0.7-0.3,1.3-0.3,1.9,0.1l0.4-0.9
			c-0.9-0.5-1.8-0.5-2.7,0c-0.9,0.4-1.5,1.1-1.8,1.9c-0.3,0.9-0.2,1.8,0.2,2.7c0.4,0.9,1.1,1.6,1.9,1.9c0.9,0.3,1.7,0.3,2.6-0.1
			c0.9-0.4,1.5-1.1,1.7-2.1l-0.9-0.3C-274.5,344.7-274.9,345.2-275.6,345.5z M-271.1,336.1c-0.4,0.2-0.7,0.6-1,1
			c-0.3,0.4-0.4,0.8-0.5,1.2l-1.8-3.1l-0.9,0.5l4.8,8l0.9-0.5l-2.5-4.2c0-0.4,0.2-0.7,0.4-1.1c0.2-0.4,0.5-0.6,0.8-0.8
			c0.4-0.3,0.8-0.3,1.2-0.3c0.3,0.1,0.7,0.3,0.9,0.8l2.3,3.8l0.9-0.5l-2.4-4.1C-268.8,335.6-269.8,335.3-271.1,336.1z M-262.9,331.2
			c-0.6,0-1.2,0.2-1.9,0.7c-0.9,0.6-1.4,1.5-1.5,2.5l0.8,0.3c0.1-0.9,0.5-1.5,1.1-2c0.4-0.3,0.8-0.4,1.2-0.4c0.4,0,0.7,0.2,1,0.6
			l0.7,1c-0.8-0.2-1.6,0-2.4,0.6c-0.5,0.4-0.8,0.9-1,1.4c-0.1,0.6,0,1.2,0.4,1.7c0.4,0.6,0.9,0.9,1.5,0.9c0.6,0,1.2-0.1,1.7-0.5
			c0.7-0.5,1.2-1.2,1.2-2.1l0.5,0.6l0.8-0.6l-2.8-3.7C-261.7,331.5-262.3,331.2-262.9,331.2z M-260.2,335.3c0,0.7-0.3,1.3-1,1.8
			c-0.4,0.3-0.8,0.4-1.2,0.4c-0.4,0-0.7-0.2-1-0.6c-0.3-0.4-0.3-0.7-0.3-1.1c0.1-0.4,0.3-0.8,0.7-1c0.7-0.5,1.3-0.6,2-0.4
			L-260.2,335.3z M-257.9,326.2c-0.3,0.3-0.6,0.7-0.8,1.2c-0.2,0.5-0.3,0.9-0.2,1.3l-0.7-0.7l-0.8,0.7l4.5,5l0.8-0.7l-3.3-3.7
			c0-0.4,0-0.7,0.1-1.1c0.1-0.4,0.3-0.7,0.6-1c0.4-0.3,0.7-0.5,1.1-0.5c0.4,0,0.7,0.2,1.1,0.6l3,3.3l0.8-0.7l-3.2-3.5
			C-255.8,325.3-256.8,325.2-257.9,326.2z M-247.2,322.8c0.1,0.7,0,1.3-0.5,1.9c-0.5,0.5-1,0.8-1.7,0.8c-0.6,0-1.3-0.3-1.8-0.8
			c-0.6-0.5-0.9-1.1-1-1.7c-0.1-0.6,0.1-1.2,0.6-1.7c0.5-0.5,1.1-0.8,1.8-0.7l0-0.9c-1-0.1-1.8,0.3-2.5,1c-0.7,0.7-1,1.6-0.9,2.5
			c0.1,0.9,0.5,1.7,1.2,2.4c0.8,0.7,1.6,1,2.5,1c0.9,0,1.7-0.4,2.4-1.1c0.7-0.8,1-1.6,0.8-2.6L-247.2,322.8z M-241.8,316
			c0.1,0.8-0.1,1.5-0.6,2.2c-0.4,0.6-0.9,0.9-1.6,1c-0.6,0.1-1.2-0.1-1.8-0.4l3.3-4.4l-0.2-0.2c-0.8-0.6-1.7-0.9-2.6-0.9
			c-0.9,0.1-1.6,0.5-2.2,1.3c-0.6,0.8-0.8,1.6-0.6,2.5c0.2,0.9,0.7,1.7,1.4,2.3c0.8,0.6,1.7,0.9,2.6,0.8c0.9-0.1,1.7-0.6,2.3-1.4
			c0.7-0.9,0.9-1.8,0.8-2.8L-241.8,316z M-247.2,316.9c-0.1-0.6,0-1.1,0.4-1.7c0.4-0.6,0.9-0.9,1.5-0.9c0.6,0,1.1,0.1,1.6,0.5
			l-2.7,3.5C-246.7,317.9-247,317.5-247.2,316.9z M-236.5,309.9c-0.1-0.6-0.4-1-0.9-1.4c-0.4-0.3-0.8-0.3-1.2-0.2
			c-0.4,0.1-0.8,0.3-1.1,0.6c-0.3,0.3-0.6,0.6-0.9,0.9c-0.3,0.3-0.6,0.5-0.9,0.7c-0.3,0.2-0.5,0.2-0.8,0c-0.3-0.2-0.4-0.4-0.4-0.7
			c0-0.3,0.1-0.7,0.3-1.1c0.5-0.7,1-1.2,1.8-1.3l-0.4-0.8c-0.9,0.2-1.6,0.8-2.1,1.6c-0.4,0.7-0.6,1.3-0.5,1.9c0.1,0.6,0.4,1,0.8,1.3
			c0.4,0.2,0.8,0.3,1.2,0.2c0.4-0.1,0.7-0.3,1.1-0.6c0.3-0.3,0.6-0.6,0.9-0.9c0.3-0.3,0.6-0.5,0.9-0.7c0.3-0.2,0.6-0.2,0.8,0
			c0.3,0.2,0.5,0.4,0.5,0.8c0,0.3-0.1,0.7-0.3,1.2c-0.2,0.4-0.5,0.7-0.9,0.9c-0.4,0.2-0.7,0.4-1.1,0.5l0.4,0.9
			c1-0.2,1.7-0.8,2.3-1.8C-236.6,311.2-236.4,310.5-236.5,309.9z"/>
	</g>
</g>
</svg>
