<svg version="1.0" id="Layer_1" xmlns="http://www.w3.org/2000/svg" xmlns:xlink="http://www.w3.org/1999/xlink" x="0px" y="0px"
	 width="66.025px" height="50.023px" viewBox="0 0 66.025 50.023" enable-background="new 0 0 66.025 50.023" xml:space="preserve">
<g>
	<path fill-rule="evenodd" clip-rule="evenodd" fill="none" stroke="#FFFFFF" stroke-width="2" stroke-miterlimit="10" d="
		M52.039,7.24c1.174-0.279,2.024-0.576,2.024-0.576s7.059,2.119,8.117,3.355c0.854,0.997,2.47,3.841,2.823,12.538
		c-1.896,1.324-5.646,1.413-5.646,1.413"/>
	<path fill-rule="evenodd" clip-rule="evenodd" fill="none" stroke="#FFFFFF" stroke-width="2" stroke-miterlimit="10" d="
		M60.592,14.434c0,0-1.764,1.545-1.764,4.592c0,3.046,0,22.427,0,22.427s-2.018,0.955-4.547,1.309s-5.688,0.457-5.688,0.457h-0.177
		c0,0-0.784-0.025-1.882-0.096"/>
	<path fill-rule="evenodd" clip-rule="evenodd" fill="none" stroke="#FFFFFF" stroke-width="2" stroke-miterlimit="10" d="
		M58.006,20.013l-3.993,0"/>
	<path fill-rule="evenodd" clip-rule="evenodd" fill="none" stroke="#FFFFFF" stroke-width="2" stroke-miterlimit="10" d="
		M7.393,23.93c-1.66-0.094-4.977-0.399-6.371-1.373c0.354-8.697,1.97-11.542,2.823-12.538c1.059-1.236,8.117-3.355,8.117-3.355
		s0.851,0.298,2.023,0.579"/>
	<path fill-rule="evenodd" clip-rule="evenodd" fill="none" stroke="#FFFFFF" stroke-width="2" stroke-miterlimit="10" d="
		M19.49,43.123c-1.098,0.07-1.882,0.096-1.882,0.096h-0.177c0,0-3.158-0.104-5.688-0.457s-4.547-1.309-4.547-1.309
		s0-19.381,0-22.427c0-3.046-1.764-4.592-1.764-4.592"/>
	<path fill-rule="evenodd" clip-rule="evenodd" fill="none" stroke="#FFFFFF" stroke-width="2" stroke-miterlimit="10" d="
		M12.013,20.012l-5.003,0"/>
	<path fill-rule="evenodd" clip-rule="evenodd" fill="none" stroke="#FFFFFF" stroke-width="2" stroke-miterlimit="10" d="
		M19.387,23.705c-0.195-0.012-0.408-0.026-0.635-0.044c-2.217-0.169-5.722-0.611-7.353-1.751
		c0.462-11.414,2.581-15.146,3.698-16.454c1.387-1.623,10.634-4.403,10.634-4.403s3.896,1.391,7.265,1.391s7.298-1.391,7.298-1.391
		s9.247,2.781,10.634,4.403c1.117,1.308,3.236,5.04,3.698,16.454c-2.485,1.738-7.397,1.854-7.397,1.854s-0.232,0-0.653,0"/>
	<path fill-rule="evenodd" clip-rule="evenodd" fill="none" stroke="#FFFFFF" stroke-width="2" stroke-miterlimit="10" d="
		M17.179,11.249c0,0,2.312,2.028,2.312,6.025s0,29.431,0,29.431s2.643,1.254,5.956,1.718c3.313,0.463,7.45,0.6,7.45,0.6h0.232
		c0,0,4.137-0.137,7.45-0.6c3.313-0.464,5.956-1.718,5.956-1.718s0-25.434,0-29.431s2.312-6.025,2.312-6.025"/>
	<path fill-rule="evenodd" clip-rule="evenodd" fill="none" stroke="#FFFFFF" stroke-width="2" stroke-miterlimit="10" d="
		M46.011,18.014H19.021"/>
</g>
</svg>
