<svg version="1.0" id="Layer_1" xmlns="http://www.w3.org/2000/svg" xmlns:xlink="http://www.w3.org/1999/xlink" x="0px" y="0px"
	 width="66px" height="66.805px" viewBox="0 0 66 66.805" enable-background="new 0 0 66 66.805" xml:space="preserve">
<g>
	<path fill-rule="evenodd" clip-rule="evenodd" fill="none" stroke="#FFFFFF" stroke-width="2" stroke-miterlimit="10" d="
		M41.006,14.902c9.942,0,18.003,8.06,18.003,18.002c0,9.941-8.061,18.002-18.003,18.002c-9.941,0-18.002-8.061-18.002-18.002
		C23.004,22.961,31.064,14.902,41.006,14.902z"/>
	<path fill-rule="evenodd" clip-rule="evenodd" fill="none" stroke="#FFFFFF" stroke-width="2" stroke-miterlimit="10" d="
		M42.901,15c0,0,2.895,2.533,3.474,3.375c-0.105,0.737-0.631,2.842-0.631,2.842s-6.422,2.527-7.58,2.527
		c-1.053-0.211-5.686-2.211-5.686-2.211v-3.79"/>
	<path fill-rule="evenodd" clip-rule="evenodd" fill="none" stroke="#FFFFFF" stroke-width="2" stroke-miterlimit="10" d="
		M45.428,21.534c0,0,4.211,4.264,5.369,6.316c-0.211,1.526-4.422,6.317-4.422,6.317c-1.842-0.053-7.896-2.211-7.896-2.211
		s-0.421-7.581,0-8.212"/>
	<path fill-rule="evenodd" clip-rule="evenodd" fill="none" stroke="#FFFFFF" stroke-width="2" stroke-miterlimit="10" d="
		M38.795,31.641c0,0-5.158,4.211-5.685,5.053c-0.053,1.264,1.579,6.791,1.896,7.265c0.315,0.474,5.843,2,6.948,1.896
		c1.104-0.105,6-4.738,6-4.738s-0.684-5.895-1.579-6.633"/>
	<path fill-rule="evenodd" clip-rule="evenodd" fill="none" stroke="#FFFFFF" stroke-width="2" stroke-miterlimit="10" d="
		M33.426,36.693c0,0-6.79-2.105-6.947-2.525c-0.158-0.422-0.316-7.265-0.316-7.265s5.527-5.738,6.633-5.369"/>
	<path fill-rule="evenodd" clip-rule="evenodd" fill="none" stroke="#FFFFFF" stroke-width="2" stroke-miterlimit="10" d="
		M41.638,45.854l2.526,4.421"/>
	<path fill-rule="evenodd" clip-rule="evenodd" fill="none" stroke="#FFFFFF" stroke-width="2" stroke-miterlimit="10" d="
		M35.321,43.958l-6.814,1.9"/>
	<path fill-rule="evenodd" clip-rule="evenodd" fill="none" stroke="#FFFFFF" stroke-width="2" stroke-miterlimit="10" d="
		M47.954,41.115c0,0,5.105,0.947,5.369,0.947c0.632-0.578,4.106-5.685,4.106-5.685s-0.316-5.79-0.632-6.316
		c-0.685-0.632-5.686-2.421-6.316-2.211"/>
	<path fill-rule="evenodd" clip-rule="evenodd" fill="none" stroke="#FFFFFF" stroke-width="2" stroke-miterlimit="10" d="
		M56.507,23.745l-0.656,5.685"/>
	<path fill-rule="evenodd" clip-rule="evenodd" fill="none" stroke="#FFFFFF" stroke-width="2" stroke-miterlimit="10" d="
		M53.323,42.062l-1.699,5.378"/>
	<path fill-rule="evenodd" clip-rule="evenodd" fill="none" stroke="#FFFFFF" stroke-width="2" stroke-miterlimit="10" d="
		M46.375,18.376l3.992-0.852"/>
	<path fill-rule="evenodd" clip-rule="evenodd" fill="none" stroke="#FFFFFF" stroke-width="2" stroke-miterlimit="10" d="
		M26.479,34.168l-2.661,4.103"/>
	<path fill-rule="evenodd" clip-rule="evenodd" fill="none" stroke="#FFFFFF" stroke-width="2" stroke-miterlimit="10" d="M43,0.91
		c0,0,22,10,22,32s-22,33-22,33"/>
	<path fill-rule="evenodd" clip-rule="evenodd" fill="none" stroke="#FFFFFF" stroke-width="2" stroke-miterlimit="10" d="M20,19.91
		h-6"/>
	<path fill-rule="evenodd" clip-rule="evenodd" fill="none" stroke="#FFFFFF" stroke-width="2" stroke-miterlimit="10" d="
		M19.994,43.846l-6.987,0.129"/>
	<path fill-rule="evenodd" clip-rule="evenodd" fill="none" stroke="#FFFFFF" stroke-width="2" stroke-miterlimit="10" d="M12,31.91
		H0"/>
</g>
</svg>
