<svg version="1.0" id="Layer_1" xmlns="http://www.w3.org/2000/svg" xmlns:xlink="http://www.w3.org/1999/xlink" x="0px" y="0px"
	 width="53.012px" height="49.223px" viewBox="0 0 53.012 49.223" enable-background="new 0 0 53.012 49.223" xml:space="preserve">
<g>
	<path fill="none" stroke="#FFFFFF" stroke-width="2" stroke-linecap="round" stroke-linejoin="round" stroke-miterlimit="10" d="
		M51,37.64v5.582c0,2.762-2.237,5-5,5H6c-2.762,0-5-2.238-5-5v-24c0-2.763,2.238-5,5-5h40c2.763,0,5,2.237,5,5v4.334"/>
	<path fill="none" stroke="#FFFFFF" stroke-width="2" stroke-linecap="round" stroke-linejoin="round" stroke-miterlimit="10" d="
		M42.911,9.613h1.087c2.763,0,5,2.237,5,5v0.332"/>
	<path fill="none" stroke="#FFFFFF" stroke-width="2" stroke-linecap="round" stroke-linejoin="round" stroke-miterlimit="10" d="
		M3.001,14.945v-0.332c0-2.763,2.238-5,5-5h8.706"/>
	<path fill="none" stroke="#FFFFFF" stroke-width="2" stroke-linecap="round" stroke-linejoin="round" stroke-miterlimit="10" d="
		M40.881,24.201h11.131v13.041H40.881c-3.254,0-5.892-2.653-5.892-5.928v-1.187C34.989,26.854,37.627,24.201,40.881,24.201z"/>
	<path fill="none" stroke="#FFFFFF" stroke-width="2" stroke-linecap="round" stroke-linejoin="round" stroke-miterlimit="10" d="
		M41.5,28.169c1.41,0,2.554,1.144,2.554,2.554c0,1.409-1.144,2.553-2.554,2.553s-2.553-1.144-2.553-2.553
		C38.947,29.312,40.09,28.169,41.5,28.169z"/>
</g>
<g>

		<polyline fill="none" stroke="#FFFFFF" stroke-width="2" stroke-linecap="round" stroke-linejoin="round" stroke-miterlimit="10" points="
		44.604,14.028 40.849,4.732 17.839,14.028 	"/>

		<polyline fill="none" stroke="#FFFFFF" stroke-width="2" stroke-linecap="round" stroke-linejoin="round" stroke-miterlimit="10" points="
		35.084,7.061 32.068,2.656 15.456,14.028 	"/>

		<polyline fill="none" stroke="#FFFFFF" stroke-width="2" stroke-linecap="round" stroke-linejoin="round" stroke-miterlimit="10" points="
		26.065,6.766 22.895,3.605 12.505,14.028 	"/>
</g>
</svg>
