<svg xmlns="http://www.w3.org/2000/svg" version="1.0" id="Layer_1" x="0px" y="0px" width="29.994px" height="30px" viewBox="0 0 29.994 30" xml:space="preserve" enable-background="new 0 0 29.994 30"><style type="text/css">
	.st0{fill-rule:evenodd;clip-rule:evenodd;fill:#1BB84B;}
	.st1{fill-rule:evenodd;clip-rule:evenodd;fill:#EAEAEA;}
	.st2{fill-rule:evenodd;clip-rule:evenodd;fill:#ED1B17;}
</style><path class="st0" d="M10 29.513c-5.79-2.047-9.95-7.535-10-14.014v-0.232C0.05 8.787 4.21 3.299 10 1.252V29.513z"/><path class="st1" d="M14.993 0h0.002C16.753 0 18.433 0.318 20 0.874v28.252C18.433 29.682 16.752 30 14.994 30c-1.754 0-3.43-0.316-4.994-0.87V0.87C11.564 0.316 13.24 0 14.993 0z"/><path class="st2" d="M20 1c5.819 2.063 9.994 7.6 9.994 14.126 0 6.526-4.175 12.063-9.994 14.126V1z"/></svg>