<?xml version="1.0" encoding="utf-8"?>
<!-- Generator: Adobe Illustrator 16.0.0, SVG Export Plug-In . SVG Version: 6.00 Build 0)  -->
<!DOCTYPE svg PUBLIC "-//W3C//DTD SVG 1.1//EN" "http://www.w3.org/Graphics/SVG/1.1/DTD/svg11.dtd">
<svg version="1.1" id="Layer_1" xmlns="http://www.w3.org/2000/svg" xmlns:xlink="http://www.w3.org/1999/xlink" x="0px" y="0px"
	 width="804px" height="354.821px" viewBox="0 0 804 354.821" enable-background="new 0 0 804 354.821" xml:space="preserve">
<g>
	<g>
		<g>

				<circle fill="none" stroke="#231F20" stroke-width="2" stroke-linecap="round" stroke-miterlimit="10" stroke-dasharray="1.0007,5.0036" cx="392.002" cy="172.004" r="86.003"/>
		</g>
	</g>
	<path fill-rule="evenodd" clip-rule="evenodd" fill="none" stroke="#231F20" stroke-width="2" stroke-miterlimit="10" d="
		M532.672,49.003c3.036,0.094,5.42,2.632,5.325,5.668s-2.633,5.421-5.669,5.326c-3.036-0.094-5.421-2.632-5.325-5.668
		C527.098,51.293,529.636,48.908,532.672,49.003z"/>
	<path fill-rule="evenodd" clip-rule="evenodd" fill="none" stroke="#231F20" stroke-width="2" stroke-miterlimit="10" d="
		M560.61,304.002c1.932,0.06,3.449,1.675,3.389,3.606c-0.061,1.933-1.676,3.45-3.607,3.39c-1.932-0.06-3.449-1.675-3.389-3.606
		C557.063,305.459,558.678,303.941,560.61,304.002z"/>
	<path fill-rule="evenodd" clip-rule="evenodd" fill="none" stroke="#231F20" stroke-width="2" stroke-miterlimit="10" d="
		M4.61,90.002c1.932,0.06,3.449,1.675,3.389,3.606c-0.06,1.933-1.675,3.45-3.607,3.39c-1.932-0.06-3.449-1.675-3.389-3.606
		C1.062,91.459,2.678,89.941,4.61,90.002z"/>
	<path fill-rule="evenodd" clip-rule="evenodd" fill="none" stroke="#231F20" stroke-width="2" stroke-miterlimit="10" d="
		M799.61,41.002c1.932,0.06,3.449,1.675,3.389,3.606c-0.061,1.933-1.676,3.45-3.607,3.39c-1.932-0.06-3.449-1.675-3.389-3.606
		C796.063,42.459,797.678,40.941,799.61,41.002z"/>
	<path fill-rule="evenodd" clip-rule="evenodd" fill="none" stroke="#231F20" stroke-width="2" stroke-miterlimit="10" d="
		M262.319,53.682l-6.637,6.637"/>
	<path fill-rule="evenodd" clip-rule="evenodd" fill="none" stroke="#231F20" stroke-width="2" stroke-miterlimit="10" d="
		M255.708,53.707l6.586,6.586"/>
	<path fill-rule="evenodd" clip-rule="evenodd" fill="none" stroke="#231F20" stroke-width="2" stroke-miterlimit="10" d="
		M278,315.179v11.643"/>
	<path fill-rule="evenodd" clip-rule="evenodd" fill="none" stroke="#231F20" stroke-width="2" stroke-miterlimit="10" d="
		M272.225,321h11.551"/>
	<path fill-rule="evenodd" clip-rule="evenodd" fill="none" stroke="#231F20" stroke-width="2" stroke-miterlimit="10" d="
		M627,92.179v11.643"/>
	<path fill-rule="evenodd" clip-rule="evenodd" fill="none" stroke="#231F20" stroke-width="2" stroke-miterlimit="10" d="
		M621.225,98h11.551"/>
	<path fill-rule="evenodd" clip-rule="evenodd" fill="none" stroke="#231F20" stroke-width="2" stroke-miterlimit="10" d="
		M746.507,164.507l5.986,5.986"/>
	<path fill-rule="evenodd" clip-rule="evenodd" fill="none" stroke="#231F20" stroke-width="2" stroke-miterlimit="10" d="
		M746.53,170.471l5.941-5.94"/>
	<path fill-rule="evenodd" clip-rule="evenodd" fill="none" stroke="#231F20" stroke-width="2" stroke-miterlimit="10" d="
		M47.507,232.507l5.986,5.986"/>
	<path fill-rule="evenodd" clip-rule="evenodd" fill="none" stroke="#231F20" stroke-width="2" stroke-miterlimit="10" d="
		M47.53,238.471l5.94-5.94"/>
	<path fill-rule="evenodd" clip-rule="evenodd" fill="none" stroke="#231F20" stroke-width="2" stroke-miterlimit="10" d="
		M110,120.179v11.643"/>
	<path fill-rule="evenodd" clip-rule="evenodd" fill="none" stroke="#231F20" stroke-width="2" stroke-miterlimit="10" d="
		M104.225,126h11.552"/>
	<path fill-rule="evenodd" clip-rule="evenodd" fill="none" stroke="#231F20" stroke-width="2" stroke-miterlimit="10" d="
		M615,343.179v11.643"/>
	<path fill-rule="evenodd" clip-rule="evenodd" fill="none" stroke="#231F20" stroke-width="2" stroke-miterlimit="10" d="
		M609.225,349h11.551"/>
	<path fill-rule="evenodd" clip-rule="evenodd" fill="none" stroke="#231F20" stroke-width="2" stroke-miterlimit="10" d="
		M194.829,274.005c5.796,0.181,10.348,5.025,10.167,10.821c-0.181,5.796-5.027,10.349-10.823,10.169
		c-5.796-0.181-10.348-5.025-10.167-10.821C184.187,278.378,189.033,273.825,194.829,274.005z"/>
	<path fill-rule="evenodd" clip-rule="evenodd" fill="none" stroke="#231F20" stroke-width="2" stroke-miterlimit="10" d="
		M274.125,1.002c2.208,0.068,3.941,1.914,3.873,4.122c-0.069,2.208-1.915,3.942-4.123,3.874s-3.942-1.914-3.873-4.122
		C270.071,2.668,271.917,0.934,274.125,1.002z"/>
	<path fill-rule="evenodd" clip-rule="evenodd" fill="none" stroke="#231F20" stroke-width="2" stroke-miterlimit="10" d="
		M226.125,285.002c2.208,0.068,3.942,1.914,3.873,4.122c-0.069,2.208-1.915,3.942-4.123,3.874s-3.942-1.914-3.873-4.122
		C222.071,286.668,223.917,284.934,226.125,285.002z"/>
	<g>
		<g>

				<ellipse transform="matrix(0.0312 -0.9995 0.9995 0.0312 207.4001 557.9673)" fill="none" stroke="#231F20" stroke-width="2" stroke-miterlimit="10" stroke-dasharray="11.9834,11.9834" cx="391.516" cy="172" rx="149" ry="148.515"/>
		</g>
	</g>
	<path fill-rule="evenodd" clip-rule="evenodd" fill="none" stroke="#231F20" stroke-width="2" stroke-miterlimit="10" d="
		M391.5,75.994c53.289,0,96.488,43.207,96.488,96.506s-43.199,96.506-96.488,96.506s-96.488-43.207-96.488-96.506
		S338.211,75.994,391.5,75.994z"/>
	<path fill-rule="evenodd" clip-rule="evenodd" fill="none" stroke="#231F20" stroke-width="2" stroke-miterlimit="10" d="
		M451,129.997v83.007h-119.01v-83.007H451z"/>
	<path fill-rule="evenodd" clip-rule="evenodd" fill="none" stroke="#231F20" stroke-width="2" stroke-miterlimit="10" d="
		M451,144.008v56.004h-28.014v-56.004H451z"/>
	<path fill-rule="evenodd" clip-rule="evenodd" fill="none" stroke="#231F20" stroke-width="2" stroke-miterlimit="10" d="
		M451,157.991v29.006h-14.988v-29.006H451z"/>
	<path fill-rule="evenodd" clip-rule="evenodd" fill="none" stroke="#231F20" stroke-width="2" stroke-miterlimit="10" d="
		M331.991,200.012v-56.004h28.014v56.004H331.991z"/>
	<path fill-rule="evenodd" clip-rule="evenodd" fill="none" stroke="#231F20" stroke-width="2" stroke-miterlimit="10" d="
		M331.991,186.997v-29.006h15.02v29.006H331.991z"/>
	<path fill-rule="evenodd" clip-rule="evenodd" fill="none" stroke="#231F20" stroke-width="2" stroke-miterlimit="10" d="
		M390.999,212.989V129.99"/>
	<path fill-rule="evenodd" clip-rule="evenodd" fill="none" stroke="#231F20" stroke-width="2" stroke-miterlimit="10" d="
		M406.004,172c0,7.74-6.266,14.016-13.994,14.016S378.016,179.74,378.016,172s6.266-14.016,13.994-14.016
		S406.004,164.26,406.004,172z"/>
	<path fill-rule="evenodd" clip-rule="evenodd" fill="none" stroke="#231F20" stroke-width="2" stroke-miterlimit="10" d="
		M392.011,221.997c6.076,0,11.001,4.921,11.001,10.991s-4.925,10.991-11.001,10.991s-11.001-4.921-11.001-10.991
		S385.935,221.997,392.011,221.997z"/>
	<path fill-rule="evenodd" clip-rule="evenodd" fill="none" stroke="#231F20" stroke-width="2" stroke-miterlimit="10" d="
		M392,228.014v5.99"/>
	<path fill-rule="evenodd" clip-rule="evenodd" fill="none" stroke="#231F20" stroke-width="2" stroke-miterlimit="10" d="
		M395.999,233h-5.014"/>
	<path fill-rule="evenodd" clip-rule="evenodd" fill="none" stroke="#231F20" stroke-width="2" stroke-miterlimit="10" d="
		M400.999,233h-2.014"/>
	<path fill-rule="evenodd" clip-rule="evenodd" fill="none" stroke="#231F20" stroke-width="2" stroke-miterlimit="10" d="
		M384.999,233h-2.014"/>
	<path fill-rule="evenodd" clip-rule="evenodd" fill="none" stroke="#231F20" stroke-width="2" stroke-miterlimit="10" d="
		M392.999,241h-2.014"/>
	<path fill-rule="evenodd" clip-rule="evenodd" fill="none" stroke="#231F20" stroke-width="2" stroke-miterlimit="10" d="
		M392.999,225h-2.014"/>
	<path fill-rule="evenodd" clip-rule="evenodd" fill="none" stroke="#231F20" stroke-width="2" stroke-miterlimit="10" d="
		M416.907,232.303l10.9-6.332"/>
	<path fill-rule="evenodd" clip-rule="evenodd" fill="none" stroke="#231F20" stroke-width="2" stroke-miterlimit="10" d="
		M355.632,225.971l10.901,6.332"/>
	<path fill-rule="evenodd" clip-rule="evenodd" fill="none" stroke="#231F20" stroke-width="2" stroke-miterlimit="10" d="
		M355.499,116.945l10.964-6.069"/>
	<path fill-rule="evenodd" clip-rule="evenodd" fill="none" stroke="#231F20" stroke-width="2" stroke-miterlimit="10" d="
		M427.497,117.15l-10.998-6.152"/>
	<path fill-rule="evenodd" clip-rule="evenodd" fill="none" stroke="#231F20" stroke-width="2" stroke-miterlimit="10" d="
		M360.417,161.007c4.442,1.769,7.591,6.186,7.591,11.354c0,5.48-3.538,10.115-8.404,11.645"/>
	<path fill-rule="evenodd" clip-rule="evenodd" fill="none" stroke="#231F20" stroke-width="2" stroke-miterlimit="10" d="
		M423.369,184.006c-4.866-1.578-8.385-6.151-8.385-11.547c0-5.293,3.385-9.794,8.106-11.453"/>
	<path fill="none" stroke="#231F20" stroke-width="2" stroke-miterlimit="10" d="M513.253,134.234l7.406,2.824l-6.224,4.509
		l-0.149,8.053l-6.454-4.703l-7.498,2.453l2.234-7.717l-4.484-6.235l7.834-0.368l4.729-6.006L513.253,134.234z"/>
	<path fill="none" stroke="#231F20" stroke-width="2" stroke-miterlimit="10" d="M271.951,127.044l4.729,6.006l7.834,0.368
		l-4.484,6.235l2.234,7.717l-7.498-2.453l-6.454,4.703l-0.149-8.053l-6.224-4.509l7.406-2.824L271.951,127.044z"/>
	<path fill="none" stroke="#231F20" stroke-width="2" stroke-miterlimit="10" d="M301.397,89.957l-3.463-1.462l0.58,3.424
		l-2.675,2.615l3.775,0.559l1.708,3.174l1.855-3.174l3.627-0.559l-2.526-2.615l0.433-3.424L301.397,89.957z"/>
	<path fill="none" stroke="#231F20" stroke-width="2" stroke-miterlimit="10" d="M479.549,89.601l3.406-1.505l-0.571,3.524
		l2.63,2.692l-3.713,0.575l-1.68,3.268l-1.824-3.268l-3.567-0.575l2.485-2.692l-0.426-3.524L479.549,89.601z"/>
	<path fill="none" stroke="#231F20" stroke-width="2" stroke-miterlimit="10" d="M273.46,198.826l-3.463-1.461l0.581,3.423
		l-2.675,2.615l3.775,0.559l1.708,3.174l1.855-3.174l3.628-0.559l-2.527-2.615l0.433-3.423L273.46,198.826z"/>
	<path fill="none" stroke="#231F20" stroke-width="2" stroke-miterlimit="10" d="M508.682,198.826l-3.462-1.461l0.58,3.423
		l-2.675,2.615l3.775,0.559l1.708,3.174l1.855-3.174l3.628-0.559l-2.527-2.615l0.433-3.423L508.682,198.826z"/>
	<path fill-rule="evenodd" clip-rule="evenodd" fill="none" stroke="#231F20" stroke-width="2" stroke-miterlimit="10" d="
		M540.015,171h117.987"/>
	<path fill-rule="evenodd" clip-rule="evenodd" fill="none" stroke="#231F20" stroke-width="2" stroke-miterlimit="10" d="
		M539.012,149.004H592"/>
	<path fill-rule="evenodd" clip-rule="evenodd" fill="none" stroke="#231F20" stroke-width="2" stroke-miterlimit="10" d="
		M534.001,127.997h17.996"/>
	<path fill-rule="evenodd" clip-rule="evenodd" fill="none" stroke="#231F20" stroke-width="2" stroke-miterlimit="10" d="
		M534,212.997h19.015"/>
	<path fill-rule="evenodd" clip-rule="evenodd" fill="none" stroke="#231F20" stroke-width="2" stroke-miterlimit="10" d="
		M539.002,191.001h52.987"/>
	<path fill-rule="evenodd" clip-rule="evenodd" fill="none" stroke="#231F20" stroke-width="2" stroke-miterlimit="10" d="
		M242.005,173.001H124"/>
	<path fill-rule="evenodd" clip-rule="evenodd" fill="none" stroke="#231F20" stroke-width="2" stroke-miterlimit="10" d="
		M242.994,152.012h-52.992"/>
	<path fill-rule="evenodd" clip-rule="evenodd" fill="none" stroke="#231F20" stroke-width="2" stroke-miterlimit="10" d="
		M248.003,129.997h-19.012"/>
	<path fill-rule="evenodd" clip-rule="evenodd" fill="none" stroke="#231F20" stroke-width="2" stroke-miterlimit="10" d="
		M248.003,216.002h-19.012"/>
	<path fill-rule="evenodd" clip-rule="evenodd" fill="none" stroke="#231F20" stroke-width="2" stroke-miterlimit="10" d="
		M242.994,194.005h-52.992"/>
	<path fill-rule="evenodd" clip-rule="evenodd" fill="none" stroke="#231F20" stroke-width="2" stroke-miterlimit="10" d="
		M404.012,116.008h-24.009v-14.004l6.004,4.891l6.001-5.897l6.002,5.897l6.002-4.891V116.008z"/>
	<g>
		<g>
			<path fill="#231F20" d="M330.174,63.277l4.701,8.572l2.256-1.243l-4.702-8.572l3.059-1.687l-1.084-1.978l-8.389,4.625
				l1.085,1.978L330.174,63.277z M342.173,54.667c-3.335,1.403-4.771,4.826-3.37,8.171s4.842,4.716,8.178,3.312
				c3.352-1.41,4.787-4.833,3.387-8.178S345.525,53.256,342.173,54.667z M346.103,64.053c-2.041,0.858-4.014-0.171-4.878-2.234
				c-0.87-2.08-0.215-4.196,1.826-5.055c2.041-0.859,4.023,0.146,4.895,2.228C348.809,61.055,348.143,63.194,346.103,64.053z
				 M359.465,48.931l-9.175,2.756l0.646,2.162l3.362-1.01l2.803,9.374l2.467-0.741l-2.803-9.374l3.346-1.005L359.465,48.931z
				 M375.491,57.943l-6.823-10.944l-3.146,0.609l-2.28,12.707l2.863-0.555l0.356-2.146l5.055-0.979l1.111,1.863L375.491,57.943z
				 M366.723,55.264l0.857-5.443l2.818,4.731L366.723,55.264z M386.406,44.96l-8.508,0.686l-0.206,6.194
				c-0.122,3.199-0.77,3.903-1.973,4l0.183,2.269c2.441-0.197,4.162-1.26,4.335-6.292l0.14-4.105l3.644-0.294l0.785,9.757
				l2.566-0.207L386.406,44.96z M403.489,59.843l2.551,0.189l0.326-4.466l-1.077-0.08l0.714-9.759l-8.51-0.629l-1.15,6.088
				c-0.608,3.141-1.326,3.577-2.559,3.648l-0.312,4.268l2.549,0.188l0.162-2.215l7.469,0.553L403.489,59.843z M402.721,55.297
				l-5.566-0.412c0.806-0.646,1.408-1.724,1.706-3.331l0.765-4.035l3.645,0.271L402.721,55.297z M410.971,54.358l3.011,0.55
				c2.55,0.465,4.284-1.034,4.657-3.095c0.377-2.077-0.707-4.072-3.274-4.541l-5.524-1.009l-2.146,11.844l2.515,0.459
				L410.971,54.358z M411.953,48.942l2.674,0.488c0.991,0.181,1.626,0.92,1.446,1.915c-0.178,0.977-1.033,1.462-2.025,1.281
				l-2.674-0.488L411.953,48.942z M426.522,60.36l0.143,2.166l2.802,0.816l-1.099-12.862l-3.079-0.896l-7.808,10.269l2.802,0.815
				l1.294-1.748L426.522,60.36z M426.116,52.495l0.359,5.501l-3.598-1.048L426.116,52.495z M441.939,56.83l0.48-1.129l-2.351-1.007
				l-0.48,1.129c-3.473-1.134-6.131-0.408-7.211,2.132c-1.089,2.557,0.227,4.985,3.451,6.7l-0.474,1.112l2.351,1.007l0.475-1.112
				c3.465,1.151,6.123,0.425,7.211-2.132S445.157,58.561,441.939,56.83z M436.726,62.546c-1.806-1.048-2.469-2.294-1.932-3.556
				c0.53-1.245,1.894-1.643,3.896-1.06L436.726,62.546z M442.99,62.501c-0.536,1.262-1.917,1.652-3.913,1.052l1.965-4.615
				C442.846,59.986,443.527,61.24,442.99,62.501z M449.25,72.677l4.817-8.51l3.038,1.73l1.11-1.963l-8.33-4.745l-1.11,1.963
				l3.053,1.739l-4.817,8.51L449.25,72.677z M289.778,238.544l2.799,3.962l0.846-0.596l-2.797-3.962l2.459-1.732l2.854,4.042
				l0.848-0.596l-3.524-4.99l-7.63,5.373l3.523,4.99l0.848-0.597l-2.855-4.042L289.778,238.544z M300.997,248.91l-4.143-0.332
				l2.277-1.899l-0.672-0.805l-2.289,1.908l0.423-4.139l-0.853-1.02l-0.434,4.258l-4.766,0.06l0.861,1.029l3.893-0.078l-0.061,0.67
				l-1.967,1.64l0.673,0.804l1.967-1.64l0.671,0.061l-0.771,3.811l0.861,1.029l0.898-4.682l4.282,0.344L300.997,248.91z
				 M305.009,258.461l0.19-0.186c1.449-1.422,1.745-3.397,0.312-4.854c-1.355-1.377-3.466-1.267-4.865,0.105
				c-1.51,1.48-1.529,3.518-0.125,4.944c0.775,0.789,1.673,1.183,2.624,1.19l0.136-0.839c-0.762,0.003-1.531-0.341-2.071-0.889
				c-1.021-1.038-0.89-2.422-0.038-3.374L305.009,258.461z M304.882,254.019c1.079,1.098,0.661,2.449-0.05,3.165l-3.11-3.163
				C302.5,253.335,303.872,252.992,304.882,254.019z M312.998,260.649l-1.864,2.109l-2.647-2.332l1.864-2.109l-0.788-0.694
				l-4.479,5.068l0.788,0.694l2.003-2.267l2.648,2.332l-2.004,2.267l0.788,0.694l4.479-5.068L312.998,260.649z M314.947,269.986
				c-1.158-0.882-1.226-2.27-0.519-3.332l4.354,3.314l0.162-0.212c1.23-1.612,1.242-3.609-0.385-4.847
				c-1.536-1.17-3.609-0.761-4.799,0.796c-1.283,1.68-1.01,3.698,0.582,4.91c0.88,0.67,1.824,0.932,2.767,0.805l0.016-0.85
				C316.37,270.682,315.559,270.452,314.947,269.986z M318.022,265.59c1.225,0.933,1.004,2.329,0.403,3.139l-3.53-2.688
				C315.568,265.252,316.875,264.717,318.022,265.59z M323.958,269.001l-2.187,2.551c-1.317,1.529-1.892,1.69-2.479,1.439
				l-1.417,2.167l0.88,0.573l0.941-1.44l4.28,2.789l-0.942,1.44l0.88,0.573l1.447-2.214l-0.657-0.428l3.193-4.884L323.958,269.001z
				 M323.825,275.879l-3.365-2.193c0.625-0.061,1.285-0.481,2.122-1.455l1.644-1.952l2.287,1.49L323.825,275.879z M333.215,274.463
				c-1.688-0.935-3.679-0.23-4.629,1.48c-1.024,1.846-0.463,3.802,1.287,4.77c0.967,0.535,1.939,0.657,2.852,0.396l-0.107-0.843
				c-0.73,0.22-1.564,0.109-2.237-0.263c-1.272-0.704-1.54-2.066-0.997-3.219l4.785,2.646l0.129-0.231
				C335.282,277.427,335.002,275.452,333.215,274.463z M333.636,278.258l-3.879-2.146c0.551-0.877,1.765-1.595,3.026-0.897
				C334.129,275.959,334.113,277.372,333.636,278.258z M337.362,280.569c-1.082,1.703-1.743,2.199-2.314,1.935l-0.365,0.787
				c1.182,0.545,2.242-0.013,3.58-2.168l1.343-2.168l2.478,1.143l-2.449,5.292l0.953,0.439l2.838-6.129l-4.271-1.97L337.362,280.569
				z M348.635,284.585l-2.367-0.897l0.929-2.443l-0.981-0.371l-2.4,6.31l3.35,1.269c1.295,0.491,2.326-0.135,2.725-1.18
				C350.282,286.24,349.944,285.081,348.635,284.585z M348.881,286.89c-0.238,0.627-0.787,0.928-1.493,0.66l-2.264-0.857
				l0.815-2.143l2.264,0.857C348.922,285.68,349.115,286.277,348.881,286.89z M357.501,287.706l-3.376-1.017l0.812-2.688
				l-1.004-0.303l-1.955,6.461l1.006,0.303l0.873-2.89l3.377,1.018l-0.875,2.889l1.006,0.303l1.953-6.461l-1.004-0.303
				L357.501,287.706z M367.414,294.13l1.026,0.221l1.425-6.601l-1.026-0.221L367.414,294.13z M365.125,289.407l-2.478-0.532
				l0.552-2.556l-1.027-0.221l-1.424,6.601l3.504,0.753c1.355,0.291,2.281-0.482,2.517-1.576
				C367.002,290.796,366.494,289.701,365.125,289.407z M365.715,291.65c-0.142,0.655-0.639,1.035-1.378,0.876l-2.368-0.508
				l0.484-2.242l2.367,0.509C365.574,290.447,365.854,291.007,365.715,291.65z M375.731,288.433c-1.914-0.253-3.51,1.131-3.768,3.07
				c-0.277,2.093,0.963,3.709,2.948,3.97c1.097,0.145,2.046-0.097,2.8-0.674l-0.409-0.745c-0.599,0.471-1.417,0.674-2.18,0.573
				c-1.443-0.19-2.192-1.36-2.108-2.633l5.427,0.715l0.035-0.264C378.743,290.437,377.758,288.7,375.731,288.433z M377.514,291.812
				l-4.398-0.58c0.191-1.018,1.059-2.13,2.488-1.941C377.13,289.492,377.633,290.812,377.514,291.812z M393.077,289.456
				c-0.77-0.005-1.445,0.481-1.842,1.164l0.021-3.58l-1.05-0.007l-0.022,3.595c-0.443-0.758-1.1-1.195-1.842-1.199
				c-1.429-0.009-2.445,1.356-2.459,3.538c-0.014,2.196,0.986,3.545,2.416,3.553c0.77,0.005,1.459-0.48,1.855-1.164l-0.021,3.581
				l1.051,0.006l0.021-3.595c0.43,0.758,1.086,1.195,1.828,1.199c1.429,0.009,2.445-1.356,2.459-3.538
				C395.506,290.812,394.506,289.463,393.077,289.456z M390.161,294.516c-0.284,0.586-0.918,1.071-1.562,1.068
				c-1.05-0.007-1.66-1.115-1.65-2.611c0.01-1.497,0.633-2.612,1.684-2.606c0.645,0.004,1.271,0.511,1.548,1.101L390.161,294.516z
				 M392.745,295.608c-0.63-0.004-1.257-0.511-1.533-1.1l0.019-3.05c0.284-0.585,0.917-1.071,1.548-1.067
				c1.051,0.006,1.66,1.114,1.65,2.611C394.419,294.499,393.795,295.614,392.745,295.608z M400.019,289.151
				c-1.229,0.092-1.918,0.647-2.385,1.355l0.716,0.563c0.401-0.646,0.979-0.998,1.691-1.051c1.271-0.095,2.174,0.707,2.438,2.006
				l-3.38,0.252l0.067,0.906l3.394-0.253c-0.039,1.362-0.822,2.333-2.122,2.43c-0.712,0.053-1.337-0.223-1.828-0.789l-0.625,0.663
				c0.567,0.631,1.331,1.079,2.56,0.987c2.025-0.151,3.266-1.786,3.116-3.794C403.514,290.433,402.044,289,400.019,289.151z
				 M410.562,288.139l0.399,2.78l-3.492,0.501l-0.398-2.78l-1.039,0.148l0.958,6.682l1.04-0.149l-0.43-2.987l3.492-0.501
				l0.428,2.988l1.039-0.149l-0.958-6.681L410.562,288.139z M418.789,286.563l-4.88,1.016l0.189,0.902l1.918-0.398l1.189,5.706
				l1.027-0.214l-1.188-5.706l1.933-0.402L418.789,286.563z M422.837,285.364c-1.188,0.323-1.758,1-2.081,1.783l0.811,0.416
				c0.27-0.711,0.77-1.165,1.459-1.353c1.229-0.335,2.266,0.28,2.773,1.503l-3.268,0.89l0.24,0.877l3.28-0.894
				c0.222,1.344-0.362,2.444-1.618,2.786c-0.689,0.188-1.354,0.036-1.944-0.426l-0.485,0.77c0.676,0.511,1.51,0.805,2.697,0.481
				c1.959-0.533,2.863-2.373,2.334-4.313C426.509,285.957,424.795,284.831,422.837,285.364z M433.093,285.816
				c0.722-0.353,1.511-1.2,1.183-2.151c-0.374-1.084-1.811-1.299-3.527-0.693c-1.164,0.401-1.883,1.107-2.27,1.92l0.727,0.431
				c0.351-0.742,0.961-1.248,1.861-1.558c1.059-0.365,2.008-0.233,2.217,0.374c0.252,0.728-0.464,1.357-1.523,1.723l-1.429,0.492
				l0.278,0.806l1.43-0.492c1.125-0.388,2.103-0.429,2.376,0.364c0.233,0.674-0.358,1.365-1.496,1.758
				c-0.953,0.328-1.9,0.329-2.692-0.034l-0.271,0.803c0.854,0.416,1.962,0.492,3.245,0.051c1.84-0.634,2.652-1.801,2.283-2.871
				C435.12,285.68,433.852,285.614,433.093,285.816z M440.544,279.317l-1.235,6.127l-2.021-4.742l-0.965,0.411l2.646,6.207
				l0.927-0.395l1.223-6.228l2.06,4.831l0.966-0.41l-2.646-6.207L440.544,279.317z M452.676,274.182l-0.447-0.807l-4.357,2.409
				l0.446,0.807l1.714-0.947l2.825,5.096l0.918-0.508l-2.825-5.096L452.676,274.182z M459.148,269.066l-0.97,0.614l1.076,5.874
				l-4.873-3.471l-0.958,0.607l6.048,4.249l0.168,1.102c0.1,0.6-0.079,0.894-0.469,1.142c-0.143,0.09-0.378,0.188-0.545,0.212
				l0.367,0.893c0.195-0.058,0.514-0.209,0.703-0.329c0.75-0.491,1.127-1.177,0.945-2.22L459.148,269.066z M463.377,265.801
				c-0.766,0.564-1.151,1.457-1.139,2.299l-0.599-0.811l-0.846,0.623l5.542,7.506l0.846-0.622l-2.135-2.893
				c0.889,0.284,1.8,0.151,2.544-0.396c1.432-1.054,1.609-2.888,0.313-4.644C466.6,265.097,464.81,264.748,463.377,265.801z
				 M466.821,270.911c-0.666,0.49-1.631,0.575-2.272,0.318l-1.812-2.454c-0.056-0.688,0.318-1.572,0.984-2.062
				c1.094-0.806,2.403-0.397,3.293,0.807C467.903,268.724,467.914,270.106,466.821,270.911z M471.38,259.57l1.829,2.136
				l-2.682,2.291l-1.83-2.136l-0.798,0.682l4.396,5.132l0.799-0.682l-1.966-2.295l2.683-2.291l1.965,2.295l0.799-0.682l-4.396-5.132
				L471.38,259.57z M477.682,253.621l1.109,6.151l-3.629-3.667l-0.746,0.736l4.749,4.801l0.717-0.707l-1.157-6.241l3.696,3.736
				l0.747-0.736l-4.749-4.801L477.682,253.621z M487.208,248.166c-1.652-1.446-3.476-1.406-4.647-0.071
				c-0.629,0.715-0.814,1.668-0.621,2.487l-0.758-0.663l-0.693,0.788l7.02,6.146l0.692-0.788l-2.704-2.368
				c0.928,0.088,1.79-0.236,2.399-0.931C489.069,251.432,488.85,249.604,487.208,248.166z M487.016,252.349
				c-0.545,0.62-1.469,0.908-2.151,0.795l-2.294-2.01c-0.202-0.66-0.025-1.603,0.52-2.223c0.896-1.02,2.263-0.901,3.389,0.085
				S487.911,251.33,487.016,252.349z M490.944,237.703l-0.627,0.843l5.433,4.026l0.627-0.842L490.944,237.703z M493.424,242.226
				c-0.888-0.659-2.099-0.65-2.934,0.474l-1.512,2.033l-2.104-1.56l-0.627,0.843l5.433,4.026l2.139-2.875
				C494.647,244.055,494.325,242.893,493.424,242.226z M493.01,244.707l-1.445,1.943l-1.844-1.367l1.444-1.943
				c0.46-0.618,1.087-0.641,1.616-0.249C493.322,243.491,493.461,244.1,493.01,244.707z"/>
		</g>
	</g>
</g>
</svg>
