<?xml version="1.0" encoding="utf-8"?>
<!-- Generator: Adobe Illustrator 19.0.0, SVG Export Plug-In . SVG Version: 6.00 Build 0)  -->
<svg version="1.1" id="Layer_1" xmlns="http://www.w3.org/2000/svg" xmlns:xlink="http://www.w3.org/1999/xlink" x="0px" y="0px"
	 viewBox="-347 73.2 804 354.8" style="enable-background:new -347 73.2 804 354.8;" xml:space="preserve">
<style type="text/css">
	.st0{fill:none;stroke:#231F20;stroke-width:2;stroke-linecap:round;stroke-miterlimit:10;stroke-dasharray:1.0007,5.0036;}
	.st1{fill:none;stroke:#231F20;stroke-width:2;stroke-miterlimit:10;}
	.st2{fill:none;stroke:#231F20;stroke-width:2;stroke-miterlimit:10;stroke-dasharray:11.9834,11.9834;}
	.st3{fill:#231F20;}
</style>
<g>
	<g>
		<circle class="st0" cx="45" cy="245.2" r="86"/>
	</g>
</g>
<path class="st1" d="M185.7,122.2c3,0.1,5.4,2.6,5.3,5.7c-0.1,3-2.6,5.4-5.7,5.3s-5.4-2.6-5.3-5.7
	C180.1,124.5,182.6,122.1,185.7,122.2z"/>
<path class="st1" d="M213.6,377.2c1.9,0.1,3.4,1.7,3.4,3.6c-0.1,1.9-1.7,3.5-3.6,3.4c-1.9-0.1-3.4-1.7-3.4-3.6
	C210.1,378.6,211.7,377.1,213.6,377.2z"/>
<path class="st1" d="M-342.4,163.2c1.9,0.1,3.4,1.7,3.4,3.6c-0.1,1.9-1.7,3.5-3.6,3.4c-1.9-0.1-3.4-1.7-3.4-3.6
	C-345.9,164.6-344.3,163.1-342.4,163.2z"/>
<path class="st1" d="M452.6,114.2c1.9,0.1,3.4,1.7,3.4,3.6c-0.1,1.9-1.7,3.5-3.6,3.4c-1.9-0.1-3.4-1.7-3.4-3.6
	C449.1,115.6,450.7,114.1,452.6,114.2z"/>
<path class="st1" d="M-84.7,126.9l-6.6,6.6"/>
<path class="st1" d="M-91.3,126.9l6.6,6.6"/>
<path class="st1" d="M-69,388.4V400"/>
<path class="st1" d="M-74.8,394.2h11.6"/>
<path class="st1" d="M280,165.4V177"/>
<path class="st1" d="M274.2,171.2h11.6"/>
<path class="st1" d="M399.5,237.7l6,6"/>
<path class="st1" d="M399.5,243.7l5.9-5.9"/>
<path class="st1" d="M-299.5,305.7l6,6"/>
<path class="st1" d="M-299.5,311.7l5.9-5.9"/>
<path class="st1" d="M-237,193.4V205"/>
<path class="st1" d="M-242.8,199.2h11.6"/>
<path class="st1" d="M268,416.4V428"/>
<path class="st1" d="M262.2,422.2h11.6"/>
<path class="st1" d="M-152.2,347.2c5.8,0.2,10.3,5,10.2,10.8c-0.2,5.8-5,10.3-10.8,10.2c-5.8-0.2-10.3-5-10.2-10.8
	S-158,347-152.2,347.2z"/>
<path class="st1" d="M-72.9,74.2c2.2,0.1,3.9,1.9,3.9,4.1c-0.1,2.2-1.9,3.9-4.1,3.9c-2.2-0.1-3.9-1.9-3.9-4.1S-75.1,74.1-72.9,74.2z
	"/>
<path class="st1" d="M-120.9,358.2c2.2,0.1,3.9,1.9,3.9,4.1c-0.1,2.2-1.9,3.9-4.1,3.9c-2.2-0.1-3.9-1.9-3.9-4.1
	S-123.1,358.1-120.9,358.2z"/>
<g>
	<g>
		
			<ellipse transform="matrix(-3.120041e-02 0.9995 -0.9995 -3.120041e-02 291.0001 208.3327)" class="st2" cx="44.5" cy="245.2" rx="149" ry="148.5"/>
	</g>
</g>
<path class="st1" d="M44.5,149.2c53.3,0,96.5,43.2,96.5,96.5s-43.2,96.5-96.5,96.5C-8.8,342.2-52,299-52,245.7
	S-8.8,149.2,44.5,149.2z"/>
<path class="st1" d="M104,203.2v83H-15v-83H104z"/>
<path class="st1" d="M104,217.2v56H76v-56H104z"/>
<path class="st1" d="M104,231.2v29H89v-29H104z"/>
<path class="st1" d="M-15,273.2v-56h28v56H-15z"/>
<path class="st1" d="M-15,260.2v-29H0v29H-15z"/>
<path class="st1" d="M44,286.2v-83"/>
<path class="st1" d="M59,245.2c0,7.7-6.3,14-14,14s-14-6.3-14-14s6.3-14,14-14C52.7,231.2,59,237.4,59,245.2z"/>
<path class="st1" d="M45,295.2c6.1,0,11,4.9,11,11c0,6.1-4.9,11-11,11s-11-4.9-11-11C34,300.1,38.9,295.2,45,295.2z"/>
<path class="st1" d="M45,301.2v6"/>
<path class="st1" d="M49,306.2h-5"/>
<path class="st1" d="M54,306.2h-2"/>
<path class="st1" d="M38,306.2h-2"/>
<path class="st1" d="M46,314.2h-2"/>
<path class="st1" d="M46,298.2h-2"/>
<path class="st1" d="M69.9,305.5l10.9-6.3"/>
<path class="st1" d="M8.6,299.2l10.9,6.3"/>
<path class="st1" d="M8.5,190.1l11-6.1"/>
<path class="st1" d="M80.5,190.3l-11-6.2"/>
<path class="st1" d="M13.4,234.2c4.4,1.8,7.6,6.2,7.6,11.4c0,5.5-3.5,10.1-8.4,11.6"/>
<path class="st1" d="M76.4,257.2c-4.9-1.6-8.4-6.2-8.4-11.5c0-5.3,3.4-9.8,8.1-11.5"/>
<path class="st1" d="M166.3,207.4l7.4,2.8l-6.2,4.5l-0.1,8.1l-6.5-4.7l-7.5,2.5l2.2-7.7l-4.5-6.2l7.8-0.4l4.7-6L166.3,207.4z"/>
<path class="st1" d="M-75,200.2l4.7,6l7.8,0.4l-4.5,6.2l2.2,7.7l-7.5-2.5l-6.5,4.7l-0.1-8.1l-6.2-4.5l7.4-2.8L-75,200.2z"/>
<path class="st1" d="M-45.6,163.1l-3.5-1.5l0.6,3.4l-2.7,2.6l3.8,0.6l1.7,3.2l1.9-3.2l3.6-0.6l-2.5-2.6l0.4-3.4L-45.6,163.1z"/>
<path class="st1" d="M132.5,162.8l3.4-1.5l-0.6,3.5l2.6,2.7l-3.7,0.6l-1.7,3.3l-1.8-3.3l-3.6-0.6l2.5-2.7l-0.4-3.5L132.5,162.8z"/>
<path class="st1" d="M-73.5,272l-3.5-1.5l0.6,3.4l-2.7,2.6l3.8,0.6l1.7,3.2l1.9-3.2l3.6-0.6l-2.5-2.6l0.4-3.4L-73.5,272z"/>
<path class="st1" d="M161.7,272l-3.5-1.5l0.6,3.4l-2.7,2.6l3.8,0.6l1.7,3.2l1.9-3.2l3.6-0.6l-2.5-2.6l0.4-3.4L161.7,272z"/>
<path class="st1" d="M193,244.2h118"/>
<path class="st1" d="M192,222.2h53"/>
<path class="st1" d="M187,201.2h18"/>
<path class="st1" d="M187,286.2h19"/>
<path class="st1" d="M192,264.2h53"/>
<path class="st1" d="M-105,246.2h-118"/>
<path class="st1" d="M-104,225.2h-53"/>
<path class="st1" d="M-99,203.2h-19"/>
<path class="st1" d="M-99,289.2h-19"/>
<path class="st1" d="M-104,267.2h-53"/>
<path class="st1" d="M57,189.2H33v-14l6,4.9l6-5.9l6,5.9l6-4.9L57,189.2L57,189.2z"/>
<g>
	<g>
		<path class="st3" d="M-7.4,131.7l-1-2l-8.5,4.2l1,2l3.1-1.5l4.2,8.6l2.3-1.1l-4.2-8.6L-7.4,131.7z M4.2,126.5
			c-1.5-0.7-3.1-0.7-4.8-0.1c-1.7,0.6-2.9,1.7-3.6,3.1c-0.7,1.5-0.7,3.1-0.1,4.7c0.6,1.7,1.7,2.8,3.1,3.5c1.5,0.7,3.1,0.7,4.7,0.1
			c1.7-0.6,2.9-1.7,3.6-3.1c0.7-1.5,0.7-3.1,0.1-4.7C6.7,128.4,5.7,127.2,4.2,126.5z M5,133.9c-0.4,0.9-1.1,1.6-2.1,1.9
			c-1,0.4-1.9,0.3-2.8-0.1c-0.9-0.5-1.5-1.2-1.9-2.3c-0.4-1.1-0.4-2,0-3c0.4-0.9,1-1.6,2.1-1.9c1-0.4,1.9-0.3,2.8,0.1
			c0.9,0.5,1.5,1.2,1.9,2.3C5.3,132,5.3,133,5,133.9z M16.6,121.6l-9.1,2.3L8,126l3.3-0.8l2.4,9.3l2.5-0.6l-2.4-9.3l3.3-0.8
			L16.6,121.6z M22.6,120.5l-2.8,12.4l2.8-0.4l0.4-2.1l5-0.8l1,1.9l2.8-0.4l-6.3-11L22.6,120.5z M23.5,128.1l1.1-5.3l2.6,4.8
			L23.5,128.1z M35.5,128.7l-0.5-9.6l-2.5,0.1l0.7,11.8l7.5-0.4l-0.1-2.2L35.5,128.7z M52.4,119.2l-4.6-0.4l-0.9,11.8l4.6,0.4
			c1.9,0.1,3.4-0.3,4.6-1.3c1.2-1,1.9-2.4,2.1-4.1c0.1-1.8-0.3-3.2-1.4-4.4C55.7,120,54.3,119.3,52.4,119.2z M54.5,127.9
			c-0.7,0.7-1.6,0.9-2.8,0.9l-2.1-0.2l0.6-7.4l2.1,0.2c1.2,0.1,2,0.5,2.6,1.2c0.6,0.7,0.9,1.7,0.8,2.7
			C55.6,126.4,55.2,127.3,54.5,127.9z M70.3,125.6c0.2-1.1,0-2.1-0.6-2.9c-0.6-0.8-1.5-1.4-2.7-1.6l-5.4-1l-2.1,11.6l2.5,0.5
			l0.8-4.1l1.8,0.3l1.5,4.6l2.8,0.5l-1.8-4.9c0.7,0,1.4-0.3,2-0.8C69.8,127.3,70.1,126.6,70.3,125.6z M67.8,125.1
			c-0.1,0.5-0.3,0.8-0.7,1.1c-0.4,0.2-0.8,0.3-1.3,0.2l-2.6-0.5l0.6-3.1l2.6,0.5c0.5,0.1,0.9,0.3,1.2,0.7
			C67.8,124.2,67.9,124.7,67.8,125.1z M77.2,123.5l-7.7,10.1l2.8,0.8l1.3-1.7l4.9,1.4l0.1,2.1l2.8,0.8l-1.1-12.6L77.2,123.5z
			 M74.8,130.7l3.2-4.4l0.4,5.4L74.8,130.7z M93.7,131.7l0.8-2.1l-7.8-3.1l-4.4,11l2.3,0.9l1.8-4.5l5.3,2.1l0.8-2.1l-5.3-2.1
			l0.9-2.3L93.7,131.7z M96.4,130.5l-1,2l3.1,1.6l-4.3,8.6l2.3,1.1l4.3-8.6l3.1,1.6l1-2L96.4,130.5z"/>
	</g>
</g>
<g>
	<g>
		<path class="st3" d="M-32.6,334c-0.1-1.3-0.6-2.4-1.7-3.3l-2.4-2.2l-6.3,7l2.4,2.2c1.1,1,2.2,1.4,3.5,1.3c1.3-0.1,2.3-0.6,3.3-1.6
			C-33,336.4-32.6,335.3-32.6,334z M-37.3,337.9c-1,0.1-1.8-0.2-2.7-1l-1.5-1.4l4.9-5.5l1.5,1.4c0.8,0.8,1.3,1.6,1.3,2.6
			c0,0.9-0.3,1.8-1,2.6C-35.5,337.4-36.3,337.8-37.3,337.9z M-27,340.6c-0.2-0.6-0.6-1.1-1.2-1.6c-0.9-0.7-1.8-0.9-2.9-0.8l-0.1,0.9
			c0.9-0.1,1.6,0,2.2,0.5c0.4,0.3,0.7,0.7,0.8,1.1c0.1,0.4,0,0.8-0.3,1.1l-0.7,1c0-0.8-0.5-1.5-1.2-2.1c-0.5-0.4-1.1-0.6-1.7-0.6
			c-0.6,0-1.1,0.3-1.6,0.9c-0.4,0.6-0.6,1.1-0.4,1.8c0.1,0.6,0.5,1.1,1,1.5c0.7,0.6,1.5,0.8,2.4,0.6l-0.5,0.6l0.8,0.6l2.9-3.7
			C-27,341.8-26.8,341.2-27,340.6z M-30.3,344.3c-0.7,0.2-1.3,0-2-0.5c-0.4-0.3-0.6-0.7-0.7-1.1c-0.1-0.4,0-0.8,0.3-1.1
			c0.3-0.4,0.6-0.5,1-0.6c0.4,0,0.8,0.1,1.2,0.4c0.7,0.5,1,1.1,1,1.8L-30.3,344.3z M-23.5,342.5l-3.9,5.6l0.9,0.6l3.9-5.6
			L-23.5,342.5z M-22.5,342c0.2,0.1,0.3,0.2,0.5,0.1c0.2,0,0.3-0.1,0.5-0.3c0.1-0.2,0.1-0.3,0.1-0.5c0-0.2-0.1-0.4-0.3-0.5
			c-0.2-0.1-0.3-0.1-0.5-0.1c-0.2,0-0.4,0.1-0.5,0.3c-0.1,0.2-0.1,0.3-0.1,0.5C-22.8,341.8-22.7,341.9-22.5,342z M-18.5,342.7l-5,8
			l0.9,0.6l5-8L-18.5,342.7z M-16.9,353.2l0.8-6l-1-0.6l-0.9,7.4l-0.9,0.7c-0.2,0.2-0.4,0.3-0.6,0.3c-0.2,0-0.4,0-0.6-0.2
			c-0.2-0.1-0.3-0.2-0.5-0.4l-0.6,0.8c0.2,0.2,0.4,0.3,0.6,0.5c0.8,0.5,1.7,0.4,2.4-0.2l7-5.5l-1-0.6L-16.9,353.2z M-3.7,353.6
			l0.2-0.5c0.2-0.4,0.4-0.7,0.7-0.8c0.3-0.1,0.6-0.1,0.9,0c0.3,0.1,0.5,0.3,0.6,0.7l0.7-0.5c-0.2-0.5-0.6-0.8-1.1-1.1
			c-0.6-0.2-1.1-0.3-1.6-0.1c-0.5,0.2-0.9,0.6-1.2,1.3l-0.2,0.5l-1-0.5l-0.4,0.9l1,0.5l-2.4,5.4l1,0.4l2.4-5.4l1.3,0.6l0.4-0.9
			L-3.7,353.6z M2.3,355.8c-1-0.4-2-0.4-3,0.1l0.2,0.9c0.8-0.4,1.5-0.4,2.3-0.1c0.5,0.2,0.8,0.4,1,0.8c0.2,0.4,0.2,0.7,0.1,1.2
			l-0.4,1.2c-0.3-0.8-0.9-1.3-1.8-1.7c-0.6-0.2-1.2-0.2-1.8,0c-0.6,0.2-1,0.6-1.3,1.3c-0.2,0.7-0.2,1.3,0.1,1.8
			c0.3,0.5,0.8,0.9,1.3,1.2c0.9,0.3,1.7,0.3,2.5-0.1L1.3,363l1,0.4l1.7-4.4c0.3-0.7,0.3-1.4-0.1-1.9C3.5,356.5,3,356.1,2.3,355.8z
			 M1.8,361.6c-0.6,0.4-1.3,0.4-2.1,0.1c-0.5-0.2-0.8-0.4-1-0.8c-0.2-0.4-0.2-0.8-0.1-1.2c0.2-0.4,0.4-0.7,0.8-0.8
			c0.4-0.1,0.8-0.1,1.3,0c0.8,0.3,1.3,0.8,1.5,1.5L1.8,361.6z M11,358.8c-0.5-0.1-0.9-0.2-1.4-0.1c-0.5,0.1-0.9,0.3-1.3,0.5l0.3-0.9
			l-1-0.3l-2,6.5l1,0.3l1.4-4.8c0.3-0.2,0.6-0.4,1-0.5c0.4-0.1,0.8-0.1,1.2,0c0.5,0.1,0.8,0.4,1,0.7c0.2,0.3,0.2,0.7,0,1.3l-1.3,4.3
			l1,0.3l1.4-4.6C12.8,360.1,12.4,359.2,11,358.8z M17.7,358.8l-1-0.2l-0.4,1.8l-1.1-0.3l-0.2,0.9l1.1,0.3l-1,4.3
			c-0.1,0.5-0.1,0.9,0.1,1.2c0.2,0.3,0.5,0.5,1,0.7c0.5,0.1,1,0.1,1.3-0.1l-0.1-0.8c-0.2,0.1-0.5,0.2-0.8,0.1
			c-0.2-0.1-0.4-0.2-0.4-0.4c-0.1-0.2-0.1-0.4,0-0.7l1-4.1l1.4,0.3l0.2-0.9l-1.4-0.3L17.7,358.8z M23.8,361.8c-1.1-0.2-2,0-2.9,0.6
			l0.4,0.8c0.7-0.5,1.4-0.7,2.2-0.6c0.5,0.1,0.9,0.3,1.2,0.6c0.3,0.3,0.4,0.7,0.3,1.1l-0.2,1.2c-0.4-0.7-1.1-1.1-2.1-1.3
			c-0.6-0.1-1.2,0-1.8,0.3c-0.5,0.3-0.9,0.8-1,1.5c-0.1,0.7,0,1.3,0.4,1.8c0.4,0.5,0.9,0.8,1.5,0.9c0.9,0.2,1.7,0,2.4-0.5l-0.1,0.8
			l1,0.2l0.8-4.6c0.1-0.8,0-1.4-0.4-1.8C25.1,362.2,24.5,361.9,23.8,361.8z M24.4,367.5c-0.5,0.5-1.2,0.7-2,0.5
			c-0.5-0.1-0.9-0.3-1.1-0.6c-0.3-0.3-0.4-0.7-0.3-1.1c0.1-0.4,0.3-0.8,0.7-1c0.4-0.2,0.8-0.3,1.3-0.2c0.8,0.1,1.4,0.5,1.7,1.2
			L24.4,367.5z M30.3,363.9c0.3-0.2,0.7-0.2,1.1-0.2c0.9,0.1,1.5,0.5,1.9,1.1l0.6-0.7c-0.6-0.7-1.4-1.1-2.4-1.3
			c-0.8-0.1-1.4,0-1.9,0.4c-0.5,0.3-0.8,0.8-0.8,1.3c-0.1,0.5,0.1,0.9,0.3,1.2c0.3,0.3,0.6,0.6,1,0.7c0.4,0.2,0.8,0.3,1.2,0.4
			c0.4,0.1,0.7,0.3,1,0.5c0.3,0.2,0.4,0.5,0.4,0.8c0,0.3-0.2,0.6-0.5,0.8c-0.3,0.2-0.7,0.2-1.2,0.2c-0.4,0-0.9-0.2-1.2-0.4
			c-0.4-0.2-0.7-0.5-0.9-0.8l-0.6,0.7c0.6,0.8,1.5,1.2,2.6,1.4c0.8,0.1,1.5,0,2-0.4c0.5-0.3,0.8-0.8,0.9-1.4c0.1-0.5,0-0.9-0.3-1.2
			c-0.3-0.3-0.6-0.6-1-0.8s-0.8-0.3-1.2-0.5c-0.4-0.1-0.7-0.3-1-0.5c-0.3-0.2-0.4-0.4-0.4-0.7C29.9,364.3,30.1,364.1,30.3,363.9z
			 M39.1,369.3l-2-5.7l-1.1-0.1l2.5,7l-0.5,1c-0.1,0.3-0.3,0.4-0.4,0.5c-0.2,0.1-0.4,0.1-0.6,0.1c-0.2,0-0.4-0.1-0.6-0.1l-0.2,1
			c0.2,0.1,0.5,0.1,0.8,0.1c1,0,1.7-0.4,2.1-1.3l3.8-8.1l-1.2-0.1L39.1,369.3z M52,369.6c-0.2,0-0.4-0.1-0.5-0.2
			c-0.1-0.2-0.2-0.4-0.2-0.6l-0.2-4.2l1.4-0.1l0-0.9l-1.4,0.1l-0.1-1.9l-1.1,0.1l0.1,1.9l-1.1,0.1l0,0.9l1.1-0.1l0.2,4.5
			c0,0.5,0.2,0.9,0.4,1.2c0.3,0.3,0.7,0.4,1.2,0.3c0.5,0,1-0.2,1.2-0.5l-0.4-0.8C52.5,369.5,52.3,369.6,52,369.6z M60.4,363.7
			c-0.7-0.6-1.5-0.9-2.6-0.8c-1,0.1-1.8,0.5-2.3,1.3c-0.5,0.7-0.8,1.6-0.7,2.6c0.1,1,0.5,1.8,1.2,2.4c0.7,0.6,1.5,0.9,2.6,0.8
			c1-0.1,1.8-0.5,2.3-1.3c0.5-0.7,0.8-1.6,0.7-2.6C61.5,365.1,61.1,364.3,60.4,363.7z M60.1,368.2c-0.3,0.6-0.9,0.9-1.6,0.9
			c-0.7,0.1-1.3-0.1-1.7-0.6c-0.5-0.5-0.7-1.1-0.8-1.8c-0.1-0.7,0.1-1.4,0.4-1.9c0.4-0.6,0.9-0.9,1.6-0.9c0.7-0.1,1.3,0.1,1.7,0.6
			c0.5,0.5,0.7,1.1,0.8,1.8C60.5,367,60.4,367.6,60.1,368.2z M68.4,361.5l0.9,4.9c-0.2,0.3-0.4,0.6-0.7,0.9
			c-0.3,0.3-0.7,0.4-1.1,0.5c-0.5,0.1-0.9,0-1.2-0.1c-0.3-0.2-0.5-0.6-0.6-1.1l-0.8-4.4l-1,0.2l0.9,4.7c0.3,1.4,1.1,2,2.5,1.8
			c0.5-0.1,0.9-0.3,1.3-0.6c0.4-0.3,0.7-0.6,0.9-1l0.2,0.9l1-0.2l-1.2-6.7L68.4,361.5z M73.8,361.5l-0.3-1.1l-1,0.3l1.6,6.6l1-0.3
			l-1.1-4.7c0.1-0.3,0.3-0.6,0.6-0.9c0.3-0.3,0.6-0.5,0.9-0.6c0.2,0,0.3-0.1,0.4-0.1l-0.3-1.1C74.9,359.9,74.2,360.5,73.8,361.5z
			 M81.3,358.1c-0.5,0.1-0.9,0.4-1.2,0.7c-0.4,0.4-0.6,0.7-0.8,1.1l-0.3-0.9l-1,0.3l2,6.5l1-0.3l-1.5-4.8c0.1-0.3,0.3-0.7,0.6-1
			c0.3-0.3,0.6-0.5,1-0.6c0.5-0.1,0.9-0.1,1.2,0c0.3,0.2,0.6,0.5,0.7,1.1l1.3,4.3l1-0.3l-1.4-4.6C83.6,358.1,82.7,357.6,81.3,358.1z
			 M90.7,355.3c-0.6-0.2-1.3-0.1-2,0.2c-1,0.4-1.7,1.1-2.1,2l0.7,0.5c0.3-0.8,0.9-1.4,1.6-1.6c0.5-0.2,0.9-0.2,1.3-0.1
			c0.4,0.1,0.7,0.4,0.8,0.8l0.4,1.1c-0.7-0.4-1.5-0.4-2.5,0c-0.6,0.2-1,0.6-1.4,1.2c-0.3,0.5-0.3,1.1-0.1,1.8
			c0.3,0.7,0.7,1.1,1.3,1.3c0.6,0.2,1.2,0.2,1.8,0c0.9-0.3,1.5-0.9,1.8-1.7l0.3,0.7l1-0.4l-1.7-4.4
			C91.8,355.9,91.3,355.5,90.7,355.3z M90.8,361.5c-0.5,0.2-0.9,0.2-1.3,0c-0.4-0.1-0.7-0.4-0.8-0.8c-0.2-0.4-0.1-0.8,0-1.2
			c0.2-0.4,0.5-0.6,1-0.8c0.8-0.3,1.5-0.3,2.1,0.1l0.5,1.2C92.1,360.7,91.6,361.2,90.8,361.5z M100.6,350.1c-0.4,0.2-0.8,0.5-1,0.9
			c-0.3,0.4-0.4,0.8-0.5,1.2c-0.3-0.3-0.6-0.5-1-0.6c-0.4-0.1-0.8,0-1.2,0.2c-0.4,0.2-0.7,0.5-1,0.9c-0.3,0.4-0.4,0.8-0.5,1.1
			l-0.4-0.9l-1,0.5l3,6.1l1-0.5l-2.2-4.5c0-0.3,0.2-0.7,0.4-1c0.2-0.3,0.5-0.6,0.8-0.7c0.8-0.4,1.3-0.1,1.8,0.7l2,4.2l1-0.5
			l-2.2-4.5c0-0.3,0.2-0.7,0.4-1c0.2-0.3,0.5-0.6,0.8-0.7c0.8-0.4,1.3-0.1,1.8,0.7l2,4.2l1-0.5l-2.2-4.4
			C102.6,349.9,101.7,349.6,100.6,350.1z M110.8,351.5c-0.6,0.4-1.2,0.5-1.8,0.3c-0.6-0.2-1.1-0.5-1.5-1.1l4.7-2.9l-0.1-0.2
			c-0.5-0.9-1.3-1.5-2.1-1.8c-0.9-0.3-1.7-0.2-2.6,0.4c-0.8,0.5-1.3,1.2-1.5,2.1c-0.2,0.9,0,1.8,0.5,2.7c0.6,0.9,1.3,1.5,2.2,1.7
			c0.9,0.2,1.8,0.1,2.7-0.4c1-0.6,1.5-1.3,1.8-2.3l-0.8-0.3C112,350.5,111.6,351.1,110.8,351.5z M106.8,348.4c0.1-0.6,0.4-1.1,1-1.4
			c0.6-0.4,1.2-0.5,1.8-0.3c0.6,0.2,1,0.5,1.3,1l-3.8,2.3C106.8,349.6,106.7,349,106.8,348.4z M115.2,341.1
			c-0.4,0.3-0.7,0.6-0.9,1.1c-0.2,0.4-0.4,0.9-0.4,1.3l-0.6-0.8l-0.9,0.6l4,5.6l0.9-0.6l-2.9-4.1c0-0.4,0.1-0.7,0.3-1.1
			c0.2-0.4,0.4-0.7,0.8-0.9c0.4-0.3,0.8-0.4,1.1-0.4c0.4,0,0.7,0.3,1,0.8l2.6,3.6l0.9-0.6l-2.8-3.9
			C117.4,340.4,116.4,340.3,115.2,341.1z M124.9,341.5c-0.2,0.1-0.4,0.2-0.6,0.1c-0.2-0.1-0.4-0.2-0.5-0.4l-2.7-3.3l1.1-0.9
			l-0.6-0.7l-1.1,0.9l-1.2-1.5l-0.8,0.7l1.2,1.5l-0.9,0.7l0.6,0.7l0.9-0.7l2.8,3.5c0.3,0.4,0.7,0.6,1,0.7c0.4,0.1,0.8-0.1,1.1-0.4
			c0.4-0.3,0.7-0.7,0.7-1.1l-0.7-0.4C125.3,341.1,125.2,341.3,124.9,341.5z M130.5,335.2c-0.3-0.4-0.7-0.6-1.1-0.6
			c-0.4,0-0.8,0-1.2,0.2c-0.4,0.2-0.8,0.4-1.1,0.6c-0.4,0.2-0.7,0.4-1,0.4c-0.3,0.1-0.6,0-0.8-0.2c-0.2-0.2-0.3-0.5-0.2-0.8
			c0.1-0.3,0.3-0.7,0.6-1c0.7-0.6,1.4-0.8,2.1-0.7l-0.1-0.9c-0.9-0.1-1.8,0.3-2.6,0.9c-0.6,0.5-0.9,1.1-1,1.7
			c-0.1,0.6,0,1.1,0.4,1.5c0.3,0.4,0.7,0.5,1.1,0.6c0.4,0,0.8-0.1,1.2-0.3c0.4-0.2,0.8-0.4,1.1-0.6c0.4-0.2,0.7-0.3,1.1-0.4
			c0.3-0.1,0.6,0,0.8,0.2c0.2,0.3,0.3,0.6,0.2,0.9c-0.1,0.4-0.3,0.7-0.7,1c-0.3,0.3-0.7,0.5-1.1,0.6c-0.4,0.1-0.8,0.2-1.2,0.1
			l0.1,0.9c1,0.1,1.9-0.3,2.8-1c0.6-0.6,1-1.1,1.1-1.8C131.1,336.2,131,335.6,130.5,335.2z"/>
	</g>
</g>
</svg>
