<?xml version="1.0" encoding="utf-8"?>
<!-- Generator: Adobe Illustrator 16.0.0, SVG Export Plug-In . SVG Version: 6.00 Build 0)  -->
<!DOCTYPE svg PUBLIC "-//W3C//DTD SVG 1.1//EN" "http://www.w3.org/Graphics/SVG/1.1/DTD/svg11.dtd">
<svg version="1.1" id="Layer_1" xmlns="http://www.w3.org/2000/svg" xmlns:xlink="http://www.w3.org/1999/xlink" x="0px" y="0px"
	 width="373.479px" height="397.54px" viewBox="0 0 373.479 397.54" enable-background="new 0 0 373.479 397.54"
	 xml:space="preserve">
<g>
	<path fill="#231F20" d="M116.847,160.449c1.33-2.292,0.829-4.337-0.029-5.839l-2.021,1.368c0.604,0.936,0.714,2.252,0.09,3.328
		c-1.095,1.888-3.338,2.416-5.299,1.273c-1.962-1.144-2.613-3.359-1.52-5.246c0.625-1.076,1.837-1.622,2.931-1.569l0.169-2.446
		c-1.717-0.021-3.73,0.58-5.061,2.872c-1.809,3.119-1.031,6.807,2.159,8.666C111.456,164.717,115.038,163.569,116.847,160.449z"/>
	<path fill="#231F20" d="M123.866,150.438c2.309-2.815,1.985-6.514-0.811-8.816c-2.797-2.303-6.479-1.904-8.787,0.911
		c-2.297,2.802-1.975,6.5,0.822,8.803C117.887,153.639,121.569,153.24,123.866,150.438z M122.114,148.995
		c-1.406,1.714-3.631,1.727-5.355,0.306c-1.738-1.432-2.144-3.609-0.738-5.324c1.406-1.714,3.627-1.752,5.367-0.32
		C123.112,145.077,123.52,147.28,122.114,148.995z"/>
	<path fill="#231F20" d="M121.03,135.259l8.008,8.973l4.227-3.788c1.92-1.721,1.802-3.964,0.421-5.511s-3.605-1.901-5.511-0.193
		l-2.321,2.081l-1.417-1.588l4.629-4.149l-1.5-1.682L121.03,135.259z M129.421,136.649c0.738-0.662,1.67-0.699,2.318,0.027
		c0.637,0.713,0.508,1.651-0.229,2.313l-2.067,1.852l-2.088-2.341L129.421,136.649z"/>
	<path fill="#231F20" d="M139.567,135.439l0.381-9.89l4.408,6.748l2.139-1.402l-6.578-10.07l-2.199,1.442l-0.402,9.56l-4.252-6.507
		l-2.139,1.402l6.578,10.07L139.567,135.439z"/>
	<path fill="#231F20" d="M150.93,128.736l-1.778-3.889l2.782-1.277c2.356-1.082,2.923-3.308,2.053-5.211
		c-0.878-1.92-2.907-2.934-5.28-1.844l-5.106,2.345l5.006,10.942L150.93,128.736z M150.685,121.662l-2.472,1.135l-1.351-2.953
		l2.471-1.135c0.917-0.421,1.859-0.179,2.279,0.74C152.025,120.352,151.601,121.241,150.685,121.662z"/>
	<path fill="#231F20" d="M169.645,122.097l-7.794-10.255l-3.076,0.896l-1.102,12.848l2.799-0.815l0.156-2.168l4.941-1.44l1.276,1.75
		L169.645,122.097z M164.267,119.194l-3.593,1.047l0.353-5.492L164.267,119.194z"/>
	<path fill="#231F20" d="M173.224,121.624l4.674-8.715l1.004,8l2.537-0.319l-1.5-11.938l-2.607,0.328l-4.549,8.408l-0.969-7.714
		l-2.537,0.319l1.5,11.938L173.224,121.624z M177.474,106.799l-1.105-0.715c-0.412,0.761-1.092,1.265-1.985,1.377
		c-0.929,0.116-1.715-0.221-2.282-0.841l-0.895,0.968c0.854,0.874,2.072,1.339,3.341,1.18
		C175.833,108.605,176.882,107.855,177.474,106.799z"/>
	<path fill="#231F20" d="M198.68,121.362l-4.562-6.777l5.208-5.239l-3.14-0.256l-4.665,5.013l0.432-5.357l-2.547-0.207l-0.969,11.99
		l2.548,0.207l0.298-3.685l1.022-1.039l3.235,5.095L198.68,121.362z"/>
	<path fill="#231F20" d="M205.327,123.101c3.533,0.854,6.712-1.049,7.559-4.573c0.848-3.523-1.118-6.67-4.652-7.523
		c-3.516-0.851-6.695,1.053-7.541,4.576C199.845,119.104,201.81,122.251,205.327,123.101z M205.857,120.892
		c-2.151-0.521-3.134-2.52-2.611-4.693c0.526-2.191,2.305-3.506,4.456-2.985c2.152,0.52,3.156,2.506,2.629,4.697
		C209.81,120.084,208.009,121.412,205.857,120.892z"/>
	<path fill="#231F20" d="M225.126,130.23l4.868-10.994l-3.29-1.464l-5.605,5.457l0.275-7.828l-3.273-1.457l-4.867,10.994
		l2.336,1.039l3.408-7.697l-0.316,9.073l1.021,0.454l6.501-6.321l-3.408,7.697L225.126,130.23z"/>
	<path fill="#231F20" d="M236.481,137.756l2.826-12.572l-2.662-1.785l-10.529,7.408l2.423,1.625l1.759-1.272l4.277,2.868
		l-0.518,2.104L236.481,137.756z M235.241,131.763l-3.111-2.086l4.426-3.258L235.241,131.763z"/>
	<path fill="#231F20" d="M245.257,145.863l8.152-8.831l-1.891-1.752l-3.201,3.469l-4.163-3.859l3.202-3.469l-1.877-1.739l-8.15,8.83
		l1.876,1.74l3.421-3.707l4.164,3.859l-3.422,3.707L245.257,145.863z"/>
	<path fill="#231F20" d="M244.691,148.41l1.571,2.022l1.746-1.363l4.602,5.924l-1.747,1.362l1.57,2.022l3.522-2.748l-0.663-0.854
		l7.698-6.005l-5.242-6.749l-5.275,3.223c-2.732,1.65-3.535,1.409-4.416,0.54L244.691,148.41z M253.892,147.362l3.498-2.134
		l2.244,2.891l-5.923,4.62l-3.429-4.414C251.301,148.491,252.503,148.218,253.892,147.362z"/>
	<path fill="#231F20" d="M255.505,159.869c1.043,1.876,2.479,2.272,4.111,2.208l10.885-0.396l-1.411-2.537l-7.021,0.49l4.12-5.707
		l-1.411-2.537l-5.454,8.124c-0.998,0.021-1.505-0.15-1.935-0.923c-0.281-0.505-0.285-1.143-0.188-1.672l-2.266,0.149
		C254.774,157.778,254.97,158.908,255.505,159.869z"/>
	<path fill="#231F20" d="M107.569,213.688l-9.084,2.146l0.863,3.642c0.432,1.82,1.926,2.544,3.41,2.193s2.489-1.693,2.064-3.486
		l-0.596-2.514l2.602-0.614l1.127,4.756l1.008-0.238L107.569,213.688z M103.783,218.283c0.255,1.074-0.28,1.975-1.302,2.216
		s-1.902-0.325-2.157-1.398l-0.563-2.378l3.459-0.817L103.783,218.283z"/>
	<path fill="#231F20" d="M101.706,227.935c0.686,1.936,2.619,2.616,4.467,1.964s2.91-2.391,2.225-4.325
		c-0.686-1.936-2.606-2.621-4.454-1.969S101.021,225.999,101.706,227.935z M102.591,227.623c-0.48-1.356,0.41-2.53,1.717-2.991
		c1.293-0.457,2.725-0.103,3.205,1.253c0.48,1.356-0.415,2.517-1.709,2.974C104.497,229.319,103.07,228.979,102.591,227.623z"/>
	<path fill="#231F20" d="M103.687,233.219c0.559,1.173,1.73,1.421,4.139,0.618l2.42-0.809l1.172,2.459l-5.271,2.503l0.451,0.945
		l6.105-2.898l-2.019-4.237l-3.195,1.037c-1.923,0.618-2.748,0.577-3.019,0.01L103.687,233.219z"/>
	<path fill="#231F20" d="M114.057,238.528l-5.788,3.492l1.854,3.061c0.717,1.183,1.916,1.325,2.875,0.746
		c0.946-0.57,1.396-1.691,0.672-2.887l-1.311-2.163l2.241-1.353L114.057,238.528z M112.821,243.322
		c0.397,0.657,0.182,1.245-0.383,1.585c-0.574,0.347-1.191,0.246-1.583-0.399l-1.253-2.068l1.965-1.186L112.821,243.322z"/>
	<path fill="#231F20" d="M122.992,251.407l-4.606,3.58l-1.754-2.248l4.605-3.579l-0.645-0.827l-4.605,3.58l-1.755-2.247l4.606-3.58
		l-0.646-0.826l-5.335,4.146l5.443,6.974l5.336-4.146L122.992,251.407z"/>
	<path fill="#231F20" d="M122.72,261.233c0.777,0.783,1.677,1.172,2.627,1.175l0.132-0.839c-0.763,0.007-1.532-0.331-2.075-0.876
		c-1.024-1.03-0.9-2.412-0.056-3.367l3.854,3.874l0.188-0.187c1.44-1.427,1.726-3.4,0.286-4.847
		c-1.36-1.367-3.469-1.247-4.859,0.131C121.317,257.783,121.31,259.817,122.72,261.233z M127.019,259.926l-3.124-3.141
		c0.774-0.688,2.142-1.039,3.156-0.019C128.136,257.856,127.724,259.208,127.019,259.926z"/>
	<path fill="#231F20" d="M133.522,270.479c0.991,0.731,1.877,0.758,2.693,0.526l-0.181-0.933c-0.718,0.218-1.347,0.103-1.909-0.313
		c-1.16-0.854-1.215-2.285-0.323-3.487c0.891-1.202,2.269-1.559,3.429-0.703c0.562,0.415,0.866,0.969,0.859,1.729l0.947-0.102
		c-0.018-0.847-0.303-1.683-1.294-2.413c-1.621-1.195-3.629-0.765-4.819,0.842C131.726,267.243,131.901,269.284,133.522,270.479z"/>
	<path fill="#231F20" d="M139.976,274.562l3.057-4.965l1.683,1.03l0.483-0.786l-4.248-2.603l-0.483,0.786l1.671,1.023l-3.058,4.966
		L139.976,274.562z"/>
	<path fill="#231F20" d="M148.791,279.289l2.077-4.147c0.732-1.462-0.044-2.567-1.32-3.204c-0.99-0.492-1.929-0.555-2.918-0.204
		l0.113,0.868c0.826-0.307,1.546-0.275,2.271,0.086c0.877,0.437,1.297,1.224,0.89,2.036l-0.544,1.087
		c-0.207-0.806-0.764-1.411-1.59-1.823c-1.027-0.512-2.436-0.417-3.111,0.933c-0.658,1.312,0.088,2.542,1.114,3.053
		c0.813,0.406,1.646,0.462,2.423,0.162l-0.345,0.687L148.791,279.289z M146.449,277.467c-0.876-0.437-1.214-1.292-0.833-2.055
		c0.389-0.774,1.277-1.019,2.154-0.582c0.663,0.331,1.176,0.899,1.289,1.58l-0.569,1.137
		C147.876,277.866,147.112,277.798,146.449,277.467z"/>
	<path fill="#231F20" d="M155.538,282.036c1.165,0.44,2.109,0.006,2.496-1.013c0.273-0.718,0.017-1.577-0.565-1.977
		c0.602,0.033,1.279-0.293,1.567-1.051c0.363-0.953-0.052-1.872-1.164-2.293l-3.48-1.316l-2.4,6.308L155.538,282.036z M155.67,281.1
		l-2.368-0.896l0.74-1.946l2.368,0.896c0.667,0.252,0.842,0.856,0.648,1.365C156.83,281.121,156.298,281.338,155.67,281.1z
		 M156.698,278.277l-2.329-0.881l0.675-1.776l2.33,0.881c0.602,0.228,0.809,0.709,0.6,1.258
		C157.785,278.255,157.313,278.51,156.698,278.277z"/>
	<path fill="#231F20" d="M163.438,284.689c1.988,0.525,3.643-0.685,4.145-2.574c0.502-1.891-0.338-3.744-2.326-4.27
		c-1.989-0.525-3.639,0.672-4.141,2.562S161.45,284.165,163.438,284.689z M163.679,283.785c-1.394-0.368-1.862-1.763-1.508-3.1
		c0.352-1.322,1.451-2.304,2.846-1.936c1.393,0.368,1.849,1.76,1.497,3.083C166.159,283.169,165.072,284.153,163.679,283.785z"/>
	<path fill="#231F20" d="M175.641,286.905l-2.395-4.113l3.44-2.555l-1.313-0.208l-4.077,2.992l0.563-3.547l-1.037-0.164
		l-1.061,6.666l1.038,0.164l0.303-1.904l1.279-0.916l1.931,3.376L175.641,286.905z"/>
	<path fill="#231F20" d="M186.078,284.578l0.021-0.922l-3.358-0.074l-0.021,0.921L186.078,284.578z"/>
	<path fill="#231F20" d="M196.735,286.124c-1.432,0.165-2.381-0.963-2.541-2.351c-0.155-1.347,0.51-2.661,1.943-2.826
		c1.433-0.166,2.367,0.964,2.521,2.311C198.82,284.646,198.169,285.959,196.735,286.124z M196.843,287.054
		c2.073-0.239,3.125-1.992,2.902-3.921c-0.221-1.901-1.643-3.354-3.549-3.135c-1.195,0.138-1.967,0.902-2.366,1.722
		c0.104-1.165,0.604-2.095,2.562-2.603c1.123-0.284,2.592-0.749,2.465-1.846l-1.016,0.118c0.031,0.277-0.365,0.506-1.813,0.898
		c-2.302,0.574-3.329,2.058-2.952,5.319C193.333,285.828,194.784,287.292,196.843,287.054z"/>
	<path fill="#231F20" d="M206.196,285.483c2.009-0.447,2.919-2.281,2.493-4.19c-0.427-1.908-2.027-3.17-4.036-2.723
		s-2.922,2.268-2.496,4.177C202.583,284.655,204.187,285.931,206.196,285.483z M205.992,284.569c-1.407,0.313-2.468-0.71-2.77-2.06
		c-0.298-1.336,0.228-2.713,1.634-3.025c1.408-0.313,2.455,0.713,2.754,2.049C207.911,282.883,207.399,284.257,205.992,284.569z"/>
	<path fill="#231F20" d="M211.726,284.139c1.234-0.413,1.623-1.545,1.113-4.025l-0.513-2.495l2.589-0.866l1.854,5.521l0.995-0.333
		l-2.148-6.396l-4.46,1.492l0.647,3.29c0.384,1.978,0.244,2.791-0.354,2.991L211.726,284.139z"/>
	<path fill="#231F20" d="M218.237,274.507l2.779,6.149l3.267-1.471c1.263-0.569,1.548-1.739,1.088-2.758
		c-0.454-1.006-1.515-1.585-2.791-1.011l-2.31,1.04l-1.076-2.381L218.237,274.507z M222.858,276.303
		c0.701-0.315,1.26-0.031,1.53,0.567c0.276,0.611,0.102,1.211-0.587,1.521l-2.208,0.994l-0.944-2.088L222.858,276.303z"/>
	<path fill="#231F20" d="M232.123,267.194l3.009,4.99l-2.447,1.47l-3.01-4.99l-0.899,0.54l3.009,4.99l-2.447,1.47l-3.009-4.991
		l-0.899,0.541l3.484,5.78l7.594-4.56l-3.484-5.78L232.123,267.194z"/>
	<path fill="#231F20" d="M241.874,268.628c0.873-0.678,1.367-1.522,1.484-2.463l-0.818-0.231c-0.085,0.756-0.514,1.479-1.122,1.951
		c-1.148,0.894-2.509,0.605-3.358-0.346l4.319-3.356l-0.163-0.21c-1.247-1.597-3.178-2.115-4.79-0.861
		c-1.524,1.185-1.657,3.288-0.453,4.83C238.271,269.605,240.294,269.855,241.874,268.628z M241.089,264.212l-3.502,2.721
		c-0.592-0.85-0.777-2.245,0.361-3.13C239.163,262.858,240.458,263.427,241.089,264.212z"/>
	<path fill="#231F20" d="M250.448,250.828l4.336,3.896l-1.912,2.116l-4.334-3.896l-0.703,0.778l4.335,3.896l-1.911,2.117
		l-4.334-3.896l-0.703,0.778l5.021,4.513l5.93-6.567l-5.021-4.513L250.448,250.828z"/>
	<path fill="#231F20" d="M261.333,247.459l-3.794-2.678c-1.337-0.943-2.55-0.345-3.375,0.818c-0.64,0.9-0.843,1.817-0.647,2.846
		l0.878,0.021c-0.178-0.861-0.038-1.566,0.431-2.229c0.566-0.798,1.41-1.093,2.152-0.568l0.994,0.701
		c-0.829,0.082-1.514,0.54-2.047,1.293c-0.664,0.935-0.785,2.339,0.449,3.21c1.2,0.847,2.532,0.298,3.195-0.638
		c0.525-0.741,0.707-1.554,0.528-2.364l0.628,0.443L261.333,247.459z M259.171,249.492c-0.566,0.798-1.465,1.002-2.162,0.511
		c-0.709-0.5-0.815-1.414-0.25-2.213c0.43-0.604,1.07-1.024,1.762-1.032l1.04,0.733
		C259.783,248.145,259.599,248.888,259.171,249.492z"/>
	<path fill="#231F20" d="M263.744,243.592l-2.63-1.489l1.742-3.062l2.629,1.488l0.52-0.911l-5.881-3.329l-0.52,0.911l2.447,1.386
		l-1.741,3.062l-2.447-1.385l-0.519,0.911l5.881,3.329L263.744,243.592z"/>
	<path fill="#231F20" d="M268.922,233.85c0.501-1.123,0.337-1.99-0.067-2.734l-0.872,0.377c0.368,0.652,0.39,1.289,0.105,1.927
		c-0.586,1.314-1.973,1.677-3.341,1.07s-2.014-1.871-1.428-3.186c0.284-0.638,0.76-1.054,1.505-1.212l-0.304-0.899
		c-0.824,0.2-1.58,0.659-2.081,1.782c-0.819,1.838,0.036,3.699,1.864,4.51C266.145,236.301,268.103,235.688,268.922,233.85z"/>
	<path fill="#231F20" d="M271.896,226.088c0.645-1.951-0.469-3.67-2.33-4.282s-3.768,0.115-4.412,2.065
		c-0.645,1.951,0.454,3.666,2.316,4.277C269.331,228.761,271.251,228.038,271.896,226.088z M271.004,225.795
		c-0.452,1.366-1.876,1.752-3.192,1.318c-1.304-0.428-2.219-1.582-1.768-2.949s1.872-1.738,3.175-1.311
		C270.536,223.287,271.456,224.428,271.004,225.795z"/>
	<path fill="#231F20" d="M274.378,216.184c0.266-1.216-0.305-2.083-1.373-2.314c-0.752-0.163-1.566,0.219-1.876,0.852
		c-0.056-0.598-0.479-1.219-1.272-1.392c-1-0.216-1.85,0.329-2.103,1.489l-0.792,3.632l6.609,1.434L274.378,216.184z
		 M273.431,216.192l-0.539,2.472l-2.039-0.442l0.539-2.472c0.152-0.696,0.725-0.958,1.258-0.842
		C273.279,215.044,273.573,215.537,273.431,216.192z M270.479,215.596l-0.53,2.43l-1.86-0.403l0.529-2.431
		c0.137-0.628,0.584-0.902,1.159-0.778C270.297,214.526,270.619,214.954,270.479,215.596z"/>
	<path fill-rule="evenodd" clip-rule="evenodd" fill="none" stroke="#231F20" stroke-width="2" stroke-miterlimit="10" d="
		M186.708,136.989c34.242,0,62,27.763,62,62.011s-27.758,62.011-62,62.011c-34.241,0-62-27.763-62-62.011
		S152.467,136.989,186.708,136.989z"/>
	
		<path fill-rule="evenodd" clip-rule="evenodd" fill="none" stroke="#231F20" stroke-width="2" stroke-miterlimit="10" stroke-dasharray="12" d="
		M186.191,85.994c62.132,0,112.501,50.37,112.501,112.506s-50.369,112.506-112.501,112.506c-62.133,0-112.501-50.37-112.501-112.506
		S124.059,85.994,186.191,85.994z"/>
	
		<path fill-rule="evenodd" clip-rule="evenodd" fill="none" stroke="#231F20" stroke-width="2" stroke-linecap="round" stroke-linejoin="round" stroke-miterlimit="10" stroke-dasharray="0,7" d="
		M187.2,144.994c29.556,0,53.516,23.954,53.516,53.503S216.756,252,187.2,252s-53.516-23.954-53.516-53.503
		S157.645,144.994,187.2,144.994z"/>
	<path fill-rule="evenodd" clip-rule="evenodd" fill="none" stroke="#231F20" stroke-width="2" stroke-miterlimit="10" d="
		M205.729,180.228c1.174-0.279,2.025-0.576,2.025-0.576s7.059,2.119,8.117,3.355c0.854,0.997,2.471,3.841,2.823,12.538
		c-1.897,1.324-5.646,1.412-5.646,1.412"/>
	<path fill-rule="evenodd" clip-rule="evenodd" fill="none" stroke="#231F20" stroke-width="2" stroke-miterlimit="10" d="
		M214.024,187.747c0,0-1.791,1.57-1.791,4.666s0,22.794,0,22.794s-2.048,0.972-4.614,1.33c-2.567,0.359-5.772,0.465-5.772,0.465
		h-0.178c0,0-0.796-0.026-1.91-0.097"/>
	<path fill-rule="evenodd" clip-rule="evenodd" fill="none" stroke="#231F20" stroke-width="2" stroke-miterlimit="10" d="
		M211.698,193.001L207.704,193"/>
	<path fill-rule="evenodd" clip-rule="evenodd" fill="none" stroke="#231F20" stroke-width="2" stroke-miterlimit="10" d="
		M159.97,197.027c-1.634-0.092-4.899-0.393-6.272-1.351c0.348-8.557,1.939-11.354,2.78-12.335c1.042-1.216,7.992-3.301,7.992-3.301
		s0.837,0.293,1.992,0.569"/>
	<path fill-rule="evenodd" clip-rule="evenodd" fill="none" stroke="#231F20" stroke-width="2" stroke-miterlimit="10" d="
		M172.712,216.906c-1.095,0.069-1.876,0.096-1.876,0.096h-0.177c0,0-3.148-0.104-5.669-0.461c-2.521-0.355-4.286-1.541-4.286-1.541
		s0-18.931,0-22s-2.006-5.003-2.006-5.003"/>
	<path fill-rule="evenodd" clip-rule="evenodd" fill="none" stroke="#231F20" stroke-width="2" stroke-miterlimit="10" d="
		M165.704,193l-5.003,0.001"/>
	<path fill-rule="evenodd" clip-rule="evenodd" fill="none" stroke="#231F20" stroke-width="2" stroke-miterlimit="10" d="
		M172.654,196.932c-0.195-0.013-0.407-0.026-0.633-0.044c-2.204-0.171-5.689-0.617-7.312-1.77
		c0.461-11.528,2.566-15.299,3.678-16.62c1.38-1.639,10.575-4.447,10.575-4.447s3.875,1.404,7.225,1.404s7.258-1.404,7.258-1.404
		s9.195,2.809,10.574,4.447c1.112,1.321,3.219,5.092,3.679,16.62c-2.472,1.756-7.356,1.872-7.356,1.872s-0.231,0-0.65,0"/>
	<path fill-rule="evenodd" clip-rule="evenodd" fill="none" stroke="#231F20" stroke-width="2" stroke-miterlimit="10" d="
		M170.364,183.772c0,0,2.312,2.052,2.312,6.099c0,4.046,0,29.789,0,29.789s2.644,1.269,5.958,1.738
		c3.314,0.469,7.454,0.606,7.454,0.606h0.23c0,0,4.139-0.138,7.454-0.606c3.314-0.47,5.958-1.738,5.958-1.738s0-25.743,0-29.789
		c0-4.047,2.312-6.099,2.312-6.099"/>
	<path fill="none" stroke="#231F20" stroke-width="2" stroke-miterlimit="10" d="M271.792,183.528l-2.812,1.221l0.471-2.86
		l-2.173-2.186l3.067-0.467l1.388-2.652l1.508,2.652l2.948,0.467l-2.054,2.186l0.352,2.86L271.792,183.528z"/>
	<path fill="none" stroke="#231F20" stroke-width="2" stroke-miterlimit="10" d="M102.792,183.528l-2.812,1.221l0.471-2.86
		l-2.173-2.186l3.067-0.467l1.388-2.652l1.508,2.652l2.948,0.467l-2.054,2.186l0.352,2.86L102.792,183.528z"/>
	<path fill-rule="evenodd" clip-rule="evenodd" fill="none" stroke="#231F20" stroke-width="2" stroke-miterlimit="10" d="
		M199.702,191.001h-26.989"/>
	<path fill-rule="evenodd" clip-rule="evenodd" fill="none" stroke="#231F20" stroke-width="2" stroke-miterlimit="10" d="
		M75.152,199H44.704"/>
	<path fill-rule="evenodd" clip-rule="evenodd" fill="none" stroke="#231F20" stroke-width="2" stroke-miterlimit="10" d="
		M76.411,220.996H62.737"/>
	<path fill-rule="evenodd" clip-rule="evenodd" fill="none" stroke="#231F20" stroke-width="2" stroke-miterlimit="10" d="
		M82.704,242.003H78.06"/>
	<path fill-rule="evenodd" clip-rule="evenodd" fill="none" stroke="#231F20" stroke-width="2" stroke-miterlimit="10" d="
		M82.704,157.003h-4.906"/>
	<path fill-rule="evenodd" clip-rule="evenodd" fill="none" stroke="#231F20" stroke-width="2" stroke-miterlimit="10" d="
		M76.413,178.999H62.739"/>
	<path fill-rule="evenodd" clip-rule="evenodd" fill="none" stroke="#231F20" stroke-width="2" stroke-miterlimit="10" d="
		M297.256,199h30.448"/>
	<path fill-rule="evenodd" clip-rule="evenodd" fill="none" stroke="#231F20" stroke-width="2" stroke-miterlimit="10" d="
		M295.997,220.996h13.674"/>
	<path fill-rule="evenodd" clip-rule="evenodd" fill="none" stroke="#231F20" stroke-width="2" stroke-miterlimit="10" d="
		M289.704,242.003h4.645"/>
	<path fill-rule="evenodd" clip-rule="evenodd" fill="none" stroke="#231F20" stroke-width="2" stroke-miterlimit="10" d="
		M289.704,157.003h4.906"/>
	<path fill-rule="evenodd" clip-rule="evenodd" fill="none" stroke="#231F20" stroke-width="2" stroke-miterlimit="10" d="
		M295.994,178.999h13.675"/>
	<path fill-rule="evenodd" clip-rule="evenodd" fill="none" stroke="#231F20" stroke-width="2" stroke-miterlimit="10" d="
		M194.713,167.006h-17.007v-10.27l4.253,3.587l4.251-4.325l4.251,4.325l4.252-3.587V167.006z"/>
	<path fill-rule="evenodd" clip-rule="evenodd" fill="none" stroke="#231F20" stroke-width="2" stroke-miterlimit="10" d="
		M159.11,168.906l8.995-3.986"/>
	<path fill-rule="evenodd" clip-rule="evenodd" fill="none" stroke="#231F20" stroke-width="2" stroke-miterlimit="10" d="
		M213.292,169.106l-9.029-4.066"/>
	<path fill-rule="evenodd" clip-rule="evenodd" fill="none" stroke="#231F20" stroke-width="2" stroke-miterlimit="10" d="
		M159.11,228.119l8.995,3.966"/>
	<path fill-rule="evenodd" clip-rule="evenodd" fill="none" stroke="#231F20" stroke-width="2" stroke-miterlimit="10" d="
		M213.292,227.92l-9.029,4.046"/>
	<path fill-rule="evenodd" clip-rule="evenodd" fill="none" stroke="#231F20" stroke-width="2" stroke-miterlimit="10" d="
		M186.212,226.998c4.143,0,7.5,3.355,7.5,7.494s-3.357,7.493-7.5,7.493s-7.502-3.354-7.502-7.493S182.069,226.998,186.212,226.998z"
		/>
	<path fill-rule="evenodd" clip-rule="evenodd" fill="none" stroke="#231F20" stroke-width="2" stroke-miterlimit="10" d="
		M189.093,227.92l-2.881,2.597l-2.881-2.597"/>
	<path fill-rule="evenodd" clip-rule="evenodd" fill="none" stroke="#231F20" stroke-width="2" stroke-miterlimit="10" d="
		M191.897,229.423l-1.687,3.84l3.503,1.593"/>
	<path fill-rule="evenodd" clip-rule="evenodd" fill="none" stroke="#231F20" stroke-width="2" stroke-miterlimit="10" d="
		M193.128,237.95l-4.479-0.5l-0.265,3.967"/>
	<path fill-rule="evenodd" clip-rule="evenodd" fill="none" stroke="#231F20" stroke-width="2" stroke-miterlimit="10" d="
		M184.067,241.673l-0.363-4.223l-3,1.549"/>
	<path fill-rule="evenodd" clip-rule="evenodd" fill="none" stroke="#231F20" stroke-width="2" stroke-miterlimit="10" d="
		M178.71,234.856l3.676-1.531l-1.682-3.224"/>
	<path fill-rule="evenodd" clip-rule="evenodd" fill="none" stroke="#231F20" stroke-width="2" stroke-miterlimit="10" d="
		M186.204,230.995l-3.51,2.493l1.379,3.505h4.263l1.379-3.629L186.204,230.995z"/>
	<path fill-rule="evenodd" clip-rule="evenodd" fill="none" stroke="#231F20" stroke-width="2" stroke-miterlimit="10" d="
		M303.376,105.003c3.036,0.094,5.42,2.632,5.325,5.668s-2.634,5.421-5.669,5.326c-3.036-0.094-5.42-2.632-5.325-5.668
		S300.34,104.908,303.376,105.003z"/>
	<path fill-rule="evenodd" clip-rule="evenodd" fill="none" stroke="#231F20" stroke-width="2" stroke-miterlimit="10" d="
		M84.313,324.002c1.932,0.06,3.449,1.675,3.389,3.606c-0.061,1.933-1.676,3.45-3.607,3.39c-1.932-0.06-3.449-1.675-3.389-3.606
		C80.767,325.459,82.382,323.941,84.313,324.002z"/>
	<path fill-rule="evenodd" clip-rule="evenodd" fill="none" stroke="#231F20" stroke-width="2" stroke-miterlimit="10" d="
		M267.313,1.002c1.932,0.06,3.449,1.675,3.389,3.607s-1.676,3.45-3.607,3.389c-1.932-0.06-3.449-1.675-3.389-3.607
		C263.767,2.459,265.382,0.942,267.313,1.002z"/>
	<path fill-rule="evenodd" clip-rule="evenodd" fill="none" stroke="#231F20" stroke-width="2" stroke-miterlimit="10" d="
		M51.47,107.004c4.692,0.146,8.377,4.068,8.23,8.76c-0.146,4.692-4.07,8.378-8.762,8.232c-4.692-0.146-8.377-4.068-8.23-8.76
		C42.854,110.544,46.778,106.858,51.47,107.004z"/>
	<path fill-rule="evenodd" clip-rule="evenodd" fill="none" stroke="#231F20" stroke-width="2" stroke-miterlimit="10" d="
		M190.536,391.168l-5.664,5.665"/>
	<path fill-rule="evenodd" clip-rule="evenodd" fill="none" stroke="#231F20" stroke-width="2" stroke-miterlimit="10" d="
		M184.878,391.174l5.652,5.652"/>
	<path fill-rule="evenodd" clip-rule="evenodd" fill="none" stroke="#231F20" stroke-width="2" stroke-miterlimit="10" d="
		M61.536,41.168l-5.664,5.664"/>
	<path fill-rule="evenodd" clip-rule="evenodd" fill="none" stroke="#231F20" stroke-width="2" stroke-miterlimit="10" d="
		M55.878,41.174l5.652,5.652"/>
	<path fill-rule="evenodd" clip-rule="evenodd" fill="none" stroke="#231F20" stroke-width="2" stroke-miterlimit="10" d="
		M124.704,32.179v11.643"/>
	<path fill-rule="evenodd" clip-rule="evenodd" fill="none" stroke="#231F20" stroke-width="2" stroke-miterlimit="10" d="
		M118.929,38h11.551"/>
	<path fill-rule="evenodd" clip-rule="evenodd" fill="none" stroke="#231F20" stroke-width="2" stroke-miterlimit="10" d="
		M367.704,304.179v11.643"/>
	<path fill-rule="evenodd" clip-rule="evenodd" fill="none" stroke="#231F20" stroke-width="2" stroke-miterlimit="10" d="
		M361.929,310h11.551"/>
</g>
</svg>
