<?xml version="1.0" encoding="utf-8"?>
<!-- Generator: Adobe Illustrator 19.0.0, SVG Export Plug-In . SVG Version: 6.00 Build 0)  -->
<svg version="1.1" id="Layer_1" xmlns="http://www.w3.org/2000/svg" xmlns:xlink="http://www.w3.org/1999/xlink" x="0px" y="0px"
	 viewBox="-562 52.5 373.5 397.5" style="enable-background:new -562 52.5 373.5 397.5;" xml:space="preserve">
<style type="text/css">
	.st0{fill:none;stroke:#231F20;stroke-width:2;stroke-miterlimit:10;}
	.st1{fill:none;stroke:#231F20;stroke-width:2;stroke-miterlimit:10;stroke-dasharray:12;}
	
		.st2{fill:none;stroke:#231F20;stroke-width:2;stroke-linecap:round;stroke-linejoin:round;stroke-miterlimit:10;stroke-dasharray:0,7;}
	.st3{fill:#231F20;}
</style>
<path class="st0" d="M-375.3,189.4c34.2,0,62,27.8,62,62s-27.8,62-62,62c-34.2,0-62-27.8-62-62S-409.5,189.4-375.3,189.4z"/>
<path class="st1" d="M-375.8,138.5c62.1,0,112.5,50.4,112.5,112.5s-50.4,112.5-112.5,112.5c-62.1,0-112.5-50.4-112.5-112.5
	S-437.9,138.5-375.8,138.5z"/>
<path class="st2" d="M-374.8,197.5c29.6,0,53.5,24,53.5,53.5s-24,53.5-53.5,53.5c-29.6,0-53.5-24-53.5-53.5
	S-404.4,197.5-374.8,197.5z"/>
<path class="st0" d="M-356.3,232.7c1.2-0.3,2-0.6,2-0.6s7.1,2.1,8.1,3.4c0.9,1,2.5,3.8,2.8,12.5c-1.9,1.3-5.6,1.4-5.6,1.4"/>
<path class="st0" d="M-348,240.2c0,0-1.8,1.6-1.8,4.7s0,22.8,0,22.8s-2,1-4.6,1.3c-2.6,0.4-5.8,0.5-5.8,0.5h-0.2c0,0-0.8,0-1.9-0.1"
	/>
<path class="st0" d="M-350.3,245.5l-4,0"/>
<path class="st0" d="M-402,249.5c-1.6-0.1-4.9-0.4-6.3-1.4c0.3-8.6,1.9-11.4,2.8-12.3c1-1.2,8-3.3,8-3.3s0.8,0.3,2,0.6"/>
<path class="st0" d="M-389.3,269.4c-1.1,0.1-1.9,0.1-1.9,0.1h-0.2c0,0-3.1-0.1-5.7-0.5c-2.5-0.4-4.3-1.5-4.3-1.5s0-18.9,0-22
	s-2-5-2-5"/>
<path class="st0" d="M-396.3,245.5l-5,0"/>
<path class="st0" d="M-389.3,249.4c-0.2,0-0.4,0-0.6,0c-2.2-0.2-5.7-0.6-7.3-1.8c0.5-11.5,2.6-15.3,3.7-16.6
	c1.4-1.6,10.6-4.4,10.6-4.4s3.9,1.4,7.2,1.4s7.3-1.4,7.3-1.4s9.2,2.8,10.6,4.4c1.1,1.3,3.2,5.1,3.7,16.6c-2.5,1.8-7.4,1.9-7.4,1.9
	s-0.2,0-0.6,0"/>
<path class="st0" d="M-391.6,236.2c0,0,2.3,2.1,2.3,6.1c0,4,0,29.8,0,29.8s2.6,1.3,6,1.7c3.3,0.5,7.5,0.6,7.5,0.6h0.2
	c0,0,4.1-0.1,7.5-0.6c3.3-0.5,6-1.7,6-1.7s0-25.7,0-29.8c0-4,2.3-6.1,2.3-6.1"/>
<path class="st0" d="M-290.2,236l-2.8,1.2l0.5-2.9l-2.2-2.2l3.1-0.5l1.4-2.7l1.5,2.7l2.9,0.5l-2.1,2.2l0.4,2.9L-290.2,236z"/>
<path class="st0" d="M-459.2,236l-2.8,1.2l0.5-2.9l-2.2-2.2l3.1-0.5l1.4-2.7l1.5,2.7l2.9,0.5l-2.1,2.2l0.4,2.9L-459.2,236z"/>
<path class="st0" d="M-362.3,243.5h-27"/>
<path class="st0" d="M-486.8,251.5h-30.4"/>
<path class="st0" d="M-485.6,273.5h-13.7"/>
<path class="st0" d="M-479.3,294.5h-4.6"/>
<path class="st0" d="M-479.3,209.5h-4.9"/>
<path class="st0" d="M-485.6,231.5h-13.7"/>
<path class="st0" d="M-264.7,251.5h30.4"/>
<path class="st0" d="M-266,273.5h13.7"/>
<path class="st0" d="M-272.3,294.5h4.6"/>
<path class="st0" d="M-272.3,209.5h4.9"/>
<path class="st0" d="M-266,231.5h13.7"/>
<path class="st0" d="M-367.3,219.5h-17v-10.3l4.3,3.6l4.3-4.3l4.3,4.3l4.3-3.6V219.5L-367.3,219.5z"/>
<path class="st0" d="M-402.9,221.4l9-4"/>
<path class="st0" d="M-348.7,221.6l-9-4.1"/>
<path class="st0" d="M-402.9,280.6l9,4"/>
<path class="st0" d="M-348.7,280.4l-9,4"/>
<path class="st0" d="M-375.8,279.5c4.1,0,7.5,3.4,7.5,7.5s-3.4,7.5-7.5,7.5s-7.5-3.4-7.5-7.5S-379.9,279.5-375.8,279.5z"/>
<path class="st0" d="M-372.9,280.4l-2.9,2.6l-2.9-2.6"/>
<path class="st0" d="M-370.1,281.9l-1.7,3.8l3.5,1.6"/>
<path class="st0" d="M-368.9,290.4l-4.5-0.5l-0.3,4"/>
<path class="st0" d="M-377.9,294.1l-0.4-4.2l-3,1.5"/>
<path class="st0" d="M-383.3,287.3l3.7-1.5l-1.7-3.2"/>
<path class="st0" d="M-375.8,283.5l-3.5,2.5l1.4,3.5h4.3l1.4-3.6L-375.8,283.5z"/>
<path class="st0" d="M-258.6,157.5c3,0.1,5.4,2.6,5.3,5.7c-0.1,3-2.6,5.4-5.7,5.3c-3-0.1-5.4-2.6-5.3-5.7S-261.7,157.4-258.6,157.5z
	"/>
<path class="st0" d="M-477.7,376.5c1.9,0.1,3.4,1.7,3.4,3.6c-0.1,1.9-1.7,3.5-3.6,3.4c-1.9-0.1-3.4-1.7-3.4-3.6
	C-481.2,377.9-479.6,376.4-477.7,376.5z"/>
<path class="st0" d="M-294.7,53.5c1.9,0.1,3.4,1.7,3.4,3.6s-1.7,3.4-3.6,3.4c-1.9-0.1-3.4-1.7-3.4-3.6
	C-298.2,54.9-296.6,53.4-294.7,53.5z"/>
<path class="st0" d="M-510.5,159.5c4.7,0.1,8.4,4.1,8.2,8.8c-0.1,4.7-4.1,8.4-8.8,8.2s-8.4-4.1-8.2-8.8
	C-519.1,163-515.2,159.3-510.5,159.5z"/>
<path class="st0" d="M-371.5,443.6l-5.7,5.7"/>
<path class="st0" d="M-377.1,443.6l5.7,5.7"/>
<path class="st0" d="M-500.5,93.6l-5.7,5.7"/>
<path class="st0" d="M-506.1,93.6l5.7,5.7"/>
<path class="st0" d="M-437.3,84.6v11.6"/>
<path class="st0" d="M-443.1,90.5h11.6"/>
<path class="st0" d="M-194.3,356.6v11.6"/>
<path class="st0" d="M-200.1,362.5h11.6"/>
<g>
	<g>
		<path class="st3" d="M-449,213.4c0.5-1,0.7-2,0.3-3c-0.3-0.9-0.9-1.6-1.8-2.1c-0.9-0.5-1.9-0.6-2.8-0.3c-0.9,0.3-1.7,0.9-2.2,2
			l-2.4,4.7l10.1,5.2l1.1-2.1l-3.6-1.9L-449,213.4z M-451.1,212.7l-1.2,2.3l-2.7-1.4l1.2-2.3c0.2-0.4,0.5-0.7,0.9-0.9
			c0.4-0.1,0.8-0.1,1.2,0.1c0.4,0.2,0.7,0.5,0.8,0.9C-450.8,211.8-450.9,212.3-451.1,212.7z M-440.8,199.7l-5.5-4l-1.4,2l5.5,3.9
			c0.7,0.5,1.1,1,1.2,1.7c0.1,0.7-0.1,1.3-0.6,2c-0.5,0.7-1.1,1.1-1.7,1.2c-0.7,0.1-1.3-0.1-2-0.6l-5.5-3.9l-1.4,2l5.6,4
			c1.2,0.8,2.4,1.2,3.6,0.9c1.2-0.2,2.3-1,3.3-2.4c1-1.4,1.4-2.7,1.2-3.9C-438.9,201.6-439.6,200.6-440.8,199.7z M-436.7,188.4
			l-1.5-1.5l-6.2,6.6l1.5,1.5l2.3-2.4l6.7,6.3l1.7-1.8l-6.7-6.3L-436.7,188.4z M-424.7,178.6l-1.3-1.7l-7.2,5.5l1.3,1.7l2.6-2
			l5.5,7.4l1.9-1.5l-5.5-7.4L-424.7,178.6z M-414.4,171.9c-1.5-0.4-3-0.2-4.5,0.6c-1.5,0.8-2.5,2-2.9,3.5c-0.4,1.5-0.2,3,0.6,4.5
			c0.8,1.5,2,2.4,3.5,2.9c1.5,0.4,3,0.2,4.5-0.6c1.5-0.8,2.5-2,2.9-3.5c0.4-1.5,0.2-3-0.6-4.5C-411.7,173.3-412.9,172.3-414.4,171.9
			z M-412.6,178.8c-0.2,0.9-0.8,1.6-1.7,2.1c-0.9,0.5-1.8,0.6-2.7,0.3c-0.9-0.3-1.6-0.9-2.1-1.9c-0.5-0.9-0.7-1.9-0.5-2.8
			c0.2-0.9,0.8-1.6,1.7-2.1c0.9-0.5,1.8-0.6,2.7-0.3c0.9,0.3,1.6,0.9,2.1,1.9C-412.5,176.9-412.4,177.8-412.6,178.8z M-404.2,171.5
			l0.7,2l2.8-1l0.5,1.3c-0.2,0.3-0.4,0.6-0.8,0.9c-0.4,0.3-0.8,0.6-1.2,0.7c-1,0.4-1.9,0.3-2.8-0.1c-0.9-0.4-1.5-1.2-1.9-2.2
			c-0.4-1-0.4-2,0-2.9c0.4-0.9,1.1-1.5,2-1.9c0.5-0.2,1.1-0.3,1.6-0.2c0.5,0.1,1,0.3,1.4,0.6l1.5-1.7c-1.6-1.2-3.3-1.5-5.3-0.8
			c-1.6,0.6-2.8,1.6-3.5,3c-0.7,1.4-0.8,2.9-0.2,4.6c0.6,1.6,1.6,2.8,3.1,3.4c1.5,0.6,3,0.6,4.6,0.1c1.8-0.7,3.1-1.9,3.8-3.7
			l-1.5-4.1L-404.2,171.5z M-393.4,172.6l-0.6-2.5l5.4-1.2l-0.5-2.1l-5.4,1.2l-0.5-2.3l5.5-1.2l-0.5-2.1l-7.8,1.7l2.4,11.1l7.8-1.7
			l-0.5-2.1L-393.4,172.6z M-378.5,161.1l-9,0.9l0.2,2.1l3.3-0.3l0.9,9.2l2.4-0.2l-0.9-9.2l3.3-0.3L-378.5,161.1z M-367.9,165.8
			l-5.3-0.3l0.2-4.5l-2.4-0.1l-0.5,11.4l2.4,0.1l0.2-4.8l5.3,0.3l-0.2,4.8l2.4,0.1l0.5-11.4l-2.4-0.1L-367.9,165.8z M-354.3,165.3
			l0.4-2.1l-7.9-1.4l-1.9,11.2l7.9,1.4l0.4-2.1l-5.5-1l0.4-2.5l5.4,0.9l0.4-2.1l-5.4-0.9l0.4-2.4L-354.3,165.3z M-345.8,165.5
			l-5.1-1.6l-3.4,10.9l2.3,0.7l1.2-3.9l1.7,0.5l0.9,4.5l2.6,0.8l-1.2-4.9c0.7,0.1,1.4-0.1,2-0.5c0.6-0.4,1.1-1.1,1.4-2
			c0.3-1,0.3-2-0.2-2.8C-343.9,166.5-344.7,165.9-345.8,165.5z M-345.6,169.4c-0.1,0.4-0.4,0.8-0.8,0.9c-0.4,0.2-0.8,0.2-1.3,0
			l-2.4-0.8l0.9-2.9l2.4,0.8c0.5,0.1,0.8,0.4,1,0.8C-345.5,168.6-345.4,169-345.6,169.4z M-341.2,179.2l2.4,1.3l1.5-1.4l4.3,2.3
			l-0.3,2l2.4,1.3l1.5-12.1l-2.7-1.4L-341.2,179.2z M-332.5,179.3l-3.1-1.7l3.9-3.5L-332.5,179.3z M-314.4,185.7l1.3-1.7l-7.1-5.6
			l-1.3,1.7l2.6,2.1l-5.7,7.2l1.9,1.5l5.7-7.2L-314.4,185.7z M-315.9,194.1l1.8-1.8l3.9,3.9l1.5-1.5l-3.9-3.9l1.7-1.7l3.9,4l1.5-1.5
			l-5.6-5.7l-8.1,8l5.6,5.7l1.5-1.5L-315.9,194.1z M-301.3,196.6L-313,200l1.7,2.2l2-0.6l2.9,3.9l-1.1,1.7l1.7,2.2l6.4-10.4
			L-301.3,196.6z M-305.2,203.6l-2.1-2.8l5-1.5L-305.2,203.6z M-291.2,212.6l-7.3,0.8l4.8-5.7l-1.6-3l-10,5.3l1.1,2.1l7-3.7
			l-5.5,6.6l0.5,0.9l8.5-0.9l-7,3.7l1.1,2.2l10-5.3L-291.2,212.6z"/>
	</g>
</g>
<g>
	<g>
		<path class="st3" d="M-441.9,296.2l-7.5,1.4l4.3-6.2l-0.9-1.4l-7.9,5l0.6,1l6.5-4.2l-4.7,6.8l0.3,0.4l8.2-1.5l-6.5,4.2l0.6,1
			l7.9-5L-441.9,296.2z M-438.6,305.7c0.1-0.9-0.1-1.7-0.8-2.5c-0.6-0.8-1.4-1.2-2.3-1.2c-0.9,0-1.8,0.3-2.5,0.9
			c-0.8,0.6-1.2,1.4-1.4,2.3c-0.1,0.9,0.1,1.7,0.8,2.5c0.6,0.8,1.4,1.2,2.3,1.2c0.9,0,1.8-0.3,2.5-0.9
			C-439.2,307.4-438.8,306.6-438.6,305.7z M-440.7,307.2c-0.6,0.5-1.2,0.7-1.8,0.7c-0.6,0-1.2-0.2-1.6-0.8c-0.4-0.5-0.6-1.1-0.5-1.7
			c0.1-0.6,0.5-1.2,1-1.7c0.6-0.5,1.2-0.7,1.8-0.7c0.7,0,1.2,0.2,1.6,0.8c0.4,0.5,0.6,1.1,0.5,1.7
			C-439.8,306.2-440.1,306.7-440.7,307.2z M-434,310.7l0.8-0.8c-0.6-0.6-1.4-0.9-2.5-0.7l0.8-0.8l-0.7-0.7l-4.8,4.8l0.7,0.7l3.4-3.4
			c0.3-0.1,0.7-0.1,1.1,0c0.4,0.1,0.7,0.3,1,0.5C-434.1,310.5-434,310.6-434,310.7z M-431.9,312.5c-0.9,0.1-1.7,0.5-2.4,1.3
			c-0.7,0.8-1,1.7-0.9,2.6c0.1,0.9,0.5,1.7,1.2,2.4c0.8,0.7,1.7,1,2.7,0.9l0.1-0.8c-0.8,0.1-1.5-0.2-2.1-0.7c-0.5-0.5-0.8-1-0.9-1.6
			c0-0.6,0.1-1.2,0.5-1.7l4.2,3.5l0.2-0.2c0.7-0.8,1-1.6,1-2.5c0-0.9-0.4-1.7-1.1-2.3C-430.1,312.7-431,312.4-431.9,312.5z
			 M-429.7,317.1l-3.4-2.9c0.4-0.4,0.9-0.7,1.5-0.8c0.6-0.1,1.1,0.1,1.7,0.5c0.5,0.5,0.8,1,0.8,1.6
			C-429.2,316.1-429.4,316.7-429.7,317.1z M-418.4,321.2c-0.8-0.5-1.7-0.5-2.6-0.2l1.9-3.1l-0.9-0.5l-4.8,8l0.9,0.5l0.5-0.9
			c0.1,1,0.5,1.7,1.3,2.2c0.8,0.5,1.6,0.6,2.4,0.3c0.8-0.3,1.5-0.8,2.1-1.8c0.6-0.9,0.8-1.8,0.6-2.6
			C-417.2,322.3-417.6,321.6-418.4,321.2z M-418.6,325.2c-0.4,0.7-0.9,1.1-1.5,1.3c-0.6,0.2-1.2,0.1-1.7-0.2
			c-0.3-0.2-0.6-0.5-0.8-0.9c-0.2-0.4-0.3-0.7-0.3-1.1l1.6-2.6c0.3-0.2,0.7-0.2,1.1-0.2c0.4,0,0.8,0.1,1.2,0.3
			c0.6,0.3,0.9,0.8,1,1.5S-418.2,324.6-418.6,325.2z M-411.1,325.1c-0.9-0.4-1.7-0.4-2.6-0.1c-0.9,0.3-1.5,1-1.9,1.9
			c-0.5,1-0.5,1.9-0.2,2.7c0.3,0.9,0.9,1.5,1.8,1.9c1,0.5,2,0.5,2.9,0.2l-0.2-0.8c-0.7,0.3-1.5,0.2-2.3-0.1
			c-0.6-0.3-1.1-0.7-1.3-1.3c-0.2-0.6-0.2-1.2,0.1-1.8l5,2.3l0.1-0.2c0.4-0.9,0.6-1.8,0.3-2.7C-409.6,326.2-410.1,325.5-411.1,325.1
			z M-410.4,328.8l-4-1.9c0.3-0.5,0.7-0.9,1.2-1.2c0.5-0.2,1.1-0.2,1.7,0.1c0.6,0.3,1,0.7,1.2,1.3
			C-410.1,327.8-410.1,328.3-410.4,328.8z M-404,326.2l-1-0.4l-0.6,1.7l-1-0.4l-0.3,0.9l1,0.4l-1.5,4.1c-0.2,0.5-0.2,0.9-0.1,1.2
			c0.1,0.3,0.4,0.6,0.9,0.8c0.5,0.2,0.9,0.2,1.3,0l0-0.8c-0.2,0.1-0.5,0.1-0.8,0c-0.2-0.1-0.3-0.2-0.4-0.4c-0.1-0.2,0-0.4,0.1-0.6
			l1.5-3.9l1.3,0.5l0.3-0.9l-1.3-0.5L-404,326.2z M-399,329.6c-0.7-0.2-1.4-0.2-1.9,0c-0.5,0.2-0.9,0.6-1,1.1
			c-0.1,0.4-0.1,0.8,0.1,1.2c0.2,0.4,0.5,0.6,0.8,0.9c0.4,0.2,0.7,0.4,1.1,0.6c0.4,0.2,0.7,0.4,0.9,0.7c0.2,0.2,0.3,0.5,0.2,0.8
			c-0.1,0.3-0.3,0.6-0.6,0.7c-0.3,0.1-0.7,0.1-1.2,0c-0.4-0.1-0.8-0.3-1.1-0.6c-0.3-0.3-0.6-0.6-0.7-0.9l-0.7,0.6
			c0.4,0.9,1.2,1.5,2.3,1.8c0.8,0.2,1.5,0.2,2,0c0.6-0.2,0.9-0.6,1.1-1.2c0.1-0.5,0.1-0.9-0.1-1.3c-0.2-0.4-0.5-0.7-0.8-0.9
			c-0.4-0.2-0.7-0.4-1.1-0.6c-0.4-0.2-0.7-0.4-0.9-0.6c-0.2-0.2-0.3-0.5-0.2-0.7c0.1-0.3,0.3-0.5,0.6-0.6c0.3-0.1,0.7-0.1,1.1,0
			c0.8,0.2,1.4,0.7,1.7,1.4l0.7-0.6C-397.3,330.5-398,329.9-399,329.6z M-390.6,335.7l3.3,0.5l0.1-0.9l-3.3-0.5L-390.6,335.7z
			 M-372.6,332.9c-0.5,0-0.9,0.1-1.3,0.4s-0.7,0.5-0.9,0.9c-0.1-0.4-0.3-0.7-0.6-0.9c-0.3-0.2-0.7-0.3-1.2-0.3
			c-0.4,0-0.9,0.1-1.3,0.4c-0.4,0.3-0.7,0.5-0.9,0.8l0-1l-1,0l0,6.7l1.1,0l0-4.9c0.2-0.3,0.5-0.5,0.8-0.7c0.3-0.2,0.7-0.3,1-0.3
			c0.8,0,1.2,0.5,1.3,1.4l0,4.6l1,0l0-4.9c0.2-0.3,0.4-0.5,0.8-0.7c0.3-0.2,0.7-0.3,1-0.3c0.8,0,1.2,0.5,1.3,1.4l0,4.6l1,0l0-4.9
			C-370.7,333.6-371.3,332.9-372.6,332.9z M-362.6,332.9c-0.7-0.6-1.5-0.8-2.5-0.7c-1,0.1-1.8,0.6-2.3,1.3c-0.5,0.7-0.7,1.6-0.6,2.6
			c0.1,1,0.5,1.8,1.2,2.4c0.7,0.6,1.5,0.8,2.5,0.7c1-0.1,1.8-0.6,2.3-1.3c0.5-0.8,0.7-1.6,0.6-2.6
			C-361.5,334.3-361.9,333.5-362.6,332.9z M-362.8,337.4c-0.3,0.6-0.8,0.9-1.5,1c-0.7,0.1-1.3-0.1-1.7-0.5c-0.5-0.5-0.7-1-0.8-1.8
			c-0.1-0.7,0-1.3,0.4-1.9c0.3-0.6,0.8-0.9,1.5-1c0.7-0.1,1.3,0.1,1.7,0.5c0.5,0.4,0.7,1,0.8,1.8
			C-362.3,336.2-362.5,336.8-362.8,337.4z M-358,332.3l-0.2-1.1l-1,0.2l1.4,6.6l1-0.2l-1-4.7c0.1-0.3,0.3-0.6,0.6-0.9
			c0.3-0.3,0.6-0.5,0.9-0.5c0.2,0,0.3,0,0.4,0l-0.2-1.1C-356.9,330.8-357.6,331.4-358,332.3z M-349.2,335.1
			c-0.7,0.2-1.3,0.2-1.8-0.1c-0.6-0.3-0.9-0.8-1.2-1.4l5.2-1.6l-0.1-0.3c-0.3-1-0.8-1.7-1.6-2.2c-0.8-0.5-1.6-0.6-2.6-0.3
			c-0.9,0.3-1.6,0.8-2,1.7c-0.4,0.8-0.5,1.7-0.2,2.7c0.3,1,0.9,1.7,1.7,2.2c0.8,0.4,1.7,0.5,2.7,0.2c1.1-0.3,1.8-0.9,2.3-1.8
			l-0.7-0.5C-347.8,334.4-348.4,334.9-349.2,335.1z M-352.4,332.9c-0.1-0.6-0.1-1.1,0.1-1.7c0.2-0.5,0.7-0.9,1.3-1.1
			c0.7-0.2,1.3-0.1,1.8,0.2c0.5,0.3,0.8,0.8,1,1.3L-352.4,332.9z M-336.2,329.8c-0.6,0.3-1.3,0.3-1.9,0.1c-0.6-0.3-1.1-0.7-1.4-1.4
			c-0.3-0.7-0.4-1.3-0.3-2c0.2-0.6,0.6-1.1,1.2-1.4c0.6-0.3,1.3-0.3,1.9,0l0.3-0.9c-0.9-0.4-1.8-0.4-2.7,0c-0.9,0.4-1.5,1.1-1.7,2
			c-0.3,0.9-0.2,1.8,0.3,2.7c0.4,0.9,1.1,1.5,2,1.9c0.9,0.3,1.7,0.3,2.6-0.2c0.9-0.5,1.5-1.2,1.7-2.1l-0.9-0.3
			C-335.1,329-335.5,329.5-336.2,329.8z M-331.8,320.3c-0.4,0.2-0.7,0.6-1,1c-0.3,0.4-0.4,0.8-0.5,1.2l-1.9-3l-0.9,0.5l4.9,7.9
			l0.9-0.5l-2.6-4.2c0-0.4,0.1-0.7,0.4-1.1c0.2-0.4,0.5-0.7,0.8-0.9c0.4-0.3,0.8-0.4,1.1-0.3c0.3,0.1,0.7,0.3,1,0.8l2.3,3.8l0.9-0.5
			l-2.5-4.1C-329.6,319.8-330.6,319.6-331.8,320.3z M-323.7,315.3c-0.6,0-1.2,0.2-1.8,0.7c-0.9,0.7-1.4,1.5-1.5,2.5l0.8,0.3
			c0.1-0.9,0.4-1.5,1.1-2c0.4-0.3,0.8-0.5,1.2-0.4c0.4,0,0.7,0.2,1,0.5l0.7,1c-0.8-0.2-1.6,0-2.3,0.6c-0.5,0.4-0.8,0.9-1,1.5
			c-0.1,0.6,0,1.2,0.4,1.7c0.4,0.5,0.9,0.8,1.6,0.9c0.6,0,1.2-0.1,1.7-0.5c0.7-0.6,1.1-1.3,1.2-2.1l0.5,0.6l0.8-0.6l-2.8-3.7
			C-322.6,315.6-323.1,315.3-323.7,315.3z M-321,319.4c0,0.7-0.3,1.3-1,1.8c-0.4,0.3-0.8,0.4-1.2,0.4c-0.4,0-0.8-0.2-1-0.6
			c-0.3-0.3-0.4-0.7-0.3-1.1c0.1-0.4,0.3-0.8,0.7-1.1c0.7-0.5,1.3-0.7,2-0.5L-321,319.4z M-318.8,310.3c-0.3,0.3-0.6,0.7-0.8,1.2
			c-0.2,0.5-0.2,0.9-0.2,1.3l-0.7-0.7l-0.8,0.7l4.6,4.9l0.8-0.7l-3.4-3.6c0-0.4,0-0.7,0.1-1.1c0.1-0.4,0.3-0.7,0.6-1
			c0.4-0.3,0.7-0.5,1.1-0.5c0.4,0,0.7,0.2,1.1,0.6l3,3.2l0.8-0.7l-3.2-3.5C-316.7,309.3-317.7,309.3-318.8,310.3z M-308.2,306.7
			c0.2,0.7,0,1.3-0.5,1.9c-0.5,0.5-1,0.8-1.7,0.8c-0.6,0-1.3-0.3-1.8-0.8c-0.6-0.5-0.9-1.1-1-1.7c-0.1-0.6,0.1-1.2,0.6-1.8
			c0.5-0.5,1.1-0.8,1.8-0.7l0-0.9c-1-0.1-1.8,0.3-2.5,1.1c-0.7,0.7-0.9,1.6-0.9,2.5c0.1,0.9,0.5,1.7,1.3,2.4c0.8,0.7,1.6,1,2.5,1
			c0.9,0,1.7-0.4,2.4-1.2c0.7-0.8,0.9-1.7,0.8-2.6L-308.2,306.7z M-302.9,299.9c0.1,0.8,0,1.5-0.5,2.2c-0.4,0.6-0.9,0.9-1.5,1
			c-0.6,0.1-1.2,0-1.8-0.4l3.2-4.4l-0.2-0.2c-0.8-0.6-1.7-0.9-2.6-0.8c-0.9,0.1-1.6,0.5-2.2,1.3c-0.6,0.8-0.7,1.6-0.6,2.5
			c0.2,0.9,0.7,1.7,1.5,2.2c0.9,0.6,1.7,0.9,2.6,0.7s1.7-0.6,2.3-1.4c0.6-0.9,0.9-1.8,0.7-2.8L-302.9,299.9z M-308.2,300.8
			c-0.1-0.6,0-1.1,0.4-1.7c0.4-0.6,0.9-0.9,1.5-0.9c0.6,0,1.1,0.1,1.6,0.4l-2.6,3.6C-307.8,301.8-308.1,301.4-308.2,300.8z
			 M-297.7,293.6c-0.1-0.6-0.4-1-0.9-1.3c-0.4-0.2-0.8-0.3-1.2-0.2c-0.4,0.1-0.8,0.3-1.1,0.6c-0.3,0.3-0.6,0.6-0.9,0.9
			c-0.3,0.3-0.6,0.5-0.8,0.7c-0.3,0.2-0.5,0.2-0.8,0.1c-0.3-0.2-0.4-0.4-0.5-0.7c0-0.3,0.1-0.7,0.3-1.1c0.4-0.7,1-1.2,1.8-1.3
			l-0.4-0.8c-0.9,0.2-1.6,0.8-2.1,1.7c-0.4,0.7-0.5,1.3-0.4,1.9c0.1,0.6,0.4,1,0.9,1.3c0.4,0.2,0.8,0.3,1.2,0.2
			c0.4-0.1,0.7-0.3,1-0.6c0.3-0.3,0.6-0.6,0.9-0.9c0.3-0.3,0.6-0.5,0.9-0.7c0.3-0.2,0.6-0.2,0.8,0c0.3,0.2,0.5,0.4,0.5,0.8
			c0,0.3-0.1,0.7-0.3,1.2c-0.2,0.4-0.5,0.7-0.9,1c-0.4,0.3-0.7,0.4-1.1,0.5l0.4,0.9c1-0.2,1.7-0.8,2.3-1.8
			C-297.7,294.9-297.6,294.2-297.7,293.6z"/>
	</g>
</g>
</svg>
