<?xml version="1.0" encoding="utf-8"?>
<!-- Generator: Adobe Illustrator 16.0.0, SVG Export Plug-In . SVG Version: 6.00 Build 0)  -->
<!DOCTYPE svg PUBLIC "-//W3C//DTD SVG 1.1//EN" "http://www.w3.org/Graphics/SVG/1.1/DTD/svg11.dtd">
<svg version="1.1" id="Layer_1" xmlns="http://www.w3.org/2000/svg" xmlns:xlink="http://www.w3.org/1999/xlink" x="0px" y="0px"
	 width="464.994px" height="208.008px" viewBox="0 0 464.994 208.008" enable-background="new 0 0 464.994 208.008"
	 xml:space="preserve">
<g>
	<path fill-rule="evenodd" clip-rule="evenodd" fill="none" stroke="#231F20" stroke-width="2" stroke-miterlimit="10" d="
		M234.879,63.935c26.518,0,48.014,21.476,48.014,47.969c0,26.492-21.496,47.969-48.014,47.969s-48.014-21.477-48.014-47.969
		C186.865,85.41,208.361,63.935,234.879,63.935z"/>
	<path fill-rule="evenodd" clip-rule="evenodd" fill="none" stroke="#231F20" stroke-width="2" stroke-miterlimit="10" d="
		M234.394,72.904c21.287,0,38.543,17.456,38.543,38.988c0,21.533-17.256,38.989-38.543,38.989
		c-21.286,0-38.542-17.456-38.542-38.989C195.852,90.36,213.107,72.904,234.394,72.904z"/>
	<path fill-rule="evenodd" clip-rule="evenodd" fill="none" stroke="#231F20" stroke-width="2" stroke-miterlimit="10" d="
		M283.892,111.892h84.054"/>
	<path fill-rule="evenodd" clip-rule="evenodd" fill="none" stroke="#231F20" stroke-width="2" stroke-miterlimit="10" d="
		M280.897,101.912h38.028"/>
	<path fill-rule="evenodd" clip-rule="evenodd" fill="none" stroke="#231F20" stroke-width="2" stroke-miterlimit="10" d="
		M277.902,91.919h12.997"/>
	<path fill-rule="evenodd" clip-rule="evenodd" fill="none" stroke="#231F20" stroke-width="2" stroke-miterlimit="10" d="
		M277.902,131.897h13"/>
	<path fill-rule="evenodd" clip-rule="evenodd" fill="none" stroke="#231F20" stroke-width="2" stroke-miterlimit="10" d="
		M280.891,121.886h38.028"/>
	<path fill-rule="evenodd" clip-rule="evenodd" fill="none" stroke="#231F20" stroke-width="2" stroke-miterlimit="10" d="
		M185.875,111.892h-84.053"/>
	<path fill-rule="evenodd" clip-rule="evenodd" fill="none" stroke="#231F20" stroke-width="2" stroke-miterlimit="10" d="
		M188.87,101.912h-38.028"/>
	<path fill-rule="evenodd" clip-rule="evenodd" fill="none" stroke="#231F20" stroke-width="2" stroke-miterlimit="10" d="
		M191.865,91.919h-12.997"/>
	<path fill-rule="evenodd" clip-rule="evenodd" fill="none" stroke="#231F20" stroke-width="2" stroke-miterlimit="10" d="
		M191.865,131.897h-13"/>
	<path fill-rule="evenodd" clip-rule="evenodd" fill="none" stroke="#231F20" stroke-width="2" stroke-miterlimit="10" d="
		M188.877,121.886h-38.028"/>
	<path fill-rule="evenodd" clip-rule="evenodd" fill="none" stroke="#231F20" stroke-width="2" stroke-miterlimit="10" d="
		M460.602,86.928c1.934,0.06,3.451,1.673,3.391,3.604s-1.676,3.446-3.609,3.387c-1.933-0.06-3.451-1.674-3.391-3.604
		C457.053,88.384,458.669,86.867,460.602,86.928z"/>
	<path fill-rule="evenodd" clip-rule="evenodd" fill="none" stroke="#231F20" stroke-width="2" stroke-miterlimit="10" d="
		M256.503,1.002c1.934,0.06,3.451,1.673,3.391,3.604s-1.677,3.446-3.609,3.387s-3.451-1.674-3.391-3.604
		C252.954,2.458,254.57,0.941,256.503,1.002z"/>
	<path fill-rule="evenodd" clip-rule="evenodd" fill="none" stroke="#231F20" stroke-width="2" stroke-miterlimit="10" d="
		M348.442,73.444l5.99,5.981"/>
	<path fill-rule="evenodd" clip-rule="evenodd" fill="none" stroke="#231F20" stroke-width="2" stroke-miterlimit="10" d="
		M348.466,79.402l5.943-5.936"/>
	<path fill-rule="evenodd" clip-rule="evenodd" fill="none" stroke="#231F20" stroke-width="2" stroke-miterlimit="10" d="
		M185.367,201.319l5.99,5.981"/>
	<path fill-rule="evenodd" clip-rule="evenodd" fill="none" stroke="#231F20" stroke-width="2" stroke-miterlimit="10" d="
		M185.391,207.277l5.943-5.936"/>
	<path fill-rule="evenodd" clip-rule="evenodd" fill="none" stroke="#231F20" stroke-width="2" stroke-miterlimit="10" d="
		M5.778,137.062v11.632"/>
	<path fill-rule="evenodd" clip-rule="evenodd" fill="none" stroke="#231F20" stroke-width="2" stroke-miterlimit="10" d="
		M0,142.877h11.557"/>
	<path fill-rule="evenodd" clip-rule="evenodd" fill="none" stroke="#231F20" stroke-width="2" stroke-miterlimit="10" d="
		M407.964,188.568V200.2"/>
	<path fill-rule="evenodd" clip-rule="evenodd" fill="none" stroke="#231F20" stroke-width="2" stroke-miterlimit="10" d="
		M402.186,194.384h11.557"/>
	<path fill-rule="evenodd" clip-rule="evenodd" fill="none" stroke="#231F20" stroke-width="2" stroke-miterlimit="10" d="
		M132.962,31.976c2.209,0.068,3.943,1.912,3.875,4.118c-0.069,2.206-1.916,3.939-4.125,3.871c-2.209-0.069-3.944-1.913-3.875-4.119
		S130.753,31.906,132.962,31.976z"/>
	<path fill-rule="evenodd" clip-rule="evenodd" fill="none" stroke="#231F20" stroke-width="2" stroke-miterlimit="10" d="
		M331.084,142.88c2.762,0.086,4.931,2.391,4.844,5.148c-0.086,2.758-2.395,4.924-5.156,4.838s-4.93-2.391-4.844-5.148
		C326.015,144.96,328.323,142.794,331.084,142.88z"/>
	<path fill-rule="evenodd" clip-rule="evenodd" fill="none" stroke="#231F20" stroke-width="2" stroke-miterlimit="10" d="
		M123.441,129.891c1.934,0.06,3.451,1.673,3.391,3.604s-1.676,3.447-3.609,3.387c-1.933-0.06-3.451-1.674-3.391-3.604
		C119.893,131.347,121.509,129.83,123.441,129.891z"/>
	<path fill-rule="evenodd" clip-rule="evenodd" fill="none" stroke="#231F20" stroke-width="2" stroke-miterlimit="10" d="
		M234.384,111.919c6.903,0,12.5,5.588,12.5,12.481s-5.597,12.482-12.5,12.482c-6.904,0-12.501-5.589-12.501-12.482
		S227.479,111.919,234.384,111.919z"/>
	<path fill="none" stroke="#231F20" stroke-width="2" stroke-miterlimit="10" d="M234.471,127.136l-2.979,1.306l0.499-3.058
		l-2.302-2.337l3.249-0.499l1.469-2.835l1.597,2.835l3.121,0.499l-2.174,2.337l0.372,3.058L234.471,127.136z"/>
	<path fill-rule="evenodd" clip-rule="evenodd" fill="none" stroke="#231F20" stroke-width="2" stroke-miterlimit="10" d="
		M244.781,117.472l10.939-11.119l-5.127-10.742l-16.235,16.282"/>
	<path fill-rule="evenodd" clip-rule="evenodd" fill="none" stroke="#231F20" stroke-width="2" stroke-miterlimit="10" d="
		M223.979,117.478c-4.784-4.865-10.932-11.129-10.932-11.129l5.126-10.745c0,0,11.314,11.351,16.237,16.288"/>
	<path fill-rule="evenodd" clip-rule="evenodd" fill="none" stroke="#231F20" stroke-width="2" stroke-miterlimit="10" d="
		M240.605,105.895h-12.444 M217.87,94.925h33.027"/>
</g>
</svg>
