<?xml version="1.0" encoding="utf-8"?>
<!-- Generator: Adobe Illustrator 19.0.0, SVG Export Plug-In . SVG Version: 6.00 Build 0)  -->
<svg version="1.1" id="Layer_1" xmlns="http://www.w3.org/2000/svg" xmlns:xlink="http://www.w3.org/1999/xlink" x="0px" y="0px"
	 viewBox="-319 99.8 860 302.2" style="enable-background:new -319 99.8 860 302.2;" xml:space="preserve">
<style type="text/css">
	.st0{fill:none;stroke:#231F20;stroke-width:2;stroke-miterlimit:10;}
	.st1{fill:none;stroke:#231F20;stroke-width:2;stroke-miterlimit:10;stroke-dasharray:11.9881,11.9881;}
	.st2{fill:none;stroke:#231F20;stroke-width:2;stroke-linecap:round;stroke-linejoin:round;stroke-dasharray:0,7.0208;}
	.st3{fill:none;stroke:#231F20;stroke-width:2;stroke-miterlimit:10;stroke-dasharray:8;}
	.st4{fill:#231F20;}
</style>
<path class="st0" d="M170.9,209.8v83h-119v-83C51.9,209.8,170.9,209.8,170.9,209.8z"/>
<path class="st0" d="M112.9,209.9v82.9"/>
<g>
	<g>
		
			<ellipse transform="matrix(-0.9995 -3.120041e-02 3.120041e-02 -0.9995 216.9209 507.2511)" class="st1" cx="112.4" cy="251.9" rx="148.6" ry="149.1"/>
	</g>
</g>
<path class="st0" d="M112.4,155.9c53.3,0,96.5,43.2,96.5,96.6S165.7,349,112.4,349s-96.5-43.2-96.5-96.6
	C15.9,199.1,59.1,155.9,112.4,155.9z"/>
<g>
	<g>
		<ellipse class="st2" cx="112.9" cy="251.9" rx="86" ry="86"/>
	</g>
</g>
<path class="st0" d="M253.6,128.9c3,0.1,5.4,2.6,5.3,5.7c-0.1,3-2.6,5.4-5.7,5.3c-3-0.1-5.4-2.6-5.3-5.7
	C248,131.1,250.6,128.8,253.6,128.9z"/>
<path class="st0" d="M299.5,345c1.9,0.1,3.5,1.7,3.4,3.6c-0.1,1.9-1.7,3.5-3.6,3.4c-1.9-0.1-3.5-1.7-3.4-3.6S297.6,344.9,299.5,345z
	"/>
<path class="st0" d="M-115.6,301.9c1.9,0.1,3.4,1.7,3.4,3.6s-1.7,3.5-3.6,3.4c-1.9-0.1-3.4-1.7-3.4-3.6
	C-119.1,303.3-117.5,301.8-115.6,301.9z"/>
<path class="st0" d="M536.6,226.9c1.9,0.1,3.5,1.7,3.4,3.6s-1.7,3.5-3.6,3.4s-3.5-1.7-3.4-3.6C533.1,228.3,534.7,226.8,536.6,226.9z
	"/>
<path class="st0" d="M-16.8,133.5l-6.6,6.6"/>
<path class="st0" d="M-23.4,133.6l6.6,6.6"/>
<path class="st0" d="M103.2,236.5l-6.6,6.6"/>
<path class="st0" d="M96.6,236.6l6.6,6.6"/>
<path class="st0" d="M156.2,219.5l-6.6,6.6"/>
<path class="st0" d="M149.6,219.6l6.6,6.6"/>
<path class="st0" d="M156.2,247.5l-6.6,6.6"/>
<path class="st0" d="M149.6,247.6l6.6,6.6"/>
<path class="st0" d="M156.2,273.5l-6.6,6.6"/>
<path class="st0" d="M149.6,273.6l6.6,6.6"/>
<path class="st0" d="M-313.2,244.2v11.6"/>
<path class="st0" d="M-319,250h11.6"/>
<path class="st0" d="M347.9,109.1v11.6"/>
<path class="st0" d="M342.2,114.9h11.6"/>
<path class="st0" d="M423.5,255.4l6,6"/>
<path class="st0" d="M423.5,261.4l5.9-5.9"/>
<path class="st0" d="M-231.7,312.5l6,6"/>
<path class="st0" d="M-231.7,318.4l5.9-5.9"/>
<path class="st0" d="M-169.2,200.1v11.6"/>
<path class="st0" d="M-175,205.9h11.6"/>
<path class="st0" d="M513,359.2v11.6"/>
<path class="st0" d="M507.2,365h11.6"/>
<path class="st0" d="M376.7,191.8c4.1,0.1,7.4,3.6,7.3,7.7c-0.1,4.1-3.6,7.4-7.7,7.3s-7.4-3.6-7.3-7.7
	C369.1,195,372.5,191.7,376.7,191.8z"/>
<path class="st0" d="M-173.1,100.8c2.2,0.1,3.9,1.9,3.9,4.1c-0.1,2.2-1.9,3.9-4.1,3.9s-3.9-1.9-3.9-4.1
	C-177.1,102.5-175.3,100.8-173.1,100.8z"/>
<path class="st0" d="M66,245.8c2.2,0.1,3.9,1.9,3.9,4.1c-0.1,2.2-1.9,3.9-4.1,3.9c-2.2-0.1-3.9-1.9-3.9-4.1
	C61.9,247.5,63.8,245.8,66,245.8z"/>
<path class="st0" d="M88,245.8c2.2,0.1,3.9,1.9,3.9,4.1c-0.1,2.2-1.9,3.9-4.1,3.9c-2.2-0.1-3.9-1.9-3.9-4.1S85.8,245.8,88,245.8z"/>
<path class="st0" d="M83,225.8c2.2,0.1,3.9,1.9,3.9,4.1c-0.1,2.2-1.9,3.9-4.1,3.9c-2.2-0.1-3.9-1.9-3.9-4.1
	C78.9,227.5,80.8,225.8,83,225.8z"/>
<path class="st3" d="M85.1,226.3c12.4-6.9,28.2-7,41,1.2"/>
<path class="st3" d="M87.9,268.8h47"/>
<path class="st0" d="M127.1,223.9l3.8,7.1l-7.7,1"/>
<path class="st0" d="M133,239.2l6.4,3.7l-5.3,4.7"/>
<path class="st0" d="M134.4,265.6l5.9,4.3l-5.8,4.1"/>
<path class="st3" d="M91.5,250.6c0,0,13.1,9.7,27.3-1.2c6.8-5.2,12.4-6.9,16.4-7.3"/>
<path class="st0" d="M83,265.8c2.2,0.1,3.9,1.9,3.9,4.1c-0.1,2.2-1.9,3.9-4.1,3.9c-2.2-0.1-3.9-1.9-3.9-4.1
	C78.9,267.5,80.8,265.8,83,265.8z"/>
<path class="st0" d="M-53,365c2.2,0.1,3.9,1.9,3.9,4.1c-0.1,2.2-1.9,3.9-4.1,3.9c-2.2-0.1-3.9-1.9-3.9-4.1
	C-57.1,366.6-55.2,364.9-53,365z"/>
<path class="st0" d="M0.4,200.8c4.1,0,7.5,3.4,7.5,7.5s-3.4,7.5-7.5,7.5s-7.5-3.4-7.5-7.5S-3.8,200.8,0.4,200.8z"/>
<path class="st0" d="M3.2,201.4l-2.9,1.9l-2.7-1.9"/>
<path class="st0" d="M6.1,203.3l-0.4,3.5l2.2,2"/>
<path class="st0" d="M6.8,212.2l-2.9,0.2l-0.6,2.8"/>
<path class="st0" d="M-1.7,215.5l-1-2.9l-2.9,0.2"/>
<path class="st0" d="M-7.1,208.7l2.4-1.8l-0.7-3"/>
<path class="st0" d="M0.4,205.1l-3.5,2.5l1.4,3.5h4.3l1.4-3.6L0.4,205.1z"/>
<path class="st0" d="M227.2,200.8c4.1,0,7.5,3.4,7.5,7.5s-3.4,7.5-7.5,7.5s-7.5-3.4-7.5-7.5S223.1,200.8,227.2,200.8z"/>
<path class="st0" d="M230.1,201.4l-2.9,1.9l-2.7-1.9"/>
<path class="st0" d="M232.9,203.3l-0.4,3.5l2.2,2"/>
<path class="st0" d="M233.6,212.2l-2.9,0.2l-0.6,2.8"/>
<path class="st0" d="M225.1,215.5l-1-2.9l-2.9,0.2"/>
<path class="st0" d="M219.8,208.7l2.4-1.8l-0.7-3"/>
<path class="st0" d="M227.2,205.1l-3.5,2.5l1.4,3.5h4.3l1.4-3.6L227.2,205.1z"/>
<path class="st0" d="M137.8,312.3l10.9-6.3"/>
<path class="st0" d="M76.5,305.9l10.9,6.3"/>
<path class="st0" d="M76.4,196.8l11-6.1"/>
<path class="st0" d="M148.4,197l-11-6.2"/>
<path class="st0" d="M260.9,250.9h118"/>
<path class="st0" d="M259.9,228.9h53"/>
<path class="st0" d="M254.9,207.9h18"/>
<path class="st0" d="M254.9,292.9h19"/>
<path class="st0" d="M259.9,270.9h53"/>
<path class="st0" d="M-36.1,252.9h-118"/>
<path class="st0" d="M-35.2,231.9h-53"/>
<path class="st0" d="M-30.1,209.9h-19"/>
<path class="st0" d="M-30.1,295.9h-19"/>
<path class="st0" d="M-35.2,273.9h-53"/>
<path class="st0" d="M113,317.9l-4.4,1.9l0.7-4.6l-3.4-3.5l4.8-0.7l2.2-4.2l2.4,4.2l4.6,0.7l-3.2,3.5l0.6,4.6L113,317.9z"/>
<path class="st0" d="M120.9,193.8h-17v-10.3l4.3,3.6l4.3-4.3l4.3,4.3l4.3-3.6L120.9,193.8L120.9,193.8z"/>
<g>
	<g>
		<path class="st4" d="M28.7,161.3l-1.5-1.6l-6.7,6.6l1.5,1.6l2.5-2.4l6.7,6.9l1.8-1.8l-6.7-6.9L28.7,161.3z M35.5,152.8l2.9,3.6
			l-4.4,3.5l-2.9-3.6l-2,1.6l7.4,9.3l2-1.6l-3.1-3.9l4.4-3.5l3.1,3.9l2-1.6l-7.4-9.3L35.5,152.8z M47.7,155.9l-1.4-2.3l4.8-3.1
			l-1.2-1.9l-4.8,3.1l-1.4-2.1l4.9-3.2l-1.2-1.9l-7,4.5l6.4,10l7-4.5l-1.2-1.9L47.7,155.9z M60.7,144.6c0.2-0.8,0-1.6-0.4-2.4
			c-0.5-1-1.3-1.6-2.2-1.9c-1-0.3-2-0.2-3.1,0.4l-4.9,2.5l5.4,10.5l2.2-1.2l-1.9-3.7l1.6-0.8l4,2.7l2.6-1.3l-4.4-2.8
			C60.1,146,60.5,145.3,60.7,144.6z M58.1,144.6c-0.2,0.4-0.5,0.7-0.9,1l-2.3,1.2l-1.5-2.8l2.3-1.2c0.5-0.2,0.9-0.3,1.3-0.2
			c0.4,0.1,0.8,0.4,1,0.8C58.2,143.8,58.2,144.2,58.1,144.6z M67.2,145.5l-1-2.5l5.3-2.1l-0.8-2.1l-5.3,2.1l-0.9-2.3l5.4-2.2
			l-0.8-2.1l-7.7,3.1l4.4,11l7.7-3.1l-0.8-2.1L67.2,145.5z M80,131l-1.6,12.6l2.8-0.7l0.2-2.1l4.9-1.2l1.2,1.8l2.8-0.7L83,130.2
			L80,131z M81.6,138.5l0.5-5.4l3,4.5L81.6,138.5z M99.2,133.6c0.4-0.7,0.5-1.5,0.4-2.4c-0.2-1.1-0.6-2-1.5-2.6
			c-0.8-0.6-1.8-0.8-3-0.6l-5.5,0.8l1.7,11.7l2.5-0.4l-0.6-4.2l1.8-0.3l2.9,3.8l2.9-0.4l-3.3-4.1C98.3,134.8,98.8,134.3,99.2,133.6z
			 M96.8,132.8c-0.3,0.3-0.7,0.5-1.2,0.6l-2.6,0.4l-0.5-3.2l2.6-0.4c0.5-0.1,1,0,1.3,0.2c0.4,0.2,0.6,0.6,0.7,1.1
			C97.2,132,97.1,132.4,96.8,132.8z M105.1,136.7l-0.1-2.7l5.7-0.3l-0.1-2.2l-5.7,0.3l-0.1-2.5l5.8-0.3l-0.1-2.2l-8.3,0.4l0.6,11.8
			l8.3-0.4l-0.1-2.2L105.1,136.7z M126,135l-4.8-7.9l-2.6-0.2l-1.1,11.8l2.5,0.2l0.7-7.7l4.9,8.2l2.4,0.2l1.1-11.8l-2.5-0.2L126,135
			z M138.3,129.3c-1.7-0.4-3.3-0.1-4.7,0.8c-1.4,0.9-2.2,2.2-2.6,3.9c-0.4,1.7-0.1,3.3,0.8,4.7c0.9,1.4,2.2,2.2,4,2.6
			c1.8,0.4,3.3,0.1,4.7-0.8c1.4-0.9,2.2-2.2,2.6-4c0.4-1.7,0.1-3.3-0.8-4.7C141.4,130.5,140.1,129.6,138.3,129.3z M140.6,136
			c-0.2,1.1-0.7,1.9-1.5,2.5c-0.8,0.6-1.7,0.8-2.8,0.5c-1.1-0.2-1.8-0.8-2.3-1.6c-0.5-0.9-0.6-1.8-0.4-2.9c0.2-1.1,0.7-1.9,1.5-2.5
			c0.8-0.6,1.7-0.8,2.8-0.6c1.1,0.2,1.8,0.8,2.3,1.6C140.7,133.9,140.8,134.9,140.6,136z M160.3,141.8l-5.3-2l-0.8,2.1l2.9,1.1
			l-0.5,1.3c-0.3,0.1-0.7,0.2-1.2,0.2c-0.5,0-1-0.1-1.4-0.3c-1-0.4-1.7-1-2.1-2c-0.4-0.9-0.4-1.9,0-3c0.4-1.1,1-1.8,2-2.2
			c0.9-0.4,1.9-0.5,2.9-0.1c0.6,0.2,1,0.5,1.4,1c0.4,0.4,0.6,0.9,0.7,1.4l2.4-0.3c-0.4-2-1.6-3.4-3.6-4.2c-1.7-0.6-3.2-0.6-4.8,0
			c-1.5,0.6-2.6,1.8-3.3,3.5c-0.6,1.7-0.6,3.3,0.1,4.8c0.7,1.5,1.9,2.5,3.6,3.2c1.9,0.7,3.7,0.6,5.5-0.3L160.3,141.8z M168.1,139.7
			l-9.4,8.5l2.6,1.3l1.6-1.5l4.5,2.3l-0.3,2.1l2.6,1.3l1.3-12.6L168.1,139.7z M167.8,148l-3.3-1.7l3.9-3.7L167.8,148z M184.9,149.6
			l-6.3,4.4l1.6-7.6l-2.9-2l-6.5,9.9l2.1,1.4l4.6-6.9l-1.8,8.8l0.9,0.6l7.3-5.1l-4.6,6.9l2.1,1.4l6.5-9.9L184.9,149.6z M188.2,160.8
			l4.4,3.7l1.4-1.7l-4.4-3.7l1.6-1.9l4.5,3.8l1.4-1.7l-6.4-5.4l-7.6,9.1l6.4,5.4l1.4-1.7l-4.5-3.8L188.2,160.8z M199.5,164.8
			c0.4,0.1,0.7,0.3,1.1,0.7c1,1,1.5,2.1,1.5,3.4l2.3-0.3c-0.1-1.6-0.8-3.1-2.1-4.4c-1-1-2-1.5-3-1.6c-1.1-0.1-2,0.2-2.7,0.9
			c-0.5,0.5-0.8,1-0.9,1.6c-0.1,0.6-0.1,1.1,0.1,1.6c0.2,0.5,0.4,1,0.7,1.6c0.3,0.5,0.6,1,0.9,1.5c0.3,0.4,0.5,0.8,0.6,1.2
			c0.1,0.4,0,0.7-0.2,0.9c-0.3,0.3-0.6,0.4-1,0.3c-0.4-0.1-0.9-0.3-1.3-0.8c-1.1-1.1-1.6-2.3-1.5-3.8l-2.3,0.4
			c0,1.8,0.7,3.4,2.2,4.9c1.1,1.1,2.2,1.7,3.2,1.8c1.1,0.1,2-0.3,2.8-1.1c0.5-0.5,0.8-1,0.9-1.6c0.1-0.6,0.1-1.1-0.1-1.7
			c-0.2-0.5-0.4-1.1-0.7-1.6c-0.3-0.5-0.6-1-0.9-1.5c-0.3-0.4-0.5-0.8-0.6-1.2c-0.1-0.4,0-0.7,0.2-0.9
			C198.8,164.8,199.2,164.7,199.5,164.8z"/>
	</g>
</g>
<g>
	<g>
		<path class="st4" d="M-3.1,279.9l1-0.2l-1.6-7l-1,0.2l0.7,2.9l-8.2,1.8l0.3,1.1l8.2-1.8L-3.1,279.9z M-2.8,285.8
			c-0.1-0.5-0.4-0.9-0.7-1.2c-0.3-0.4-0.7-0.6-1.1-0.8l3.4-1l-0.3-1l-9,2.7l0.3,1l4.8-1.4c0.3,0.1,0.7,0.3,1,0.6
			c0.3,0.3,0.5,0.6,0.6,1c0.1,0.5,0.1,0.9,0,1.2c-0.1,0.3-0.5,0.6-1,0.7l-4.3,1.3l0.3,1l4.6-1.4C-2.9,288.1-2.4,287.2-2.8,285.8z
			 M-6,296c-0.3-0.7-0.2-1.3,0-1.9c0.3-0.6,0.7-1,1.3-1.3l2,5.2l0.3-0.1c1-0.4,1.7-1,2.1-1.8c0.4-0.8,0.5-1.7,0.1-2.6
			c-0.3-0.9-1-1.5-1.8-1.9c-0.9-0.3-1.8-0.3-2.7,0c-1,0.4-1.7,1-2.1,1.8c-0.4,0.8-0.4,1.7,0,2.7c0.4,1,1.1,1.8,2,2.2l0.5-0.7
			C-5.1,297.3-5.7,296.8-6,296z M-2.2,292.6c0.6,0.2,1,0.6,1.2,1.2c0.3,0.7,0.2,1.3-0.1,1.8c-0.3,0.5-0.7,0.9-1.3,1.1l-1.6-4.2
			C-3.3,292.4-2.8,292.4-2.2,292.6z M1.6,301.4c0.4,0.2,0.6,0.5,0.7,0.8c0.1,0.1,0.1,0.3,0.1,0.4l1-0.5c-0.4-0.8-1.1-1.3-2.1-1.6
			l1-0.5l-0.4-1l-6.2,2.8l0.4,1l4.4-2C0.9,301,1.3,301.1,1.6,301.4z M5.9,306.8c-0.5-0.8-1.1-1.4-2.1-1.6c-0.9-0.2-1.8-0.1-2.7,0.3
			c-0.9,0.5-1.6,1.2-1.8,2.1s-0.2,1.8,0.3,2.7c0.5,1,1.3,1.6,2.2,1.9l0.4-0.8c-0.8-0.2-1.4-0.7-1.8-1.5c-0.3-0.6-0.4-1.2-0.2-1.8
			c0.2-0.6,0.6-1.1,1.1-1.4l2.6,4.9l0.2-0.1c0.9-0.5,1.6-1.2,1.9-2C6.5,308.6,6.4,307.7,5.9,306.8z M5.3,309c-0.2,0.6-0.6,1-1.1,1.3
			l-2.1-4c0.5-0.3,1.1-0.3,1.7-0.2c0.6,0.1,1,0.5,1.4,1.1C5.5,307.8,5.5,308.4,5.3,309z M13.5,320.1c0-0.6-0.2-1.2-0.6-1.9
			c-0.6-0.9-1.4-1.4-2.5-1.6l-0.3,0.8c0.9,0.1,1.5,0.5,2,1.2c0.3,0.4,0.4,0.8,0.4,1.2c0,0.4-0.2,0.7-0.6,1l-1,0.7
			c0.2-0.8,0-1.6-0.5-2.4c-0.4-0.5-0.8-0.9-1.4-1c-0.6-0.2-1.2-0.1-1.8,0.4c-0.6,0.4-0.9,0.9-1,1.5c-0.1,0.6,0.1,1.2,0.4,1.7
			c0.5,0.8,1.2,1.2,2.1,1.3L8,323.5l0.6,0.9l3.9-2.7C13.1,321.2,13.5,320.7,13.5,320.1z M10.2,321.9l-1.1,0.7
			c-0.7,0-1.3-0.4-1.8-1.1c-0.3-0.4-0.4-0.8-0.3-1.2c0.1-0.4,0.3-0.7,0.6-1c0.4-0.3,0.8-0.3,1.2-0.2c0.4,0.1,0.8,0.4,1,0.8
			C10.4,320.6,10.5,321.3,10.2,321.9z M17.2,325.8c0.1,0.1,0.2,0.2,0.2,0.4l0.9-0.7c-0.5-0.7-1.3-1-2.4-1l0.9-0.7l-0.7-0.8l-5.4,4.2
			l0.7,0.8l3.8-3c0.3,0,0.7,0,1.1,0.2C16.7,325.4,17,325.6,17.2,325.8z M19.3,328.4c-0.9,0-1.8,0.3-2.5,1c-0.8,0.7-1.2,1.5-1.3,2.4
			c-0.1,0.9,0.2,1.8,0.9,2.5c0.7,0.8,1.6,1.3,2.6,1.3l0.2-0.8c-0.8,0-1.5-0.4-2-1c-0.5-0.5-0.7-1.1-0.6-1.7c0-0.6,0.3-1.2,0.8-1.7
			l3.7,4.2l0.2-0.2c0.8-0.7,1.3-1.5,1.4-2.4c0.1-0.9-0.1-1.7-0.8-2.5C21.1,328.8,20.3,328.5,19.3,328.4z M21.6,331.8
			c-0.1,0.6-0.4,1.1-0.8,1.5l-3-3.4c0.5-0.4,1-0.6,1.6-0.6c0.6,0,1.1,0.2,1.6,0.7C21.5,330.7,21.7,331.2,21.6,331.8z M31.7,339.6
			c-0.3-0.3-0.8-0.5-1.2-0.7c-0.5-0.1-0.9-0.2-1.3-0.1l0.7-0.7l-0.8-0.7l-4.6,5.1l0.8,0.7l3.4-3.7c0.4-0.1,0.7-0.1,1.1,0
			c0.4,0.1,0.8,0.3,1.1,0.5c0.4,0.3,0.6,0.7,0.6,1c0,0.4-0.1,0.7-0.5,1.2l-3,3.3l0.8,0.7l3.2-3.5C32.8,341.6,32.8,340.6,31.7,339.6z
			 M38,344.9c-0.8-0.6-1.7-0.9-2.6-0.7c-0.9,0.2-1.7,0.6-2.3,1.4s-0.9,1.7-0.9,2.6c0.1,0.9,0.5,1.7,1.3,2.3c0.8,0.6,1.7,0.9,2.6,0.7
			c0.9-0.2,1.7-0.6,2.3-1.4c0.6-0.8,0.9-1.7,0.8-2.6C39.2,346.3,38.8,345.5,38,344.9z M37.5,349.1c-0.5,0.6-1,0.9-1.6,1.1
			c-0.6,0.2-1.2,0-1.8-0.4c-0.5-0.4-0.8-1-0.8-1.6c0-0.7,0.2-1.3,0.7-1.9c0.4-0.6,1-0.9,1.6-1.1c0.6-0.2,1.2,0,1.8,0.4
			c0.5,0.4,0.8,1,0.8,1.6C38.2,347.9,38,348.5,37.5,349.1z M50.8,354.9c-0.2-0.9-0.7-1.6-1.6-2.2c-0.9-0.5-1.7-0.7-2.6-0.4
			c-0.9,0.3-1.6,0.8-2.1,1.7c-0.5,0.9-0.7,1.8-0.6,2.7c0.2,0.9,0.7,1.6,1.6,2.2c0.9,0.5,1.7,0.7,2.6,0.4c0.9-0.3,1.6-0.8,2.1-1.7
			C50.8,356.7,51,355.8,50.8,354.9z M49.3,357c-0.4,0.6-0.9,1.1-1.5,1.3c-0.6,0.2-1.2,0.2-1.8-0.2c-0.6-0.4-0.9-0.9-1-1.5
			c-0.1-0.7,0.1-1.3,0.5-1.9c0.4-0.6,0.9-1,1.5-1.3c0.6-0.2,1.2-0.2,1.8,0.2c0.6,0.4,0.9,0.9,1,1.5C49.9,355.7,49.7,356.3,49.3,357z
			 M57.5,357.3c-0.4-0.2-0.9-0.3-1.3-0.3c-0.5,0-0.9,0.1-1.3,0.3l0.5-0.9l-0.9-0.5l-4.3,8.4l0.9,0.5l1.7-3.2c0.1,1,0.6,1.7,1.5,2.1
			c0.8,0.4,1.6,0.5,2.4,0.1c0.8-0.3,1.4-1,1.9-1.9c0.5-1,0.7-1.9,0.4-2.7C58.8,358.3,58.3,357.7,57.5,357.3z M57.5,361.4
			c-0.4,0.7-0.8,1.2-1.4,1.4c-0.6,0.3-1.2,0.2-1.8-0.1c-0.4-0.2-0.7-0.5-0.9-0.8c-0.2-0.4-0.4-0.7-0.4-1.1l1.4-2.7
			c0.3-0.2,0.7-0.3,1.1-0.3c0.4,0,0.8,0.1,1.2,0.3c0.6,0.3,1,0.8,1.1,1.4C58,360,57.9,360.7,57.5,361.4z M65.3,360.9
			c-0.9-0.4-1.8-0.4-2.6,0c-0.9,0.4-1.5,1-1.9,2c-0.4,1-0.5,1.9-0.1,2.8c0.3,0.9,1,1.5,1.9,1.9c1,0.4,2,0.5,2.9,0.1l-0.2-0.8
			c-0.7,0.3-1.5,0.3-2.3,0c-0.7-0.3-1.1-0.7-1.3-1.3c-0.2-0.6-0.2-1.2,0-1.8l5.1,2.2l0.1-0.2c0.4-1,0.5-1.9,0.2-2.8
			C66.8,362,66.2,361.3,65.3,360.9z M66.1,364.7l-4.1-1.8c0.3-0.5,0.7-0.9,1.2-1.2c0.5-0.3,1.1-0.3,1.8,0c0.7,0.3,1.1,0.7,1.3,1.3
			C66.3,363.6,66.3,364.2,66.1,364.7z M74,364.3c-0.4-0.2-0.9-0.2-1.4-0.1c-0.5,0.1-0.9,0.2-1.3,0.4l0.3-0.9l-1-0.3l-2.2,6.5l1,0.3
			l1.6-4.7c0.3-0.2,0.6-0.4,1.1-0.4c0.4-0.1,0.8-0.1,1.2,0.1c0.5,0.2,0.8,0.4,1,0.7c0.2,0.3,0.2,0.7,0,1.3l-1.4,4.2l1,0.3l1.5-4.5
			C75.8,365.6,75.4,364.7,74,364.3z M85.3,365.7l-1-0.2l-0.4,1.8l-1.1-0.3l-0.2,0.9l1.1,0.3l-1,4.4c-0.1,0.5-0.1,0.9,0.1,1.2
			c0.2,0.3,0.5,0.5,1,0.7c0.5,0.1,1,0.1,1.3-0.1l-0.1-0.8c-0.2,0.1-0.5,0.2-0.8,0.1c-0.2-0.1-0.4-0.2-0.4-0.4
			c-0.1-0.2-0.1-0.4,0-0.7l1-4.1l1.4,0.3l0.2-0.9l-1.4-0.3L85.3,365.7z M91.7,368.7c-1-0.2-1.9,0-2.6,0.6c-0.7,0.6-1.2,1.4-1.3,2.4
			c-0.2,1,0,1.9,0.5,2.7c0.5,0.8,1.2,1.3,2.2,1.4c1,0.2,1.9,0,2.6-0.6c0.7-0.6,1.2-1.4,1.3-2.4c0.2-1,0-1.9-0.5-2.7
			C93.5,369.3,92.7,368.9,91.7,368.7z M93.3,372.6c-0.1,0.7-0.4,1.3-0.9,1.7c-0.5,0.4-1.1,0.6-1.8,0.5c-0.7-0.1-1.2-0.5-1.5-1
			c-0.3-0.6-0.4-1.2-0.3-2c0.1-0.7,0.4-1.3,0.9-1.7c0.5-0.4,1.1-0.6,1.8-0.5c0.7,0.1,1.2,0.5,1.5,1
			C93.4,371.2,93.5,371.9,93.3,372.6z M101.8,375.2c-0.2,0.3-0.5,0.5-0.9,0.6c-0.4,0.2-0.8,0.2-1.2,0.2c-0.5,0-0.9-0.2-1.1-0.5
			c-0.2-0.3-0.3-0.7-0.3-1.2l0.4-4.5l-1.1-0.1l-0.5,4.8c-0.1,1.4,0.5,2.2,2,2.4c0.5,0,0.9,0,1.4-0.2c0.4-0.2,0.8-0.4,1.1-0.7l-0.1,1
			l1.1,0.1l0.7-6.8l-1.1-0.1L101.8,375.2z M107.5,371.6l0-1.1l-1.1,0l-0.3,6.8l1.1,0l0.2-4.8c0.2-0.3,0.4-0.5,0.8-0.7
			c0.4-0.2,0.7-0.3,1.1-0.3c0.2,0,0.3,0,0.4,0.1l0-1.1C108.9,370.4,108.1,370.8,107.5,371.6z M115.6,370.4c-0.5,0-0.9,0.1-1.4,0.4
			c-0.4,0.2-0.8,0.5-1,0.8l0-1l-1.1,0l0.1,6.8l1.1,0l-0.1-5c0.2-0.3,0.5-0.6,0.9-0.8c0.4-0.2,0.8-0.3,1.1-0.3c0.5,0,0.9,0.1,1.1,0.3
			c0.3,0.2,0.4,0.6,0.4,1.2l0.1,4.5l1.1,0l-0.1-4.8C117.8,371.1,117.1,370.3,115.6,370.4z M125.5,370.3c-0.5-0.3-1.2-0.5-2-0.4
			c-1.1,0.1-2,0.6-2.6,1.4l0.6,0.7c0.5-0.7,1.2-1.1,2-1.1c0.5,0,0.9,0,1.3,0.3c0.3,0.2,0.5,0.6,0.6,1l0.1,1.2
			c-0.6-0.6-1.4-0.8-2.3-0.7c-0.6,0.1-1.2,0.3-1.6,0.7c-0.4,0.4-0.6,1-0.6,1.7c0.1,0.7,0.4,1.2,0.9,1.6c0.5,0.4,1.1,0.5,1.7,0.5
			c0.9-0.1,1.7-0.5,2.2-1.2l0.1,0.8l1.1-0.1l-0.4-4.7C126.3,371.2,126,370.6,125.5,370.3z M123.8,376.3c-0.5,0-0.9-0.1-1.2-0.3
			c-0.3-0.2-0.5-0.6-0.6-1c0-0.4,0.1-0.8,0.4-1.1c0.3-0.3,0.7-0.5,1.2-0.5c0.8-0.1,1.5,0.1,2,0.7l0.1,1.3
			C125.2,375.9,124.6,376.2,123.8,376.3z M136.3,368c-0.5,0.1-0.9,0.3-1.3,0.6s-0.6,0.7-0.8,1c-0.2-0.4-0.4-0.6-0.8-0.8
			c-0.3-0.2-0.8-0.2-1.3-0.1c-0.4,0.1-0.9,0.3-1.2,0.6c-0.4,0.3-0.6,0.6-0.7,0.9l-0.2-1l-1,0.2l1.2,6.7l1-0.2l-0.9-4.9
			c0.1-0.3,0.4-0.6,0.7-0.9c0.3-0.3,0.6-0.4,0.9-0.5c0.8-0.1,1.3,0.2,1.5,1.2l0.8,4.6l1-0.2l-0.9-4.9c0.1-0.3,0.4-0.6,0.7-0.9
			c0.3-0.3,0.6-0.4,0.9-0.5c0.8-0.1,1.3,0.2,1.5,1.2l0.8,4.6l1-0.2l-0.9-4.9C138.4,368.4,137.6,367.8,136.3,368z M145.8,372.2
			c-0.7,0.2-1.3,0.1-1.8-0.2c-0.5-0.3-0.9-0.8-1.2-1.4l5.3-1.4l-0.1-0.3c-0.3-1-0.8-1.8-1.5-2.3c-0.8-0.5-1.6-0.6-2.6-0.4
			c-0.9,0.3-1.6,0.8-2.1,1.6c-0.4,0.8-0.5,1.7-0.3,2.7c0.3,1,0.8,1.8,1.6,2.2c0.8,0.5,1.7,0.6,2.7,0.3c1.1-0.3,1.9-0.9,2.4-1.7
			l-0.7-0.5C147.2,371.5,146.6,372,145.8,372.2z M142.6,369.8c-0.1-0.6-0.1-1.1,0.2-1.7c0.3-0.5,0.7-0.9,1.4-1.1
			c0.7-0.2,1.3-0.1,1.8,0.2c0.5,0.3,0.8,0.8,1,1.4L142.6,369.8z M152.9,363.4c-0.4,0.2-0.8,0.4-1.2,0.8c-0.3,0.4-0.6,0.7-0.7,1.1
			l-0.3-0.9l-1,0.4l2.3,6.4l1-0.4l-1.7-4.7c0.1-0.3,0.3-0.7,0.6-1c0.3-0.3,0.6-0.5,1-0.7c0.5-0.2,0.9-0.2,1.2,0
			c0.3,0.1,0.6,0.5,0.8,1l1.5,4.2l1-0.4l-1.6-4.5C155.2,363.4,154.3,362.9,152.9,363.4z M162.1,366.5c-0.2,0.1-0.4,0.1-0.6,0
			c-0.2-0.1-0.3-0.3-0.4-0.5l-1.6-3.9l1.3-0.5l-0.4-0.9l-1.3,0.5l-0.7-1.7l-1,0.4l0.7,1.7l-1,0.4l0.4,0.9l1-0.4l1.7,4.1
			c0.2,0.5,0.5,0.8,0.8,0.9c0.3,0.2,0.7,0.1,1.2-0.1c0.5-0.2,0.8-0.5,1-0.9l-0.6-0.6C162.6,366.2,162.4,366.4,162.1,366.5z
			 M168.3,361c-0.4-0.1-0.8-0.2-1.2-0.1c-0.4,0.1-0.8,0.2-1.3,0.3c-0.4,0.1-0.8,0.1-1.1,0.1c-0.3,0-0.6-0.1-0.7-0.4
			c-0.1-0.3-0.1-0.6,0-0.9c0.2-0.3,0.4-0.6,0.9-0.8c0.8-0.4,1.5-0.4,2.2-0.1l0.1-0.9c-0.9-0.3-1.8-0.2-2.7,0.2
			c-0.7,0.3-1.2,0.8-1.4,1.3c-0.2,0.5-0.3,1.1,0,1.6c0.2,0.4,0.5,0.7,0.9,0.8c0.4,0.1,0.8,0.2,1.2,0.1c0.4-0.1,0.8-0.2,1.3-0.3
			c0.4-0.1,0.8-0.1,1.1-0.1c0.3,0,0.6,0.2,0.7,0.5c0.2,0.3,0.1,0.6,0,0.9c-0.2,0.3-0.5,0.6-0.9,0.8c-0.4,0.2-0.8,0.3-1.3,0.3
			c-0.5,0-0.8-0.1-1.2-0.2l-0.2,0.9c0.9,0.3,1.9,0.3,3-0.2c0.8-0.4,1.3-0.8,1.5-1.4c0.3-0.6,0.3-1.1,0-1.6
			C169,361.5,168.7,361.2,168.3,361z M177.8,351.8c-0.6-0.1-1.3,0.1-1.9,0.5c-0.9,0.6-1.5,1.4-1.7,2.4l0.8,0.4
			c0.2-0.8,0.6-1.5,1.3-1.9c0.4-0.3,0.9-0.4,1.3-0.3c0.4,0,0.7,0.3,1,0.6l0.7,1c-0.8-0.2-1.6-0.1-2.4,0.4c-0.5,0.3-0.9,0.8-1.1,1.4
			c-0.2,0.6-0.1,1.2,0.3,1.8c0.4,0.6,0.9,0.9,1.5,1c0.6,0.1,1.2,0,1.7-0.4c0.8-0.5,1.3-1.2,1.4-2l0.4,0.7l0.9-0.6l-2.5-4
			C178.9,352.2,178.4,351.9,177.8,351.8z M180.2,356.2c0,0.7-0.4,1.3-1.2,1.7c-0.4,0.3-0.8,0.4-1.2,0.3c-0.4-0.1-0.7-0.3-1-0.7
			c-0.2-0.4-0.3-0.8-0.2-1.2c0.1-0.4,0.4-0.7,0.8-1c0.7-0.4,1.4-0.5,2-0.3L180.2,356.2z M185.9,353.1c-0.2,0.1-0.4,0.2-0.6,0.1
			c-0.2-0.1-0.4-0.2-0.5-0.4l-2.4-3.5l1.1-0.8l-0.5-0.8l-1.1,0.8l-1.1-1.5l-0.9,0.6l1.1,1.5l-0.9,0.7l0.5,0.8l0.9-0.7l2.6,3.7
			c0.3,0.4,0.6,0.7,1,0.8c0.4,0.1,0.8,0,1.2-0.3c0.4-0.3,0.7-0.7,0.8-1.1l-0.7-0.5C186.3,352.7,186.2,352.9,185.9,353.1z
			 M194.3,346.6c-0.2,0.1-0.4,0.2-0.6,0.1c-0.2,0-0.4-0.2-0.5-0.4l-2.7-3.3l1.1-0.9l-0.6-0.7l-1.1,0.9l-1.2-1.4l-0.8,0.7l1.2,1.4
			l-0.9,0.7l0.6,0.7l0.9-0.7l2.9,3.4c0.3,0.4,0.7,0.6,1.1,0.7s0.7-0.1,1.1-0.4c0.4-0.3,0.6-0.7,0.7-1.2l-0.7-0.4
			C194.6,346.2,194.5,346.4,194.3,346.6z M195.3,337.4c-0.4,0.3-0.6,0.7-0.8,1.2c-0.2,0.5-0.2,0.9-0.2,1.3l-2.5-2.6L191,338l6.5,6.9
			l0.8-0.7l-3.4-3.6c0-0.4,0-0.7,0.1-1.2c0.1-0.4,0.3-0.7,0.6-1c0.4-0.3,0.7-0.5,1.1-0.5c0.4,0,0.7,0.2,1.1,0.6l3.1,3.3l0.8-0.7
			l-3.3-3.5C197.3,336.4,196.3,336.4,195.3,337.4z M205.8,335.6c-0.5,0.5-1,0.8-1.7,0.8c-0.6,0-1.2-0.2-1.7-0.6l3.7-4.1l-0.2-0.2
			c-0.8-0.7-1.6-1.1-2.5-1.1c-0.9,0-1.7,0.3-2.4,1.1c-0.7,0.7-0.9,1.5-0.9,2.5c0.1,0.9,0.5,1.7,1.2,2.4c0.8,0.7,1.6,1.1,2.6,1
			c0.9,0,1.7-0.4,2.4-1.2c0.8-0.8,1.1-1.7,1.1-2.7l-0.9-0.1C206.6,334.3,206.3,335,205.8,335.6z M201,333.8
			c-0.1-0.6,0.1-1.2,0.6-1.7c0.5-0.5,1-0.8,1.6-0.7c0.6,0,1.1,0.2,1.6,0.6l-3,3.3C201.4,334.9,201.1,334.4,201,333.8z M212.2,317.4
			c-0.3,0.4-0.4,0.8-0.5,1.3c0,0.5,0,0.9,0.2,1.3c-0.4-0.1-0.7-0.1-1.1,0c-0.4,0.1-0.7,0.4-1,0.8c-0.3,0.4-0.4,0.8-0.5,1.3
			c0,0.5,0,0.9,0.1,1.2l-0.8-0.6l-0.6,0.9l5.6,4l0.6-0.9l-4.1-2.9c-0.1-0.3-0.2-0.7-0.1-1.1c0-0.4,0.1-0.7,0.3-1
			c0.5-0.7,1.1-0.8,1.9-0.2l3.8,2.7l0.6-0.9l-4.1-2.9c-0.1-0.3-0.2-0.7-0.1-1.1c0-0.4,0.1-0.7,0.3-1c0.5-0.7,1.1-0.8,1.9-0.2
			l3.8,2.7l0.6-0.9l-4-2.9C213.9,316.3,212.9,316.4,212.2,317.4z M221.1,309.7c-0.9-0.5-1.8-0.7-2.7-0.5c-0.9,0.2-1.6,0.7-2.1,1.6
			c-0.5,0.9-0.6,1.8-0.4,2.6c0.3,0.9,0.9,1.6,1.7,2.1c0.9,0.5,1.8,0.7,2.7,0.5c0.9-0.2,1.6-0.7,2.1-1.6c0.5-0.9,0.6-1.8,0.3-2.6
			C222.6,311,222,310.3,221.1,309.7z M221.7,314c-0.4,0.6-0.9,1-1.5,1c-0.7,0.1-1.3,0-1.9-0.4c-0.6-0.4-1.1-0.9-1.3-1.5
			c-0.2-0.6-0.2-1.2,0.2-1.8c0.4-0.6,0.9-0.9,1.5-1c0.6-0.1,1.3,0,1.9,0.4s1.1,0.9,1.3,1.5C222.1,312.8,222,313.4,221.7,314z
			 M222.4,299c-0.2,0.4-0.3,0.9-0.2,1.4c0,0.5,0.2,0.9,0.4,1.2c-0.4-0.1-0.8,0-1.1,0.2c-0.3,0.2-0.6,0.5-0.8,0.9
			c-0.2,0.4-0.3,0.9-0.2,1.4c0,0.5,0.2,0.9,0.3,1.1l-0.9-0.4l-0.5,1l6.2,2.9l0.5-1l-4.5-2.1c-0.2-0.3-0.3-0.7-0.3-1
			c0-0.4,0-0.7,0.1-1c0.4-0.8,1-0.9,1.8-0.5l4.2,2l0.5-1l-4.5-2.1c-0.2-0.3-0.3-0.6-0.3-1c0-0.4,0-0.7,0.2-1.1
			c0.4-0.8,1-0.9,1.8-0.5l4.2,2l0.5-1l-4.5-2.1C223.9,297.6,223,297.9,222.4,299z M231.2,291.5c0.3,0.7,0.4,1.5,0.1,2.3
			c-0.2,0.7-0.7,1.1-1.2,1.4c-0.6,0.3-1.2,0.3-1.8,0.1l1.9-5.2l-0.3-0.1c-1-0.4-1.9-0.4-2.8-0.1c-0.9,0.3-1.5,0.9-1.8,1.9
			c-0.3,0.9-0.3,1.8,0.1,2.6c0.4,0.8,1.1,1.4,2.1,1.8c1,0.4,1.9,0.4,2.8,0c0.9-0.4,1.5-1,1.8-2c0.4-1,0.4-2,0-2.9L231.2,291.5z
			 M227.5,295c-0.5-0.2-1-0.6-1.3-1.1c-0.3-0.5-0.3-1.1-0.1-1.7c0.2-0.7,0.7-1.1,1.2-1.3c0.6-0.2,1.1-0.2,1.7,0L227.5,295z
			 M228.2,282.9c-0.1,0.5-0.1,0.9,0,1.4c0.1,0.5,0.3,0.9,0.5,1.2l-1-0.3l-0.3,1l6.6,1.9l0.3-1l-4.8-1.4c-0.2-0.3-0.4-0.6-0.5-1
			c-0.1-0.4-0.1-0.8,0-1.2c0.1-0.5,0.4-0.8,0.7-1c0.3-0.2,0.7-0.2,1.3,0l4.3,1.2l0.3-1l-4.6-1.3C229.6,281,228.6,281.5,228.2,282.9z
			 M236.8,276.3l-0.8,0.1c0.1,0.2,0.2,0.5,0.1,0.8c0,0.2-0.2,0.4-0.3,0.5c-0.2,0.1-0.4,0.1-0.7,0l-4.1-0.9l0.3-1.4l-0.9-0.2
			l-0.3,1.4l-1.8-0.4l-0.2,1l1.8,0.4l-0.2,1.1l0.9,0.2l0.2-1.1l4.4,1c0.5,0.1,0.9,0.1,1.2-0.1c0.3-0.2,0.5-0.5,0.6-1
			C237.1,277.1,237,276.6,236.8,276.3z"/>
	</g>
</g>
</svg>
