<?xml version="1.0" encoding="utf-8"?>
<!-- Generator: Adobe Illustrator 16.0.0, SVG Export Plug-In . SVG Version: 6.00 Build 0)  -->
<!DOCTYPE svg PUBLIC "-//W3C//DTD SVG 1.1//EN" "http://www.w3.org/Graphics/SVG/1.1/DTD/svg11.dtd">
<svg version="1.1" id="Layer_1" xmlns="http://www.w3.org/2000/svg" xmlns:xlink="http://www.w3.org/1999/xlink" x="0px" y="0px"
	 width="859.995px" height="302.171px" viewBox="0 0 859.995 302.171" enable-background="new 0 0 859.995 302.171"
	 xml:space="preserve">
<g>
	<path fill-rule="evenodd" clip-rule="evenodd" fill="none" stroke="#231F20" stroke-width="2" stroke-miterlimit="10" d="
		M489.901,109.998v83.001H370.86v-83.001H489.901z"/>
	<path fill-rule="evenodd" clip-rule="evenodd" fill="none" stroke="#231F20" stroke-width="2" stroke-miterlimit="10" d="
		M431.886,110.065V193"/>
	<g>
		<path fill="#231F20" d="M303.918,161.781l9.43-0.518l-0.43-7.849l-9.429,0.518l0.063,1.172l8.383-0.461l0.301,5.506l-8.382,0.461
			L303.918,161.781z"/>
		<path fill="#231F20" d="M304.547,168.451c0.152,1.106,0.641,1.968,1.406,2.549l0.619-0.599c-0.62-0.458-1.036-1.2-1.141-1.972
			c-0.199-1.457,0.744-2.5,2.01-2.759l0.748,5.48l0.268-0.036c2.035-0.277,3.471-1.701,3.191-3.748
			c-0.265-1.935-2.042-3.119-4.007-2.852C305.523,164.806,304.274,166.446,304.547,168.451z M308.821,170.009l-0.606-4.443
			c1.046-0.085,2.364,0.463,2.562,1.906C310.987,169.014,309.83,169.857,308.821,170.009z"/>
		<path fill="#231F20" d="M306.233,177.962c0.375,1.758,1.994,2.687,4.156,2.226c2.176-0.464,3.247-1.966,2.872-3.725
			c-0.201-0.94-0.864-1.668-1.646-2.008l0.998-0.213l-0.222-1.038l-9.245,1.972l0.222,1.038l3.562-0.76
			C306.296,176.154,306.039,177.049,306.233,177.962z M307.106,177.501c-0.174-0.816,0.15-1.74,0.656-2.224l3.021-0.645
			c0.658,0.235,1.318,0.949,1.492,1.766c0.287,1.343-0.637,2.379-2.12,2.695S307.393,178.844,307.106,177.501z"/>
		<path fill="#231F20" d="M308.516,186.903c0.313,1.072,0.925,1.851,1.768,2.312l0.523-0.684c-0.682-0.36-1.203-1.033-1.421-1.779
			c-0.413-1.412,0.365-2.582,1.578-3.025l1.554,5.307l0.258-0.075c1.971-0.576,3.179-2.196,2.599-4.178
			c-0.548-1.873-2.481-2.781-4.384-2.225C308.938,183.155,307.948,184.962,308.516,186.903z M312.971,187.811l-1.26-4.303
			c1.021-0.239,2.407,0.107,2.816,1.505C314.965,186.506,313.946,187.511,312.971,187.811z"/>
		<path fill="#231F20" d="M310.938,193.811l6.255,1.51l-4.987,1.868l0.373,0.993l6.406-2.4l-0.367-0.979l-6.152-1.518l4.895-1.834
			l-0.373-0.993l-6.406,2.4L310.938,193.811z M320.752,194.727l0.24-0.649c-0.751-0.187-1.353-0.701-1.641-1.47
			c-0.293-0.781-0.16-1.556,0.264-2.198l-0.607-0.331c-0.513,0.812-0.646,1.828-0.293,2.768
			C319.073,193.8,319.837,194.465,320.752,194.727z"/>
		<path fill="#231F20" d="M312.03,201.457l0.445,0.963l1.582-0.731l2.17,4.688l-1.582,0.73l0.445,0.963l2.431-1.123l-0.333-0.719
			l5.362-2.478l-1.997-4.314l-3.245,1.016c-1.952,0.606-2.53,0.437-2.899-0.094L312.03,201.457z M320.096,200.675l1.16,2.504
			l-4.514,2.086l-1.707-3.686c0.568,0.283,1.361,0.275,2.603-0.111L320.096,200.675z"/>
		<path fill="#231F20" d="M318.479,210.763l6.41,0.58l-4.662,2.577l0.516,0.929l5.988-3.312l-0.508-0.916l-6.311-0.603l4.574-2.529
			l-0.514-0.929l-5.988,3.312L318.479,210.763z"/>
		<path fill="#231F20" d="M323.84,219.809l4.973-3.19l1.079,1.679l0.787-0.505l-2.726-4.238l-0.787,0.505l1.072,1.667l-4.973,3.19
			L323.84,219.809z"/>
		<path fill="#231F20" d="M328.188,226.385c0.664,0.9,1.506,1.423,2.456,1.567l0.257-0.821c-0.764-0.106-1.484-0.56-1.946-1.186
			c-0.873-1.186-0.543-2.552,0.444-3.384l3.283,4.455l0.217-0.16c1.654-1.216,2.232-3.151,1.008-4.815
			c-1.159-1.572-3.288-1.764-4.885-0.589C327.298,222.719,326.988,224.756,328.188,226.385z M332.688,225.712l-2.661-3.611
			c0.878-0.575,2.299-0.724,3.163,0.449C334.114,223.803,333.5,225.097,332.688,225.712z"/>
		<path fill="#231F20" d="M338.072,237.927c0.857,0.922,1.908,0.95,2.718,0.199c0.57-0.529,0.724-1.424,0.376-2.048
			c0.53,0.3,1.292,0.308,1.894-0.251c0.757-0.702,0.795-1.722-0.024-2.603l-2.563-2.755l-5.012,4.65L338.072,237.927z
			 M338.612,237.136l-1.744-1.874l1.546-1.435l1.744,1.874c0.491,0.528,0.378,1.155-0.026,1.53
			C339.654,237.675,339.075,237.634,338.612,237.136z M340.813,235.035l-1.715-1.844l1.411-1.31l1.716,1.844
			c0.443,0.477,0.413,1.006-0.022,1.41C341.808,235.502,341.266,235.521,340.813,235.035z"/>
		<path fill="#231F20" d="M344.972,245.05c1.286,1.087,2.563,1.331,5.634-1.506l2.799-2.583l2.715,2.293l-5.426,6.406l0.898,0.758
			l6.102-7.206l-4.412-3.726l-3.508,3.244c-2.371,2.187-3.26,2.251-4.125,1.52L344.972,245.05z"/>
		<path fill="#231F20" d="M356.78,254.461c1.692,1.208,3.69,0.651,4.842-0.959c1.152-1.611,1.023-3.667-0.67-4.875
			c-1.693-1.207-3.683-0.663-4.835,0.948C354.964,251.186,355.086,253.253,356.78,254.461z M357.331,253.689
			c-1.187-0.846-1.13-2.335-0.315-3.474c0.807-1.128,2.198-1.664,3.386-0.817c1.186,0.846,1.118,2.327,0.312,3.454
			C359.897,253.992,358.516,254.536,357.331,253.689z"/>
		<path fill="#231F20" d="M365.208,258.876c-1.246-0.756-1.302-2.246-0.566-3.455c0.714-1.173,2.062-1.812,3.311-1.056
			c1.246,0.756,1.289,2.238,0.576,3.412C367.792,258.986,366.455,259.632,365.208,258.876z M364.715,259.687
			c1.804,1.094,3.734,0.344,4.756-1.337c1.008-1.657,0.776-3.701-0.882-4.706c-1.042-0.632-2.133-0.499-2.961-0.091
			c0.809-0.867,1.785-1.301,3.663-0.493c1.074,0.469,2.536,1.008,3.117,0.053l-0.884-0.536c-0.147,0.242-0.606,0.179-2.007-0.406
			c-2.195-0.967-3.938-0.418-5.666,2.424C362.674,256.529,362.923,258.6,364.715,259.687z"/>
		<path fill="#231F20" d="M373.549,263.513c-1.301-0.66-1.469-2.143-0.826-3.404c0.623-1.225,1.921-1.963,3.223-1.303
			c1.301,0.66,1.456,2.136,0.833,3.36C376.136,263.428,374.851,264.174,373.549,263.513z M373.12,264.358
			c1.883,0.955,3.752,0.062,4.645-1.692c0.88-1.729,0.494-3.751-1.236-4.629c-1.087-0.552-2.166-0.337-2.961,0.133
			c0.74-0.926,1.683-1.433,3.617-0.769c1.107,0.387,2.606,0.814,3.114-0.183l-0.923-0.468c-0.128,0.252-0.591,0.224-2.033-0.254
			c-2.264-0.799-3.961-0.12-5.47,2.847C370.844,261.362,371.25,263.41,373.12,264.358z"/>
		<path fill="#231F20" d="M380.076,267.461l5.391-3.514l-2.06,4.907l0.98,0.41l2.645-6.304l-0.967-0.404l-5.326,3.433l2.021-4.815
			l-0.98-0.41l-2.645,6.304L380.076,267.461z"/>
		<path fill="#231F20" d="M389.155,270.628c0.228-0.641-0.04-1.156-0.48-1.312c-0.4-0.142-0.826,0.083-0.964,0.47
			c-0.143,0.399,0.024,0.774,0.398,0.907c0.067,0.023,0.165,0.043,0.196,0.039c-0.21,0.422-0.782,0.804-1.309,0.933l0.346,0.589
			C388.114,272.03,388.865,271.441,389.155,270.628z"/>
		<path fill="#231F20" d="M400.708,274.382c1.222,0.306,2.118-0.241,2.388-1.312c0.19-0.754-0.169-1.587-0.801-1.921
			c0.608-0.037,1.251-0.444,1.451-1.239c0.252-1.001-0.271-1.876-1.439-2.169l-3.651-0.916l-1.668,6.623L400.708,274.382z
			 M400.731,273.425l-2.485-0.623l0.515-2.043l2.484,0.623c0.7,0.176,0.947,0.762,0.812,1.297
			C401.898,273.31,401.389,273.59,400.731,273.425z M401.432,270.467l-2.444-0.613l0.47-1.865l2.443,0.613
			c0.632,0.158,0.896,0.618,0.75,1.194C402.52,270.316,402.077,270.628,401.432,270.467z"/>
		<path fill="#231F20" d="M407.098,268.859l-1.119,6.743l3.578,0.592c1.384,0.229,2.282-0.599,2.467-1.715
			c0.184-1.104-0.383-2.187-1.781-2.418l-2.529-0.418l0.434-2.61L407.098,268.859z M409.979,272.965
			c0.768,0.127,1.078,0.681,0.969,1.336c-0.111,0.671-0.595,1.078-1.35,0.953l-2.418-0.399l0.38-2.289L409.979,272.965z
			 M413.834,276.901l1.119-6.743l-1.048-0.174l-1.12,6.743L413.834,276.901z"/>
		<path fill="#231F20" d="M420.389,276.77c-1.453-0.12-2.169-1.428-2.052-2.837c0.113-1.367,1.034-2.54,2.487-2.42
			s2.155,1.426,2.042,2.793C422.75,275.715,421.842,276.889,420.389,276.77z M420.311,277.714c2.102,0.173,3.494-1.358,3.656-3.317
			c0.16-1.931-0.961-3.654-2.895-3.814c-1.213-0.1-2.131,0.506-2.688,1.24c0.336-1.136,1.015-1.959,3.056-2.075
			c1.17-0.06,2.719-0.229,2.811-1.343l-1.029-0.085c-0.023,0.281-0.462,0.43-1.977,0.532c-2.396,0.114-3.709,1.383-3.983,4.694
			C417.075,275.801,418.223,277.541,420.311,277.714z"/>
		<path fill="#231F20" d="M430.013,278.141c1.119,0.009,2.044-0.352,2.729-1.025l-0.504-0.697c-0.544,0.547-1.34,0.852-2.119,0.846
			c-1.473-0.012-2.371-1.095-2.445-2.383l5.54,0.045l0.002-0.27c0.018-2.052-1.188-3.675-3.256-3.691
			c-1.955-0.016-3.386,1.572-3.402,3.554C426.54,276.655,427.987,278.124,430.013,278.141z M432.172,274.139l-4.491-0.036
			c0.065-1.047,0.798-2.271,2.258-2.26C431.498,271.854,432.167,273.12,432.172,274.139z"/>
		<path fill="#231F20" d="M439.708,277.844c1.795-0.116,2.949-1.579,2.808-3.78c-0.143-2.216-1.473-3.49-3.268-3.375
			c-0.961,0.062-1.777,0.611-2.228,1.335l-0.064-1.017l-1.061,0.068l0.605,9.413l1.061-0.068l-0.233-3.627
			C437.927,277.52,438.775,277.904,439.708,277.844z M439.378,276.916c-0.834,0.054-1.7-0.401-2.105-0.97l-0.198-3.076
			c0.329-0.617,1.132-1.165,1.965-1.219c1.371-0.088,2.263,0.974,2.359,2.483C441.497,275.646,440.75,276.827,439.378,276.916z"/>
		<path fill="#231F20" d="M446.813,277.003l2.853-5.764l0.727,5.271l1.053-0.146l-0.934-6.77l-1.039,0.143l-2.838,5.662
			l-0.713-5.172l-1.053,0.145l0.934,6.771L446.813,277.003z"/>
		<path fill="#231F20" d="M457.2,275.266l-1.185-5.782l1.958-0.4l-0.188-0.915l-4.942,1.011l0.188,0.915l1.943-0.397l1.184,5.782
			L457.2,275.266z"/>
		<path fill="#231F20" d="M464.902,273.584c1.079-0.295,1.87-0.892,2.347-1.725l-0.674-0.534c-0.374,0.673-1.057,1.182-1.808,1.387
			c-1.421,0.387-2.578-0.411-2.999-1.63l5.341-1.456l-0.071-0.259c-0.539-1.979-2.139-3.213-4.133-2.669
			c-1.885,0.514-2.83,2.428-2.309,4.337C461.159,273.095,462.949,274.116,464.902,273.584z M465.893,269.151l-4.329,1.181
			c-0.221-1.024,0.151-2.401,1.559-2.784C464.625,267.138,465.612,268.173,465.893,269.151z"/>
		<path fill="#231F20" d="M481.297,267.725l-4.207-2.347l1.673-3.994l-1.25,0.496l-2.001,4.701l-1.341-3.376l-0.986,0.391
			l2.521,6.346l0.986-0.391l-0.72-1.813l0.64-1.455l3.422,1.943L481.297,267.725z"/>
		<path fill="#231F20" d="M486.494,265.492c1.875-0.904,2.347-2.922,1.485-4.705c-0.862-1.782-2.73-2.656-4.605-1.752
			s-2.353,2.909-1.491,4.692S484.619,266.396,486.494,265.492z M486.082,264.639c-1.313,0.634-2.595-0.13-3.204-1.391
			c-0.604-1.248-0.405-2.726,0.908-3.359s2.582,0.137,3.186,1.385C487.581,262.534,487.395,264.006,486.082,264.639z"/>
		<path fill="#231F20" d="M498.281,258.874l-3.45-5.899l-1.224,0.714l0.771,5.415l-4.368-3.316l-1.211,0.707l3.451,5.899
			l0.917-0.535l-2.707-4.629l4.64,3.501l0.343-0.2l-0.787-5.75l2.708,4.629L498.281,258.874z"/>
		<path fill="#231F20" d="M502.125,256.347l-1.744-2.509l2.933-2.033l1.743,2.51l0.873-0.605l-3.899-5.611l-0.872,0.605l1.622,2.335
			l-2.932,2.032l-1.623-2.335l-0.872,0.605l3.898,5.611L502.125,256.347z"/>
		<path fill="#231F20" d="M512.928,248.251l-2.943-3.661c-1.037-1.29-2.384-1.044-3.511-0.141c-0.872,0.7-1.326,1.536-1.422,2.592
			l0.848,0.264c0.067-0.889,0.399-1.536,1.04-2.05c0.773-0.62,1.676-0.673,2.252,0.044l0.771,0.959
			c-0.83-0.15-1.623,0.105-2.353,0.689c-0.905,0.727-1.414,2.06-0.456,3.251c0.931,1.157,2.379,0.993,3.284,0.267
			c0.718-0.575,1.122-1.316,1.173-2.156l0.488,0.606L512.928,248.251z M510.258,249.631c-0.772,0.62-1.704,0.568-2.245-0.104
			c-0.549-0.684-0.398-1.604,0.375-2.224c0.585-0.47,1.326-0.7,2.001-0.517l0.807,1.004
			C511.23,248.488,510.844,249.161,510.258,249.631z"/>
		<path fill="#231F20" d="M517.299,244.379l-3.98-4.361l1.478-1.345l-0.63-0.69l-3.729,3.395l0.63,0.69l1.467-1.335l3.979,4.361
			L517.299,244.379z"/>
		<path fill="#231F20" d="M522.442,243.215c0.179-0.103,0.456-0.326,0.614-0.489c0.621-0.659,0.831-1.423,0.405-2.407l-3.515-8.182
			l-0.81,0.832l2.444,5.526l-5.613-2.268l-0.799,0.822l6.952,2.759l0.426,1.044c0.239,0.566,0.134,0.898-0.192,1.233
			c-0.118,0.122-0.326,0.275-0.485,0.338L522.442,243.215z"/>
		<path fill="#231F20" d="M530.466,230.333l-1.979-6.113l4.199,3.269l0.653-0.836l-5.394-4.199l-0.645,0.825l1.917,6.03l-4.12-3.208
			l-0.653,0.837l5.394,4.199L530.466,230.333z"/>
		<path fill="#231F20" d="M539.96,217.131c0.656-1.06,0.609-1.953,0.307-2.756l-0.927,0.26c0.279,0.705,0.215,1.348-0.157,1.949
			c-0.769,1.24-2.209,1.416-3.499,0.619c-1.289-0.796-1.765-2.154-0.996-3.394c0.372-0.603,0.906-0.954,1.676-1.013l-0.182-0.944
			c-0.854,0.089-1.676,0.447-2.332,1.507c-1.073,1.733-0.471,3.72,1.253,4.783C536.838,219.214,538.887,218.864,539.96,217.131z"/>
		<path fill="#231F20" d="M536.519,209.266l6.085,3.125l1.659-3.222c0.642-1.246,0.129-2.354-0.879-2.871
			c-0.995-0.511-2.202-0.303-2.85,0.956l-1.174,2.277l-2.355-1.21L536.519,209.266z M541.314,207.781
			c0.356-0.692,0.979-0.818,1.571-0.514c0.604,0.311,0.845,0.896,0.495,1.575l-1.122,2.177l-2.066-1.062L541.314,207.781z
			 M546.247,205.317l-6.084-3.124l-0.486,0.943l6.085,3.125L546.247,205.317z"/>
		<path fill="#231F20" d="M543.244,195.028l-1.864,4.405l6.302,2.658l0.414-0.978l-5.441-2.295l1.451-3.428L543.244,195.028z"/>
		<path fill="#231F20" d="M551.829,191.932c0.588-1.697-0.316-3.326-2.403-4.047c-2.102-0.726-3.794,0.008-4.382,1.705
			c-0.314,0.909-0.124,1.873,0.369,2.567l-0.963-0.333l-0.348,1.003l8.927,3.081l0.348-1.003l-3.439-1.187
			C550.84,193.446,551.523,192.814,551.829,191.932z M550.844,191.877c-0.273,0.788-1.028,1.411-1.711,1.564l-2.917-1.007
			c-0.442-0.542-0.638-1.492-0.364-2.281c0.449-1.296,1.775-1.707,3.207-1.213S551.293,190.58,550.844,191.877z"/>
		<path fill="#231F20" d="M554.904,180.879l-4.548-1.201c-1.602-0.424-2.541,0.572-2.91,1.968c-0.287,1.081-0.156,2.023,0.395,2.93
			l0.84-0.29c-0.475-0.755-0.592-1.474-0.381-2.268c0.254-0.957,0.949-1.535,1.84-1.3l1.191,0.315
			c-0.758,0.37-1.245,1.047-1.484,1.949c-0.298,1.122,0.085,2.497,1.564,2.888c1.438,0.38,2.507-0.611,2.805-1.733
			c0.235-0.889,0.12-1.725-0.338-2.431l0.754,0.199L554.904,180.879z M553.574,183.572c-0.255,0.958-1.035,1.469-1.87,1.248
			c-0.85-0.225-1.274-1.054-1.021-2.012c0.192-0.725,0.651-1.35,1.305-1.603l1.246,0.33
			C553.677,182.077,553.766,182.848,553.574,183.572z"/>
		<path fill="#231F20" d="M555.892,176.422l-4.555-4.536l5.23,0.993l0.199-1.042l-6.72-1.276l-0.196,1.028l4.463,4.49l-5.134-0.975
			l-0.198,1.042l6.72,1.276L555.892,176.422z M547.989,170.544l-0.543,0.43c0.544,0.55,0.789,1.302,0.636,2.107
			c-0.156,0.82-0.673,1.413-1.37,1.741l0.347,0.599c0.86-0.427,1.503-1.227,1.691-2.213
			C548.94,172.208,548.634,171.242,547.989,170.544z"/>
		<path fill="#231F20" d="M557.558,166.058l-5.86-0.72l0.244-1.979l-0.928-0.114l-0.617,4.997l0.928,0.114l0.243-1.966l5.86,0.721
			L557.558,166.058z"/>
		<path fill="#231F20" d="M558.418,158.22c0.065-1.115-0.249-2.054-0.889-2.771l-0.722,0.469c0.521,0.567,0.785,1.376,0.74,2.152
			c-0.085,1.469-1.212,2.311-2.503,2.321l0.32-5.521l-0.27-0.015c-2.049-0.118-3.731,1.003-3.851,3.064
			c-0.113,1.948,1.402,3.452,3.382,3.565C556.761,161.609,558.302,160.239,558.418,158.22z M554.527,155.871l-0.259,4.476
			c-1.043-0.116-2.231-0.907-2.146-2.361C552.211,156.433,553.508,155.827,554.527,155.871z"/>
	</g>
	<g>
		<g>
			
				<ellipse transform="matrix(0.0312 -0.9995 0.9995 0.0312 265.9434 578.5442)" fill="none" stroke="#231F20" stroke-width="2" stroke-miterlimit="10" stroke-dasharray="11.9881,11.9881" cx="431.401" cy="152.091" rx="149.079" ry="148.553"/>
		</g>
	</g>
	<path fill-rule="evenodd" clip-rule="evenodd" fill="none" stroke="#231F20" stroke-width="2" stroke-miterlimit="10" d="
		M431.385,56.034c53.303,0,96.514,43.23,96.514,96.557c0,53.327-43.211,96.557-96.514,96.557s-96.512-43.229-96.512-96.557
		C334.874,99.264,378.083,56.034,431.385,56.034z"/>
	<g>
		<g>
			
				<ellipse fill="none" stroke="#231F20" stroke-width="2" stroke-linecap="round" stroke-linejoin="round" stroke-dasharray="0,7.0208" cx="431.888" cy="152.094" rx="86.023" ry="86.048"/>
		</g>
	</g>
	<path fill-rule="evenodd" clip-rule="evenodd" fill="none" stroke="#231F20" stroke-width="2" stroke-miterlimit="10" d="
		M572.593,29.028c3.037,0.094,5.422,2.633,5.327,5.671s-2.634,5.424-5.671,5.33c-3.037-0.095-5.422-2.634-5.326-5.671
		C567.018,31.32,569.557,28.934,572.593,29.028z"/>
	<path fill-rule="evenodd" clip-rule="evenodd" fill="none" stroke="#231F20" stroke-width="2" stroke-miterlimit="10" d="
		M618.542,245.162c1.933,0.061,3.45,1.676,3.39,3.609c-0.061,1.933-1.676,3.451-3.608,3.391c-1.933-0.06-3.45-1.676-3.39-3.608
		S616.61,245.103,618.542,245.162z"/>
	<path fill-rule="evenodd" clip-rule="evenodd" fill="none" stroke="#231F20" stroke-width="2" stroke-miterlimit="10" d="
		M203.437,202.049c1.933,0.061,3.45,1.676,3.39,3.609c-0.06,1.933-1.676,3.451-3.608,3.391c-1.933-0.06-3.45-1.676-3.39-3.608
		C199.889,203.507,201.504,201.988,203.437,202.049z"/>
	<path fill-rule="evenodd" clip-rule="evenodd" fill="none" stroke="#231F20" stroke-width="2" stroke-miterlimit="10" d="
		M855.603,127.023c1.933,0.06,3.45,1.676,3.39,3.609s-1.676,3.452-3.608,3.392s-3.45-1.676-3.39-3.609
		C852.055,128.481,853.67,126.963,855.603,127.023z"/>
	<path fill-rule="evenodd" clip-rule="evenodd" fill="none" stroke="#231F20" stroke-width="2" stroke-miterlimit="10" d="
		M302.171,33.709l-6.639,6.641"/>
	<path fill-rule="evenodd" clip-rule="evenodd" fill="none" stroke="#231F20" stroke-width="2" stroke-miterlimit="10" d="
		M295.558,33.735l6.587,6.589"/>
	<path fill-rule="evenodd" clip-rule="evenodd" fill="none" stroke="#231F20" stroke-width="2" stroke-miterlimit="10" d="
		M422.202,136.709l-6.639,6.641"/>
	<path fill-rule="evenodd" clip-rule="evenodd" fill="none" stroke="#231F20" stroke-width="2" stroke-miterlimit="10" d="
		M415.588,136.735l6.588,6.589"/>
	<path fill-rule="evenodd" clip-rule="evenodd" fill="none" stroke="#231F20" stroke-width="2" stroke-miterlimit="10" d="
		M475.215,119.709l-6.639,6.641"/>
	<path fill-rule="evenodd" clip-rule="evenodd" fill="none" stroke="#231F20" stroke-width="2" stroke-miterlimit="10" d="
		M468.602,119.735l6.588,6.589"/>
	<path fill-rule="evenodd" clip-rule="evenodd" fill="none" stroke="#231F20" stroke-width="2" stroke-miterlimit="10" d="
		M475.215,147.709l-6.639,6.641"/>
	<path fill-rule="evenodd" clip-rule="evenodd" fill="none" stroke="#231F20" stroke-width="2" stroke-miterlimit="10" d="
		M468.602,147.735l6.588,6.589"/>
	<path fill-rule="evenodd" clip-rule="evenodd" fill="none" stroke="#231F20" stroke-width="2" stroke-miterlimit="10" d="
		M475.215,173.709l-6.639,6.641"/>
	<path fill-rule="evenodd" clip-rule="evenodd" fill="none" stroke="#231F20" stroke-width="2" stroke-miterlimit="10" d="
		M468.602,173.735l6.588,6.589"/>
	<path fill-rule="evenodd" clip-rule="evenodd" fill="none" stroke="#231F20" stroke-width="2" stroke-miterlimit="10" d="
		M5.777,144.346v11.647"/>
	<path fill-rule="evenodd" clip-rule="evenodd" fill="none" stroke="#231F20" stroke-width="2" stroke-miterlimit="10" d="M0,150.17
		h11.555"/>
	<path fill-rule="evenodd" clip-rule="evenodd" fill="none" stroke="#231F20" stroke-width="2" stroke-miterlimit="10" d="
		M666.946,9.228v11.648"/>
	<path fill-rule="evenodd" clip-rule="evenodd" fill="none" stroke="#231F20" stroke-width="2" stroke-miterlimit="10" d="
		M661.168,15.051h11.555"/>
	<path fill-rule="evenodd" clip-rule="evenodd" fill="none" stroke="#231F20" stroke-width="2" stroke-miterlimit="10" d="
		M742.471,155.593l5.988,5.99"/>
	<path fill-rule="evenodd" clip-rule="evenodd" fill="none" stroke="#231F20" stroke-width="2" stroke-miterlimit="10" d="
		M742.495,161.561l5.942-5.944"/>
	<path fill-rule="evenodd" clip-rule="evenodd" fill="none" stroke="#231F20" stroke-width="2" stroke-miterlimit="10" d="
		M87.305,212.629l5.988,5.99"/>
	<path fill-rule="evenodd" clip-rule="evenodd" fill="none" stroke="#231F20" stroke-width="2" stroke-miterlimit="10" d="
		M87.328,218.596l5.942-5.943"/>
	<path fill-rule="evenodd" clip-rule="evenodd" fill="none" stroke="#231F20" stroke-width="2" stroke-miterlimit="10" d="
		M149.814,100.242v11.648"/>
	<path fill-rule="evenodd" clip-rule="evenodd" fill="none" stroke="#231F20" stroke-width="2" stroke-miterlimit="10" d="
		M144.037,106.066h11.555"/>
	<path fill-rule="evenodd" clip-rule="evenodd" fill="none" stroke="#231F20" stroke-width="2" stroke-miterlimit="10" d="
		M831.988,259.36v11.648"/>
	<path fill-rule="evenodd" clip-rule="evenodd" fill="none" stroke="#231F20" stroke-width="2" stroke-miterlimit="10" d="
		M826.21,265.185h11.555"/>
	<path fill-rule="evenodd" clip-rule="evenodd" fill="none" stroke="#231F20" stroke-width="2" stroke-miterlimit="10" d="
		M695.687,91.996c4.142,0.128,7.394,3.591,7.265,7.733c-0.13,4.142-3.592,7.396-7.733,7.267c-4.141-0.129-7.394-3.591-7.264-7.733
		C688.084,95.121,691.546,91.867,695.687,91.996z"/>
	<path fill-rule="evenodd" clip-rule="evenodd" fill="none" stroke="#231F20" stroke-width="2" stroke-miterlimit="10" d="
		M145.938,1.002c2.209,0.069,3.943,1.915,3.874,4.125c-0.069,2.209-1.916,3.945-4.124,3.876s-3.943-1.916-3.874-4.125
		C141.883,2.668,143.729,0.933,145.938,1.002z"/>
	<path fill-rule="evenodd" clip-rule="evenodd" fill="none" stroke="#231F20" stroke-width="2" stroke-miterlimit="10" d="
		M384.999,146.002c2.209,0.068,3.943,1.915,3.875,4.124c-0.07,2.21-1.916,3.945-4.125,3.876c-2.209-0.068-3.943-1.915-3.873-4.124
		C380.944,147.669,382.791,145.934,384.999,146.002z"/>
	<path fill-rule="evenodd" clip-rule="evenodd" fill="none" stroke="#231F20" stroke-width="2" stroke-miterlimit="10" d="
		M407.004,146.002c2.209,0.068,3.943,1.915,3.874,4.124c-0.069,2.21-1.915,3.945-4.124,3.876c-2.209-0.068-3.943-1.915-3.874-4.124
		S404.795,145.934,407.004,146.002z"/>
	<path fill-rule="evenodd" clip-rule="evenodd" fill="none" stroke="#231F20" stroke-width="2" stroke-miterlimit="10" d="
		M402.003,126.002c2.208,0.069,3.942,1.915,3.874,4.125c-0.069,2.209-1.916,3.944-4.125,3.876c-2.208-0.069-3.942-1.916-3.873-4.125
		C397.948,127.668,399.795,125.933,402.003,126.002z"/>
	
		<path fill-rule="evenodd" clip-rule="evenodd" fill="none" stroke="#231F20" stroke-width="2" stroke-miterlimit="10" stroke-dasharray="8" d="
		M404.131,126.506c12.422-6.936,28.157-7.012,41.007,1.154"/>
	
		<path fill-rule="evenodd" clip-rule="evenodd" fill="none" stroke="#231F20" stroke-width="2" stroke-miterlimit="10" stroke-dasharray="8" d="
		M406.879,169h47.012"/>
	<path fill-rule="evenodd" clip-rule="evenodd" fill="none" stroke="#231F20" stroke-width="2" stroke-miterlimit="10" d="
		M446.097,124.077l3.763,7.131l-7.747,1.001"/>
	<path fill-rule="evenodd" clip-rule="evenodd" fill="none" stroke="#231F20" stroke-width="2" stroke-miterlimit="10" d="
		M452.023,139.332l6.354,3.686l-5.275,4.718"/>
	<path fill-rule="evenodd" clip-rule="evenodd" fill="none" stroke="#231F20" stroke-width="2" stroke-miterlimit="10" d="
		M453.399,165.776l5.924,4.328l-5.789,4.119"/>
	
		<path fill-rule="evenodd" clip-rule="evenodd" fill="none" stroke="#231F20" stroke-width="2" stroke-miterlimit="10" stroke-dasharray="8" d="
		M410.511,150.753c0,0,13.072,9.706,27.276-1.172c6.775-5.189,12.365-6.906,16.358-7.283"/>
	<path fill-rule="evenodd" clip-rule="evenodd" fill="none" stroke="#231F20" stroke-width="2" stroke-miterlimit="10" d="
		M402.003,166.002c2.208,0.068,3.942,1.915,3.874,4.124c-0.069,2.21-1.916,3.945-4.125,3.876c-2.208-0.068-3.942-1.915-3.873-4.124
		C397.948,167.669,399.795,165.934,402.003,166.002z"/>
	<path fill-rule="evenodd" clip-rule="evenodd" fill="none" stroke="#231F20" stroke-width="2" stroke-miterlimit="10" d="
		M265.969,265.152c2.208,0.068,3.943,1.915,3.874,4.125c-0.069,2.209-1.916,3.944-4.125,3.875c-2.208-0.068-3.943-1.915-3.874-4.124
		C261.914,266.819,263.76,265.084,265.969,265.152z"/>
	<g>
		<path fill="#231F20" d="M350.598,71.038l-1.232-9.671l5.372,5.839l1.849-1.711l-8.016-8.713l-1.9,1.759l1.156,9.354l-5.179-5.63
			l-1.849,1.711l8.016,8.713L350.598,71.038z"/>
		<path fill="#231F20" d="M360.444,62.52l-5.775-7.687l4.664-3.525L358,49.535l-6.67,5.042l7.105,9.459L360.444,62.52z"/>
		<path fill="#231F20" d="M368.678,56.691l-2.209-3.578l2.559-1.588c2.166-1.345,2.447-3.587,1.366-5.338
			c-1.09-1.766-3.191-2.507-5.373-1.153l-4.693,2.914l6.214,10.068L368.678,56.691z M367.577,49.816l-2.271,1.411l-1.677-2.717
			l2.271-1.41c0.843-0.523,1.791-0.402,2.313,0.443C368.725,48.372,368.419,49.293,367.577,49.816z"/>
		<path fill="#231F20" d="M370.932,41.468l5.022,10.718l4.997-2.354c2.322-1.094,2.85-3.265,1.969-5.146
			c-0.873-1.864-2.9-2.851-5.206-1.764l-2.724,1.283l-1.783-3.808L370.932,41.468z M378.351,45.073
			c0.896-0.422,1.833-0.177,2.247,0.707c0.422,0.9,0.005,1.763-0.893,2.186l-2.418,1.14l-1.355-2.893L378.351,45.073z
			 M387.726,46.639l-5.022-10.718L380.415,37l5.021,10.718L387.726,46.639z"/>
		<path fill="#231F20" d="M399.668,42.978c3.443-0.969,5.261-4.137,4.299-7.575s-4.157-5.197-7.602-4.228
			c-3.428,0.964-5.244,4.132-4.282,7.57C393.045,42.183,396.241,43.941,399.668,42.978z M399.065,40.822
			c-2.098,0.59-3.898-0.657-4.492-2.778c-0.598-2.138,0.299-4.125,2.396-4.714c2.097-0.59,3.91,0.635,4.509,2.773
			C402.071,38.224,401.163,40.232,399.065,40.822z"/>
		<path fill="#231F20" d="M412.506,39.935l-1.615-9.494l3.388-0.579l-0.372-2.189l-9.289,1.586l0.373,2.189l3.404-0.582l1.614,9.494
			L412.506,39.935z"/>
		<path fill="#231F20" d="M423.23,38.951c2.597-0.187,3.978-1.729,4.721-3.26l-2.23-0.891c-0.425,1.01-1.432,1.831-2.65,1.918
			c-2.138,0.153-3.811-1.383-3.971-3.617c-0.16-2.233,1.276-3.993,3.414-4.146c1.219-0.088,2.334,0.598,2.897,1.52l2.078-1.218
			c-0.936-1.412-2.539-2.722-5.136-2.535c-3.533,0.254-6.094,2.932-5.833,6.565C416.78,36.92,419.696,39.204,423.23,38.951z"/>
		<path fill="#231F20" d="M431.231,38.725c2.105,0.035,3.148-0.996,3.896-2.422l5.018-9.487l-2.849-0.046l-3.037,6.235l-2.819-6.331
			l-2.849-0.046l4.216,8.661c-0.474,0.862-0.868,1.211-1.735,1.197c-0.565-0.009-1.11-0.32-1.511-0.664l-0.988,2.008
			C429.096,38.317,430.152,38.708,431.231,38.725z"/>
		<path fill="#231F20" d="M446.25,39.544l1.174-9.556l3.41,0.423l0.271-2.204l-9.351-1.16l-0.271,2.204l3.427,0.425l-1.173,9.556
			L446.25,39.544z"/>
		<path fill="#231F20" d="M456.803,41.704c2.539,0.573,4.305-0.504,5.456-1.756l-1.88-1.498c-0.696,0.844-1.896,1.339-3.088,1.07
			c-2.092-0.471-3.251-2.426-2.763-4.609c0.488-2.184,2.369-3.453,4.46-2.982c1.192,0.269,2.062,1.248,2.337,2.292l2.341-0.564
			c-0.49-1.622-1.649-3.339-4.189-3.912c-3.456-0.779-6.677,1.044-7.472,4.597C451.211,37.895,453.346,40.925,456.803,41.704z"/>
		<path fill="#231F20" d="M468.099,44.721l3.005-9.142l3.262,1.08l0.693-2.108l-8.946-2.961l-0.692,2.108l3.279,1.085l-3.005,9.141
			L468.099,44.721z"/>
		<path fill="#231F20" d="M478.733,48.985c2.058,0.912,3.716,0.093,4.431-1.533c0.601-1.365,0.17-2.896-0.901-3.584
			c1.113,0.241,2.356-0.296,2.957-1.661c0.637-1.446,0.163-3.229-1.896-4.141l-5.687-2.52l-4.77,10.84L478.733,48.985z
			 M480.913,42.183l-2.884-1.278l1.036-2.356l2.885,1.278c0.777,0.345,1.042,1.064,0.741,1.747
			C482.391,42.256,481.69,42.528,480.913,42.183z M479.013,46.721l-2.966-1.313l1.108-2.519l2.966,1.313
			c0.907,0.402,1.136,1.203,0.836,1.885C480.614,46.867,479.888,47.108,479.013,46.721z"/>
		<path fill="#231F20" d="M484.857,52.243c1.831,1.045,3.239,0.645,4.579-0.245l8.948-5.902l-2.478-1.414l-5.651,4.004l0.559-6.912
			l-2.477-1.415l-0.451,9.63c-0.828,0.528-1.342,0.643-2.096,0.212c-0.492-0.281-0.821-0.815-1.009-1.311l-1.828,1.285
			C483.179,50.856,483.918,51.708,484.857,52.243z"/>
		<path fill="#231F20" d="M501.817,63.387c2.854,2.16,6.451,1.681,8.593-1.167s1.612-6.45-1.241-8.61
			c-2.501-1.893-5.577-1.753-7.741,0.211l-1.555-1.176l2.792-3.713l-2.007-1.518l-7.106,9.451l2.007,1.519l2.983-3.968l1.512,1.145
			C498.548,58.269,499.216,61.419,501.817,63.387z M503.159,61.602c-1.752-1.326-1.855-3.517-0.535-5.274
			c1.332-1.771,3.45-2.258,5.202-0.932c1.738,1.315,1.867,3.502,0.535,5.274C507.04,62.426,504.897,62.917,503.159,61.602z"/>
		<path fill="#231F20" d="M511.826,72.016l6.683-6.909l2.466,2.4l1.542-1.593l-6.764-6.583l-1.541,1.594l2.479,2.413l-6.683,6.909
			L511.826,72.016z"/>
	</g>
	<path fill-rule="evenodd" clip-rule="evenodd" fill="none" stroke="#231F20" stroke-width="2" stroke-miterlimit="10" d="
		M319.365,100.998c4.144,0,7.503,3.355,7.503,7.494c0,4.139-3.359,7.494-7.503,7.494s-7.503-3.355-7.503-7.494
		C311.862,104.353,315.221,100.998,319.365,100.998z"/>
	<path fill-rule="evenodd" clip-rule="evenodd" fill="none" stroke="#231F20" stroke-width="2" stroke-miterlimit="10" d="
		M322.247,101.571l-2.889,1.852l-2.655-1.937"/>
	<path fill-rule="evenodd" clip-rule="evenodd" fill="none" stroke="#231F20" stroke-width="2" stroke-miterlimit="10" d="
		M325.051,103.422l-0.389,3.465l2.206,1.969"/>
	<path fill-rule="evenodd" clip-rule="evenodd" fill="none" stroke="#231F20" stroke-width="2" stroke-miterlimit="10" d="
		M325.766,112.402l-2.897,0.193l-0.622,2.817"/>
	<path fill-rule="evenodd" clip-rule="evenodd" fill="none" stroke="#231F20" stroke-width="2" stroke-miterlimit="10" d="
		M317.258,115.685l-0.952-2.923L313.373,113"/>
	<path fill-rule="evenodd" clip-rule="evenodd" fill="none" stroke="#231F20" stroke-width="2" stroke-miterlimit="10" d="
		M311.873,108.856l2.393-1.844l-0.709-3.027"/>
	<path fill-rule="evenodd" clip-rule="evenodd" fill="none" stroke="#231F20" stroke-width="2" stroke-miterlimit="10" d="
		M319.358,105.267l-3.512,2.493l1.379,3.505h4.265l1.379-3.629L319.358,105.267z"/>
	<path fill-rule="evenodd" clip-rule="evenodd" fill="none" stroke="#231F20" stroke-width="2" stroke-miterlimit="10" d="
		M546.247,100.998c4.144,0,7.503,3.355,7.503,7.494c0,4.139-3.359,7.494-7.503,7.494s-7.503-3.355-7.503-7.494
		C538.744,104.353,542.103,100.998,546.247,100.998z"/>
	<path fill-rule="evenodd" clip-rule="evenodd" fill="none" stroke="#231F20" stroke-width="2" stroke-miterlimit="10" d="
		M549.128,101.571l-2.889,1.852l-2.655-1.937"/>
	<path fill-rule="evenodd" clip-rule="evenodd" fill="none" stroke="#231F20" stroke-width="2" stroke-miterlimit="10" d="
		M551.933,103.422l-0.389,3.465l2.206,1.969"/>
	<path fill-rule="evenodd" clip-rule="evenodd" fill="none" stroke="#231F20" stroke-width="2" stroke-miterlimit="10" d="
		M552.648,112.402l-2.897,0.193l-0.622,2.817"/>
	<path fill-rule="evenodd" clip-rule="evenodd" fill="none" stroke="#231F20" stroke-width="2" stroke-miterlimit="10" d="
		M544.14,115.685l-0.952-2.923L540.254,113"/>
	<path fill-rule="evenodd" clip-rule="evenodd" fill="none" stroke="#231F20" stroke-width="2" stroke-miterlimit="10" d="
		M538.754,108.856l2.393-1.844l-0.709-3.027"/>
	<path fill-rule="evenodd" clip-rule="evenodd" fill="none" stroke="#231F20" stroke-width="2" stroke-miterlimit="10" d="
		M546.24,105.267l-3.512,2.493l1.379,3.505h4.265l1.379-3.629L546.24,105.267z"/>
	<path fill-rule="evenodd" clip-rule="evenodd" fill="none" stroke="#231F20" stroke-width="2" stroke-miterlimit="10" d="
		M456.797,212.426l10.904-6.336"/>
	<path fill-rule="evenodd" clip-rule="evenodd" fill="none" stroke="#231F20" stroke-width="2" stroke-miterlimit="10" d="
		M395.508,206.09l10.904,6.336"/>
	<path fill-rule="evenodd" clip-rule="evenodd" fill="none" stroke="#231F20" stroke-width="2" stroke-miterlimit="10" d="
		M395.375,97.007l10.966-6.073"/>
	<path fill-rule="evenodd" clip-rule="evenodd" fill="none" stroke="#231F20" stroke-width="2" stroke-miterlimit="10" d="
		M467.391,97.212l-11-6.155"/>
	<path fill-rule="evenodd" clip-rule="evenodd" fill="none" stroke="#231F20" stroke-width="2" stroke-miterlimit="10" d="
		M579.938,151.091h118.017"/>
	<path fill-rule="evenodd" clip-rule="evenodd" fill="none" stroke="#231F20" stroke-width="2" stroke-miterlimit="10" d="
		M578.934,129.082h53.002"/>
	<path fill-rule="evenodd" clip-rule="evenodd" fill="none" stroke="#231F20" stroke-width="2" stroke-miterlimit="10" d="
		M573.922,108.064h18.001"/>
	<path fill-rule="evenodd" clip-rule="evenodd" fill="none" stroke="#231F20" stroke-width="2" stroke-miterlimit="10" d="
		M573.921,193.109h19.02"/>
	<path fill-rule="evenodd" clip-rule="evenodd" fill="none" stroke="#231F20" stroke-width="2" stroke-miterlimit="10" d="
		M578.924,171.102h53.002"/>
	<path fill-rule="evenodd" clip-rule="evenodd" fill="none" stroke="#231F20" stroke-width="2" stroke-miterlimit="10" d="
		M282.854,153.092H164.818"/>
	<path fill-rule="evenodd" clip-rule="evenodd" fill="none" stroke="#231F20" stroke-width="2" stroke-miterlimit="10" d="
		M283.842,132.092h-53.005"/>
	<path fill-rule="evenodd" clip-rule="evenodd" fill="none" stroke="#231F20" stroke-width="2" stroke-miterlimit="10" d="
		M288.854,110.065h-19.018"/>
	<path fill-rule="evenodd" clip-rule="evenodd" fill="none" stroke="#231F20" stroke-width="2" stroke-miterlimit="10" d="
		M288.854,196.116h-19.018"/>
	<path fill-rule="evenodd" clip-rule="evenodd" fill="none" stroke="#231F20" stroke-width="2" stroke-miterlimit="10" d="
		M283.842,174.107h-53.005"/>
	<path fill="none" stroke="#231F20" stroke-width="2" stroke-miterlimit="10" d="M432,218.052l-4.424,1.946l0.741-4.559
		l-3.417-3.483l4.823-0.744l2.182-4.227l2.371,4.227l4.635,0.744l-3.229,3.483l0.553,4.559L432,218.052z"/>
	<path fill-rule="evenodd" clip-rule="evenodd" fill="none" stroke="#231F20" stroke-width="2" stroke-miterlimit="10" d="
		M439.896,94.006h-17.011v-10.27l4.254,3.586l4.253-4.325l4.252,4.325l4.252-3.586V94.006z"/>
</g>
</svg>
