<?xml version="1.0" encoding="utf-8"?>
<!-- Generator: Adobe Illustrator 19.0.0, SVG Export Plug-In . SVG Version: 6.00 Build 0)  -->
<svg version="1.1" id="Layer_1" xmlns="http://www.w3.org/2000/svg" xmlns:xlink="http://www.w3.org/1999/xlink" x="0px" y="0px"
	 viewBox="-319 99.8 860 302.2" style="enable-background:new -319 99.8 860 302.2;" xml:space="preserve">
<style type="text/css">
	.st0{fill:none;stroke:#231F20;stroke-width:2;stroke-miterlimit:10;}
	.st1{fill:none;stroke:#231F20;stroke-width:2;stroke-miterlimit:10;stroke-dasharray:11.9881,11.9881;}
	.st2{fill:none;stroke:#231F20;stroke-width:2;stroke-linecap:round;stroke-linejoin:round;stroke-dasharray:0,7.0208;}
	.st3{fill:none;stroke:#231F20;stroke-width:2;stroke-miterlimit:10;stroke-dasharray:8;}
	.st4{fill:#231F20;}
</style>
<path class="st0" d="M170.9,209.8v83h-119v-83C51.9,209.8,170.9,209.8,170.9,209.8z"/>
<path class="st0" d="M112.9,209.9v82.9"/>
<g>
	<g>
		
			<ellipse transform="matrix(-0.9995 -3.120041e-02 3.120041e-02 -0.9995 216.9209 507.2511)" class="st1" cx="112.4" cy="251.9" rx="148.6" ry="149.1"/>
	</g>
</g>
<path class="st0" d="M112.4,155.9c53.3,0,96.5,43.2,96.5,96.6S165.7,349,112.4,349s-96.5-43.2-96.5-96.6
	C15.9,199.1,59.1,155.9,112.4,155.9z"/>
<g>
	<g>
		<ellipse class="st2" cx="112.9" cy="251.9" rx="86" ry="86"/>
	</g>
</g>
<path class="st0" d="M253.6,128.9c3,0.1,5.4,2.6,5.3,5.7c-0.1,3-2.6,5.4-5.7,5.3c-3-0.1-5.4-2.6-5.3-5.7
	C248,131.1,250.6,128.8,253.6,128.9z"/>
<path class="st0" d="M299.5,345c1.9,0.1,3.5,1.7,3.4,3.6c-0.1,1.9-1.7,3.5-3.6,3.4c-1.9-0.1-3.5-1.7-3.4-3.6S297.6,344.9,299.5,345z
	"/>
<path class="st0" d="M-115.6,301.9c1.9,0.1,3.4,1.7,3.4,3.6s-1.7,3.5-3.6,3.4c-1.9-0.1-3.4-1.7-3.4-3.6
	C-119.1,303.3-117.5,301.8-115.6,301.9z"/>
<path class="st0" d="M536.6,226.9c1.9,0.1,3.5,1.7,3.4,3.6s-1.7,3.5-3.6,3.4s-3.5-1.7-3.4-3.6C533.1,228.3,534.7,226.8,536.6,226.9z
	"/>
<path class="st0" d="M-16.8,133.5l-6.6,6.6"/>
<path class="st0" d="M-23.4,133.6l6.6,6.6"/>
<path class="st0" d="M103.2,236.5l-6.6,6.6"/>
<path class="st0" d="M96.6,236.6l6.6,6.6"/>
<path class="st0" d="M156.2,219.5l-6.6,6.6"/>
<path class="st0" d="M149.6,219.6l6.6,6.6"/>
<path class="st0" d="M156.2,247.5l-6.6,6.6"/>
<path class="st0" d="M149.6,247.6l6.6,6.6"/>
<path class="st0" d="M156.2,273.5l-6.6,6.6"/>
<path class="st0" d="M149.6,273.6l6.6,6.6"/>
<path class="st0" d="M-313.2,244.2v11.6"/>
<path class="st0" d="M-319,250h11.6"/>
<path class="st0" d="M347.9,109.1v11.6"/>
<path class="st0" d="M342.2,114.9h11.6"/>
<path class="st0" d="M423.5,255.4l6,6"/>
<path class="st0" d="M423.5,261.4l5.9-5.9"/>
<path class="st0" d="M-231.7,312.5l6,6"/>
<path class="st0" d="M-231.7,318.4l5.9-5.9"/>
<path class="st0" d="M-169.2,200.1v11.6"/>
<path class="st0" d="M-175,205.9h11.6"/>
<path class="st0" d="M513,359.2v11.6"/>
<path class="st0" d="M507.2,365h11.6"/>
<path class="st0" d="M376.7,191.8c4.1,0.1,7.4,3.6,7.3,7.7c-0.1,4.1-3.6,7.4-7.7,7.3s-7.4-3.6-7.3-7.7
	C369.1,195,372.5,191.7,376.7,191.8z"/>
<path class="st0" d="M-173.1,100.8c2.2,0.1,3.9,1.9,3.9,4.1c-0.1,2.2-1.9,3.9-4.1,3.9s-3.9-1.9-3.9-4.1
	C-177.1,102.5-175.3,100.8-173.1,100.8z"/>
<path class="st0" d="M66,245.8c2.2,0.1,3.9,1.9,3.9,4.1c-0.1,2.2-1.9,3.9-4.1,3.9c-2.2-0.1-3.9-1.9-3.9-4.1
	C61.9,247.5,63.8,245.8,66,245.8z"/>
<path class="st0" d="M88,245.8c2.2,0.1,3.9,1.9,3.9,4.1c-0.1,2.2-1.9,3.9-4.1,3.9c-2.2-0.1-3.9-1.9-3.9-4.1S85.8,245.8,88,245.8z"/>
<path class="st0" d="M83,225.8c2.2,0.1,3.9,1.9,3.9,4.1c-0.1,2.2-1.9,3.9-4.1,3.9c-2.2-0.1-3.9-1.9-3.9-4.1
	C78.9,227.5,80.8,225.8,83,225.8z"/>
<path class="st3" d="M85.1,226.3c12.4-6.9,28.2-7,41,1.2"/>
<path class="st3" d="M87.9,268.8h47"/>
<path class="st0" d="M127.1,223.9l3.8,7.1l-7.7,1"/>
<path class="st0" d="M133,239.2l6.4,3.7l-5.3,4.7"/>
<path class="st0" d="M134.4,265.6l5.9,4.3l-5.8,4.1"/>
<path class="st3" d="M91.5,250.6c0,0,13.1,9.7,27.3-1.2c6.8-5.2,12.4-6.9,16.4-7.3"/>
<path class="st0" d="M83,265.8c2.2,0.1,3.9,1.9,3.9,4.1c-0.1,2.2-1.9,3.9-4.1,3.9c-2.2-0.1-3.9-1.9-3.9-4.1
	C78.9,267.5,80.8,265.8,83,265.8z"/>
<path class="st0" d="M-53,365c2.2,0.1,3.9,1.9,3.9,4.1c-0.1,2.2-1.9,3.9-4.1,3.9c-2.2-0.1-3.9-1.9-3.9-4.1
	C-57.1,366.6-55.2,364.9-53,365z"/>
<path class="st0" d="M0.4,200.8c4.1,0,7.5,3.4,7.5,7.5s-3.4,7.5-7.5,7.5s-7.5-3.4-7.5-7.5S-3.8,200.8,0.4,200.8z"/>
<path class="st0" d="M3.2,201.4l-2.9,1.9l-2.7-1.9"/>
<path class="st0" d="M6.1,203.3l-0.4,3.5l2.2,2"/>
<path class="st0" d="M6.8,212.2l-2.9,0.2l-0.6,2.8"/>
<path class="st0" d="M-1.7,215.5l-1-2.9l-2.9,0.2"/>
<path class="st0" d="M-7.1,208.7l2.4-1.8l-0.7-3"/>
<path class="st0" d="M0.4,205.1l-3.5,2.5l1.4,3.5h4.3l1.4-3.6L0.4,205.1z"/>
<path class="st0" d="M227.2,200.8c4.1,0,7.5,3.4,7.5,7.5s-3.4,7.5-7.5,7.5s-7.5-3.4-7.5-7.5S223.1,200.8,227.2,200.8z"/>
<path class="st0" d="M230.1,201.4l-2.9,1.9l-2.7-1.9"/>
<path class="st0" d="M232.9,203.3l-0.4,3.5l2.2,2"/>
<path class="st0" d="M233.6,212.2l-2.9,0.2l-0.6,2.8"/>
<path class="st0" d="M225.1,215.5l-1-2.9l-2.9,0.2"/>
<path class="st0" d="M219.8,208.7l2.4-1.8l-0.7-3"/>
<path class="st0" d="M227.2,205.1l-3.5,2.5l1.4,3.5h4.3l1.4-3.6L227.2,205.1z"/>
<path class="st0" d="M137.8,312.3l10.9-6.3"/>
<path class="st0" d="M76.5,305.9l10.9,6.3"/>
<path class="st0" d="M76.4,196.8l11-6.1"/>
<path class="st0" d="M148.4,197l-11-6.2"/>
<path class="st0" d="M260.9,250.9h118"/>
<path class="st0" d="M259.9,228.9h53"/>
<path class="st0" d="M254.9,207.9h18"/>
<path class="st0" d="M254.9,292.9h19"/>
<path class="st0" d="M259.9,270.9h53"/>
<path class="st0" d="M-36.1,252.9h-118"/>
<path class="st0" d="M-35.2,231.9h-53"/>
<path class="st0" d="M-30.1,209.9h-19"/>
<path class="st0" d="M-30.1,295.9h-19"/>
<path class="st0" d="M-35.2,273.9h-53"/>
<path class="st0" d="M113,317.9l-4.4,1.9l0.7-4.6l-3.4-3.5l4.8-0.7l2.2-4.2l2.4,4.2l4.6,0.7l-3.2,3.5l0.6,4.6L113,317.9z"/>
<path class="st0" d="M120.9,193.8h-17v-10.3l4.3,3.6l4.3-4.3l4.3,4.3l4.3-3.6L120.9,193.8L120.9,193.8z"/>
<g>
	<g>
		<path class="st4" d="M28.7,161.3l-1.5-1.6l-6.7,6.6l1.5,1.6l2.5-2.4l6.7,6.9l1.8-1.8l-6.7-6.9L28.7,161.3z M35.5,152.8l2.9,3.6
			l-4.4,3.5l-2.9-3.6l-2,1.6l7.4,9.3l2-1.6l-3.1-3.9l4.4-3.5l3.1,3.9l2-1.6l-7.4-9.3L35.5,152.8z M47.7,155.9l-1.4-2.3l4.8-3.1
			l-1.2-1.9l-4.8,3.1l-1.4-2.1l4.9-3.2l-1.2-1.9l-7,4.5l6.4,10l7-4.5l-1.2-1.9L47.7,155.9z M60.7,144.6c0.2-0.8,0-1.6-0.4-2.4
			c-0.5-1-1.3-1.6-2.2-1.9c-1-0.3-2-0.2-3.1,0.4l-4.9,2.5l5.4,10.5l2.2-1.2l-1.9-3.7l1.6-0.8l4,2.7l2.6-1.3l-4.4-2.8
			C60.1,146,60.5,145.3,60.7,144.6z M58.1,144.6c-0.2,0.4-0.5,0.7-0.9,1l-2.3,1.2l-1.5-2.8l2.3-1.2c0.5-0.2,0.9-0.3,1.3-0.2
			c0.4,0.1,0.8,0.4,1,0.8C58.2,143.8,58.2,144.2,58.1,144.6z M67.2,145.5l-1-2.5l5.3-2.1l-0.8-2.1l-5.3,2.1l-0.9-2.3l5.4-2.2
			l-0.8-2.1l-7.7,3.1l4.4,11l7.7-3.1l-0.8-2.1L67.2,145.5z M80,131l-1.6,12.6l2.8-0.7l0.2-2.1l4.9-1.2l1.2,1.8l2.8-0.7L83,130.2
			L80,131z M81.6,138.5l0.5-5.4l3,4.5L81.6,138.5z M99.2,133.6c0.4-0.7,0.5-1.5,0.4-2.4c-0.2-1.1-0.6-2-1.5-2.6
			c-0.8-0.6-1.8-0.8-3-0.6l-5.5,0.8l1.7,11.7l2.5-0.4l-0.6-4.2l1.8-0.3l2.9,3.8l2.9-0.4l-3.3-4.1C98.3,134.8,98.8,134.3,99.2,133.6z
			 M96.8,132.8c-0.3,0.3-0.7,0.5-1.2,0.6l-2.6,0.4l-0.5-3.2l2.6-0.4c0.5-0.1,1,0,1.3,0.2c0.4,0.2,0.6,0.6,0.7,1.1
			C97.2,132,97.1,132.4,96.8,132.8z M105.1,136.7l-0.1-2.7l5.7-0.3l-0.1-2.2l-5.7,0.3l-0.1-2.5l5.8-0.3l-0.1-2.2l-8.3,0.4l0.6,11.8
			l8.3-0.4l-0.1-2.2L105.1,136.7z M126,135l-4.8-7.9l-2.6-0.2l-1.1,11.8l2.5,0.2l0.7-7.7l4.9,8.2l2.4,0.2l1.1-11.8l-2.5-0.2L126,135
			z M138.3,129.3c-1.7-0.4-3.3-0.1-4.7,0.8c-1.4,0.9-2.2,2.2-2.6,3.9c-0.4,1.7-0.1,3.3,0.8,4.7c0.9,1.4,2.2,2.2,4,2.6
			c1.8,0.4,3.3,0.1,4.7-0.8c1.4-0.9,2.2-2.2,2.6-4c0.4-1.7,0.1-3.3-0.8-4.7C141.4,130.5,140.1,129.6,138.3,129.3z M140.6,136
			c-0.2,1.1-0.7,1.9-1.5,2.5c-0.8,0.6-1.7,0.8-2.8,0.5c-1.1-0.2-1.8-0.8-2.3-1.6c-0.5-0.9-0.6-1.8-0.4-2.9c0.2-1.1,0.7-1.9,1.5-2.5
			c0.8-0.6,1.7-0.8,2.8-0.6c1.1,0.2,1.8,0.8,2.3,1.6C140.7,133.9,140.8,134.9,140.6,136z M160.3,141.8l-5.3-2l-0.8,2.1l2.9,1.1
			l-0.5,1.3c-0.3,0.1-0.7,0.2-1.2,0.2c-0.5,0-1-0.1-1.4-0.3c-1-0.4-1.7-1-2.1-2c-0.4-0.9-0.4-1.9,0-3c0.4-1.1,1-1.8,2-2.2
			c0.9-0.4,1.9-0.5,2.9-0.1c0.6,0.2,1,0.5,1.4,1c0.4,0.4,0.6,0.9,0.7,1.4l2.4-0.3c-0.4-2-1.6-3.4-3.6-4.2c-1.7-0.6-3.2-0.6-4.8,0
			c-1.5,0.6-2.6,1.8-3.3,3.5c-0.6,1.7-0.6,3.3,0.1,4.8c0.7,1.5,1.9,2.5,3.6,3.2c1.9,0.7,3.7,0.6,5.5-0.3L160.3,141.8z M168.1,139.7
			l-9.4,8.5l2.6,1.3l1.6-1.5l4.5,2.3l-0.3,2.1l2.6,1.3l1.3-12.6L168.1,139.7z M167.8,148l-3.3-1.7l3.9-3.7L167.8,148z M184.9,149.6
			l-6.3,4.4l1.6-7.6l-2.9-2l-6.5,9.9l2.1,1.4l4.6-6.9l-1.8,8.8l0.9,0.6l7.3-5.1l-4.6,6.9l2.1,1.4l6.5-9.9L184.9,149.6z M188.2,160.8
			l4.4,3.7l1.4-1.7l-4.4-3.7l1.6-1.9l4.5,3.8l1.4-1.7l-6.4-5.4l-7.6,9.1l6.4,5.4l1.4-1.7l-4.5-3.8L188.2,160.8z M199.5,164.8
			c0.4,0.1,0.7,0.3,1.1,0.7c1,1,1.5,2.1,1.5,3.4l2.3-0.3c-0.1-1.6-0.8-3.1-2.1-4.4c-1-1-2-1.5-3-1.6c-1.1-0.1-2,0.2-2.7,0.9
			c-0.5,0.5-0.8,1-0.9,1.6c-0.1,0.6-0.1,1.1,0.1,1.6c0.2,0.5,0.4,1,0.7,1.6c0.3,0.5,0.6,1,0.9,1.5c0.3,0.4,0.5,0.8,0.6,1.2
			c0.1,0.4,0,0.7-0.2,0.9c-0.3,0.3-0.6,0.4-1,0.3c-0.4-0.1-0.9-0.3-1.3-0.8c-1.1-1.1-1.6-2.3-1.5-3.8l-2.3,0.4
			c0,1.8,0.7,3.4,2.2,4.9c1.1,1.1,2.2,1.7,3.2,1.8c1.1,0.1,2-0.3,2.8-1.1c0.5-0.5,0.8-1,0.9-1.6c0.1-0.6,0.1-1.1-0.1-1.7
			c-0.2-0.5-0.4-1.1-0.7-1.6c-0.3-0.5-0.6-1-0.9-1.5c-0.3-0.4-0.5-0.8-0.6-1.2c-0.1-0.4,0-0.7,0.2-0.9
			C198.8,164.8,199.2,164.7,199.5,164.8z"/>
	</g>
</g>
<g>
	<g>
		<path class="st4" d="M-4.1,295.2c0.5-0.2,1-0.5,1.3-1c0.3-0.5,0.4-1,0.3-1.5c0.2,0.4,0.6,0.7,1.1,0.9c0.5,0.2,1,0.2,1.5,0
			c0.7-0.2,1.1-0.7,1.4-1.2c0.3-0.6,0.3-1.3,0-2l-1.4-4l-8.9,3.1l1.4,4.1c0.3,0.8,0.7,1.4,1.3,1.7C-5.5,295.4-4.8,295.4-4.1,295.2z
			 M-0.5,287.7l0.9,2.7c0.2,0.5,0.2,0.9,0,1.3c-0.2,0.4-0.5,0.6-0.9,0.8c-0.4,0.1-0.8,0.1-1.2,0c-0.4-0.2-0.6-0.5-0.8-1l-0.9-2.7
			L-0.5,287.7z M-6.5,292.8l-1-2.7l3.1-1.1l1,2.7c0.2,0.5,0.2,1,0,1.4c-0.2,0.4-0.5,0.7-0.9,0.8c-0.5,0.2-0.9,0.1-1.3,0
			C-6,293.7-6.3,293.4-6.5,292.8z M0.6,298.5c0.4,0.3,0.6,0.5,0.7,0.8c0.1,0.1,0.1,0.3,0.1,0.4l1-0.4c-0.3-0.8-1-1.4-2-1.6l1-0.4
			l-0.4-1l-6.3,2.7l0.4,1l4.5-1.9C-0.1,298.1,0.3,298.2,0.6,298.5z M5,306.7c0.3-0.9,0.3-1.7-0.2-2.7c-0.5-0.9-1.1-1.5-2-1.7
			c-0.9-0.2-1.8-0.1-2.7,0.3c-0.9,0.5-1.5,1.1-1.9,2c-0.3,0.9-0.3,1.7,0.2,2.7c0.5,0.9,1.1,1.5,2,1.7c0.9,0.2,1.8,0.1,2.7-0.3
			C4,308.2,4.6,307.6,5,306.7z M0.6,308c-0.6-0.1-1.1-0.5-1.4-1.1c-0.3-0.6-0.3-1.2-0.1-1.8c0.3-0.6,0.7-1.1,1.4-1.4
			c0.6-0.3,1.3-0.4,1.9-0.3c0.6,0.1,1.1,0.5,1.4,1.1c0.3,0.6,0.3,1.2,0.1,1.8c-0.3,0.6-0.7,1-1.4,1.4C1.9,308,1.3,308.1,0.6,308z
			 M11.6,316.3l-5.5,1.4l3.7-4.4l-0.5-0.8l-5.6,1.3l3.8-4.3l-0.6-0.9l-4.7,5.4l0.6,0.9l5.6-1.3l-3.8,4.4l0.6,0.9l7-1.7L11.6,316.3z
			 M13.2,320.4c0.3,0.1,0.6,0.3,0.9,0.7c0.5,0.7,0.7,1.4,0.5,2.2l0.9,0c0.1-0.9-0.1-1.8-0.7-2.6c-0.5-0.6-1-1-1.5-1.2
			c-0.6-0.1-1.1-0.1-1.5,0.3c-0.4,0.3-0.6,0.6-0.7,1c-0.1,0.4,0,0.8,0.1,1.2c0.1,0.4,0.3,0.8,0.5,1.2c0.2,0.4,0.3,0.7,0.3,1.1
			c0,0.3-0.1,0.6-0.3,0.8c-0.3,0.2-0.6,0.3-0.9,0.2c-0.3-0.1-0.7-0.4-1-0.8c-0.3-0.4-0.4-0.8-0.5-1.2c-0.1-0.4-0.1-0.8,0-1.2l-0.9,0
			c-0.2,1,0.1,1.9,0.7,2.9c0.5,0.7,1,1.1,1.6,1.3c0.6,0.2,1.1,0.1,1.6-0.3c0.4-0.3,0.6-0.6,0.7-1.1c0.1-0.4,0-0.8-0.1-1.2
			c-0.1-0.4-0.3-0.8-0.5-1.2c-0.2-0.4-0.3-0.7-0.3-1.1c0-0.3,0-0.6,0.3-0.7C12.6,320.3,12.9,320.3,13.2,320.4z M17.6,326
			c-0.9,0-1.8,0.2-2.6,0.9c-0.8,0.7-1.3,1.5-1.4,2.4c-0.1,0.9,0.2,1.8,0.8,2.6c0.7,0.9,1.6,1.3,2.5,1.4l0.2-0.8
			c-0.8-0.1-1.5-0.4-2-1.1c-0.5-0.5-0.6-1.1-0.6-1.8c0.1-0.6,0.3-1.2,0.8-1.6l3.5,4.2l0.2-0.2c0.8-0.7,1.3-1.5,1.5-2.4
			c0.2-0.9-0.1-1.7-0.7-2.5C19.3,326.4,18.5,326.1,17.6,326z M19.8,329.5c-0.1,0.6-0.4,1.1-0.8,1.5l-2.9-3.4c0.5-0.4,1-0.5,1.6-0.5
			c0.6,0,1.1,0.3,1.6,0.8C19.7,328.3,19.9,328.9,19.8,329.5z M24,340.4c0-0.2,0.1-0.4,0.3-0.6l3-3l1,1l0.7-0.7l-1-1l1.3-1.3
			l-0.8-0.7l-1.3,1.3l-0.8-0.8l-0.7,0.7l0.8,0.8l-3.1,3.2c-0.4,0.4-0.6,0.7-0.6,1.1c0,0.4,0.2,0.7,0.5,1.1c0.4,0.4,0.8,0.6,1.2,0.6
			l0.3-0.8c-0.3,0-0.5-0.1-0.7-0.3C24.1,340.8,24,340.6,24,340.4z M30.6,339.9c-0.9,0.1-1.7,0.5-2.4,1.3c-0.7,0.8-1,1.6-1,2.5
			c0,0.9,0.4,1.7,1.2,2.4c0.8,0.7,1.6,1,2.5,0.8c0.9-0.1,1.7-0.5,2.4-1.3c0.7-0.8,1-1.6,1-2.5c0-0.9-0.4-1.7-1.2-2.4
			C32.4,340,31.5,339.8,30.6,339.9z M32.5,344.9c-0.5,0.6-1.1,0.9-1.7,1c-0.6,0.1-1.2-0.1-1.8-0.5c-0.5-0.5-0.8-1-0.7-1.7
			c0-0.7,0.3-1.3,0.8-1.8c0.5-0.5,1-0.9,1.7-1c0.6-0.1,1.2,0.1,1.8,0.5c0.5,0.5,0.8,1,0.7,1.7C33.2,343.7,33,344.3,32.5,344.9z
			 M43,345.5l-5.4,7.7l4.6,3.2l0.6-0.9l-3.6-2.5l4.8-6.9L43,345.5z M50.8,353.6c-0.9-0.5-1.8-0.6-2.6-0.4c-0.9,0.3-1.6,0.8-2.1,1.7
			c-0.5,0.9-0.7,1.8-0.5,2.7c0.2,0.9,0.7,1.6,1.6,2.1c0.9,0.5,1.8,0.6,2.6,0.4c0.9-0.3,1.6-0.8,2.1-1.7c0.5-0.9,0.7-1.8,0.5-2.7
			C52.2,354.8,51.7,354.1,50.8,353.6z M50.9,357.8c-0.4,0.6-0.9,1.1-1.5,1.3c-0.6,0.2-1.2,0.2-1.8-0.2c-0.6-0.4-0.9-0.9-1-1.5
			c-0.1-0.7,0.1-1.3,0.4-1.9c0.4-0.6,0.9-1.1,1.5-1.3c0.6-0.2,1.2-0.2,1.8,0.2c0.6,0.4,0.9,0.9,1,1.5
			C51.5,356.5,51.3,357.2,50.9,357.8z M59.1,358.1c-0.8-0.4-1.7-0.4-2.6,0l1.6-3.3l-1-0.5l-4.2,8.4l0.9,0.5l0.5-0.9
			c0.2,1,0.7,1.7,1.5,2.1c0.8,0.4,1.6,0.4,2.4,0.1c0.8-0.3,1.4-1,1.9-2c0.5-1,0.6-1.9,0.4-2.7C60.4,359.1,59.9,358.5,59.1,358.1z
			 M59.2,362.1c-0.3,0.7-0.8,1.2-1.4,1.4c-0.6,0.3-1.2,0.2-1.8-0.1c-0.4-0.2-0.7-0.4-0.9-0.8c-0.2-0.4-0.4-0.7-0.4-1.1l1.4-2.8
			c0.3-0.2,0.7-0.3,1.1-0.3c0.4,0,0.8,0.1,1.2,0.2c0.6,0.3,1,0.8,1.1,1.4C59.7,360.8,59.6,361.5,59.2,362.1z M67.3,361.8
			c-0.9-0.4-1.7-0.3-2.6,0.2l1.4-3.4l-1-0.4l-3.6,8.7l1,0.4l0.4-0.9c0.2,1,0.8,1.6,1.7,2c0.8,0.3,1.6,0.3,2.4-0.1
			c0.8-0.4,1.4-1.1,1.8-2.1c0.4-1,0.5-1.9,0.2-2.7C68.7,362.7,68.1,362.1,67.3,361.8z M67.7,365.8c-0.3,0.7-0.7,1.2-1.3,1.5
			c-0.6,0.3-1.1,0.3-1.8,0.1c-0.4-0.2-0.7-0.4-1-0.7c-0.3-0.3-0.4-0.7-0.5-1l1.2-2.9c0.3-0.2,0.7-0.4,1.1-0.4c0.4-0.1,0.8,0,1.2,0.2
			c0.6,0.3,1,0.7,1.2,1.3S68,365.1,67.7,365.8z M77,365.4l-3.9,4.6l-0.4-6l-1.1-0.4l0.6,7.4l-0.8,0.8c-0.2,0.2-0.4,0.4-0.6,0.4
			c-0.2,0-0.4,0-0.6,0c-0.2-0.1-0.4-0.2-0.5-0.3l-0.5,0.9c0.2,0.1,0.4,0.2,0.7,0.3c0.9,0.3,1.7,0.1,2.3-0.7l5.8-6.7L77,365.4z
			 M79.3,371.7c-0.2-0.1-0.4,0-0.6,0.1c-0.2,0.1-0.3,0.3-0.4,0.5c-0.1,0.2,0,0.4,0,0.5c0.1,0.2,0.2,0.3,0.4,0.3c0.1,0,0.2,0,0.2,0
			c-0.1,0.2-0.2,0.4-0.5,0.6c-0.2,0.2-0.5,0.3-0.8,0.4l0.4,0.6c0.4-0.1,0.7-0.4,1.1-0.7c0.3-0.3,0.5-0.7,0.6-1.1
			c0.1-0.3,0.1-0.6,0-0.8C79.7,371.9,79.6,371.8,79.3,371.7z M89.9,369.6c0.3-0.2,0.7-0.2,1.1-0.1c0.9,0.2,1.5,0.6,1.9,1.2l0.6-0.6
			c-0.5-0.8-1.3-1.2-2.3-1.4c-0.8-0.1-1.4-0.1-1.9,0.2c-0.5,0.3-0.8,0.7-0.9,1.3c-0.1,0.5,0,0.9,0.2,1.2c0.2,0.3,0.6,0.6,0.9,0.8
			c0.4,0.2,0.8,0.4,1.2,0.5c0.4,0.2,0.7,0.4,1,0.6c0.3,0.2,0.4,0.5,0.3,0.8c-0.1,0.3-0.3,0.6-0.6,0.8c-0.3,0.2-0.7,0.2-1.2,0.1
			c-0.4-0.1-0.8-0.2-1.2-0.5c-0.4-0.3-0.6-0.5-0.8-0.9l-0.7,0.7c0.5,0.8,1.4,1.3,2.5,1.5c0.8,0.1,1.5,0.1,2.1-0.2
			c0.5-0.3,0.9-0.7,1-1.3c0.1-0.5,0-0.9-0.2-1.3c-0.2-0.4-0.5-0.6-0.9-0.8c-0.4-0.2-0.8-0.4-1.2-0.5c-0.4-0.2-0.7-0.3-1-0.5
			c-0.3-0.2-0.4-0.4-0.3-0.7C89.4,370,89.6,369.8,89.9,369.6z M99.5,369.8c-1-0.1-1.8,0.2-2.5,0.8c-0.7,0.6-1.1,1.4-1.2,2.4
			c-0.1,1.1,0.1,2,0.7,2.7c0.6,0.7,1.4,1.2,2.4,1.3c1.1,0.1,2-0.1,2.8-0.7l-0.4-0.7c-0.6,0.5-1.3,0.7-2.2,0.6
			c-0.7-0.1-1.3-0.4-1.6-0.9c-0.4-0.5-0.6-1.1-0.6-1.8l5.5,0.6l0-0.3c0.1-1-0.1-2-0.6-2.7C101.2,370.4,100.5,369.9,99.5,369.8z
			 M101.4,373.2l-4.5-0.5c0.1-0.6,0.4-1.1,0.8-1.5c0.4-0.4,1-0.6,1.7-0.5c0.7,0.1,1.2,0.4,1.6,0.9
			C101.3,372.1,101.4,372.6,101.4,373.2z M105.1,377.3l1.1,0.1l0.5-9.4l-1.1-0.1L105.1,377.3z M116,374.2c0-1.1-0.3-1.9-0.9-2.6
			c-0.6-0.7-1.4-1-2.4-1c-1,0-1.8,0.3-2.4,1c-0.6,0.7-1,1.5-1,2.5c0,1.1,0.3,1.9,1,2.6c0.7,0.7,1.5,1,2.5,1c1.1,0,2-0.4,2.7-1.1
			l-0.5-0.7c-0.6,0.6-1.3,0.9-2.1,0.9c-0.7,0-1.3-0.2-1.7-0.7c-0.4-0.5-0.7-1-0.7-1.7l5.5,0L116,374.2z M110.5,373.7
			c0-0.6,0.2-1.1,0.6-1.6c0.4-0.5,0.9-0.7,1.6-0.7c0.7,0,1.3,0.2,1.7,0.7c0.4,0.5,0.6,1,0.6,1.6L110.5,373.7z M122.1,376.4
			c-0.7,0.1-1.3-0.2-1.8-0.6c-0.5-0.5-0.7-1.1-0.8-1.9c-0.1-0.8,0.1-1.4,0.5-1.9c0.4-0.5,0.9-0.8,1.7-0.9c0.7-0.1,1.3,0.2,1.8,0.8
			l0.7-0.7c-0.7-0.7-1.5-1.1-2.6-1c-1,0.1-1.8,0.5-2.4,1.2c-0.6,0.7-0.8,1.6-0.8,2.6c0.1,1,0.4,1.9,1.1,2.5c0.7,0.6,1.5,0.9,2.5,0.9
			c1.1-0.1,1.9-0.5,2.4-1.4l-0.8-0.6C123.4,376,122.8,376.3,122.1,376.4z M129.4,375.6c-0.2,0-0.4,0-0.5-0.2
			c-0.1-0.1-0.2-0.3-0.3-0.6l-0.5-4.2l1.4-0.2l-0.1-0.9l-1.4,0.2l-0.2-1.9l-1.1,0.1l0.2,1.9l-1.1,0.1l0.1,0.9l1.1-0.1l0.6,4.4
			c0.1,0.5,0.2,0.9,0.5,1.1c0.3,0.2,0.7,0.3,1.2,0.3c0.5-0.1,0.9-0.3,1.2-0.6l-0.4-0.7C129.9,375.5,129.7,375.6,129.4,375.6z
			 M139.8,373.8c-0.2,0-0.4,0-0.6-0.1c-0.1-0.1-0.2-0.3-0.3-0.6l-0.9-4.2l1.4-0.3l-0.2-0.9l-1.4,0.3l-0.4-1.8l-1,0.2l0.4,1.8
			l-1.1,0.2l0.2,0.9l1.1-0.2l0.9,4.4c0.1,0.5,0.3,0.9,0.6,1.1c0.3,0.2,0.7,0.3,1.2,0.2c0.5-0.1,0.9-0.3,1.2-0.7l-0.5-0.7
			C140.3,373.6,140.1,373.7,139.8,373.8z M145,366.1c-0.5,0.1-0.9,0.4-1.2,0.7c-0.4,0.3-0.6,0.7-0.8,1.1l-0.9-3.5l-1,0.3l2.5,9.1
			l1-0.3l-1.3-4.8c0.1-0.3,0.4-0.7,0.7-1c0.3-0.3,0.6-0.5,1-0.6c0.5-0.1,0.9-0.1,1.2,0c0.3,0.2,0.5,0.5,0.7,1.1l1.2,4.3l1-0.3
			l-1.3-4.7C147.3,366.2,146.4,365.7,145,366.1z M155.1,369.5c-0.7,0.2-1.3,0.2-1.9-0.1c-0.6-0.3-1-0.7-1.3-1.3l5.2-1.8l-0.1-0.3
			c-0.4-1-0.9-1.7-1.7-2.2c-0.8-0.5-1.7-0.5-2.6-0.2c-0.9,0.3-1.5,0.9-1.9,1.8c-0.4,0.9-0.4,1.8-0.1,2.7c0.4,1,0.9,1.7,1.8,2.1
			c0.8,0.4,1.7,0.4,2.7,0.1c1.1-0.4,1.8-1,2.2-1.9l-0.7-0.5C156.5,368.7,155.9,369.2,155.1,369.5z M151.8,365.7
			c0.2-0.6,0.6-1,1.3-1.2c0.7-0.2,1.3-0.2,1.8,0.1c0.5,0.3,0.9,0.7,1.1,1.3l-4.2,1.5C151.6,366.8,151.6,366.2,151.8,365.7z
			 M165.1,360.1c0.2-0.4,0.5-0.6,0.8-0.8c0.1-0.1,0.3-0.1,0.4-0.1l-0.5-1c-0.8,0.4-1.3,1.1-1.5,2.1l-0.5-1l-1,0.5l2.9,6.2l1-0.5
			l-2.1-4.4C164.7,360.8,164.8,360.5,165.1,360.1z M173.2,355.4c-0.9-0.3-1.8-0.2-2.6,0.3c-0.9,0.5-1.4,1.2-1.7,2.1
			c-0.2,0.9-0.1,1.8,0.4,2.7c0.5,0.9,1.2,1.5,2,1.8c0.9,0.3,1.8,0.2,2.7-0.3c0.9-0.5,1.4-1.2,1.7-2.1c0.2-0.9,0.1-1.8-0.4-2.7
			C174.7,356.3,174.1,355.7,173.2,355.4z M174.6,359.7c-0.1,0.6-0.5,1.1-1.1,1.5c-0.6,0.3-1.2,0.4-1.8,0.1c-0.6-0.3-1.1-0.7-1.4-1.3
			c-0.3-0.6-0.5-1.3-0.4-1.9c0.1-0.6,0.5-1.1,1.1-1.5c0.6-0.3,1.2-0.4,1.8-0.1c0.6,0.3,1.1,0.7,1.4,1.3
			C174.6,358.4,174.7,359.1,174.6,359.7z M180.9,350.6c-0.9-0.2-1.8-0.1-2.6,0.5c-0.9,0.6-1.4,1.3-1.5,2.2c-0.1,0.9,0.1,1.8,0.6,2.6
			c0.6,0.9,1.3,1.4,2.2,1.6c0.9,0.2,1.8,0.1,2.6-0.5c0.9-0.6,1.4-1.3,1.5-2.2c0.1-0.9-0.1-1.8-0.6-2.7
			C182.5,351.4,181.8,350.9,180.9,350.6z M182.6,354.8c-0.1,0.7-0.4,1.2-1,1.5c-0.6,0.4-1.2,0.5-1.8,0.3c-0.6-0.2-1.1-0.6-1.5-1.2
			c-0.4-0.6-0.6-1.2-0.5-1.9c0.1-0.7,0.4-1.2,1-1.6c0.6-0.4,1.2-0.5,1.8-0.3c0.6,0.2,1.1,0.6,1.5,1.2
			C182.5,353.5,182.7,354.1,182.6,354.8z M189,343.3c-0.4,0.3-0.6,0.7-0.8,1.1c-0.2,0.5-0.2,0.9-0.2,1.3c-0.3-0.2-0.7-0.3-1.1-0.3
			c-0.4,0-0.8,0.2-1.2,0.5c-0.4,0.3-0.6,0.6-0.8,1.1c-0.2,0.5-0.3,0.8-0.2,1.2l-0.6-0.8l-0.8,0.7l4.2,5.4l0.8-0.7l-3.1-3.9
			c0-0.4,0-0.7,0.2-1.1c0.1-0.4,0.3-0.7,0.6-0.9c0.7-0.5,1.3-0.4,1.9,0.3l2.9,3.7l0.8-0.7l-3.1-3.9c0-0.3,0-0.7,0.2-1.1
			c0.1-0.4,0.3-0.7,0.6-0.9c0.7-0.5,1.3-0.4,1.9,0.3l2.9,3.7l0.8-0.7l-3-3.9C190.9,342.7,190,342.5,189,343.3z M199.8,334
			c-0.6,0.1-1.2,0.4-1.7,1c-0.8,0.8-1.1,1.7-1.1,2.7l0.9,0.2c0-0.9,0.2-1.6,0.8-2.2c0.4-0.4,0.7-0.6,1.1-0.6c0.4,0,0.8,0.1,1.1,0.4
			l0.9,0.9c-0.8-0.1-1.6,0.3-2.3,0.9c-0.5,0.5-0.7,1-0.8,1.6c-0.1,0.6,0.2,1.2,0.7,1.7c0.5,0.5,1.1,0.7,1.7,0.7
			c0.6-0.1,1.2-0.3,1.6-0.8c0.7-0.7,1-1.4,0.9-2.3l0.6,0.5l0.7-0.8l-3.3-3.3C201,334.2,200.5,334,199.8,334z M203.2,337.8
			c0.1,0.7-0.1,1.3-0.7,1.9c-0.3,0.3-0.7,0.5-1.1,0.6c-0.4,0-0.8-0.1-1.1-0.4c-0.3-0.3-0.5-0.7-0.4-1.1c0-0.4,0.2-0.8,0.6-1.2
			c0.6-0.6,1.2-0.8,1.9-0.7L203.2,337.8z M204.3,328.2c-0.3,0.4-0.5,0.8-0.6,1.3c-0.1,0.5-0.1,0.9-0.1,1.3l-0.8-0.6l-0.7,0.8
			l5.2,4.5l0.7-0.8l-3.8-3.3c-0.1-0.3-0.1-0.7,0-1.1c0.1-0.4,0.3-0.8,0.5-1.1c0.3-0.4,0.7-0.6,1-0.6c0.4,0,0.8,0.1,1.2,0.5l3.4,2.9
			l0.7-0.8l-3.6-3.1C206.3,327.1,205.3,327.1,204.3,328.2z M208.6,318.8l2.9,2.2c-1,0-1.8,0.4-2.3,1.1c-0.5,0.7-0.7,1.5-0.5,2.4
			c0.2,0.8,0.7,1.6,1.6,2.2c0.9,0.7,1.7,0.9,2.6,0.9c0.9-0.1,1.6-0.5,2.1-1.2c0.6-0.8,0.7-1.6,0.4-2.6l0.8,0.6l0.6-0.9l-7.6-5.6
			L208.6,318.8z M214.7,323.3c0.1,0.3,0.2,0.7,0.1,1.1c-0.1,0.4-0.2,0.8-0.5,1.1c-0.4,0.5-0.9,0.8-1.5,0.8c-0.6,0-1.3-0.2-1.9-0.7
			c-0.6-0.5-1-1-1.2-1.6c-0.2-0.6,0-1.2,0.4-1.7c0.2-0.3,0.6-0.6,1-0.8c0.4-0.2,0.8-0.3,1.1-0.2L214.7,323.3z M223.4,313.5
			c0.5-0.8,0.5-1.6,0.3-2.4c-0.3-0.8-0.9-1.5-1.8-2c-0.9-0.5-1.8-0.7-2.7-0.6c-0.8,0.2-1.5,0.6-1.9,1.4c-0.2,0.4-0.4,0.8-0.4,1.3
			c0,0.5,0.1,0.9,0.3,1.3l-0.9-0.5l-0.5,0.9l8.2,4.7l0.5-0.9l-3.2-1.8C222.2,314.8,222.9,314.4,223.4,313.5z M217.8,313
			c-0.2-0.3-0.2-0.7-0.2-1.1c0-0.4,0.1-0.8,0.3-1.2c0.3-0.6,0.8-0.9,1.4-1c0.6-0.1,1.3,0,1.9,0.4c0.7,0.4,1.1,0.9,1.4,1.5
			c0.2,0.6,0.2,1.2-0.2,1.8c-0.2,0.4-0.5,0.6-0.9,0.9c-0.4,0.2-0.7,0.3-1.1,0.3L217.8,313z M217.8,303.8l8.4,4.3l0.5-0.9l-8.4-4.3
			L217.8,303.8z M224.2,297.1c-0.5,0.3-1,0.8-1.3,1.5c-0.4,1-0.5,2-0.1,3l0.9-0.2c-0.3-0.8-0.3-1.6,0-2.3c0.2-0.5,0.5-0.8,0.9-1
			c0.4-0.2,0.8-0.2,1.2,0l1.1,0.5c-0.8,0.2-1.4,0.8-1.8,1.7c-0.3,0.6-0.3,1.2-0.1,1.8c0.2,0.6,0.6,1,1.2,1.3c0.6,0.3,1.2,0.3,1.8,0
			c0.6-0.3,1-0.7,1.2-1.3c0.4-0.9,0.4-1.7,0-2.5l0.7,0.3l0.4-1l-4.3-1.9C225.4,296.9,224.8,296.8,224.2,297.1z M228.7,299.4
			c0.4,0.6,0.4,1.3,0,2.1c-0.2,0.4-0.5,0.8-0.9,0.9c-0.4,0.2-0.8,0.2-1.2,0c-0.4-0.2-0.7-0.5-0.8-0.9c-0.1-0.4-0.1-0.8,0.1-1.3
			c0.3-0.8,0.9-1.2,1.5-1.4L228.7,299.4z M233.8,294l-6.6-6l-0.4,1.1l4.5,4l-6,0.2l-0.4,1.1l7.5-0.3l0.8,0.8
			c0.2,0.2,0.3,0.4,0.4,0.6c0,0.2,0,0.4-0.1,0.6c-0.1,0.2-0.2,0.4-0.3,0.5l0.8,0.5c0.1-0.2,0.3-0.4,0.4-0.7
			C234.8,295.4,234.6,294.7,233.8,294z"/>
	</g>
</g>
</svg>
