<?xml version="1.0" encoding="utf-8"?>
<!-- Generator: Adobe Illustrator 19.0.0, SVG Export Plug-In . SVG Version: 6.00 Build 0)  -->
<svg version="1.1" id="Layer_1" xmlns="http://www.w3.org/2000/svg" xmlns:xlink="http://www.w3.org/1999/xlink" x="0px" y="0px"
	 viewBox="-302 100.3 236.3 396" style="enable-background:new -302 100.3 236.3 396;" xml:space="preserve">
<style type="text/css">
	.st0{fill:none;stroke:#FFFFFF;stroke-width:2;stroke-miterlimit:10;}
	.st1{fill:none;stroke:#FFFFFF;stroke-width:2;stroke-miterlimit:10;stroke-dasharray:10.0987,10.0987;}
	.st2{fill:none;stroke:#FFFFFF;stroke-width:2;stroke-linecap:round;stroke-miterlimit:10;stroke-dasharray:1.0004,5.0018;}
	.st3{fill:#FFFFFF;}
</style>
<path class="st0" d="M-181.5,234.3c34.2,0,62,27.8,62,62s-27.8,62-62,62c-34.2,0-62-27.8-62-62S-215.7,234.3-181.5,234.3z"/>
<g>
	<g>
		<circle class="st1" cx="-182" cy="295.8" r="112.5"/>
	</g>
</g>
<g>
	<g>
		<ellipse class="st2" cx="-181" cy="295.8" rx="53.5" ry="53.5"/>
	</g>
</g>
<path class="st0" d="M-199.5,294.3h38v23h-38V294.3z"/>
<path class="st0" d="M-201.5,294.3h42v-11h-42V294.3z"/>
<path class="st0" d="M-184.5,294.3h8v23h-8V294.3z"/>
<path class="st0" d="M-185.5,283.3h10v11h-10V283.3z"/>
<path class="st0" d="M-167.9,271c-2-1.9-5.1-2.1-7.4,0c-1.6,1.5-4.3,5.8-5.1,8.8c-0.9-3.1-3.6-7.4-5.2-9c-2.3-2.2-5.4-2-7.5,0
	c-2.1,2-1.7,5.6,0,7.2c1.7,1.6,10.7,6.6,12.5,4.8c0.1-0.1,0.2-0.2,0.2-0.3c0,0,0.1,0.1,0.1,0.1c1.9,1.8,10.7-3.1,12.3-4.7
	S-165.8,273-167.9,271z"/>
<path class="st0" d="M-182.5,183.3v-30.4"/>
<path class="st0" d="M-204.5,186v-13.7"/>
<path class="st0" d="M-225.5,191.9v-4.6"/>
<path class="st0" d="M-140.5,190.9V186"/>
<path class="st0" d="M-162.5,185v-13.7"/>
<path class="st0" d="M-181.5,408.3v30.4"/>
<path class="st0" d="M-159.4,406.3V420"/>
<path class="st0" d="M-138.3,399.4v4.6"/>
<path class="st0" d="M-223.5,400.7v4.9"/>
<path class="st0" d="M-201.5,406.3V420"/>
<path class="st0" d="M-101.1,253.9c1.3,2.4,0.4,5.5-2,6.8c-2.4,1.3-5.5,0.4-6.8-2c-1.3-2.4-0.4-5.5,2-6.8
	C-105.4,250.6-102.4,251.5-101.1,253.9z"/>
<path class="st0" d="M-253.1,253.9c1.3,2.4,0.4,5.5-2,6.8c-2.4,1.3-5.5,0.4-6.8-2c-1.3-2.4-0.4-5.5,2-6.8
	C-257.4,250.6-254.4,251.5-253.1,253.9z"/>
<path class="st0" d="M-190.9,101.3c1.9,0.1,3.4,1.7,3.4,3.6c-0.1,1.9-1.7,3.4-3.6,3.4c-1.9-0.1-3.4-1.7-3.4-3.6
	C-194.4,102.7-192.8,101.2-190.9,101.3z"/>
<path class="st0" d="M-180.9,261.4l-2.8,1.2l0.5-2.9l-2.2-2.2l3.1-0.5l1.4-2.7l1.5,2.7l2.9,0.5l-2,2.2l0.4,2.9L-180.9,261.4z"/>
<path class="st0" d="M-119.8,158.3c2.5,0.1,4.4,2.2,4.4,4.6c-0.1,2.5-2.2,4.4-4.6,4.4c-2.5-0.1-4.4-2.2-4.4-4.6
	C-124.4,160.2-122.3,158.2-119.8,158.3z"/>
<path class="st0" d="M-152.8,445.3c3,0.1,5.4,2.6,5.3,5.7s-2.6,5.4-5.7,5.3c-3-0.1-5.4-2.6-5.3-5.7S-155.8,445.2-152.8,445.3z"/>
<path class="st0" d="M-231.9,488.3c1.9,0.1,3.4,1.7,3.4,3.6c-0.1,1.9-1.7,3.5-3.6,3.4c-1.9-0.1-3.4-1.7-3.4-3.6
	C-235.4,489.7-233.8,488.2-231.9,488.3z"/>
<path class="st0" d="M-295.6,219.4l-5.7,5.7"/>
<path class="st0" d="M-301.3,219.5l5.7,5.7"/>
<path class="st0" d="M-243.6,416.4l-5.7,5.7"/>
<path class="st0" d="M-249.3,416.5l5.7,5.7"/>
<path class="st0" d="M-151,266.8l-4,4"/>
<path class="st0" d="M-155,266.8l4,4"/>
<path class="st0" d="M-206,266.8l-4,4"/>
<path class="st0" d="M-210,266.8l4,4"/>
<path class="st0" d="M-206,321.8l-4,4"/>
<path class="st0" d="M-210,321.8l4,4"/>
<path class="st0" d="M-151,321.8l-4,4"/>
<path class="st0" d="M-155,321.8l4,4"/>
<path class="st0" d="M-148.4,296.9l-1.2-2.8l2.8,0.5l2.2-2.2l0.5,3.1l2.6,1.4l-2.6,1.5l-0.5,2.9l-2.2-2l-2.8,0.4L-148.4,296.9z"/>
<path class="st0" d="M-213.3,296.7l1.2,2.8l-2.9-0.5l-2.2,2.1l-0.5-3l-2.7-1.4l2.7-1.5l0.5-2.9l2.2,2l2.9-0.3L-213.3,296.7z"/>
<path class="st0" d="M-181,331l2.8-1.3l-0.5,2.9l2.1,2.2l-3,0.5l-1.4,2.7l-1.5-2.7l-2.9-0.5l2-2.2l-0.3-2.9L-181,331z"/>
<path class="st0" d="M-87.5,422.5v11.6"/>
<path class="st0" d="M-93.2,428.3h11.6"/>
<path class="st0" d="M-240.5,165.5v11.6"/>
<path class="st0" d="M-246.2,171.3h11.6"/>
<path class="st0" d="M-71.5,189.5v11.6"/>
<path class="st0" d="M-77.2,195.3h11.6"/>
<g>
	<g>
		<path class="st3" d="M-230.2,219.2l-1.3,5.2l2,0.6l0.7-2.8l4.5,7.5l2.2-1.3l-6.2-10.3L-230.2,219.2z M-214,217.7
			c-0.5-1-1-1.8-1.7-2.5c-0.7-0.7-1.5-1.1-2.5-1.4c-1-0.2-1.9-0.1-2.9,0.3c-1,0.5-1.7,1.1-2.2,2c-0.4,0.9-0.6,1.8-0.6,2.8
			c0.1,1,0.3,1.9,0.8,2.9c0.5,1,1,1.8,1.7,2.5c0.7,0.7,1.5,1.2,2.5,1.4c1,0.2,1.9,0.1,2.9-0.3c1-0.5,1.7-1.1,2.1-2
			c0.4-0.9,0.6-1.8,0.6-2.8C-213.2,219.7-213.5,218.7-214,217.7z M-216.8,223.4c-0.7,0.3-1.4,0.3-2.1-0.2c-0.7-0.5-1.2-1.3-1.7-2.4
			c-0.5-1.1-0.7-2-0.7-2.8c0.1-0.8,0.4-1.4,1.2-1.7c0.7-0.3,1.4-0.3,2.1,0.2c0.6,0.5,1.2,1.3,1.7,2.4c0.5,1.1,0.7,2,0.7,2.8
			C-215.7,222.4-216.1,223-216.8,223.4z M-203.8,211.4c-0.6-0.8-1.3-1.3-2.3-1.7c-0.9-0.4-1.9-0.4-2.9-0.1c-1,0.3-1.9,0.9-2.4,1.7
			c-0.6,0.8-0.9,1.7-0.9,2.7c-0.1,1,0.1,2,0.4,3c0.3,1,0.8,1.9,1.3,2.7c0.6,0.8,1.3,1.4,2.3,1.7c0.9,0.4,1.9,0.4,2.9,0.1
			c1-0.3,1.8-0.9,2.4-1.7c0.6-0.8,0.9-1.7,0.9-2.7c0.1-1-0.1-2-0.4-3C-202.8,213.1-203.3,212.2-203.8,211.4z M-204.7,217.8
			c-0.2,0.8-0.6,1.3-1.4,1.6c-0.8,0.2-1.5,0.1-2-0.5c-0.6-0.6-1-1.4-1.4-2.6c-0.3-1.1-0.4-2.1-0.3-2.9c0.2-0.8,0.6-1.3,1.4-1.5
			c0.8-0.2,1.5-0.1,2,0.5c0.6,0.6,1,1.4,1.4,2.6C-204.7,216-204.6,217-204.7,217.8z M-195.5,211.8c0.5-0.6,0.7-1.4,0.5-2.2
			c-0.1-0.9-0.5-1.5-1.1-2c-0.6-0.5-1.4-0.7-2.3-0.6c-0.9,0.1-1.6,0.5-2.1,1.2c-0.5,0.6-0.7,1.4-0.5,2.3c0.1,0.8,0.5,1.5,1.1,2
			c0.6,0.5,1.4,0.7,2.3,0.5C-196.7,212.8-196,212.4-195.5,211.8z M-198.8,211.2c-0.3-0.2-0.5-0.6-0.6-1.1c-0.1-0.5,0-0.9,0.2-1.2
			c0.2-0.3,0.5-0.5,1-0.6c0.4-0.1,0.8,0,1.1,0.3c0.3,0.2,0.5,0.6,0.6,1.1c0.1,0.5,0,0.9-0.2,1.2c-0.2,0.3-0.5,0.5-1,0.6
			C-198.2,211.6-198.5,211.5-198.8,211.2z M-191.9,206.3l-5.9,13l1.3-0.2l6-13L-191.9,206.3z M-188.7,213c-0.6-0.5-1.4-0.7-2.3-0.6
			c-0.9,0.1-1.6,0.5-2.1,1.2c-0.5,0.6-0.7,1.4-0.5,2.3c0.1,0.8,0.5,1.5,1.1,2c0.6,0.5,1.4,0.7,2.3,0.5c0.9-0.1,1.6-0.5,2.1-1.1
			c0.5-0.6,0.7-1.4,0.6-2.2C-187.6,214.2-188,213.5-188.7,213z M-189.4,216.4c-0.2,0.3-0.6,0.5-1,0.6c-0.4,0.1-0.8,0-1.1-0.3
			c-0.3-0.2-0.5-0.6-0.6-1.1c-0.1-0.5,0-0.9,0.2-1.2c0.2-0.3,0.5-0.5,1-0.6c0.4-0.1,0.8,0,1.1,0.3c0.3,0.2,0.5,0.6,0.6,1.1
			C-189.1,215.7-189.1,216.1-189.4,216.4z M-174.4,206.1l-5.6-0.4l-0.8,12l2.5,0.2l0.3-4.3l3.1,0.2c1.2,0.1,2.3-0.2,3-0.9
			c0.8-0.7,1.2-1.6,1.3-2.7c0.1-1.1-0.2-2-0.9-2.8C-172.2,206.7-173.2,206.2-174.4,206.1z M-173.8,211.3c-0.3,0.3-0.8,0.4-1.3,0.4
			l-2.7-0.2l0.2-3.2l2.7,0.2c0.5,0,0.9,0.2,1.2,0.5c0.3,0.3,0.4,0.7,0.4,1.2C-173.3,210.6-173.5,211-173.8,211.3z M-159,209.8
			c-0.6-0.9-1.4-1.4-2.7-1.7l-5.5-1.2l-2.5,11.8l2.5,0.5l0.9-4.2l1.8,0.4l1.4,4.7l2.9,0.6l-1.7-5c0.8,0,1.4-0.3,2.1-0.8
			c0.6-0.5,1-1.2,1.2-2.2C-158.3,211.6-158.4,210.6-159,209.8z M-161.1,212.2c-0.1,0.5-0.3,0.8-0.7,1.1c-0.4,0.2-0.8,0.3-1.4,0.2
			l-2.6-0.6l0.7-3.2l2.6,0.6c0.5,0.1,0.9,0.3,1.2,0.7C-161.1,211.3-161,211.7-161.1,212.2z M-154.7,209.9l-3.7,11.4l2.4,0.8
			l3.7-11.4L-154.7,209.9z M-141.9,217.2l0.8-1.9l-8.3-3.6l-0.9,2.1l5.2,2.3l-8.3,4.8l-0.8,1.9l8.4,3.7l0.9-2.1l-5.3-2.3
			L-141.9,217.2z M-131.7,223.3l1.2-1.9l-7.3-4.4l-6.2,10.3l7.3,4.4l1.2-1.9l-5.1-3.1l1.4-2.3l5,3l1.2-1.9l-5-3l1.3-2.2
			L-131.7,223.3z"/>
	</g>
</g>
<g>
	<g>
		<path class="st3" d="M-259.1,329c0.6,0.3,1.3,0.3,2,0c0.8-0.3,1.3-0.8,1.6-1.5c0.3-0.7,0.3-1.4,0-2.2l-1.3-3.5l-8.7,3.3l0.4,1.1
			l3.5-1.3l0.7,1.7l-2.6,3.5l0.5,1.3l2.7-3.7C-260.2,328.2-259.7,328.7-259.1,329z M-257.3,323.2l0.9,2.3c0.2,0.5,0.2,1,0,1.4
			c-0.2,0.4-0.5,0.8-1,0.9c-0.5,0.2-1,0.2-1.4,0c-0.4-0.2-0.8-0.6-0.9-1.1l-0.9-2.3L-257.3,323.2z M-254.1,336.2
			c0.3-0.9,0.3-1.7-0.2-2.6c-0.5-0.9-1.1-1.5-2-1.7c-0.9-0.2-1.8-0.1-2.7,0.3c-0.9,0.5-1.5,1.1-1.8,2c-0.3,0.9-0.3,1.7,0.2,2.6
			c0.5,0.9,1.1,1.5,2,1.7c0.9,0.2,1.8,0.1,2.7-0.3C-255.1,337.7-254.4,337.1-254.1,336.2z M-258.4,337.5c-0.6-0.1-1.1-0.5-1.4-1.1
			c-0.3-0.6-0.3-1.2-0.1-1.8c0.3-0.6,0.7-1.1,1.4-1.4c0.6-0.3,1.3-0.4,1.9-0.3c0.6,0.1,1.1,0.5,1.4,1.1c0.3,0.6,0.3,1.2,0.1,1.8
			c-0.3,0.6-0.7,1-1.4,1.4C-257.1,337.5-257.7,337.6-258.4,337.5z M-249.5,343.7c0.2-0.9,0.1-1.7-0.5-2.6c-0.5-0.8-1.3-1.3-2.2-1.5
			c-0.9-0.1-1.8,0.1-2.6,0.6c-0.8,0.5-1.4,1.3-1.6,2.1c-0.2,0.9-0.1,1.7,0.5,2.6c0.5,0.8,1.3,1.3,2.2,1.5c0.9,0.1,1.8-0.1,2.6-0.6
			C-250.3,345.3-249.7,344.6-249.5,343.7z M-251.7,344.9c-0.6,0.4-1.2,0.6-1.9,0.5c-0.6-0.1-1.2-0.4-1.5-1c-0.4-0.6-0.5-1.2-0.3-1.8
			c0.2-0.6,0.6-1.1,1.2-1.5c0.6-0.4,1.2-0.6,1.9-0.5c0.6,0.1,1.2,0.4,1.5,1c0.4,0.6,0.5,1.2,0.3,1.8
			C-250.7,344-251.1,344.5-251.7,344.9z M-242.2,351.3c-0.3-0.4-0.7-0.6-1.1-0.8c-0.5-0.2-0.9-0.2-1.3-0.1c0.2-0.3,0.3-0.7,0.3-1.1
			c0-0.4-0.2-0.8-0.5-1.1c-0.3-0.3-0.7-0.6-1.1-0.8c-0.5-0.2-0.8-0.2-1.2-0.2l0.7-0.6l-0.7-0.8l-5.2,4.3l0.7,0.8l3.8-3.2
			c0.3,0,0.7,0,1.1,0.1c0.4,0.1,0.7,0.3,0.9,0.6c0.5,0.6,0.4,1.3-0.3,1.9l-3.5,3l0.7,0.8l3.8-3.2c0.3,0,0.7,0,1.1,0.1
			c0.4,0.1,0.7,0.3,0.9,0.6c0.5,0.6,0.4,1.3-0.3,1.9l-3.5,3l0.7,0.8l3.7-3.1C-241.5,353.2-241.3,352.3-242.2,351.3z M-239.2,355.3
			c-0.6,0-1.1,0.1-1.4,0.5c-0.3,0.3-0.5,0.7-0.5,1.1c0,0.4,0.1,0.8,0.4,1.2c0.2,0.4,0.4,0.7,0.7,1.1c0.2,0.3,0.4,0.7,0.5,1
			c0.1,0.3,0,0.6-0.2,0.8c-0.2,0.3-0.5,0.4-0.9,0.3c-0.4,0-0.7-0.2-1.1-0.6c-0.3-0.3-0.6-0.7-0.7-1.1c-0.2-0.4-0.2-0.8-0.2-1.2
			l-0.9,0.2c0,1,0.4,1.9,1.3,2.6c0.6,0.6,1.2,0.9,1.8,0.9c0.6,0,1.1-0.2,1.5-0.6c0.3-0.4,0.5-0.7,0.5-1.2c0-0.4-0.1-0.8-0.3-1.2
			c-0.2-0.4-0.4-0.7-0.7-1.1c-0.2-0.3-0.4-0.7-0.5-1c-0.1-0.3-0.1-0.6,0.1-0.8c0.2-0.2,0.5-0.3,0.8-0.3c0.3,0,0.7,0.2,1,0.5
			c0.6,0.6,0.9,1.3,0.9,2l0.9-0.2c0-0.9-0.4-1.7-1.1-2.4C-238,355.6-238.6,355.3-239.2,355.3z M-223.6,367l-4.4,3.5l1.5-5.5
			l-0.7-0.5l-4.5,3.5l1.6-5.4l-0.9-0.6l-2,6.8l0.9,0.6l4.5-3.5l-1.6,5.5l0.9,0.6l5.6-4.4L-223.6,367z M-219,367.6
			c0.1-0.2,0.1-0.4,0.1-0.5s-0.2-0.3-0.3-0.4c-0.2-0.1-0.3-0.1-0.5-0.1c-0.2,0.1-0.3,0.2-0.4,0.3c-0.1,0.2-0.1,0.4-0.1,0.5
			c0.1,0.2,0.2,0.3,0.3,0.4c0.2,0.1,0.4,0.1,0.5,0.1C-219.2,367.9-219.1,367.8-219,367.6z M-224.1,374.4l0.9,0.5l3.3-5.9l-0.9-0.5
			L-224.1,374.4z M-216,370.9l0.8-1.7l-0.9-0.5l-0.8,1.7l-1-0.5l-0.4,0.8l1,0.5l-1.9,4c-0.2,0.5-0.3,0.9-0.2,1.2
			c0.1,0.4,0.4,0.6,0.8,0.8c0.5,0.2,0.9,0.3,1.3,0.2l0.1-0.8c-0.2,0.1-0.5,0.1-0.8-0.1c-0.2-0.1-0.3-0.2-0.4-0.4
			c0-0.2,0-0.4,0.1-0.6l1.8-3.8l1.2,0.6l0.4-0.8L-216,370.9z M-209.4,373.6c-0.4-0.2-0.9-0.2-1.4-0.2c-0.5,0.1-0.9,0.2-1.3,0.4
			l1.3-3.3l-1-0.4l-3.3,8.7l1,0.4l1.8-4.6c0.3-0.2,0.7-0.3,1.1-0.4c0.4-0.1,0.8,0,1.2,0.1c0.5,0.2,0.8,0.4,0.9,0.7
			c0.2,0.3,0.1,0.7-0.1,1.2l-1.6,4.2l1,0.4l1.7-4.5C-207.6,375-208,374.1-209.4,373.6z M-195.7,378.6c-0.4-0.9-1.1-1.4-2-1.6
			c-0.9-0.2-1.7,0-2.3,0.5c-0.7,0.5-1.1,1.3-1.3,2.3c-0.2,1-0.1,1.9,0.3,2.7c0.4,0.7,1.1,1.2,1.9,1.4c0.4,0.1,0.9,0.1,1.3-0.1
			c0.4-0.1,0.8-0.4,1.1-0.7l-0.2,0.9c-0.1,0.7-0.4,1.1-0.9,1.4c-0.5,0.2-1,0.3-1.6,0.2c-0.9-0.2-1.6-0.6-2-1.3l-0.7,0.7
			c0.3,0.5,0.6,0.8,1,1c0.4,0.2,0.9,0.4,1.5,0.5c0.9,0.2,1.7,0.1,2.4-0.2c0.7-0.3,1.1-1,1.3-2l1.3-6.4l-1-0.2L-195.7,378.6z
			 M-196.5,382.3c-0.2,0.3-0.6,0.5-1,0.6c-0.4,0.1-0.8,0.2-1.2,0.1c-0.6-0.1-1.1-0.5-1.4-1c-0.3-0.5-0.4-1.2-0.2-1.9
			c0.2-0.7,0.5-1.3,0.9-1.7c0.5-0.4,1-0.5,1.7-0.4c0.4,0.1,0.8,0.3,1.1,0.5c0.3,0.3,0.5,0.6,0.7,0.9L-196.5,382.3z M-187.6,383.6
			c-0.2,0.3-0.5,0.5-0.9,0.6c-0.4,0.2-0.8,0.2-1.2,0.2c-0.5,0-0.9-0.2-1.1-0.5c-0.2-0.3-0.3-0.7-0.3-1.2l0.4-4.4l-1-0.1l-0.5,4.7
			c-0.1,1.4,0.5,2.2,1.9,2.4c0.5,0,0.9,0,1.4-0.2c0.4-0.2,0.8-0.4,1.1-0.7l-0.1,0.9l1,0.1l0.7-6.7l-1-0.1L-187.6,383.6z
			 M-178.7,379.3c-0.5-0.4-1.1-0.6-1.9-0.6c-1.1,0-2,0.4-2.7,1.1l0.5,0.7c0.6-0.6,1.3-0.9,2.1-0.9c0.5,0,0.9,0.1,1.2,0.4
			c0.3,0.3,0.5,0.6,0.5,1l0,1.2c-0.5-0.6-1.3-0.9-2.2-0.9c-0.6,0-1.2,0.2-1.7,0.6c-0.5,0.4-0.7,0.9-0.7,1.6c0,0.7,0.2,1.2,0.7,1.6
			c0.5,0.4,1,0.6,1.7,0.6c0.9,0,1.7-0.3,2.2-0.9l0,0.8l1,0l0-4.6C-178,380.2-178.2,379.6-178.7,379.3z M-179.1,384.2
			c-0.4,0.6-1,0.8-1.9,0.8c-0.5,0-0.9-0.1-1.2-0.4c-0.3-0.3-0.5-0.6-0.5-1.1c0-0.4,0.2-0.8,0.5-1.1c0.3-0.3,0.7-0.4,1.2-0.4
			c0.8,0,1.5,0.3,1.9,0.8L-179.1,384.2z M-173.9,379.7l-0.1-1.1l-1,0.1l0.5,6.7l1-0.1l-0.4-4.8c0.1-0.3,0.4-0.5,0.7-0.8
			c0.4-0.3,0.7-0.4,1-0.4c0.2,0,0.3,0,0.4,0l-0.1-1.1C-172.6,378.4-173.4,378.8-173.9,379.7z M-165.1,377.9c-0.5-0.3-1.2-0.4-2-0.2
			c-1.1,0.2-1.9,0.7-2.5,1.5l0.6,0.6c0.5-0.7,1.1-1.1,1.9-1.3c0.5-0.1,0.9,0,1.3,0.2c0.4,0.2,0.6,0.5,0.6,1l0.2,1.2
			c-0.6-0.5-1.4-0.7-2.4-0.5c-0.6,0.1-1.1,0.4-1.5,0.8c-0.4,0.5-0.5,1-0.4,1.7c0.1,0.7,0.4,1.2,1,1.5c0.5,0.3,1.1,0.4,1.7,0.3
			c0.9-0.1,1.6-0.6,2.1-1.3l0.1,0.8l1-0.2l-0.7-4.6C-164.2,378.7-164.5,378.2-165.1,377.9z M-166.3,383.9c-0.5,0.1-0.9,0-1.2-0.2
			c-0.4-0.2-0.6-0.5-0.6-1c-0.1-0.4,0-0.8,0.3-1.1c0.3-0.3,0.6-0.5,1.1-0.6c0.8-0.1,1.5,0,2,0.5l0.2,1.3
			C-164.9,383.4-165.5,383.8-166.3,383.9z M-158.3,375.7c-0.5,0.1-0.9,0.3-1.2,0.7c-0.4,0.3-0.6,0.7-0.8,1l-0.3-0.9l-1,0.3l1.7,6.5
			l1-0.3l-1.3-4.8c0.1-0.3,0.3-0.6,0.6-0.9c0.3-0.3,0.6-0.5,1-0.6c0.5-0.1,0.9-0.1,1.2,0.1c0.3,0.2,0.5,0.5,0.7,1.1l1.1,4.3l1-0.3
			l-1.2-4.6C-156.1,375.9-157,375.4-158.3,375.7z M-149.6,379.4c-0.2,0.1-0.4,0.1-0.6-0.1c-0.2-0.1-0.3-0.3-0.4-0.5l-1.4-3.9
			l1.3-0.5l-0.3-0.9l-1.3,0.5l-0.6-1.7l-1,0.4l0.6,1.7l-1.1,0.4l0.3,0.9l1.1-0.4l1.5,4.2c0.2,0.5,0.4,0.8,0.8,1
			c0.3,0.2,0.7,0.2,1.2,0c0.5-0.2,0.8-0.5,1-0.8l-0.6-0.6C-149.1,379.1-149.3,379.3-149.6,379.4z M-143.4,376.9
			c-0.6,0.3-1.2,0.3-1.8,0.1c-0.6-0.2-1-0.6-1.4-1.2l5-2.3l-0.1-0.2c-0.4-0.9-1.1-1.6-1.9-2c-0.8-0.4-1.7-0.4-2.6,0
			c-0.9,0.4-1.4,1-1.7,1.9c-0.3,0.9-0.2,1.8,0.2,2.7c0.4,1,1.1,1.6,1.9,1.9c0.9,0.3,1.7,0.3,2.7-0.1c1-0.5,1.7-1.1,2-2.1l-0.7-0.4
			C-142.1,376-142.6,376.5-143.4,376.9z M-147,373.4c0.2-0.6,0.6-1,1.2-1.3c0.6-0.3,1.2-0.3,1.8,0c0.5,0.3,0.9,0.7,1.2,1.2l-4,1.8
			C-147.1,374.5-147.1,374-147,373.4z M-135.2,372.6c-0.6,0.4-1.2,0.4-1.8,0.3c-0.6-0.2-1.1-0.5-1.5-1.1l4.7-2.8l-0.1-0.2
			c-0.5-0.9-1.2-1.5-2.1-1.8c-0.9-0.3-1.7-0.2-2.6,0.3c-0.8,0.5-1.3,1.2-1.5,2.1c-0.2,0.9-0.1,1.8,0.4,2.6c0.5,0.9,1.2,1.5,2.1,1.7
			s1.8,0.1,2.6-0.4c0.9-0.6,1.5-1.3,1.8-2.2l-0.8-0.3C-134.1,371.6-134.5,372.2-135.2,372.6z M-139.2,369.5c0.1-0.6,0.4-1.1,1-1.4
			c0.6-0.4,1.2-0.4,1.8-0.2c0.6,0.2,1,0.6,1.3,1l-3.8,2.2C-139.2,370.7-139.3,370.1-139.2,369.5z M-131.3,359.6l2.1,2.9
			c-0.9-0.3-1.8-0.2-2.5,0.4c-0.7,0.5-1.1,1.2-1.2,2.1c-0.1,0.8,0.2,1.7,0.9,2.6c0.6,0.9,1.4,1.4,2.2,1.6c0.8,0.2,1.6,0,2.3-0.5
			c0.8-0.6,1.1-1.3,1.1-2.3l0.6,0.8l0.8-0.6l-5.5-7.5L-131.3,359.6z M-126.8,365.6c0,0.4-0.1,0.7-0.2,1.1c-0.2,0.4-0.4,0.7-0.8,0.9
			c-0.5,0.4-1.1,0.5-1.7,0.4c-0.6-0.2-1.1-0.5-1.6-1.2c-0.5-0.6-0.7-1.2-0.6-1.9c0-0.6,0.3-1.1,0.8-1.5c0.3-0.2,0.7-0.4,1.1-0.4
			c0.4-0.1,0.8,0,1.2,0.1L-126.8,365.6z M-116,358.6c0.6-0.6,0.9-1.4,0.8-2.2c-0.1-0.8-0.5-1.6-1.3-2.4c-0.8-0.8-1.6-1.2-2.4-1.2
			c-0.8-0.1-1.6,0.2-2.2,0.9c-0.3,0.3-0.6,0.7-0.7,1.2c-0.1,0.4-0.2,0.9-0.1,1.3l-0.7-0.7l-0.7,0.7l6.7,6.5l0.7-0.7l-2.6-2.5
			C-117.5,359.6-116.7,359.3-116,358.6z M-119.1,358.8l-2.2-2.1c-0.1-0.3-0.1-0.7,0-1.1c0.1-0.4,0.3-0.8,0.6-1.1
			c0.5-0.5,1-0.7,1.6-0.6c0.6,0.1,1.2,0.4,1.8,0.9c0.5,0.5,0.9,1.1,0.9,1.7c0.1,0.6-0.1,1.2-0.6,1.6c-0.3,0.3-0.6,0.5-1,0.6
			C-118.3,358.9-118.7,358.9-119.1,358.8z M-115.1,349.1c0.1-0.4,0.2-0.8,0.4-1c0.1-0.1,0.2-0.2,0.3-0.3l-0.8-0.7
			c-0.6,0.7-0.7,1.5-0.5,2.5l-0.8-0.7l-0.7,0.8l5.2,4.3l0.7-0.8l-3.7-3C-115.2,349.9-115.2,349.5-115.1,349.1z M-114.7,344.6
			c0.2,0,0.3-0.1,0.5-0.3c0.1-0.2,0.2-0.3,0.1-0.5c0-0.2-0.1-0.3-0.3-0.5c-0.2-0.1-0.3-0.2-0.5-0.1c-0.2,0-0.4,0.1-0.5,0.3
			c-0.1,0.2-0.2,0.3-0.1,0.5c0,0.2,0.1,0.4,0.3,0.5C-115,344.6-114.9,344.7-114.7,344.6z M-113.8,345.3l5.5,4l0.6-0.8l-5.5-4
			L-113.8,345.3z M-105.9,344.3l-2.3-5.9l-0.7-0.4l-2.7,4.3l0.8,0.5l2-3.1l2.3,5.8l0.7,0.4l2.7-4.4l-0.8-0.5L-105.9,344.3z
			 M-100.6,333.4c0.3,0.7,0.2,1.5-0.2,2.2c-0.3,0.6-0.8,1-1.4,1.2c-0.6,0.2-1.2,0.2-1.8-0.1l2.5-4.9l-0.2-0.1
			c-0.9-0.5-1.8-0.6-2.7-0.4c-0.9,0.2-1.5,0.8-2,1.7c-0.4,0.8-0.5,1.7-0.1,2.6c0.3,0.9,0.9,1.5,1.8,2c0.9,0.5,1.9,0.6,2.7,0.3
			c0.9-0.3,1.5-0.9,2-1.8c0.5-1,0.6-1.9,0.3-2.9L-100.6,333.4z M-105.7,335.2c-0.2-0.5-0.2-1.1,0.1-1.7c0.3-0.6,0.8-1,1.4-1.2
			c0.6-0.1,1.1-0.1,1.7,0.2l-2,4C-105.1,336.2-105.5,335.7-105.7,335.2z M-96.4,326.4c-0.2-0.6-0.6-1-1.1-1.2
			c-0.5-0.2-0.9-0.2-1.3,0c-0.4,0.2-0.7,0.4-1,0.7c-0.3,0.3-0.5,0.7-0.7,1c-0.2,0.4-0.5,0.6-0.7,0.8c-0.2,0.2-0.5,0.3-0.8,0.2
			c-0.3-0.1-0.5-0.3-0.6-0.7c-0.1-0.3-0.1-0.7,0.1-1.1c0.3-0.8,0.8-1.3,1.5-1.6l-0.5-0.7c-0.8,0.4-1.5,1-1.8,2
			c-0.3,0.7-0.3,1.4-0.1,1.9c0.2,0.6,0.5,0.9,1,1.1c0.4,0.2,0.8,0.2,1.2,0c0.4-0.2,0.7-0.4,0.9-0.8c0.3-0.3,0.5-0.7,0.7-1
			c0.2-0.3,0.5-0.6,0.7-0.8c0.3-0.2,0.5-0.3,0.8-0.2c0.3,0.1,0.5,0.4,0.6,0.7c0.1,0.3,0.1,0.7-0.1,1.2c-0.2,0.4-0.4,0.8-0.7,1.1
			c-0.3,0.3-0.6,0.5-1,0.6l0.5,0.8c0.9-0.4,1.6-1.1,2-2.2C-96.3,327.7-96.2,327-96.4,326.4z"/>
	</g>
</g>
</svg>
