<?xml version="1.0" encoding="utf-8"?>
<!-- Generator: Adobe Illustrator 16.0.0, SVG Export Plug-In . SVG Version: 6.00 Build 0)  -->
<!DOCTYPE svg PUBLIC "-//W3C//DTD SVG 1.1//EN" "http://www.w3.org/Graphics/SVG/1.1/DTD/svg11.dtd">
<svg version="1.1" id="Layer_1" xmlns="http://www.w3.org/2000/svg" xmlns:xlink="http://www.w3.org/1999/xlink" x="0px" y="0px"
	 width="236.314px" height="396px" viewBox="0 0 236.314 396" enable-background="new 0 0 236.314 396" xml:space="preserve">
<g>
	<path fill-rule="evenodd" clip-rule="evenodd" fill="none" stroke="#FFFFFF" stroke-width="2" stroke-miterlimit="10" d="
		M120.543,133.989c34.242,0,62,27.763,62,62.011s-27.758,62.011-62,62.011c-34.241,0-61.999-27.763-61.999-62.011
		S86.302,133.989,120.543,133.989z"/>
	<g>
		<g>
			
				<circle fill="none" stroke="#FFFFFF" stroke-width="2" stroke-miterlimit="10" stroke-dasharray="10.0987,10.0987" cx="120.026" cy="195.5" r="112.506"/>
		</g>
	</g>
	<g>
		<g>
			
				<ellipse fill="none" stroke="#FFFFFF" stroke-width="2" stroke-linecap="round" stroke-miterlimit="10" stroke-dasharray="1.0004,5.0018" cx="121.035" cy="195.497" rx="53.516" ry="53.503"/>
		</g>
	</g>
	<path fill-rule="evenodd" clip-rule="evenodd" fill="none" stroke="#FFFFFF" stroke-width="2" stroke-miterlimit="10" d="
		M102.539,194h38v23h-38V194z"/>
	<path fill-rule="evenodd" clip-rule="evenodd" fill="none" stroke="#FFFFFF" stroke-width="2" stroke-miterlimit="10" d="
		M100.539,194h42v-11h-42V194z"/>
	<path fill-rule="evenodd" clip-rule="evenodd" fill="none" stroke="#FFFFFF" stroke-width="2" stroke-miterlimit="10" d="
		M117.539,194h8v23h-8V194z"/>
	<path fill-rule="evenodd" clip-rule="evenodd" fill="none" stroke="#FFFFFF" stroke-width="2" stroke-miterlimit="10" d="
		M116.539,183h10v11h-10V183z"/>
	<path fill-rule="evenodd" clip-rule="evenodd" fill="none" stroke="#FFFFFF" stroke-width="2" stroke-miterlimit="10" d="
		M134.147,170.754c-2.045-1.938-5.143-2.145-7.405,0c-1.582,1.498-4.262,5.754-5.104,8.783c-0.881-3.109-3.571-7.424-5.163-8.952
		c-2.299-2.206-5.445-1.993-7.521,0s-1.672,5.613,0,7.218c1.672,1.604,10.654,6.616,12.535,4.812c0.09-0.087,0.152-0.2,0.215-0.314
		c0.035,0.047,0.059,0.107,0.102,0.148c1.852,1.754,10.697-3.118,12.343-4.678S136.192,172.691,134.147,170.754z"/>
	<path fill-rule="evenodd" clip-rule="evenodd" fill="none" stroke="#FFFFFF" stroke-width="2" stroke-miterlimit="10" d="
		M119.539,82.994V52.546"/>
	<path fill-rule="evenodd" clip-rule="evenodd" fill="none" stroke="#FFFFFF" stroke-width="2" stroke-miterlimit="10" d="
		M97.543,85.689V72.016"/>
	<path fill-rule="evenodd" clip-rule="evenodd" fill="none" stroke="#FFFFFF" stroke-width="2" stroke-miterlimit="10" d="
		M76.536,91.64v-4.644"/>
	<path fill-rule="evenodd" clip-rule="evenodd" fill="none" stroke="#FFFFFF" stroke-width="2" stroke-miterlimit="10" d="
		M161.536,90.614v-4.907"/>
	<path fill-rule="evenodd" clip-rule="evenodd" fill="none" stroke="#FFFFFF" stroke-width="2" stroke-miterlimit="10" d="
		M139.54,84.675V71"/>
	<path fill-rule="evenodd" clip-rule="evenodd" fill="none" stroke="#FFFFFF" stroke-width="2" stroke-miterlimit="10" d="
		M120.539,308.006v30.448"/>
	<path fill-rule="evenodd" clip-rule="evenodd" fill="none" stroke="#FFFFFF" stroke-width="2" stroke-miterlimit="10" d="
		M142.559,306.009v13.674"/>
	<path fill-rule="evenodd" clip-rule="evenodd" fill="none" stroke="#FFFFFF" stroke-width="2" stroke-miterlimit="10" d="
		M163.678,299.136v4.644"/>
	<path fill-rule="evenodd" clip-rule="evenodd" fill="none" stroke="#FFFFFF" stroke-width="2" stroke-miterlimit="10" d="
		M78.542,300.383v4.907"/>
	<path fill-rule="evenodd" clip-rule="evenodd" fill="none" stroke="#FFFFFF" stroke-width="2" stroke-miterlimit="10" d="
		M100.539,306.008v13.675"/>
	<path fill-rule="evenodd" clip-rule="evenodd" fill="none" stroke="#FFFFFF" stroke-width="2" stroke-miterlimit="10" d="
		M200.945,153.637c1.306,2.433,0.392,5.464-2.042,6.769c-2.434,1.306-5.465,0.392-6.771-2.042c-1.306-2.433-0.392-5.464,2.042-6.769
		C196.608,150.289,199.64,151.203,200.945,153.637z"/>
	<path fill-rule="evenodd" clip-rule="evenodd" fill="none" stroke="#FFFFFF" stroke-width="2" stroke-miterlimit="10" d="
		M48.945,153.637c1.306,2.433,0.392,5.464-2.042,6.769c-2.434,1.306-5.465,0.392-6.771-2.042c-1.306-2.433-0.392-5.464,2.042-6.769
		C44.608,150.289,47.64,151.203,48.945,153.637z"/>
	<path fill-rule="evenodd" clip-rule="evenodd" fill="none" stroke="#FFFFFF" stroke-width="2" stroke-miterlimit="10" d="
		M111.148,1.002c1.932,0.06,3.449,1.675,3.389,3.606c-0.061,1.933-1.676,3.45-3.607,3.39c-1.932-0.06-3.449-1.675-3.389-3.606
		C107.602,2.459,109.217,0.941,111.148,1.002z"/>
	<path fill="none" stroke="#FFFFFF" stroke-width="2" stroke-miterlimit="10" d="M121.143,161.079l-2.807,1.229l0.471-2.877
		l-2.168-2.198l3.061-0.469l1.384-2.667l1.504,2.667l2.94,0.469l-2.048,2.198l0.351,2.877L121.143,161.079z"/>
	<path fill-rule="evenodd" clip-rule="evenodd" fill="none" stroke="#FFFFFF" stroke-width="2" stroke-miterlimit="10" d="
		M182.18,58.002c2.484,0.077,4.435,2.153,4.357,4.638c-0.078,2.484-2.154,4.436-4.639,4.358s-4.435-2.153-4.357-4.638
		C177.619,59.876,179.695,57.925,182.18,58.002z"/>
	<path fill-rule="evenodd" clip-rule="evenodd" fill="none" stroke="#FFFFFF" stroke-width="2" stroke-miterlimit="10" d="
		M149.211,345.003c3.036,0.094,5.42,2.632,5.325,5.668s-2.633,5.421-5.669,5.326c-3.036-0.094-5.42-2.632-5.325-5.668
		S146.175,344.908,149.211,345.003z"/>
	<path fill-rule="evenodd" clip-rule="evenodd" fill="none" stroke="#FFFFFF" stroke-width="2" stroke-miterlimit="10" d="
		M70.148,388.002c1.932,0.06,3.449,1.675,3.389,3.606c-0.061,1.933-1.676,3.45-3.607,3.39c-1.932-0.06-3.449-1.675-3.389-3.606
		C66.602,389.459,68.217,387.941,70.148,388.002z"/>
	<path fill-rule="evenodd" clip-rule="evenodd" fill="none" stroke="#FFFFFF" stroke-width="2" stroke-miterlimit="10" d="
		M6.371,119.168l-5.664,5.664"/>
	<path fill-rule="evenodd" clip-rule="evenodd" fill="none" stroke="#FFFFFF" stroke-width="2" stroke-miterlimit="10" d="
		M0.713,119.174l5.652,5.652"/>
	<path fill-rule="evenodd" clip-rule="evenodd" fill="none" stroke="#FFFFFF" stroke-width="2" stroke-miterlimit="10" d="
		M58.371,316.168l-5.664,5.664"/>
	<path fill-rule="evenodd" clip-rule="evenodd" fill="none" stroke="#FFFFFF" stroke-width="2" stroke-miterlimit="10" d="
		M52.713,316.174l5.652,5.652"/>
	<path fill-rule="evenodd" clip-rule="evenodd" fill="none" stroke="#FFFFFF" stroke-width="2" stroke-miterlimit="10" d="
		M151.044,166.495l-4.011,4.01"/>
	<path fill-rule="evenodd" clip-rule="evenodd" fill="none" stroke="#FFFFFF" stroke-width="2" stroke-miterlimit="10" d="
		M147.039,166.5l4,4.001"/>
	<path fill-rule="evenodd" clip-rule="evenodd" fill="none" stroke="#FFFFFF" stroke-width="2" stroke-miterlimit="10" d="
		M96.044,166.495l-4.011,4.01"/>
	<path fill-rule="evenodd" clip-rule="evenodd" fill="none" stroke="#FFFFFF" stroke-width="2" stroke-miterlimit="10" d="
		M92.039,166.5l4,4.001"/>
	<path fill-rule="evenodd" clip-rule="evenodd" fill="none" stroke="#FFFFFF" stroke-width="2" stroke-miterlimit="10" d="
		M96.044,221.495l-4.011,4.01"/>
	<path fill-rule="evenodd" clip-rule="evenodd" fill="none" stroke="#FFFFFF" stroke-width="2" stroke-miterlimit="10" d="
		M92.039,221.5l4,4.001"/>
	<path fill-rule="evenodd" clip-rule="evenodd" fill="none" stroke="#FFFFFF" stroke-width="2" stroke-miterlimit="10" d="
		M151.044,221.495l-4.011,4.01"/>
	<path fill-rule="evenodd" clip-rule="evenodd" fill="none" stroke="#FFFFFF" stroke-width="2" stroke-miterlimit="10" d="
		M147.039,221.5l4,4.001"/>
	<path fill="none" stroke="#FFFFFF" stroke-width="2" stroke-miterlimit="10" d="M153.566,196.604l-1.214-2.807l2.843,0.471
		l2.172-2.168l0.465,3.061l2.636,1.384l-2.636,1.504l-0.465,2.941l-2.172-2.049l-2.843,0.351L153.566,196.604z"/>
	<path fill="none" stroke="#FFFFFF" stroke-width="2" stroke-miterlimit="10" d="M88.728,196.428l1.238,2.779l-2.901-0.465
		l-2.217,2.146l-0.474-3.03l-2.689-1.371l2.689-1.489l0.474-2.912l2.217,2.028l2.901-0.347L88.728,196.428z"/>
	<path fill="none" stroke="#FFFFFF" stroke-width="2" stroke-miterlimit="10" d="M120.967,230.734l2.779-1.253l-0.465,2.936
		l2.146,2.243l-3.031,0.479l-1.37,2.722l-1.489-2.722l-2.912-0.479l2.028-2.243l-0.347-2.936L120.967,230.734z"/>
	<path fill-rule="evenodd" clip-rule="evenodd" fill="none" stroke="#FFFFFF" stroke-width="2" stroke-miterlimit="10" d="
		M214.539,322.179v11.643"/>
	<path fill-rule="evenodd" clip-rule="evenodd" fill="none" stroke="#FFFFFF" stroke-width="2" stroke-miterlimit="10" d="
		M208.764,328h11.551"/>
	<path fill-rule="evenodd" clip-rule="evenodd" fill="none" stroke="#FFFFFF" stroke-width="2" stroke-miterlimit="10" d="
		M61.539,65.179v11.643"/>
	<path fill-rule="evenodd" clip-rule="evenodd" fill="none" stroke="#FFFFFF" stroke-width="2" stroke-miterlimit="10" d="
		M55.764,71h11.551"/>
	<path fill-rule="evenodd" clip-rule="evenodd" fill="none" stroke="#FFFFFF" stroke-width="2" stroke-miterlimit="10" d="
		M230.539,89.179v11.643"/>
	<path fill-rule="evenodd" clip-rule="evenodd" fill="none" stroke="#FFFFFF" stroke-width="2" stroke-miterlimit="10" d="
		M224.764,95h11.551"/>
	<path fill="#FFFFFF" d="M72.882,132.119l-7.161-9.658l-1.791,1.334l-0.768,5.313l2.082,0.359l0.391-2.83l5.196,7.009
		L72.882,132.119z"/>
	<path fill="#FFFFFF" d="M78.703,128.706c2.959-1.719,2.736-5.197,1.183-7.882c-1.553-2.686-4.445-4.593-7.404-2.874
		c-2.975,1.728-2.745,5.181-1.192,7.866C72.843,128.502,75.729,130.434,78.703,128.706z M77.565,126.739
		c-1.495,0.868-2.923-0.305-4.033-2.226c-1.111-1.92-1.408-3.729,0.087-4.597c1.479-0.859,2.898,0.298,4.009,2.219
		C78.738,124.056,79.045,125.88,77.565,126.739z"/>
	<path fill="#FFFFFF" d="M88.689,123.793c3.165-1.293,3.422-4.768,2.253-7.64c-1.17-2.873-3.771-5.159-6.938-3.866
		c-3.182,1.301-3.429,4.751-2.26,7.623C82.915,122.783,85.507,125.094,88.689,123.793z M87.833,121.689
		c-1.6,0.653-2.853-0.705-3.688-2.759c-0.836-2.055-0.883-3.886,0.717-4.539c1.583-0.647,2.829,0.694,3.665,2.748
		C89.362,119.194,89.415,121.042,87.833,121.689z"/>
	<path fill="#FFFFFF" d="M95.74,114.518c1.804-0.429,2.682-1.954,2.294-3.587c-0.392-1.649-1.873-2.669-3.677-2.239
		c-1.786,0.425-2.651,2.003-2.26,3.653C92.485,113.977,93.954,114.943,95.74,114.518z M97.354,120.531l4.697-13.486l-1.33,0.316
		l-4.681,13.482L97.354,120.531z M103.654,119.254c1.786-0.426,2.678-1.973,2.29-3.605c-0.392-1.649-1.892-2.665-3.677-2.239
		c-1.787,0.425-2.651,2.003-2.26,3.653C100.396,118.694,101.868,119.679,103.654,119.254z M95.416,113.149
		c-0.789,0.188-1.525-0.268-1.742-1.181c-0.233-0.982,0.225-1.703,1.013-1.892c0.806-0.191,1.521,0.25,1.754,1.233
		C96.657,112.223,96.221,112.957,95.416,113.149z M103.33,117.885c-0.806,0.191-1.521-0.25-1.746-1.198
		c-0.229-0.965,0.207-1.699,1.013-1.891c0.806-0.192,1.542,0.263,1.771,1.229C104.593,116.972,104.135,117.692,103.33,117.885z"/>
	<path fill="#FFFFFF" d="M123.634,117.576l-0.128-12.034l-10.802,0.111l0.128,12.034l2.557-0.026l-0.104-9.779l5.67-0.059
		l0.104,9.779L123.634,117.576z"/>
	<path fill="#FFFFFF" d="M128.534,118.147l0.587-4.233l3.03,0.422c2.567,0.358,4.238-1.212,4.524-3.284
		c0.29-2.09-0.876-4.037-3.461-4.397l-5.562-0.775l-1.65,11.916L128.534,118.147z M132.122,112.056l-2.692-0.375l0.445-3.216
		l2.692,0.376c0.998,0.139,1.663,0.851,1.524,1.851C133.955,111.674,133.12,112.195,132.122,112.056z"/>
	<path fill="#FFFFFF" d="M139.5,120.159l7.779-6.094l-2.292,7.729l2.45,0.73l3.42-11.533l-2.52-0.751l-7.542,5.862l2.21-7.452
		l-2.45-0.73l-3.42,11.533L139.5,120.159z"/>
	<path fill="#FFFFFF" d="M153.275,125.397c2.591,1.218,5.083,0.775,5.961-1.103c0.764-1.633-0.266-3.172-1.304-3.799
		c1.288,0.347,2.882,0,3.522-1.371c0.848-1.812-0.377-3.782-2.919-4.978c-1.907-0.896-3.798-0.888-5.144-0.306l0.477,1.997
		c1.109-0.375,2.417-0.238,3.477,0.259c1.238,0.582,2.018,1.466,1.613,2.332c-0.375,0.8-1.472,0.723-2.759,0.117l-2.199-1.033
		l-0.955,2.041l2.2,1.033c1.629,0.766,2.212,1.518,1.808,2.383c-0.382,0.816-1.48,0.997-2.914,0.323
		c-1.06-0.497-2.214-1.598-2.597-2.733l-1.932,0.984C149.952,122.899,151.271,124.455,153.275,125.397z"/>
	<path fill="#FFFFFF" d="M166.412,118.233l-6.809,9.912l4.628,3.193c2.15,1.483,4.322,0.836,5.517-0.903
		c1.184-1.724,1.008-4.014-1.128-5.487l-2.521-1.739l2.419-3.521L166.412,118.233z M167.062,126.611
		c0.83,0.573,1.097,1.523,0.535,2.341c-0.572,0.832-1.542,0.907-2.372,0.334l-2.239-1.545l1.837-2.675L167.062,126.611z
		 M170.505,135.667l6.808-9.911l-2.121-1.464l-6.808,9.912L170.505,135.667z"/>
	<path fill="#FFFFFF" d="M29.581,198.234l4.938-4.177l4.404,3.922l0.013-1.452l-4.793-4.164l4.83,0.042l0.011-1.159l-9.339-0.081
		l-0.011,1.159l3.137,0.027l1.056,0.945l-4.233,3.498L29.581,198.234z"/>
	<path fill="#FFFFFF" d="M29.867,203.85c0.197,2.044,1.91,3.169,3.86,2.98c1.951-0.188,3.401-1.62,3.204-3.663
		c-0.198-2.044-1.896-3.171-3.847-2.982C31.134,200.374,29.669,201.807,29.867,203.85z M30.801,203.76
		c-0.139-1.432,1.01-2.357,2.389-2.49c1.365-0.132,2.67,0.556,2.809,1.987c0.139,1.433-1.011,2.343-2.377,2.476
		C32.242,205.865,30.939,205.191,30.801,203.76z"/>
	<path fill="#FFFFFF" d="M32.241,216.969l6.617-1.39l-0.288-1.367l-5.324-0.965l4.478-3.054l-0.285-1.354l-6.616,1.391l0.216,1.025
		l5.192-1.091l-4.737,3.25l0.08,0.383l5.645,1.055l-5.192,1.092L32.241,216.969z"/>
	<path fill="#FFFFFF" d="M33.503,221.32l2.874-0.939l1.098,3.345l-2.874,0.939l0.326,0.995l6.427-2.101l-0.327-0.995l-2.674,0.874
		l-1.098-3.345l2.675-0.874l-0.327-0.996l-6.426,2.101L33.503,221.32z"/>
	<path fill="#FFFFFF" d="M38.336,233.733l4.247-1.881c1.497-0.662,1.603-2.008,1.024-3.31c-0.448-1.008-1.133-1.652-2.118-2.01
		l-0.467,0.741c0.832,0.288,1.367,0.77,1.696,1.51c0.397,0.893,0.219,1.766-0.612,2.134l-1.112,0.493
		c0.354-0.752,0.311-1.573-0.064-2.415c-0.465-1.047-1.61-1.868-2.992-1.256c-1.343,0.595-1.553,2.017-1.088,3.062
		c0.369,0.83,0.975,1.401,1.765,1.662l-0.703,0.312L38.336,233.733z M37.693,230.842c-0.396-0.894-0.112-1.769,0.668-2.113
		c0.793-0.352,1.634,0.024,2.031,0.918c0.301,0.676,0.334,1.44-0.013,2.037l-1.164,0.516
		C38.539,232.056,37.994,231.518,37.693,230.842z"/>
	<path fill="#FFFFFF" d="M41.045,238.845l5.105-2.825l0.957,1.723l0.809-0.447l-2.416-4.35l-0.809,0.447l0.95,1.711l-5.106,2.825
		L41.045,238.845z"/>
	<path fill="#FFFFFF" d="M48.946,239.077l-5.543,3.864l2.052,2.931c0.793,1.134,1.998,1.196,2.917,0.557
		c0.906-0.633,1.281-1.78,0.479-2.925l-1.45-2.072l2.146-1.496L48.946,239.077z M48.03,243.94c0.44,0.63,0.264,1.23-0.275,1.606
		c-0.551,0.384-1.174,0.324-1.606-0.294l-1.387-1.98l1.882-1.312L48.03,243.94z M47.907,249.375l5.543-3.864l-0.601-0.858
		l-5.543,3.864L47.907,249.375z"/>
	<path fill="#FFFFFF" d="M55.412,258.095c0.861,0.878,1.73,1.045,2.573,0.945l-0.029-0.948c-0.743,0.101-1.345-0.113-1.835-0.612
		c-1.008-1.027-0.834-2.448,0.236-3.493c1.07-1.046,2.487-1.18,3.496-0.151c0.489,0.499,0.7,1.094,0.574,1.843l0.949,0.05
		c0.118-0.839-0.031-1.709-0.893-2.587c-1.41-1.438-3.46-1.33-4.891,0.067C54.153,254.615,54.002,256.658,55.412,258.095z"/>
	<path fill="#FFFFFF" d="M71.081,262.407l-3.757-2.868l-4.109,5.358l0.834,0.637l3.548-4.626l2.923,2.231L71.081,262.407z"/>
	<path fill="#FFFFFF" d="M73.712,272.146l2.48-3.924c0.874-1.383,0.211-2.56-0.997-3.319c-0.935-0.589-1.863-0.743-2.883-0.492
		l0.026,0.875c0.853-0.223,1.566-0.121,2.253,0.311c0.829,0.521,1.168,1.347,0.683,2.114l-0.65,1.028
		c-0.125-0.822-0.62-1.48-1.401-1.972c-0.971-0.611-2.382-0.656-3.188,0.62c-0.785,1.24-0.165,2.539,0.806,3.149
		c0.77,0.484,1.593,0.622,2.395,0.4l-0.41,0.65L73.712,272.146z M71.562,270.1c-0.828-0.521-1.08-1.407-0.624-2.128
		c0.463-0.732,1.372-0.888,2.201-0.366c0.627,0.396,1.081,1.012,1.126,1.7l-0.68,1.075C72.943,270.638,72.19,270.494,71.562,270.1z"
		/>
	<path fill="#FFFFFF" d="M79.666,275.497c1.592,0.789,3.306,0.11,4.277-1.841c0.979-1.964,0.474-3.711-1.118-4.5
		c-0.853-0.423-1.822-0.357-2.566,0.038l0.448-0.9l-0.939-0.466l-4.156,8.342l0.94,0.466l1.602-3.214
		C78.306,274.339,78.839,275.087,79.666,275.497z M79.846,274.541c-0.739-0.366-1.255-1.184-1.318-1.87l1.357-2.727
		c0.588-0.363,1.545-0.435,2.285-0.068c1.215,0.603,1.45,1.951,0.783,3.289C82.287,274.503,81.062,275.144,79.846,274.541z"/>
	<path fill="#FFFFFF" d="M90.21,279.723l1.636-4.34c0.576-1.529-0.311-2.548-1.647-3.049c-1.034-0.388-1.975-0.353-2.922,0.098
		l0.202,0.852c0.79-0.39,1.509-0.434,2.27-0.148c0.916,0.344,1.415,1.082,1.096,1.932l-0.429,1.138
		c-0.29-0.78-0.906-1.324-1.771-1.648c-1.074-0.402-2.465-0.163-2.997,1.249c-0.517,1.372,0.352,2.519,1.426,2.921
		c0.852,0.319,1.686,0.289,2.426-0.09l-0.271,0.719L90.21,279.723z M87.692,278.152c-0.917-0.344-1.343-1.159-1.042-1.957
		c0.306-0.811,1.164-1.145,2.081-0.801c0.694,0.26,1.264,0.771,1.446,1.437l-0.447,1.19
		C89.153,278.401,88.387,278.412,87.692,278.152z"/>
	<path fill="#FFFFFF" d="M94.562,281.062l0.774-2.916l3.409,0.9l-0.774,2.916l1.015,0.268l1.731-6.521l-1.015-0.268l-0.721,2.713
		l-3.409-0.899l0.721-2.714l-1.015-0.268l-1.731,6.52L94.562,281.062z"/>
	<path fill="#FFFFFF" d="M103.416,283.108l4.347-4.636l-0.819,5.189l1.037,0.162l1.053-6.666l-1.023-0.16l-4.304,4.543l0.805-5.093
		l-1.037-0.163l-1.054,6.667L103.416,283.108z"/>
	<path fill="#FFFFFF" d="M114.771,284.544c1.776,0.095,3.081-1.206,3.199-3.383c0.118-2.191-1.04-3.597-2.816-3.691
		c-0.95-0.051-1.815,0.393-2.342,1.05l0.054-1.004l-1.049-0.057l-0.504,9.307l1.049,0.057l0.194-3.586
		C113.062,284.019,113.849,284.494,114.771,284.544z M114.557,283.595c-0.825-0.044-1.623-0.591-1.955-1.196l0.165-3.041
		c0.396-0.567,1.247-1.011,2.072-0.967c1.356,0.072,2.107,1.218,2.026,2.711C116.785,282.595,115.913,283.668,114.557,283.595z"/>
	<path fill="#FFFFFF" d="M123.832,284.534c2.056-0.11,3.257-1.77,3.152-3.723s-1.476-3.461-3.531-3.351s-3.258,1.756-3.153,3.709
		S121.776,284.645,123.832,284.534z M123.781,283.6c-1.439,0.077-2.316-1.107-2.391-2.488c-0.073-1.367,0.672-2.639,2.112-2.716
		s2.304,1.107,2.376,2.475C125.953,282.252,125.222,283.522,123.781,283.6z"/>
	<path fill="#FFFFFF" d="M133.995,283.289c1.231-0.188,1.839-1.03,1.673-2.107c-0.116-0.76-0.764-1.381-1.468-1.442
		c0.54-0.267,0.97-0.884,0.847-1.684c-0.155-1.008-0.969-1.604-2.146-1.424l-3.681,0.564l1.024,6.668L133.995,283.289z
		 M133.647,282.41l-2.505,0.384l-0.315-2.058l2.505-0.384c0.705-0.107,1.155,0.332,1.238,0.87
		C134.668,281.857,134.312,282.308,133.647,282.41z M133.15,279.448l-2.463,0.377l-0.289-1.877l2.463-0.378
		c0.637-0.098,1.054,0.22,1.143,0.8C134.085,278.895,133.801,279.349,133.15,279.448z"/>
	<path fill="#FFFFFF" d="M144.367,280.984l-1.158-4.489c-0.408-1.582-1.721-1.908-3.104-1.553c-1.07,0.275-1.82,0.844-2.337,1.755
		l0.656,0.581c0.422-0.771,0.985-1.22,1.772-1.422c0.948-0.244,1.782,0.075,2.009,0.954l0.304,1.177
		c-0.686-0.473-1.504-0.565-2.398-0.335c-1.112,0.286-2.113,1.279-1.736,2.739c0.366,1.42,1.737,1.86,2.849,1.574
		c0.882-0.227,1.547-0.729,1.936-1.464l0.191,0.744L144.367,280.984z M141.401,281.142c-0.948,0.244-1.767-0.18-1.979-1.005
		c-0.216-0.839,0.295-1.604,1.243-1.849c0.719-0.185,1.479-0.092,2.013,0.348l0.317,1.231
		C142.741,280.509,142.12,280.957,141.401,281.142z"/>
	<path fill="#FFFFFF" d="M148.715,279.584l-1.045-2.83l3.311-1.218l1.045,2.83l0.985-0.362l-2.338-6.33l-0.985,0.362l0.973,2.635
		l-3.31,1.218l-0.973-2.634l-0.985,0.362l2.337,6.33L148.715,279.584z"/>
	<path fill="#FFFFFF" d="M157.174,276.175l-1.326-2.712l3.171-1.546l1.327,2.712l0.943-0.46l-2.968-6.063l-0.943,0.46l1.234,2.523
		l-3.171,1.546l-1.234-2.523l-0.943,0.461l2.967,6.062L157.174,276.175z"/>
	<path fill="#FFFFFF" d="M160.729,266.823l3.646,5.682l3.02-1.929c1.168-0.746,1.279-1.945,0.676-2.887
		c-0.597-0.93-1.73-1.35-2.91-0.596l-2.135,1.364l-1.411-2.2L160.729,266.823z M165.564,267.931
		c0.648-0.415,1.242-0.214,1.598,0.339c0.362,0.564,0.276,1.184-0.36,1.59l-2.04,1.304l-1.238-1.929L165.564,267.931z
		 M171.004,268.27l-3.646-5.682l-0.885,0.564l3.646,5.683L171.004,268.27z"/>
	<path fill="#FFFFFF" d="M179.132,261.8l-4.308-5.197l-1.079,0.89l1.618,5.152l-4.789-2.535l-1.068,0.882l4.308,5.197l0.809-0.668
		l-3.38-4.078l5.085,2.672l0.302-0.25l-1.687-5.476l3.38,4.078L179.132,261.8z"/>
	<path fill="#FFFFFF" d="M182.395,258.682l-1.281-6.213l3.771,3.661l0.732-0.751l-4.843-4.703l-0.723,0.74l1.229,6.126l-3.7-3.594
		l-0.732,0.751l4.844,4.703L182.395,258.682z"/>
	<path fill="#FFFFFF" d="M194.304,244.264l-5.52-3.889l-3.245,4.584l5.519,3.889l0.605-0.855l-4.765-3.357l2.034-2.874l4.766,3.357
		L194.304,244.264z"/>
	<path fill="#FFFFFF" d="M197.963,238.492c0.87-1.547,0.278-3.288-1.625-4.354c-1.916-1.073-3.69-0.658-4.562,0.888
		c-0.466,0.828-0.45,1.798-0.093,2.56l-0.878-0.492l-0.515,0.913l8.139,4.56l0.514-0.913l-3.136-1.757
		C196.734,239.79,197.51,239.296,197.963,238.492z M197.015,238.266c-0.404,0.718-1.248,1.19-1.938,1.22l-2.66-1.49
		c-0.334-0.604-0.356-1.562,0.048-2.28c0.665-1.181,2.026-1.347,3.332-0.615S197.68,237.084,197.015,238.266z"/>
	<path fill="#FFFFFF" d="M201.031,232.098l-3.416-5.35l4.831,2.08l0.416-0.962l-6.206-2.672l-0.411,0.949l3.338,5.285l-4.741-2.041
		l-0.416,0.961l6.206,2.673L201.031,232.098z"/>
	<path fill="#FFFFFF" d="M204.963,222.373c0.591-1.85,0.139-3.194-0.941-3.538c-1.066-0.338-1.877,0.636-2.168,1.363
		c0.148-0.788-0.061-1.924-1.021-2.229c-1.093-0.348-2.124,0.674-2.663,2.407c-0.374,1.171-0.236,2.167,0.187,2.961l0.778-0.324
		c-0.386-0.724-0.427-1.514-0.139-2.418c0.34-1.064,1.013-1.745,1.626-1.551c0.733,0.233,0.812,1.182,0.473,2.246l-0.459,1.437
		l0.813,0.259l0.459-1.438c0.36-1.131,0.912-1.938,1.712-1.684c0.681,0.216,0.883,1.101,0.518,2.245
		c-0.307,0.958-0.871,1.717-1.636,2.133l0.482,0.696C203.827,224.504,204.551,223.664,204.963,222.373z"/>
	<path fill="#FFFFFF" d="M207.631,211.212l-4.547-0.967c-1.602-0.341-2.48,0.687-2.778,2.08c-0.231,1.08-0.057,2.003,0.531,2.871
		l0.814-0.327c-0.505-0.722-0.655-1.425-0.485-2.218c0.205-0.956,0.863-1.56,1.754-1.37l1.191,0.254
		c-0.73,0.401-1.179,1.092-1.372,1.994c-0.239,1.12,0.205,2.458,1.684,2.772c1.438,0.306,2.445-0.724,2.686-1.844
		c0.19-0.889,0.036-1.707-0.45-2.382l0.754,0.16L207.631,211.212z M206.447,213.932c-0.204,0.957-0.95,1.498-1.785,1.32
		c-0.85-0.181-1.309-0.979-1.104-1.935c0.155-0.725,0.578-1.363,1.211-1.643l1.246,0.265
		C206.478,212.452,206.603,213.208,206.447,213.932z"/>
	<path fill="#FFFFFF" d="M208.927,200.937l-6.727-0.691l-0.145,1.39l4.776,2.541l-5.199,1.544l-0.143,1.376l6.727,0.691l0.107-1.042
		l-5.278-0.543l5.507-1.652l0.04-0.39l-5.053-2.725l5.278,0.543L208.927,200.937z"/>
	<path fill="#FFFFFF" d="M209.055,196.418l-5.282-3.529l5.263-0.031l-0.007-1.047l-6.759,0.04l0.006,1.033l5.184,3.502l-5.164,0.03
		l0.006,1.048l6.76-0.04L209.055,196.418z"/>
</g>
</svg>
