<svg xmlns="http://www.w3.org/2000/svg" version="1.1" id="Layer_1" x="0px" y="0px" width="30px" height="29.994px" viewBox="-14.471 -43.2 30 29.994" enable-background="new -14.471 -43.2 30 29.994" xml:space="preserve"><path fill-rule="evenodd" clip-rule="evenodd" fill="#ED1B17" d="M14.79-23.206c-2.047 5.79-7.535 9.95-14.014 10H0.543c-6.479-0.05-11.967-4.21-14.014-10H14.79z"/><path fill-rule="evenodd" clip-rule="evenodd" fill="#0069EA" d="M-14.471-28.199v-0.002c0-1.758 0.318-3.438 0.874-5.005h28.252c0.556 1.567 0.874 3.248 0.874 5.006 0 1.754-0.316 3.43-0.87 4.994h-28.261C-14.154-24.77-14.471-26.445-14.471-28.199z"/><path fill-rule="evenodd" clip-rule="evenodd" fill="#EAEAEA" d="M-13.723-33.206c2.063-5.819 7.6-9.994 14.126-9.994 6.526 0 12.063 4.175 14.126 9.994H-13.723z"/></svg>