<?xml version="1.0" encoding="utf-8"?>
<!-- Generator: Adobe Illustrator 19.0.0, SVG Export Plug-In . SVG Version: 6.00 Build 0)  -->
<svg version="1.1" id="Layer_1" xmlns="http://www.w3.org/2000/svg" xmlns:xlink="http://www.w3.org/1999/xlink" x="0px" y="0px"
	 viewBox="0 0 309 309" style="enable-background:new 0 0 309 309;" xml:space="preserve">
<style type="text/css">
	
		.st0{fill-rule:evenodd;clip-rule:evenodd;fill:none;stroke:#F8971F;stroke-width:2;stroke-linecap:round;stroke-linejoin:round;stroke-miterlimit:10;}
	.st1{fill:none;stroke:#F8971F;stroke-width:2;stroke-linecap:round;stroke-linejoin:round;stroke-dasharray:0.9965,9.9649;}
	.st2{fill:#FFFFFF;}
</style>
<g id="XMLID_2_">
	<path id="XMLID_100_" class="st0" d="M122.1,109c0,0,1.3,0.1,2.5,0c1.2-0.1,1,0.5,1,0.5s0.8,0.9,1.5,1c0.7,0.1,1,0.3,2,1
		c1,0.7,3.5-0.5,3.5-0.5s-0.9-0.5-2-0.5c-1.1,0-0.9-0.6-1-1c-0.1-0.4-0.5-0.8-2-1c-1.5-0.2-0.5-2-0.5-2s1.8,0.1,2.5,0
		c0.7-0.1,1.3,0.1,2.5,0c1.2-0.1,1,0.5,1,0.5s0.5,1.1,1.5,1.5c1,0.4,3.5-1.5,3.5-1.5s-0.3,0.9-0.5,1.5c-0.2,0.6-2,1.1-3,1.5
		c-1,0.4,0,1.4,1.5,1.5c1.5,0.1,1.8-0.1,2.5-0.5c0.7-0.4,0.9-0.5,2-0.5c1.1,0-1-2.5-1-2.5s0.6-0.7,1.5-0.5c0.9,0.2,2.5,0.5,2.5,0.5
		s-0.4,0.6-1,1c-0.6,0.4-0.3,1.2,0.5,2c0.8,0.8,1.5,1,1.5,1s-0.9,1.7-2,2c-1.1,0.3-1.5-0.5-1.5-0.5s-0.2-0.3-1,0
		c-0.8,0.3-2.5,1.9-3.5,2.5c-1,0.7-2,1.1-2,1.5c0,0.4,0.7,1.3,1.5,2c0.8,0.7,2.2,0.1,3.5,0c1.3-0.1-0.5,3.5-0.5,3.5l2-0.5
		c0,0,0.5-1.9,1.5-2.5c1-0.6,2.5-1.5,2.5-1.5s0.3-2.7,0.5-3.5c0.2-0.8,2.5,0,2.5,0s1,0.8,1,2c0,1.2,1.5,1,1.5,1l3-1.5
		c0,0,0.6,1.2,0.5,2.5c-0.1,1.3,1.8,2.3,2,3.5c0.2,1.2-3.5,0.5-3.5,0.5l1,1c0,0,1.9,1.2,2.5,2c0.6,0.8-0.8,0.3-1.5,0
		c-0.7-0.3-2.1-1-2.5-2c-0.5-1-0.5-0.7-1-0.5c-0.5,0.2-1.5,0-1.5,0s-0.4-1.3-2.5-1.5c-2.1-0.2,0.2,1.5,0,2.5c-0.2,1-1,0.5-1,0.5
		s-0.2,0.6-1,1.5c-0.8,0.9,0.1,0.9-1,1c-1.1,0.1-6.1,4.9-7,5c-0.9,0.1,0.2,1,0,2c-0.2,1-3.5,2.1-4,2.5c-0.5,0.4-0.5,5.5-0.5,5.5
		s-0.2-0.2-1-1c-0.8-0.8-1-2.5-1-2.5s-2-0.2-4,0c-2,0.2-2.4-0.2-4,0c-1.7,0.2-3.2,2.7-3.5,4c-0.4,1.3-0.4,3.5,0.5,4.5
		c0.9,1,6.5-3,6.5-3s0.7,1.6,0,2.5c-0.7,0.9-1,2-1,2s2.5-0.1,3.5,0.5c1,0.6-0.2,3.6,0,4.5c0,0,0,0.1,0.1,0.1
		c0.9,0.1,2.2,0.2,3.5,0.4c2.2,0.3,0.5,0,0.5,0s1.5-1.3,2-2c0.5-0.7,1-1,1-1s1.2-0.2,2,0.5c0.8,0.8,1.3,2.8,2.5,2.5
		c1.2-0.2,3-0.5,3-0.5s0.1-1.6,0.5-1.5c0.4,0.1,1.9,1.8,2.5,2.5c0.6,0.7-0.2,1.3,1.5,1.5c1.7,0.2,2.2-1.1,3,0c0.8,1.1,1.4,3.2,1.5,4
		c0.1,0.9,0,2.6,1,2.5c1-0.1,1.1-0.1,3.5,0c2.4,0.1,4.2-0.7,4.5,0c0.3,0.7-0.5,2.5,1,2.5c1.5,0,2.5,0.5,2.5,0.5s-1.1,2.8-2,3.5
		s-1.7,3.5-1.5,4c0.2,0.5-1,5-1,5s-3.6,0.3-4,0.5c-0.5,0.2-1,0.5-1,0.5v5.5c0,0-3.1,4.4-3.5,5c-0.4,0.7-1.5,1.9-2.5,2
		c-1,0.1-4.5,1-4.5,1s1.7,0.2,2,1c0.3,0.8-1,3-1,3s2.2,0,2,0.5c-0.2,0.5-0.7,1.5-0.5,2.5c0.2,1,2,2.5,2,2.5s0.7,1.5-1,1.5
		c-1.7,0-4.6-0.7-5.5-2.5s-1.8-3.9-2-5c-0.2-1.1-0.2-1.8,0-3c0.2-1.3-0.6-1.7-1-2.5c-0.4-0.8-1.5-1.1-1-2c0.5-0.9,1.4-2.1,1-3
		c-0.4-1-0.9,0-1-1.5c-0.1-1.5-0.2-6.1-0.5-7.5c-0.3-1.4,0.1-0.9-1-2c-1.1-1.1-1.8-1.3-2.5-1.5c-0.8-0.2-1.2,0-1.5-0.5
		c-0.3-0.5,0.7-1.3,0-2c-0.7-0.7-4.1-4.3-4-5c0-0.8-0.2-1.7,0-3c0.2-1.3-0.7-1.5,1-2c1.7-0.5,2-2.8,2-4c0-1.2-0.7-0.8-1.5-1
		c-0.2-0.1-0.5-0.2-0.8-0.3c-0.3,0.1-0.5,0.2-0.7,0.3c-0.8,0.2-1.4-0.3-2.5-1c-1.1-0.7-1.6-2.2-2-3c-0.4-0.8-1.3-1-3-1.5
		c-1.7-0.6-0.5-1-0.5-1l-2,0.5c0,0-0.4,0.4-2-0.5c-1.7-0.9-1.1-0.1-2,0c-0.9,0.1-2.8-2.4-3-3c-0.3-0.6,1.5-1.5,1.5-1.5
		s-0.7-0.7-0.5-1.5c0.2-0.8-2.1-2.1-3-3c-0.9-0.9-1.5-4-1.5-4s-0.2,2.3,0,3c0.2,0.7,2,3.5,2,3.5v1.5c0,0-0.9,0.2-1.5,0
		c-0.6-0.2-0.9-2-2-3c-1.1-1-0.5-5.5-0.5-5.5l-3.5-1.5"/>
	<path id="XMLID_98_" class="st0" d="M195.4,189.9c0,0,0.6-3.6,0-5c-0.6-1.4-1.2-1.4-1.5-2.5c-0.3-1.1-0.5-0.6-0.5-2.5
		c0-1.9,1-1.8-0.5-3c-1.5-1.2-1.1-1.8-0.5-4c0.6-2.2-1.9-4.1-2.5-6.5c-0.7-2.4-0.7-4-0.5-5c0.2-1.1,1-2,0-2.5c-1-0.5-2.1-0.7-3-1.5
		c-0.9-0.8-0.6-1.8-2.5-1c-1.9,0.8-0.9,1.4-2.5,1.5c-1.6,0.1-1.5-0.3-2.5,0c-1,0.3-0.2,0.3-2,0.5c-1.8,0.2-1.9-0.2-3-1
		c-1.1-0.8-2.5-2.7-2.5-3.5c0-0.8-1.6-3-1.5-4c0.1-1,0.7-0.8,1-2c0.3-1.2,0.9-0.8,0-1.5s-3.5,0-1.5-2c2-2,6.3-3.8,6.5-4.5
		c0.2-0.7-0.2-1.9,0.5-2.5c0.7-0.6-0.1-2.4,2-2c2.1,0.4,2.8,0.8,3.5,0.5c0.7-0.3,1.2-2.1,3-2c1.8,0.1,4.9-1,5,0c0.1,1-0.4,2.9,1,3
		c1.4,0.1,2.4,1.2,3.5,1.5c1.1,0.3,2.5,0.5,2.5,0.5v-1.5c0,0,0-1.3,2-0.5c2,0.8,3,1.8,4,2c1.1,0.2,4.5,0.5,4.5,0.5"/>
	<path id="XMLID_96_" class="st0" d="M205.5,133.7c-0.9,0-1.5,0.9-2.5,0c-1-0.9-1.4-1.6-1.5-2.5c-0.1-1,0.3-1-0.5-1
		c-0.8,0-1.4,0.8-1.5,1.5c-0.1,0.7,0.6,2.8-0.5,1.5c-1.1-1.3-1.9-2-2.5-3.5c-0.6-1.5-0.7-2.3-1.5-2.5c-0.8-0.2-3-0.5-3-0.5
		s-0.6,1.1,1,2c1.6,1,2,3.5,2,3.5s-0.4,2.3-2,1.5c-1.6-0.8,0.1-1.1,0-2c-0.1-0.9-0.2-1-1.5-2c-1.3-1-0.6-1.6-1.5-2
		c-0.9-0.4-0.5,1-2,1c-1.5,0,0-1-1.5,0.5c-1.5,1.5-2.4,2.7-3,3c-0.6,0.4-2.2,1.7-3.5,1.5c-1.3-0.2-2.1-1.1-2.5-2.5
		c-0.4-1.4-0.1-2.7,0.5-2.5c0.6,0.1,1.1-0.1,2,0c0.9,0.1,3.1,0.6,3,0c-0.1-0.6,0.9,0.2,0-1c-0.9-1.2-1.5-0.2-1-1.5
		c0.5-1.3,0-1.3,1-1.5c1-0.2,1.6-1.2,3-2.5c1.5-1.3,0.5-1.9,2.5-1.5c2,0.4,3.7,1.8,3.5,0.5c-0.2-1.3,0.5-2.9-0.5-2.5
		c-1,0.4-2.5,0.5-2.5,0.5s1.7-0.8,0-1.5c-1.7-0.7-2,0.5-2-0.5c0-1,0.2-2.8,2-3c1.9-0.2,2.5-1.5,2.5-1.5"/>
	<path id="XMLID_94_" class="st0" d="M154.5,98c30.7,0,55.5,24.8,55.5,55.5S185.1,209,154.5,209S99,184.1,99,153.5
		S123.8,98,154.5,98z"/>
	<path id="XMLID_92_" class="st0" d="M152.2,110c-1.1,0-2.5,0-2.5,0s-0.1,0.4-1,1c-0.9,0.6-2,1-2,1s-1.6-4.4-0.5-4.5
		c1.1-0.2,4.5-0.8,5.5-0.5c1,0.2,2.8,1.7,3.5,2c0.7,0.3,1.5,0.5,1.5,0.5s-0.5,1.6,0,1.5c0.5-0.1,2.5,0.5,2.5,0.5s-1.7,1.8-2,1.5
		c-0.3-0.2-1.5-0.5-1.5-0.5l-1,2c0,0-1.7-0.1-2.5-0.5c-0.9-0.4-4.3-1.5-2.5-1.5c1.8,0,3.8-1.1,3.5-1.5
		C153,110.6,153.3,110,152.2,110z"/>
	<path id="XMLID_90_" class="st0" d="M154.5,0C239.8,0,309,69.2,309,154.5c0,85.3-69.2,154.5-154.5,154.5C69.2,309,0,239.8,0,154.5
		C0,69.2,69.2,0,154.5,0z"/>
	<g id="XMLID_88_">
		<g id="XMLID_114_">
			<ellipse id="XMLID_115_" class="st1" cx="154.9" cy="154" rx="143.1" ry="143"/>
		</g>
	</g>
	<path id="XMLID_85_" class="st0" d="M55.1,124.7c2.5-12.2,7.1-23.6,13.4-33.9 M239.7,91.2c6.4,10.6,11,22.4,13.4,35"/>
</g>
<g id="XMLID_102_">
	<path id="XMLID_83_" class="st2" d="M45,174.6c0.3,1.5,1.2,2.4,2.3,2.9l0.3-1c-0.8-0.3-1.5-1.1-1.7-2.1c-0.4-1.9,0.8-3.6,2.8-4
		c2-0.4,3.7,0.7,4.1,2.6c0.2,1-0.2,2-0.8,2.6l0.7,0.8c0.8-0.9,1.3-2.1,1.1-3.6c-0.5-2.4-2.6-4-5.3-3.5S44.5,172.2,45,174.6z"/>
	<path id="XMLID_80_" class="st2" d="M48.9,188.8l7.3-5.9l-0.4-1.3l-9.3-0.8l0.4,1.2l2.1,0.2l1.3,4.1l-1.6,1.3L48.9,188.8z
		 M51,185.7l-1.1-3.5l5,0.4L51,185.7z"/>
	<path id="XMLID_77_" class="st2" d="M50.6,193.3l8.3,2l-6.4,2.7l0.4,1l8-3.4l-0.4-1l-8.2-2l6.2-2.6l-0.4-1l-8,3.4L50.6,193.3z
		 M62,193.7l0.2-0.6c-0.7-0.1-1.3-0.6-1.6-1.3c-0.3-0.7-0.2-1.4,0.2-2l-0.6-0.3c-0.4,0.8-0.5,1.7-0.2,2.6
		C60.4,192.9,61.2,193.5,62,193.7z"/>
	<path id="XMLID_75_" class="st2" d="M56.6,205.9l6.8-3.7l1.3,2.4l0.8-0.5l-3.2-5.8l-0.8,0.5l1.3,2.4l-6.8,3.7L56.6,205.9z"/>
	<path id="XMLID_73_" class="st2" d="M67.8,222.5l6.9-5.3l-0.7-0.9l-3,2.3l-3.1-4l3-2.3l-0.7-0.9l-6.9,5.3l0.7,0.9l3.2-2.4l3.1,4
		l-3.2,2.4L67.8,222.5z"/>
	<path id="XMLID_71_" class="st2" d="M74.6,230.1l0.7-0.7l-3.1-3.4l2.2-2l3.1,3.3l0.7-0.7l-3.1-3.3l2-1.9l3.1,3.4l0.7-0.7l-3.9-4.1
		l-6.3,5.9L74.6,230.1z"/>
	<path id="XMLID_68_" class="st2" d="M76.2,233.9l0.8,0.7l1.1-1.2l4.9,4.3l-1.1,1.2l0.8,0.7l1.7-1.9l-0.6-0.5l5.1-5.8l-4-3.5
		l-3.3,2.9c-2.2,2-2.9,1.9-3.8,1.3L76.2,233.9z M82.4,231.6l2.6-2.3l2.5,2.1l-4.4,5.1l-3.8-3.3C80,233.2,81,232.8,82.4,231.6z"/>
	<path id="XMLID_65_" class="st2" d="M90.1,243.2c2.1,1.5,4.6,0.9,6.1-1.2c1.5-2.1,1.1-4.7-1-6.1c-2.1-1.5-4.6-0.9-6.1,1.2
		C87.6,239.2,88,241.8,90.1,243.2z M90.6,242.4c-1.6-1.1-1.7-3.1-0.6-4.7c1.2-1.7,3-2.2,4.6-1.1c1.6,1.1,1.8,3,0.6,4.7
		C94.1,243,92.2,243.6,90.6,242.4z"/>
	<path id="XMLID_63_" class="st2" d="M100.9,249.9c1.3,0.7,2.6,0.6,3.7,0.1l-0.6-0.9c-0.8,0.4-1.8,0.4-2.7,0
		c-1.7-0.9-2.2-2.9-1.2-4.7c1-1.8,3-2.4,4.6-1.5c0.9,0.5,1.4,1.4,1.5,2.2l1,0c-0.1-1.2-0.7-2.3-2.1-3.1c-2.2-1.2-4.8-0.5-6.1,1.8
		C97.9,246.2,98.7,248.7,100.9,249.9z"/>
	<path id="XMLID_61_" class="st2" d="M110.5,254.3l3-7.1l2.5,1.1l0.4-0.9l-6.1-2.6l-0.4,0.9l2.5,1.1l-3,7.1L110.5,254.3z"/>
	<path id="XMLID_59_" class="st2" d="M117.6,257.2c1.2,0.4,1.9-0.1,2.8-0.9l5.8-5.7l-1.2-0.4l-4.2,4.3l-1-5.9l-1.2-0.4l1.3,7
		l-0.2,0.2c-0.7,0.7-1.1,0.9-1.8,0.7c-0.5-0.1-0.8-0.5-1-0.9l-0.7,0.7C116.3,256.5,116.9,256.9,117.6,257.2z"/>
	<path id="XMLID_57_" class="st2" d="M134.1,261.3l1.8-8.5l-7.1-1.5l-1.8,8.5l1.1,0.2l1.6-7.5l5,1l-1.6,7.5L134.1,261.3z"/>
	<path id="XMLID_55_" class="st2" d="M144.4,262.5l0.1-1l-4.6-0.5l0.3-3l4.5,0.5l0.1-1l-4.5-0.5l0.3-2.8l4.6,0.5l0.1-1l-5.6-0.6
		l-0.9,8.6L144.4,262.5z"/>
	<path id="XMLID_53_" class="st2" d="M155.9,262.8l0.1-8.7l-1.1,0l-0.1,3.7l-5.1-0.1l0.1-3.7l-1.1,0l-0.1,8.7l1.1,0l0.1-4l5.1,0.1
		l-0.1,4L155.9,262.8z"/>
	<path id="XMLID_49_" class="st2" d="M170.4,261.4c1.6-0.2,2.3-1.3,2.1-2.7c-0.2-1-1.1-1.9-2-1.9c0.8-0.3,1.4-1.1,1.2-2.2
		c-0.2-1.3-1.2-2-2.7-1.8l-3.8,0.6l1.3,8.6L170.4,261.4z M169.4,256.6l-2.6,0.4l-0.4-2.8l2.6-0.4c1-0.1,1.6,0.4,1.7,1.2
		C170.8,255.8,170.4,256.5,169.4,256.6z M170,260.5l-2.6,0.4l-0.4-3l2.6-0.4c1.1-0.2,1.7,0.5,1.8,1.2
		C171.5,259.7,171,260.4,170,260.5z"/>
	<path id="XMLID_45_" class="st2" d="M186.6,257.6c1.5-0.5,2.1-1.7,1.7-3c-0.3-1-1.3-1.7-2.2-1.5c0.7-0.4,1.2-1.3,0.9-2.4
		c-0.4-1.2-1.5-1.8-3-1.4l-3.7,1.2l2.6,8.3L186.6,257.6z M184.9,252.9l-2.5,0.8l-0.8-2.7l2.5-0.8c0.9-0.3,1.6,0.2,1.8,0.9
		C186.2,251.9,185.8,252.7,184.9,252.9z M186.1,256.7l-2.5,0.8l-0.9-2.9l2.5-0.8c1-0.3,1.7,0.2,2,0.9
		C187.5,255.7,187.1,256.4,186.1,256.7z"/>
	<path id="XMLID_42_" class="st2" d="M199.9,252.4l-6.6-6.6l-1.2,0.5l0.2,9.3l1.1-0.5l0-2.1l4-1.7l1.5,1.5L199.9,252.4z
		 M196.7,250.7l-3.4,1.4l-0.1-5L196.7,250.7z"/>
	<path id="XMLID_40_" class="st2" d="M207.1,238.6l3.8,6.7l-3.1,1.8l-3.8-6.7l-0.9,0.5l3.8,6.7l-3.1,1.8l-3.8-6.7l-0.9,0.5l4.3,7.5
		l9-5.2l-4.3-7.5L207.1,238.6z"/>
	<path id="XMLID_38_" class="st2" d="M220.7,239.6l-0.6-0.8l-3.7,2.7l-1.8-2.4l3.6-2.7l-0.6-0.8l-3.6,2.7l-1.7-2.2l3.7-2.7l-0.6-0.8
		l-4.6,3.4l5.1,7L220.7,239.6z"/>
	<path id="XMLID_35_" class="st2" d="M224.8,236.1l-0.9-8.5l4.6,5.1l0.8-0.7l-5.8-6.4l-0.8,0.7l0.8,8.4l-4.5-5l-0.8,0.7l5.8,6.4
		L224.8,236.1z M221.5,225.3l-0.6,0c0.1,0.7-0.1,1.4-0.7,1.9c-0.6,0.5-1.3,0.7-2,0.5l-0.1,0.6c0.9,0.2,1.8-0.1,2.5-0.7
		C221.3,227,221.6,226.1,221.5,225.3z"/>
	<path id="XMLID_33_" class="st2" d="M239.3,221.2c1-1.2,1-2.5,0.7-3.7l-1,0.4c0.3,0.8,0.1,1.9-0.5,2.6c-1.2,1.5-3.2,1.7-4.8,0.4
		c-1.6-1.3-1.8-3.3-0.7-4.8c0.6-0.8,1.6-1.1,2.5-1.1l0.2-1c-1.2-0.1-2.4,0.3-3.4,1.5c-1.6,1.9-1.4,4.6,0.7,6.3
		C235.1,223.6,237.8,223.2,239.3,221.2z"/>
	<path id="XMLID_31_" class="st2" d="M245.4,212.6l-6.4-4.2l1.5-2.3l-0.8-0.5L236,211l0.8,0.5l1.5-2.3l6.4,4.2L245.4,212.6z"/>
	<path id="XMLID_28_" class="st2" d="M249.4,205.9l-3-1.6l1.1-2.1c0.8-1.5,0.2-3-1-3.6c-1.3-0.7-2.8-0.4-3.6,1.2l-1.6,3.1l7.7,4.1
		L249.4,205.9z M246.6,201.8l-1.1,2l-2.9-1.6l1.1-2c0.5-0.9,1.4-1.2,2.3-0.8C246.8,199.9,247.1,200.9,246.6,201.8z"/>
	<path id="XMLID_25_" class="st2" d="M256.4,190.8l-9.3-0.1l-0.5,1.2l6.7,6.5l0.5-1.1l-1.5-1.4l1.6-4l2.1,0L256.4,190.8z
		 M252.8,191.9l-1.4,3.4l-3.6-3.5L252.8,191.9z"/>
	<path id="XMLID_23_" class="st2" d="M259.6,180.3l-8.3-2.4l-0.3,1l3.6,1.1l-1.4,4.9l-3.6-1.1l-0.3,1l8.3,2.4l0.3-1l-3.8-1.1
		l1.4-4.9l3.8,1.1L259.6,180.3z"/>
	<path id="XMLID_21_" class="st2" d="M261.7,170.3l-0.9-0.2l-0.9,4.5l-2.9-0.6l0.8-4.4l-0.9-0.2l-0.8,4.4l-2.7-0.5l0.9-4.5l-0.9-0.2
		l-1.1,5.6l8.5,1.6L261.7,170.3z"/>
	<path id="XMLID_19_" class="st2" d="M105.5,65.7l2-11.7l4.3,8.6l1.3-0.7l-5.4-10.7l-1.4,0.7l-2,11.5l-4.2-8.4l-1.3,0.7l5.4,10.7
		L105.5,65.7z"/>
	<path id="XMLID_17_" class="st2" d="M120.9,59.2c2.6-0.9,3.8-2.8,3.2-4.7c-0.6-1.8-2.5-2.2-3.6-1.9c1-0.5,2.1-1.8,1.6-3.5
		c-0.7-1.9-2.9-2.4-5.1-1.7c-1.8,0.6-3,1.9-3.5,3.1l1.1,0.6c0.5-1.2,1.5-2,2.8-2.5c1.5-0.5,3-0.2,3.4,1c0.4,1.3-0.6,2.3-2.1,2.8
		l-2.3,0.8l0.4,1.3l2.3-0.8c1.7-0.6,3.2-0.4,3.6,1c0.4,1.3-0.4,2.5-2.1,3.1c-1.4,0.5-2.9,0.3-3.9-0.4l-0.5,1.2
		C117.1,59.6,118.9,59.9,120.9,59.2z"/>
	<path id="XMLID_13_" class="st2" d="M134.5,55.4c2.2-0.4,3.1-2,2.8-3.9c-0.3-1.4-1.6-2.5-2.9-2.4c1-0.4,1.8-1.6,1.5-3.1
		c-0.4-1.8-1.9-2.7-3.9-2.3l-5.2,1.1l2.4,11.8L134.5,55.4z M132.8,48.8l-3.5,0.7l-0.8-3.8l3.5-0.7c1.3-0.3,2.2,0.4,2.4,1.5
		C134.7,47.6,134.1,48.5,132.8,48.8z M134,54.2l-3.6,0.7l-0.8-4.1l3.6-0.7c1.4-0.3,2.4,0.5,2.6,1.6C136,52.9,135.3,53.9,134,54.2z"
		/>
	<path id="XMLID_11_" class="st2" d="M143.5,54.1l6.4-10l0.6,9.6l1.5-0.1l-0.7-12l-1.5,0.1l-6.3,9.8l-0.6-9.4l-1.5,0.1l0.7,12
		L143.5,54.1z"/>
	<path id="XMLID_9_" class="st2" d="M166.6,54.5l1-12l-1.5-0.1l-0.4,5.1l-7-0.6l0.4-5.1l-1.5-0.1l-1,12l1.5,0.1l0.5-5.5l7,0.6
		l-0.5,5.5L166.6,54.5z"/>
	<path id="XMLID_7_" class="st2" d="M172.6,55.6l9-7.7l-2.2,9.3l1.5,0.3l2.8-11.7l-1.5-0.4l-8.9,7.5l2.2-9.1l-1.5-0.3l-2.8,11.7
		L172.6,55.6z"/>
	<path id="XMLID_5_" class="st2" d="M189.4,60.6l3.8-10l3.6,1.4l0.5-1.2l-8.5-3.3l-0.5,1.2l3.5,1.4L188,60L189.4,60.6z"/>
	<path id="XMLID_3_" class="st2" d="M203.3,67.3l0.6-1.2l-5.6-3l1.9-3.7l5.5,2.9l0.6-1.2l-5.5-2.9l1.8-3.4l5.6,3l0.6-1.2L202,53
		l-5.6,10.6L203.3,67.3z"/>
</g>
</svg>
