<svg xmlns="http://www.w3.org/2000/svg" version="1.1" id="Layer_1" x="0px" y="0px" width="30px" height="29.994px" viewBox="2.5 12.5 30 29.994" enable-background="new 2.5 12.5 30 29.994" xml:space="preserve"><path fill="#ED1B17" d="M17.5 42.494c5.545 0 10.366-3.02 12.959-7.494H4.541C7.134 39.475 11.956 42.494 17.5 42.494z"/><path fill="#ED1B17" d="M17.616 12.5h-0.231c-5.5 0.042-10.274 3.052-12.847 7.5h25.925C27.89 15.552 23.115 12.542 17.616 12.5z"/><path fill="#FFCB08" d="M32.5 27.495v-0.002c0-1.754-0.316-3.43-0.869-4.993 -0.183-0.515-0.401-1.013-0.637-1.5 -0.164-0.341-0.344-0.674-0.531-1H4.538c-0.188 0.326-0.368 0.659-0.532 1 -0.235 0.487-0.454 0.985-0.636 1.5 -0.553 1.564-0.87 3.24-0.87 4.994 0 1.759 0.318 3.438 0.874 5.006 0.311 0.876 0.708 1.708 1.167 2.5h25.918c0.459-0.792 0.856-1.624 1.167-2.5C32.182 30.933 32.5 29.253 32.5 27.495z"/></svg>