<?xml version="1.0" encoding="utf-8"?>
<!-- Generator: Adobe Illustrator 16.0.0, SVG Export Plug-In . SVG Version: 6.00 Build 0)  -->
<!DOCTYPE svg PUBLIC "-//W3C//DTD SVG 1.1//EN" "http://www.w3.org/Graphics/SVG/1.1/DTD/svg11.dtd">
<svg version="1.1" id="Layer_1" xmlns="http://www.w3.org/2000/svg" xmlns:xlink="http://www.w3.org/1999/xlink" x="0px" y="0px"
	 width="65.982px" height="49.971px" viewBox="0 0 65.982 49.971" enable-background="new 0 0 65.982 49.971" xml:space="preserve">
<g>
	
		<path fill-rule="evenodd" clip-rule="evenodd" fill="none" stroke="#231F20" stroke-width="2" stroke-linecap="round" stroke-linejoin="round" stroke-miterlimit="10" d="
		M52.018,6.187c1.174-0.279,2.024-0.576,2.024-0.576s7.059,2.119,8.117,3.355c0.854,0.996,2.471,3.841,2.823,12.538
		c-1.896,1.324-5.646,1.412-5.646,1.412"/>
	
		<path fill-rule="evenodd" clip-rule="evenodd" fill="none" stroke="#231F20" stroke-width="2" stroke-linecap="round" stroke-linejoin="round" stroke-miterlimit="10" d="
		M60.571,14.382c0,0-1.765,1.545-1.765,4.591c0,3.047,0,22.428,0,22.428s-2.018,0.955-4.547,1.309s-5.688,0.457-5.688,0.457h-0.177
		c0,0-0.783-0.026-1.882-0.096"/>
	
		<path fill-rule="evenodd" clip-rule="evenodd" fill="none" stroke="#231F20" stroke-width="2" stroke-linecap="round" stroke-linejoin="round" stroke-miterlimit="10" d="
		M57.985,19.961l-3.381-0.001"/>
	
		<path fill-rule="evenodd" clip-rule="evenodd" fill="none" stroke="#231F20" stroke-width="2" stroke-linecap="round" stroke-linejoin="round" stroke-miterlimit="10" d="
		M6.97,22.917c0,0-4.073-0.088-5.97-1.412C1.353,12.807,2.97,9.962,3.823,8.966C4.882,7.73,11.94,5.611,11.94,5.611
		s0.85,0.299,2.023,0.579"/>
	
		<path fill-rule="evenodd" clip-rule="evenodd" fill="none" stroke="#231F20" stroke-width="2" stroke-linecap="round" stroke-linejoin="round" stroke-miterlimit="10" d="
		M19.469,43.07c-1.099,0.069-1.882,0.096-1.882,0.096H17.41c0,0-3.158-0.104-5.688-0.457S7.176,41.4,7.176,41.4s0-19.381,0-22.428
		c0-3.046-1.765-4.591-1.765-4.591"/>
	
		<path fill-rule="evenodd" clip-rule="evenodd" fill="none" stroke="#231F20" stroke-width="2" stroke-linecap="round" stroke-linejoin="round" stroke-miterlimit="10" d="
		M11.378,19.96l-3.896,0.001"/>
	
		<path fill-rule="evenodd" clip-rule="evenodd" fill="none" stroke="#231F20" stroke-width="2" stroke-linecap="round" stroke-linejoin="round" stroke-miterlimit="10" d="
		M19.469,23.711c0,0-5.605-0.116-8.091-1.854c0.463-11.413,2.58-15.146,3.698-16.453C16.464,3.781,25.71,1,25.71,1
		s3.896,1.391,7.265,1.391S40.272,1,40.272,1s9.246,2.781,10.634,4.403c1.118,1.308,3.235,5.04,3.698,16.453
		c-2.485,1.738-8.091,1.854-8.091,1.854"/>
	
		<path fill-rule="evenodd" clip-rule="evenodd" fill="none" stroke="#231F20" stroke-width="2" stroke-linecap="round" stroke-linejoin="round" stroke-miterlimit="10" d="
		M17.157,11.196c0,0,2.312,2.028,2.312,6.025c0,3.998,0,29.432,0,29.432s2.643,1.254,5.956,1.718c3.313,0.463,7.451,0.6,7.451,0.6
		h0.23c0,0,4.138-0.137,7.451-0.6c3.313-0.464,5.956-1.718,5.956-1.718s0-25.434,0-29.432c0-3.997,2.312-6.025,2.312-6.025"/>
	
		<path fill-rule="evenodd" clip-rule="evenodd" fill="none" stroke="#231F20" stroke-width="2" stroke-linecap="round" stroke-linejoin="round" stroke-miterlimit="10" d="
		M45.989,17.961H19.906"/>
</g>
</svg>
