<?xml version="1.0" encoding="utf-8"?>
<!-- Generator: Adobe Illustrator 16.0.0, SVG Export Plug-In . SVG Version: 6.00 Build 0)  -->
<!DOCTYPE svg PUBLIC "-//W3C//DTD SVG 1.1//EN" "http://www.w3.org/Graphics/SVG/1.1/DTD/svg11.dtd">
<svg version="1.1" id="Layer_1" xmlns="http://www.w3.org/2000/svg" xmlns:xlink="http://www.w3.org/1999/xlink" x="0px" y="0px"
	 width="67.756px" height="48.967px" viewBox="0 0 67.756 48.967" enable-background="new 0 0 67.756 48.967" xml:space="preserve">
<g>
	
		<path fill-rule="evenodd" clip-rule="evenodd" fill="none" stroke="#231F20" stroke-width="2" stroke-linejoin="round" stroke-miterlimit="10" d="
		M14.196,41.976H1.011c0,0-0.5-4.507,5.25-7.236s8.251-4.951,8.251-4.951v-4.57c0,0-1.875-1.144-1.875-4.571
		c0,0.063-1.875-0.634-1.875-2.666c0-1.777,1.125-1.904,1.125-1.904s-1.125-1.333-1.125-6.094s2.125-7.998,9.001-7.998
		c3.5,0,3.75,2.285,3.75,2.285s0.558,0.036,1.277,0.296"/>
	
		<path fill-rule="evenodd" clip-rule="evenodd" fill="none" stroke="#231F20" stroke-width="2" stroke-linejoin="round" stroke-miterlimit="10" d="
		M55.763,47.967H12.031c0,0-0.595-5.293,6.248-8.499s9.817-5.814,9.817-5.814v-5.368c0,0-2.231-1.342-2.231-5.367
		c0,0.074-2.231-0.744-2.231-3.131c0-2.088,1.339-2.236,1.339-2.236s-1.339-1.566-1.339-7.157S26.162,1,34.343,1
		c4.165,0,4.462,2.685,4.462,2.685s5.354,0.298,5.354,6.262s-1.339,7.604-1.339,7.604s1.339,0.372,1.339,2.684
		c0,2.311-1.785,2.684-1.785,2.684s-1.265,5.367-3.124,5.367c0.075,0,0,5.368,0,5.368s1.19,3.057,8.033,4.92
		C54.126,40.437,55.763,47.967,55.763,47.967z"/>
	
		<path fill-rule="evenodd" clip-rule="evenodd" fill="none" stroke="#231F20" stroke-width="2" stroke-linejoin="round" stroke-miterlimit="10" d="
		M41.274,4.356c1.391-1.498,3.693-2.372,7.292-2.372c3.536,0,3.79,2.285,3.79,2.285s4.547,0.254,4.547,5.332
		s-1.137,6.475-1.137,6.475s1.137,0.317,1.137,2.285s-1.516,2.285-1.516,2.285s-1.074,4.571-2.652,4.571c0.062,0,0,4.57,0,4.57
		s1.01,2.603,6.82,4.189s7.2,7.998,7.2,7.998H52.58"/>
</g>
</svg>
