<svg version="1.0" id="Layer_1" xmlns="http://www.w3.org/2000/svg" xmlns:xlink="http://www.w3.org/1999/xlink" x="0px" y="0px"
	 width="51.986px" height="26.992px" viewBox="-1.625 46.721 51.986 26.992" enable-background="new -1.625 46.721 51.986 26.992"
	 xml:space="preserve">
<g>
	<path fill-rule="evenodd" clip-rule="evenodd" fill="none" stroke="#ffffff" stroke-width="2" stroke-miterlimit="10" d="
		M-0.625,47.721h24.993v24.992H-0.625V47.721z"/>
	<path fill-rule="evenodd" clip-rule="evenodd" fill="none" stroke="#ffffff" stroke-width="2" stroke-miterlimit="10" d="
		M24.368,47.721h24.993v24.992H24.368V47.721z"/>
	<path fill-rule="evenodd" clip-rule="evenodd" fill="none" stroke="#ffffff" stroke-width="2" stroke-miterlimit="10" d="
		M24.368,54.918c2.949,0,5.339,2.391,5.339,5.339c0,2.947-2.39,5.338-5.339,5.338c-2.947,0-5.338-2.391-5.338-5.338
		C19.03,57.309,21.421,54.918,24.368,54.918z"/>
	<path fill-rule="evenodd" clip-rule="evenodd" fill="none" stroke="#ffffff" stroke-width="2" stroke-miterlimit="10" d="
		M34.372,65.244h3.158c2.734,0,4.951-2.233,4.951-4.987c0-2.756-2.217-4.988-4.951-4.988h-3.158V65.244z"/>
	<path fill-rule="evenodd" clip-rule="evenodd" fill="none" stroke="#ffffff" stroke-width="2" stroke-miterlimit="10" d="
		M6.889,55.237h10.002"/>
	<path fill-rule="evenodd" clip-rule="evenodd" fill="none" stroke="#ffffff" stroke-width="2" stroke-miterlimit="10" d="
		M11.89,55.357v10.554"/>
</g>
</svg>
