<?xml version="1.0" encoding="utf-8"?>
<!-- Generator: Adobe Illustrator 16.0.0, SVG Export Plug-In . SVG Version: 6.00 Build 0)  -->
<!DOCTYPE svg PUBLIC "-//W3C//DTD SVG 1.1//EN" "http://www.w3.org/Graphics/SVG/1.1/DTD/svg11.dtd">
<svg version="1.1" id="Layer_1" xmlns="http://www.w3.org/2000/svg" xmlns:xlink="http://www.w3.org/1999/xlink" x="0px" y="0px"
	 width="50.045px" height="26.047px" viewBox="0 0 50.045 26.047" enable-background="new 0 0 50.045 26.047" xml:space="preserve">
<g>
	<path fill-rule="evenodd" clip-rule="evenodd" fill="#75BE43" stroke="#FFFFFF" stroke-width="2" stroke-miterlimit="10" d="M1,1
		h24.022v24.047H1V1z"/>
	<path fill-rule="evenodd" clip-rule="evenodd" fill="#75BE43" stroke="#FFFFFF" stroke-width="2" stroke-miterlimit="10" d="
		M25.022,1h24.022v24.047H25.022V1z"/>
	<path fill-rule="evenodd" clip-rule="evenodd" fill="none" stroke="#FFFFFF" stroke-width="2" stroke-miterlimit="10" d="
		M25.023,8.027c2.768,0,5.012,2.24,5.012,5.004c0,2.764-2.244,5.004-5.012,5.004c-2.769,0-5.012-2.24-5.012-5.004
		C20.011,10.268,22.255,8.027,25.023,8.027z"/>
	<path fill-rule="evenodd" clip-rule="evenodd" fill="none" stroke="#FFFFFF" stroke-width="2" stroke-miterlimit="10" d="
		M35.029,18.016h3.106c2.689,0,4.869-2.232,4.869-4.984c0-2.753-2.18-4.984-4.869-4.984h-3.106V18.016z"/>
	<path fill-rule="evenodd" clip-rule="evenodd" fill="none" stroke="#FFFFFF" stroke-width="2" stroke-miterlimit="10" d="
		M7.01,8.024h10"/>
	<path fill-rule="evenodd" clip-rule="evenodd" fill="none" stroke="#FFFFFF" stroke-width="2" stroke-miterlimit="10" d="
		M12.01,8.024v11"/>
</g>
</svg>
