<?xml version="1.0" encoding="utf-8"?>
<!-- Generator: Adobe Illustrator 16.0.0, SVG Export Plug-In . SVG Version: 6.00 Build 0)  -->
<!DOCTYPE svg PUBLIC "-//W3C//DTD SVG 1.1//EN" "http://www.w3.org/Graphics/SVG/1.1/DTD/svg11.dtd">
<svg version="1.1" id="Layer_1" xmlns="http://www.w3.org/2000/svg" xmlns:xlink="http://www.w3.org/1999/xlink" x="0px" y="0px"
	 width="161px" height="161px" viewBox="0 0 161 161" enable-background="new 0 0 161 161" xml:space="preserve">
<path fill-rule="evenodd" clip-rule="evenodd" fill="#E5E5E5" d="M80.5,0C124.959,0,161,36.041,161,80.5S124.959,161,80.5,161
	S0,124.959,0,80.5S36.041,0,80.5,0z"/>
<g>
	<path fill-rule="evenodd" clip-rule="evenodd" fill="#F7BC39" d="M80.5,108.495V44.499l16.097,22.132L112.5,55.499v27.997v5v20
		H80.5z"/>
	<path fill-rule="evenodd" clip-rule="evenodd" fill="#E89F23" d="M48.5,108.495v-20v-5V55.499l15.903,11.133L80.5,44.499v63.997
		H48.5z"/>
	<path fill-rule="evenodd" clip-rule="evenodd" fill="#901D5B" d="M80.5,79.499l-5-6.999l5-7l5,7L80.5,79.499z"/>
	<path fill-rule="evenodd" clip-rule="evenodd" fill="#FFFFFF" d="M48.5,87.977h64c2.762,0,5,2.238,5,5s-2.238,5-5,5h-64
		c-2.762,0-5-2.238-5-5S45.738,87.977,48.5,87.977z"/>
	<g>
		<g>
			<path fill-rule="evenodd" clip-rule="evenodd" fill="#B3B4B4" d="M80.5,90.977c-1.104,0-2,0.896-2,2s0.896,2,2,2s2-0.896,2-2
				S81.604,90.977,80.5,90.977z M90.5,90.977c-1.104,0-2,0.896-2,2s0.896,2,2,2s2-0.896,2-2S91.604,90.977,90.5,90.977z
				 M100.5,90.977c-1.104,0-2,0.896-2,2s0.896,2,2,2s2-0.896,2-2S101.604,90.977,100.5,90.977z M110.5,90.977c-1.104,0-2,0.896-2,2
				s0.896,2,2,2s2-0.896,2-2S111.604,90.977,110.5,90.977z M50.5,90.977c-1.104,0-2,0.896-2,2s0.896,2,2,2s2-0.896,2-2
				S51.604,90.977,50.5,90.977z M60.5,90.977c-1.104,0-2,0.896-2,2s0.896,2,2,2s2-0.896,2-2S61.604,90.977,60.5,90.977z
				 M70.5,90.977c-1.104,0-2,0.896-2,2s0.896,2,2,2s2-0.896,2-2S71.604,90.977,70.5,90.977z"/>
		</g>
	</g>
</g>
</svg>
