<?xml version="1.0" encoding="utf-8"?>
<!-- Generator: Adobe Illustrator 16.0.0, SVG Export Plug-In . SVG Version: 6.00 Build 0)  -->
<!DOCTYPE svg PUBLIC "-//W3C//DTD SVG 1.1//EN" "http://www.w3.org/Graphics/SVG/1.1/DTD/svg11.dtd">
<svg version="1.1" id="Layer_1" xmlns="http://www.w3.org/2000/svg" xmlns:xlink="http://www.w3.org/1999/xlink" x="0px" y="0px"
	 width="53.011px" height="49.222px" viewBox="0 0 53.011 49.222" enable-background="new 0 0 53.011 49.222" xml:space="preserve">
<g>
	
		<path fill-rule="evenodd" clip-rule="evenodd" fill="none" stroke="#231F20" stroke-width="2" stroke-linecap="round" stroke-linejoin="round" stroke-miterlimit="10" d="
		M44,10.222c2.762,0,5,2.238,5,5 M3,15.222c0-2.762,2.238-5,5-5h9.222"/>
	
		<path fill-rule="evenodd" clip-rule="evenodd" fill="none" stroke="#231F20" stroke-width="2" stroke-linecap="round" stroke-linejoin="round" stroke-miterlimit="10" d="
		M11.343,14.016L32.938,1.547c1.96-1.132,4.473-0.45,5.611,1.521l6.229,10.79"/>
	
		<path fill-rule="evenodd" clip-rule="evenodd" fill="none" stroke="#231F20" stroke-width="2" stroke-linecap="round" stroke-linejoin="round" stroke-miterlimit="10" d="
		M40.013,5.603l-14.954,8.619"/>
	
		<path fill-rule="evenodd" clip-rule="evenodd" fill="none" stroke="#231F20" stroke-width="2" stroke-linecap="round" stroke-linejoin="round" stroke-miterlimit="10" d="
		M51,37.64v5.582c0,2.762-2.238,5-5,5H6c-2.762,0-5-2.238-5-5v-24c0-2.762,2.238-5,5-5h40c2.762,0,5,2.238,5,5v4.334"/>
	
		<path fill-rule="evenodd" clip-rule="evenodd" fill="none" stroke="#231F20" stroke-width="2" stroke-linecap="round" stroke-linejoin="round" stroke-miterlimit="10" d="
		M40.881,24.201h11.13v13.041h-11.13c-3.254,0-5.892-2.653-5.892-5.928v-1.186C34.989,26.854,37.627,24.201,40.881,24.201z"/>
	
		<path fill-rule="evenodd" clip-rule="evenodd" fill="none" stroke="#231F20" stroke-width="2" stroke-linecap="round" stroke-linejoin="round" stroke-miterlimit="10" d="
		M41.5,28.169c1.41,0,2.553,1.143,2.553,2.553s-1.143,2.553-2.553,2.553s-2.553-1.143-2.553-2.553S40.09,28.169,41.5,28.169z"/>
</g>
</svg>
