<?xml version="1.0" encoding="utf-8"?>
<!-- Generator: Adobe Illustrator 16.0.0, SVG Export Plug-In . SVG Version: 6.00 Build 0)  -->
<!DOCTYPE svg PUBLIC "-//W3C//DTD SVG 1.1//EN" "http://www.w3.org/Graphics/SVG/1.1/DTD/svg11.dtd">
<svg version="1.1" id="Layer_1" xmlns="http://www.w3.org/2000/svg" xmlns:xlink="http://www.w3.org/1999/xlink" x="0px" y="0px"
	 width="421.775px" height="108.212px" viewBox="0 0 421.775 108.212" enable-background="new 0 0 421.775 108.212"
	 xml:space="preserve">
<g>
	<path fill-rule="evenodd" clip-rule="evenodd" fill="none" stroke="#231F20" stroke-width="2" stroke-miterlimit="10" d="
		M213.771,1c26.505,0,47.992,21.495,47.992,48.011c0,26.515-21.487,48.01-47.992,48.01s-47.991-21.495-47.991-48.01
		C165.779,22.495,187.266,1,213.771,1z"/>
	<path fill-rule="evenodd" clip-rule="evenodd" fill="none" stroke="#231F20" stroke-width="2" stroke-miterlimit="10" d="
		M213.286,9.978c21.276,0,38.524,17.472,38.524,39.022c0,21.552-17.248,39.022-38.524,39.022c-21.277,0-38.525-17.471-38.525-39.022
		C174.761,27.449,192.009,9.978,213.286,9.978z"/>
	<path fill-rule="evenodd" clip-rule="evenodd" fill="none" stroke="#231F20" stroke-width="2" stroke-miterlimit="10" d="
		M213.784,34.019v-7.007"/>
	<path fill-rule="evenodd" clip-rule="evenodd" fill="none" stroke="#231F20" stroke-width="2" stroke-miterlimit="10" d="
		M205.261,36.985l-4.954-4.955"/>
	<path fill-rule="evenodd" clip-rule="evenodd" fill="none" stroke="#231F20" stroke-width="2" stroke-miterlimit="10" d="
		M222.447,37.352l4.663-4.663"/>
	<path fill-rule="evenodd" clip-rule="evenodd" fill="none" stroke="#231F20" stroke-width="2" stroke-miterlimit="10" d="
		M220.763,43.027l0.016-0.018h-0.369c-0.206-0.011-0.409-0.031-0.617-0.031s-0.412,0.021-0.617,0.031h-26.399l5.12,9.002h10.301
		c-0.244,0.956-0.388,1.952-0.388,2.983c0,6.638,5.365,12.018,11.983,12.018s11.983-5.38,11.983-12.018
		C231.775,48.686,226.926,43.523,220.763,43.027z"/>
	<path fill-rule="evenodd" clip-rule="evenodd" fill="none" stroke="#231F20" stroke-width="2" stroke-miterlimit="10" d="
		M219.764,50.015c-2.762,0-5,2.236-5,4.995s2.238,4.995,5,4.995c2.761,0,4.999-2.236,4.999-4.995S222.524,50.015,219.764,50.015z"/>
	<path fill-rule="evenodd" clip-rule="evenodd" fill="none" stroke="#231F20" stroke-width="2" stroke-miterlimit="10" d="
		M262.761,48.999h84.015"/>
	<path fill-rule="evenodd" clip-rule="evenodd" fill="none" stroke="#231F20" stroke-width="2" stroke-miterlimit="10" d="
		M259.768,39.011h38.012"/>
	<path fill-rule="evenodd" clip-rule="evenodd" fill="none" stroke="#231F20" stroke-width="2" stroke-miterlimit="10" d="
		M256.774,29.01h12.99"/>
	<path fill-rule="evenodd" clip-rule="evenodd" fill="none" stroke="#231F20" stroke-width="2" stroke-miterlimit="10" d="
		M256.773,69.022h12.995"/>
	<path fill-rule="evenodd" clip-rule="evenodd" fill="none" stroke="#231F20" stroke-width="2" stroke-miterlimit="10" d="
		M259.761,59.002h38.011"/>
	<path fill-rule="evenodd" clip-rule="evenodd" fill="none" stroke="#231F20" stroke-width="2" stroke-miterlimit="10" d="
		M164.79,48.999H80.775"/>
	<path fill-rule="evenodd" clip-rule="evenodd" fill="none" stroke="#231F20" stroke-width="2" stroke-miterlimit="10" d="
		M167.783,39.011h-38.012"/>
	<path fill-rule="evenodd" clip-rule="evenodd" fill="none" stroke="#231F20" stroke-width="2" stroke-miterlimit="10" d="
		M170.776,29.01h-12.99"/>
	<path fill-rule="evenodd" clip-rule="evenodd" fill="none" stroke="#231F20" stroke-width="2" stroke-miterlimit="10" d="
		M170.777,69.022h-12.995"/>
	<path fill-rule="evenodd" clip-rule="evenodd" fill="none" stroke="#231F20" stroke-width="2" stroke-miterlimit="10" d="
		M167.79,59.002h-38.011"/>
	<path fill-rule="evenodd" clip-rule="evenodd" fill="none" stroke="#231F20" stroke-width="2" stroke-miterlimit="10" d="
		M417.385,60.014c1.932,0.06,3.449,1.675,3.389,3.606c-0.061,1.933-1.676,3.45-3.607,3.39c-1.932-0.06-3.449-1.675-3.389-3.606
		C413.838,61.471,415.453,59.953,417.385,60.014z"/>
	<path fill-rule="evenodd" clip-rule="evenodd" fill="none" stroke="#231F20" stroke-width="2" stroke-miterlimit="10" d="
		M369.66,12.014c1.932,0.06,3.449,1.675,3.389,3.606c-0.061,1.933-1.676,3.45-3.607,3.39c-1.932-0.06-3.449-1.675-3.389-3.606
		C366.113,13.471,367.729,11.953,369.66,12.014z"/>
	<path fill-rule="evenodd" clip-rule="evenodd" fill="none" stroke="#231F20" stroke-width="2" stroke-miterlimit="10" d="
		M327.282,10.519l5.986,5.986"/>
	<path fill-rule="evenodd" clip-rule="evenodd" fill="none" stroke="#231F20" stroke-width="2" stroke-miterlimit="10" d="
		M327.305,16.482l5.941-5.941"/>
	<path fill-rule="evenodd" clip-rule="evenodd" fill="none" stroke="#231F20" stroke-width="2" stroke-miterlimit="10" d="
		M167.282,101.519l5.986,5.986"/>
	<path fill-rule="evenodd" clip-rule="evenodd" fill="none" stroke="#231F20" stroke-width="2" stroke-miterlimit="10" d="
		M167.305,107.482l5.941-5.941"/>
	<path fill-rule="evenodd" clip-rule="evenodd" fill="none" stroke="#231F20" stroke-width="2" stroke-miterlimit="10" d="
		M5.775,46.19v11.643"/>
	<path fill-rule="evenodd" clip-rule="evenodd" fill="none" stroke="#231F20" stroke-width="2" stroke-miterlimit="10" d="M0,52.012
		h11.551"/>
	<path fill-rule="evenodd" clip-rule="evenodd" fill="none" stroke="#231F20" stroke-width="2" stroke-miterlimit="10" d="
		M363.775,62.19v11.643"/>
	<path fill-rule="evenodd" clip-rule="evenodd" fill="none" stroke="#231F20" stroke-width="2" stroke-miterlimit="10" d="
		M358,68.012h11.551"/>
	<path fill-rule="evenodd" clip-rule="evenodd" fill="none" stroke="#231F20" stroke-width="2" stroke-miterlimit="10" d="
		M124.9,2.014c2.208,0.068,3.942,1.914,3.873,4.122s-1.915,3.942-4.123,3.874s-3.942-1.914-3.873-4.122S122.692,1.945,124.9,2.014z"
		/>
	<path fill-rule="evenodd" clip-rule="evenodd" fill="none" stroke="#231F20" stroke-width="2" stroke-miterlimit="10" d="
		M309.932,80.015c2.76,0.085,4.928,2.393,4.841,5.152c-0.086,2.76-2.394,4.928-5.153,4.843c-2.76-0.086-4.928-2.394-4.842-5.153
		C304.864,82.097,307.172,79.929,309.932,80.015z"/>
	<path fill-rule="evenodd" clip-rule="evenodd" fill="none" stroke="#231F20" stroke-width="2" stroke-miterlimit="10" d="
		M102.385,67.014c1.932,0.06,3.449,1.675,3.389,3.606c-0.061,1.933-1.676,3.45-3.607,3.39c-1.932-0.06-3.449-1.675-3.389-3.606
		C98.838,68.471,100.453,66.953,102.385,67.014z"/>
</g>
</svg>
