<?xml version="1.0" encoding="utf-8"?>
<!-- Generator: Adobe Illustrator 19.0.0, SVG Export Plug-In . SVG Version: 6.00 Build 0)  -->
<svg version="1.1" id="Layer_1" xmlns="http://www.w3.org/2000/svg" xmlns:xlink="http://www.w3.org/1999/xlink" x="0px" y="0px"
	 viewBox="99 -40.4 234.6 121.4" enable-background="new 99 -40.4 234.6 121.4" xml:space="preserve">
<circle fill="none" stroke="#F68B1F" stroke-width="2" stroke-miterlimit="10" cx="216.3" cy="13.9" r="53.3"/>
<g>

		<circle fill="none" stroke="#F68B1F" stroke-width="2" stroke-linecap="round" stroke-miterlimit="10" stroke-dasharray="0,4.0228" cx="216.3" cy="13.9" r="46.8"/>
</g>
<line fill="none" stroke="#F68B1F" stroke-width="2" stroke-miterlimit="10" x1="331.3" y1="13.9" x2="269" y2="13.9"/>
<line fill="none" stroke="#F68B1F" stroke-width="2" stroke-miterlimit="10" x1="300.3" y1="3.9" x2="269" y2="3.9"/>
<line fill="none" stroke="#F68B1F" stroke-width="2" stroke-miterlimit="10" x1="300.3" y1="23.9" x2="269" y2="23.9"/>
<line fill="none" stroke="#F68B1F" stroke-width="2" stroke-miterlimit="10" x1="276.3" y1="33.9" x2="266" y2="33.9"/>
<line fill="none" stroke="#F68B1F" stroke-width="2" stroke-miterlimit="10" x1="276.3" y1="-6.1" x2="266" y2="-6.1"/>
<line fill="none" stroke="#F68B1F" stroke-width="2" stroke-miterlimit="10" x1="101.1" y1="13.9" x2="163.4" y2="13.9"/>
<line fill="none" stroke="#F68B1F" stroke-width="2" stroke-miterlimit="10" x1="132.1" y1="3.9" x2="163.4" y2="3.9"/>
<line fill="none" stroke="#F68B1F" stroke-width="2" stroke-miterlimit="10" x1="132.1" y1="23.9" x2="163.4" y2="23.9"/>
<line fill="none" stroke="#F68B1F" stroke-width="2" stroke-miterlimit="10" x1="156.1" y1="33.9" x2="166.4" y2="33.9"/>
<line fill="none" stroke="#F68B1F" stroke-width="2" stroke-miterlimit="10" x1="156.1" y1="-6.1" x2="166.4" y2="-6.1"/>
<path fill="none" stroke="#F68B1F" stroke-width="2" stroke-linecap="round" stroke-miterlimit="10" d="M228.3-1.6h-23v-13l7,7l4-8
	l5,8l7-7V-1.6z"/>
<path fill="none" stroke="#F68B1F" stroke-width="2" stroke-miterlimit="10" d="M243.3,17.7c2.6-0.8,6,1.6,6,1.6s-1.6,3.8-4.3,4.8
	c-2.7,1-6-1.6-6-1.6S240.8,18.5,243.3,17.7z"/>
<path fill="none" stroke="#F68B1F" stroke-width="2" stroke-miterlimit="10" d="M242.8,11c2.2-1.6,6.2-0.2,6.2-0.2s-0.5,4.1-2.8,5.9
	c-2.3,1.8-6.2,0.2-6.2,0.2S240.6,12.6,242.8,11z"/>
<path fill="none" stroke="#F68B1F" stroke-width="2" stroke-miterlimit="10" d="M240.1,23.6c2.7-0.2,5.4,3,5.4,3s-2.5,3.3-5.3,3.6
	s-5.4-3-5.4-3S237.4,23.8,240.1,23.6z"/>
<path fill="none" stroke="#F68B1F" stroke-width="2" stroke-miterlimit="10" d="M239.5,5.5c1-2.5,5-3.6,5-3.6s1.9,3.7,1,6.4
	c-0.9,2.7-5,3.6-5,3.6S238.5,8,239.5,5.5z"/>
<path fill="none" stroke="#F68B1F" stroke-width="2" stroke-miterlimit="10" d="M236.9,29.8c2.6,1,3.6,4.9,3.6,4.9s-3.8,1.8-6.6,0.9
	s-3.6-4.9-3.6-4.9S234.3,28.9,236.9,29.8z"/>
<path fill="none" stroke="#F68B1F" stroke-width="2" stroke-miterlimit="10" d="M195.6,22.5c0,0-3.3,2.6-6,1.6
	c-2.7-1-4.3-4.8-4.3-4.8s3.4-2.5,6-1.6C193.9,18.5,195.6,22.5,195.6,22.5z"/>
<path fill="none" stroke="#F68B1F" stroke-width="2" stroke-miterlimit="10" d="M194.6,16.9c0,0-3.9,1.6-6.2-0.2
	c-2.3-1.8-2.8-5.9-2.8-5.9s3.9-1.4,6.2,0.2C194.1,12.6,194.6,16.9,194.6,16.9z"/>
<path fill="none" stroke="#F68B1F" stroke-width="2" stroke-miterlimit="10" d="M199.9,27.2c0,0-2.6,3.4-5.4,3
	c-2.8-0.4-5.3-3.6-5.3-3.6s2.7-3.2,5.4-3C197.3,23.8,199.9,27.2,199.9,27.2z"/>
<path fill="none" stroke="#F68B1F" stroke-width="2" stroke-miterlimit="10" d="M194.2,11.9c0,0-4.1-0.8-5-3.6c-0.9-2.7,1-6.4,1-6.4
	s4,1,5,3.6C196.2,8,194.2,11.9,194.2,11.9z"/>
<path fill="none" stroke="#F68B1F" stroke-width="2" stroke-miterlimit="10" d="M204.3,30.8c0,0-0.8,4-3.6,4.9s-6.6-0.9-6.6-0.9
	s1-3.9,3.6-4.9C200.4,28.9,204.3,30.8,204.3,30.8z"/>
<path fill="none" stroke="#F68B1F" stroke-width="2" stroke-linecap="round" stroke-miterlimit="10" d="M205.3,4.5
	c0,11.6,5.1,21,11.5,21s11.5-9.4,11.5-21H205.3z"/>
<line fill="none" stroke="#F68B1F" stroke-width="2" stroke-miterlimit="10" x1="209.3" y1="33.5" x2="224.3" y2="33.5"/>
<line fill="none" stroke="#F68B1F" stroke-width="2" stroke-miterlimit="10" x1="214.3" y1="24.5" x2="216.3" y2="33.5"/>
<line fill="none" stroke="#F68B1F" stroke-width="2" stroke-miterlimit="10" x1="219.3" y1="24.5" x2="217.3" y2="33.5"/>
<path fill="none" stroke="#F68B1F" stroke-width="2" stroke-miterlimit="10" d="M228.5,7.1c2.7,0.7,4.3,3.4,3.6,6
	c-0.7,2.7-3.4,4.3-6.1,3.6"/>
<path fill="none" stroke="#F68B1F" stroke-width="2" stroke-miterlimit="10" d="M204.9,7.1c-2.7,0.7-4.3,3.4-3.6,6
	c0.7,2.7,3.4,4.3,6.1,3.6"/>
<polygon fill="#F3F3F3" stroke="#F68B1F" stroke-width="2" stroke-miterlimit="10" points="124,80 100.5,80 105.5,67.2 100.5,54.3
	124,54.3 "/>
<polygon fill="#F3F3F3" stroke="#F68B1F" stroke-width="2" stroke-miterlimit="10" points="124.1,79 114.5,74 114.5,48.3
	124.1,55.3 "/>
<polygon fill="#F3F3F3" stroke="#F68B1F" stroke-width="2" stroke-miterlimit="10" points="307.6,80 332.2,80 327.1,67.2
	332.2,54.3 307.6,54.3 "/>
<polygon fill="#F3F3F3" stroke="#F68B1F" stroke-width="2" stroke-miterlimit="10" points="307.5,79 317.1,74 317.1,48.3
	307.5,55.3 "/>
<rect x="114.5" y="47.3" fill="#F3F3F3" stroke="#F68B1F" stroke-width="2" stroke-miterlimit="10" width="202.7" height="25.7"/>
</svg>
