<?xml version="1.0" encoding="utf-8"?>
<!-- Generator: Adobe Illustrator 19.0.0, SVG Export Plug-In . SVG Version: 6.00 Build 0)  -->
<svg version="1.1" id="Layer_1" xmlns="http://www.w3.org/2000/svg" xmlns:xlink="http://www.w3.org/1999/xlink" x="0px" y="0px"
	 viewBox="0 0 549.3 515" style="enable-background:new 0 0 549.3 515;" xml:space="preserve">
<style type="text/css">
	.st0{fill-rule:evenodd;clip-rule:evenodd;fill:#EA534D;}
	.st1{fill-rule:evenodd;clip-rule:evenodd;fill:none;stroke:#EA534D;stroke-width:2;stroke-linecap:round;stroke-miterlimit:10;}
</style>
<path id="XMLID_210_" class="st0" d="M176.1,200.5h163.4c26.7,0,48.3,21.5,48.3,48.1s-21.6,48.1-48.3,48.1H176.1
	c-26.7,0-48.3-21.5-48.3-48.1S149.4,200.5,176.1,200.5z"/>
<path id="XMLID_208_" class="st1" d="M435.7,151.5l36.3-25.9"/>
<path id="XMLID_206_" class="st1" d="M65.8,361l20.1-14.5"/>
<path id="XMLID_204_" class="st1" d="M91.1,157.3l-44.6-32.5"/>
<path id="XMLID_202_" class="st1" d="M482.8,376l-62.3-45.2"/>
<path id="XMLID_200_" class="st1" d="M494.8,385l10,7"/>
<path id="XMLID_198_" class="st1" d="M286.8,118l10-45"/>
<path id="XMLID_196_" class="st1" d="M261.8,374l-5,37"/>
<path id="XMLID_194_" class="st1" d="M480.8,119l6-5"/>
<path id="XMLID_192_" class="st1" d="M154.8,75.9c2.8,0,5.1,2.3,5.1,5.1s-2.3,5.1-5.1,5.1c-2.8,0-5.1-2.3-5.1-5.1
	S152,75.9,154.8,75.9z"/>
<path id="XMLID_190_" class="st1" d="M86.8,373.9c2.8,0,5.1,2.3,5.1,5.1c0,2.8-2.3,5.1-5.1,5.1s-5.1-2.3-5.1-5.1
	C81.7,376.2,84,373.9,86.8,373.9z"/>
<path id="XMLID_188_" class="st1" d="M382.8,153.7c1.8,0,3.3,1.5,3.3,3.3s-1.5,3.3-3.3,3.3c-1.8,0-3.3-1.5-3.3-3.3
	S380.9,153.7,382.8,153.7z"/>
<path id="XMLID_186_" class="st1" d="M405.7,30.4l6.1-7.7"/>
<path id="XMLID_184_" class="st1" d="M481.8,195.3l11.9-1.6"/>
<path id="XMLID_182_" class="st1" d="M57.8,73l8,7"/>
<path id="XMLID_180_" class="st1" d="M337.8,380l6,11"/>
<path id="XMLID_178_" class="st1" d="M213.7,20.8c0,0-2.6,3-2.1,5.9c0.6,2.9,4.1,4.7,4.1,4.7s0,0,0,0c-0.3,0.1,3.4,1,4.1,4.7
	c0.7,3.7-2.1,5.9-2.1,5.9s-2.6,3-2.1,5.9c0.6,2.9,4.1,4.7,4.1,4.7s0,0,0,0c-0.2,0,3.6,1.8,4.1,4.7c0.6,2.9-2.1,5.9-2.1,5.9"/>
<path id="XMLID_176_" class="st1" d="M528.1,316.2c0,0-1-4.4-4.1-5.8c-3.1-1.4-7.1,0.7-7.1,0.7s0,0,0,0c0.2-0.3-3.2,2.5-7.1,0.7
	s-4.1-5.8-4.1-5.8s-1-4.4-4.1-5.8c-3.1-1.4-7.1,0.7-7.1,0.7s0,0,0,0c0.1-0.2-4,2.1-7.1,0.7c-3.1-1.4-4.1-5.8-4.1-5.8"/>
<path id="XMLID_174_" class="st1" d="M52.7,277C52.7,277,52.7,277,52.7,277c-0.1-0.3-0.4,3.7-4.1,5.1c-3.6,1.4-6.4-1-6.4-1
	s-3.5-2.1-6.4-1c-2.9,1.1-4.1,5.1-4.1,5.1s0,0,0,0c-0.1-0.2-1.2,4-4.1,5.1c-2.9,1.1-6.4-1-6.4-1"/>
<path id="XMLID_172_" class="st1" d="M179.7,402C179.7,402,179.7,402,179.7,402c-0.3-0.1,2.2,3,0.6,6.5c-1.6,3.5-5.4,3.7-5.4,3.7
	s-4,0.9-5.4,3.7c-1.3,2.8,0.6,6.5,0.6,6.5s0,0,0,0c-0.2-0.1,1.9,3.7,0.6,6.5c-1.3,2.8-5.4,3.7-5.4,3.7"/>
<path id="XMLID_170_" class="st1" d="M386.3,370.6c1.6,0,2.9,1.3,2.9,2.9c0,1.6-1.3,2.9-2.9,2.9c-1.6,0-2.9-1.3-2.9-2.9
	C383.4,371.9,384.7,370.6,386.3,370.6z"/>
<path id="XMLID_168_" class="st1" d="M75.8,221l9,8"/>
<path id="XMLID_166_" class="st1" d="M83.8,220l-8,9"/>
<path id="XMLID_164_" class="st1" d="M445.8,258l11.8-2.3"/>
<path id="XMLID_162_" class="st1" d="M450.8,251l2.3,11.8"/>
<path id="XMLID_160_" class="st1" d="M159.5,144.4l4.6,5.3"/>
<path id="XMLID_158_" class="st1" d="M164.5,144.9l-5.3,4.6"/>
<path id="XMLID_156_" class="st1" d="M305.5,461.4l4.6,5.3"/>
<path id="XMLID_154_" class="st1" d="M310.5,461.9l-5.3,4.6"/>
<path id="XMLID_152_" class="st1" d="M150.5,356.4l4.6,5.3"/>
<path id="XMLID_150_" class="st1" d="M155.5,356.9l-5.3,4.6"/>
<path id="XMLID_148_" class="st1" d="M357.5,90.4l4.6,5.3"/>
<path id="XMLID_145_" class="st1" d="M362.5,90.9l-5.3,4.6"/>
</svg>
