<?xml version="1.0" encoding="utf-8"?>
<!-- Generator: Adobe Illustrator 19.2.1, SVG Export Plug-In . SVG Version: 6.00 Build 0)  -->
<svg version="1.1" id="Слой_1" xmlns="http://www.w3.org/2000/svg" xmlns:xlink="http://www.w3.org/1999/xlink" x="0px" y="0px"
	 viewBox="0 0 184.5 43.9" style="enable-background:new 0 0 184.5 43.9;" xml:space="preserve">
<g>
	<path d="M0,0h4.1v27.2L22.4,0H27v34.4h-4.1V7.2L4.5,34.4H0V0z"/>
	<path d="M33.9,9.5h14.3V13H38.1v21.4h-4.2V9.5z"/>
	<path d="M51.4,43.9V9.5h3.8v3.2c0.9-1.3,1.9-2.2,3.1-2.8s2.5-0.9,4.1-0.9c2.1,0,4,0.5,5.6,1.6s2.9,2.6,3.7,4.6s1.2,4.2,1.2,6.6
		c0,2.5-0.5,4.8-1.4,6.9s-2.2,3.6-4,4.7s-3.6,1.6-5.5,1.6c-1.4,0-2.7-0.3-3.8-0.9s-2-1.3-2.8-2.3v12.1H51.4z M55.2,22.1
		c0,3.2,0.6,5.6,1.9,7.1c1.3,1.5,2.9,2.3,4.7,2.3c1.9,0,3.5-0.8,4.8-2.4s2-4,2-7.4c0-3.2-0.7-5.5-2-7.1s-2.9-2.4-4.7-2.4
		c-1.8,0-3.4,0.8-4.8,2.5C55.9,16.4,55.2,18.9,55.2,22.1z"/>
	<path d="M76.5,21.9c0-4.6,1.3-8,3.8-10.2c2.1-1.8,4.8-2.8,7.8-2.8c3.4,0,6.2,1.1,8.4,3.4s3.3,5.3,3.3,9.3c0,3.2-0.5,5.7-1.4,7.6
		s-2.4,3.3-4.2,4.3s-3.8,1.5-6,1.5c-3.5,0-6.3-1.1-8.4-3.4S76.5,26.1,76.5,21.9z M80.9,21.9c0,3.2,0.7,5.6,2.1,7.2s3.1,2.4,5.3,2.4
		c2.1,0,3.8-0.8,5.2-2.4s2.1-4,2.1-7.3c0-3.1-0.7-5.4-2.1-7s-3.1-2.4-5.2-2.4c-2.1,0-3.9,0.8-5.3,2.4S80.9,18.7,80.9,21.9z"/>
	<path d="M104.8,9.5h4.2v10.8c1.3,0,2.3-0.3,2.8-0.8s1.3-2,2.4-4.5c0.8-2,1.5-3.3,2-3.9s1.1-1,1.8-1.3s1.8-0.3,3.2-0.3h0.8V13
		l-1.2,0c-1.1,0-1.8,0.2-2.1,0.5c-0.3,0.3-0.8,1.4-1.5,3.1c-0.6,1.6-1.2,2.8-1.8,3.4s-1.4,1.2-2.5,1.7c1.8,0.5,3.6,2.2,5.3,5.1
		l4.6,7.7h-4.6l-4.5-7.7c-0.9-1.5-1.7-2.6-2.4-3.1s-1.5-0.7-2.5-0.7v11.5h-4.2V9.5z"/>
	<path d="M124.8,21.9c0-4.6,1.3-8,3.8-10.2c2.1-1.8,4.8-2.8,7.8-2.8c3.4,0,6.2,1.1,8.4,3.4s3.3,5.3,3.3,9.3c0,3.2-0.5,5.7-1.4,7.6
		s-2.4,3.3-4.2,4.3s-3.8,1.5-6,1.5c-3.5,0-6.3-1.1-8.4-3.4S124.8,26.1,124.8,21.9z M129.1,21.9c0,3.2,0.7,5.6,2.1,7.2
		s3.1,2.4,5.3,2.4c2.1,0,3.8-0.8,5.2-2.4s2.1-4,2.1-7.3c0-3.1-0.7-5.4-2.1-7s-3.1-2.4-5.2-2.4c-2.1,0-3.9,0.8-5.3,2.4
		S129.1,18.7,129.1,21.9z"/>
	<path d="M153,9.5h9.7c2.4,0,4.2,0.2,5.3,0.6s2.2,1.1,3,2.2s1.3,2.3,1.3,3.8c0,1.2-0.2,2.2-0.7,3.1s-1.2,1.6-2.2,2.2
		c1.2,0.4,2.1,1.1,2.9,2.2s1.2,2.3,1.2,3.8c-0.2,2.4-1,4.1-2.5,5.3s-3.8,1.7-6.7,1.7H153V9.5z M157.3,19.9h4.5c1.8,0,3-0.1,3.7-0.3
		s1.3-0.6,1.8-1.1s0.8-1.3,0.8-2.1c0-1.3-0.5-2.2-1.4-2.7s-2.5-0.8-4.8-0.8h-4.6V19.9z M157.3,30.9h5.6c2.4,0,4-0.3,4.9-0.8
		s1.4-1.5,1.4-2.9c0-0.8-0.3-1.5-0.8-2.2s-1.2-1.1-2-1.3s-2.2-0.3-4-0.3h-5.1V30.9z"/>
	<path d="M179.7,14.3V9.5h4.8v4.8H179.7z M179.7,34.4v-4.8h4.8v4.8H179.7z"/>
</g>
</svg>
