<?xml version="1.0" encoding="utf-8"?>
<!-- Generator: Adobe Illustrator 19.2.1, SVG Export Plug-In . SVG Version: 6.00 Build 0)  -->
<svg version="1.1" id="Слой_1" xmlns="http://www.w3.org/2000/svg" xmlns:xlink="http://www.w3.org/1999/xlink" x="0px" y="0px"
	 viewBox="0 0 117.9 43" style="enable-background:new 0 0 117.9 43;" xml:space="preserve">
<style type="text/css">
	.st0{fill:#FFFFFF;}
</style>
<g>
	<path class="st0" d="M13.4,36H9V8c-1.1,1-2.4,2-4.2,3c-1.7,1-3.3,1.8-4.6,2.3V9c2.5-1.2,4.6-2.6,6.4-4.2C8.5,3.2,9.8,1.6,10.5,0
		h2.8V36z"/>
	<path class="st0" d="M24.6,18.3c0-4.2,0.4-7.6,1.3-10.2c0.9-2.6,2.2-4.6,3.9-6C31.5,0.7,33.7,0,36.3,0c1.9,0,3.6,0.4,5.1,1.2
		C42.8,2,44,3.1,44.9,4.5c0.9,1.5,1.7,3.2,2.2,5.3c0.5,2.1,0.8,4.9,0.8,8.5c0,4.2-0.4,7.6-1.3,10.2c-0.9,2.6-2.2,4.6-3.9,6
		c-1.7,1.4-3.9,2.1-6.5,2.1c-3.5,0-6.2-1.2-8.1-3.7C25.8,29.9,24.6,25,24.6,18.3z M29.1,18.3c0,5.9,0.7,9.8,2.1,11.7
		c1.4,1.9,3.1,2.9,5.1,2.9c2,0,3.7-1,5.1-2.9c1.4-2,2.1-5.9,2.1-11.7c0-5.9-0.7-9.8-2.1-11.7c-1.4-1.9-3.1-2.9-5.1-2.9
		c-2,0-3.6,0.9-4.8,2.6C29.9,8.4,29.1,12.4,29.1,18.3z"/>
	<path class="st0" d="M54.8,36v-5h5v5c0,1.8-0.3,3.3-1,4.5c-0.7,1.1-1.7,2-3.1,2.6l-1.2-1.9c0.9-0.4,1.6-1,2.1-1.8
		c0.4-0.8,0.7-1.9,0.7-3.4H54.8z"/>
	<path class="st0" d="M73.1,16.6c-1.8-0.7-3.2-1.6-4.1-2.9c-0.9-1.2-1.3-2.7-1.3-4.4c0-2.6,0.9-4.8,2.8-6.6C72.4,0.9,74.9,0,78,0
		c3.1,0,5.6,0.9,7.5,2.7c1.9,1.8,2.9,4,2.9,6.6c0,1.7-0.4,3.1-1.3,4.3c-0.9,1.2-2.2,2.2-4,2.8c2.2,0.7,3.9,1.9,5,3.5
		c1.1,1.6,1.7,3.5,1.7,5.7c0,3.1-1.1,5.6-3.2,7.7c-2.2,2.1-5,3.1-8.5,3.1c-3.5,0-6.4-1-8.5-3.1c-2.2-2.1-3.2-4.7-3.2-7.8
		c0-2.3,0.6-4.3,1.8-5.8C69.2,18.2,70.9,17.1,73.1,16.6z M70.8,25.6c0,1.3,0.3,2.5,0.9,3.6c0.6,1.2,1.5,2.1,2.6,2.7
		c1.2,0.6,2.4,1,3.8,1c2.1,0,3.8-0.7,5.2-2c1.4-1.4,2.1-3.1,2.1-5.2c0-2.1-0.7-3.9-2.1-5.2c-1.4-1.4-3.2-2.1-5.3-2.1
		c-2.1,0-3.8,0.7-5.1,2.1C71.5,21.9,70.8,23.6,70.8,25.6z M72.2,9.1c0,1.7,0.5,3.1,1.6,4.2c1.1,1.1,2.5,1.6,4.2,1.6
		c1.7,0,3.1-0.5,4.2-1.6c1.1-1.1,1.6-2.4,1.6-3.9c0-1.6-0.6-3-1.7-4.1c-1.1-1.1-2.5-1.6-4.2-1.6c-1.7,0-3.1,0.5-4.2,1.6
		C72.7,6.3,72.2,7.6,72.2,9.1z"/>
	<path class="st0" d="M94.8,27.7l4.2-0.4c0.4,2,1,3.4,2.1,4.3c1,0.9,2.3,1.3,3.9,1.3c1.4,0,2.5-0.3,3.6-0.9c1-0.6,1.9-1.4,2.5-2.5
		c0.7-1,1.2-2.4,1.6-4.2s0.7-3.5,0.7-5.4c0-0.2,0-0.5,0-0.9c-0.9,1.4-2.1,2.5-3.6,3.4c-1.5,0.9-3.2,1.3-4.9,1.3
		c-3,0-5.5-1.1-7.5-3.2s-3.1-5-3.1-8.5c0-3.6,1.1-6.6,3.2-8.8c2.1-2.2,4.8-3.3,8-3.3c2.3,0,4.5,0.6,6.4,1.9c1.9,1.3,3.4,3,4.4,5.4
		s1.5,5.7,1.5,10.1c0,4.6-0.5,8.2-1.5,10.9c-1,2.7-2.5,4.8-4.4,6.2c-2,1.4-4.3,2.1-6.9,2.1c-2.8,0-5.1-0.8-6.9-2.3
		C96.2,32.7,95.1,30.5,94.8,27.7z M112.8,11.9c0-2.5-0.7-4.5-2-6c-1.3-1.5-3-2.2-4.8-2.2c-2,0-3.7,0.8-5.1,2.4
		c-1.4,1.6-2.2,3.7-2.2,6.2c0,2.3,0.7,4.1,2.1,5.6c1.4,1.4,3.1,2.1,5.1,2.1c2,0,3.7-0.7,5-2.1C112.1,16.4,112.8,14.4,112.8,11.9z"/>
</g>
</svg>
